<svg width="10" height="8" viewBox="0 0 10 8" fill="none" xmlns="http://www.w3.org/2000/svg">
<path d="M10 4C9.99678 3.64926 9.85546 3.31393 9.60669 3.06667L6.74669 0.200003C6.62178 0.0758362 6.45281 0.00614166 6.27669 0.00614166C6.10056 0.00614166 5.9316 0.0758362 5.80669 0.200003C5.7442 0.261979 5.69461 0.335713 5.66076 0.416952C5.62691 0.498191 5.60949 0.585328 5.60949 0.673336C5.60949 0.761344 5.62691 0.848481 5.66076 0.92972C5.69461 1.01096 5.7442 1.08469 5.80669 1.14667L8.00002 3.33333H1.33335C1.15654 3.33333 0.986974 3.40357 0.861949 3.5286C0.736925 3.65362 0.666687 3.82319 0.666687 4C0.666687 4.17681 0.736925 4.34638 0.861949 4.4714C0.986974 4.59643 1.15654 4.66667 1.33335 4.66667H8.00002L5.80669 6.86C5.68115 6.98465 5.61027 7.15406 5.60965 7.33097C5.60902 7.50788 5.6787 7.67779 5.80335 7.80333C5.92801 7.92886 6.09742 7.99974 6.27433 8.00037C6.45124 8.00099 6.62115 7.93131 6.74669 7.80666L9.60669 4.94C9.85708 4.6911 9.99853 4.35305 10 4Z" fill="#1843BF"/>
</svg>
