<svg width="1920" height="1360" viewBox="0 0 1920 1360" fill="none" xmlns="http://www.w3.org/2000/svg">
<path d="M1.23692e-10 796.937C1.23692e-10 796.937 94.3005 658.229 319.922 690.531C545.553 722.833 682.074 785.619 762.844 624.073C843.624 462.528 900.695 396.758 1043.97 426.793C1187.24 456.827 1480.62 437.826 1519.19 278.218C1557.76 118.609 1793.74 19.8405 1920 189.877V864H0L1.23692e-10 796.927V796.937Z" fill="url(#paint0_linear_7_605)"/>
<g clip-path="url(#clip0_7_605)">
<path d="M1501.52 359.97C1419.95 237.8 1254.8 204.89 1132.63 286.45C1126.65 290.44 1120.89 294.64 1115.34 299.02C1115.33 299.02 1115.31 299.04 1115.3 299.05C1110.92 302.15 1106.16 306.21 1101.21 310.99C1069.49 339.8 1046.05 375.11 1031.56 413.48C1007.71 450.35 958.69 500.4 886.77 512.38C799.8 526.87 804.62 626.77 775.81 708.54C747.01 790.31 684.89 809.4 684.89 809.4C684.89 809.4 695.91 810.75 796.28 818.81C896.65 826.87 1189.27 833.01 1228.46 830.21C1238.08 829.52 1241.96 806.32 1242.28 770.89C1304.99 779.97 1371.15 766.82 1428 728.86C1550.17 647.29 1583.08 482.14 1501.52 359.97Z" fill="url(#paint1_linear_7_605)"/>
<path opacity="0.6" d="M1484.83 264.44H814.76C803.068 264.44 793.59 273.918 793.59 285.61V689.18C793.59 700.872 803.068 710.35 814.76 710.35H1484.83C1496.52 710.35 1506 700.872 1506 689.18V285.61C1506 273.918 1496.52 264.44 1484.83 264.44Z" fill="url(#paint2_linear_7_605)"/>
<path d="M1505.99 672.65V392C1505 390.74 1504 389.49 1503 388.2C1374.27 222.2 1311.23 349.29 1197.74 475.43C1084.24 601.57 1027.46 368.62 916.65 528.27C871.75 592.96 829.01 620.24 793.58 629.46V672.64C793.58 693.46 810.46 710.34 831.28 710.34H1468.29C1489.11 710.34 1505.99 693.46 1505.99 672.64V672.65Z" fill="#9FBDFF" fill-opacity="0.8"/>
<path d="M1501.67 360.305C1428.71 251.035 1288.88 213.175 1172.75 264.775H769V681.375C769 703.466 786.909 721.375 809 721.375H1121.57C1209.27 786.675 1332.01 793.385 1428.14 729.205C1550.31 647.635 1583.22 482.485 1501.66 360.315L1501.67 360.305Z" fill="url(#paint3_linear_7_605)" fill-opacity="0.42"/>
<path opacity="0.8" d="M1280.31 773.64C1427.21 773.64 1546.29 654.557 1546.29 507.66C1546.29 360.763 1427.21 241.68 1280.31 241.68C1133.41 241.68 1014.33 360.763 1014.33 507.66C1014.33 654.557 1133.41 773.64 1280.31 773.64Z" fill="url(#paint4_linear_7_605)"/>
<path d="M1280.31 726.4C1401.12 726.4 1499.05 628.467 1499.05 507.66C1499.05 386.853 1401.12 288.92 1280.31 288.92C1159.5 288.92 1061.57 386.853 1061.57 507.66C1061.57 628.467 1159.5 726.4 1280.31 726.4Z" stroke="url(#paint5_linear_7_605)" stroke-width="0.8" stroke-miterlimit="10"/>
<path d="M1453.19 496.33L1035.93 435.88" stroke="url(#paint6_linear_7_605)" stroke-width="1.76" stroke-miterlimit="10"/>
<path d="M1163.29 391.65L1035.93 435.88" stroke="url(#paint7_linear_7_605)" stroke-width="1.76" stroke-miterlimit="10"/>
<path d="M1035.93 435.88L887.46 635.97" stroke="url(#paint8_linear_7_605)" stroke-width="1.76" stroke-miterlimit="10"/>
<path d="M1189.53 223.58L1035.93 435.88" stroke="url(#paint9_linear_7_605)" stroke-width="1.76" stroke-miterlimit="10"/>
<path d="M1507.93 239.7H837.86C826.168 239.7 816.69 249.178 816.69 260.87V664.44C816.69 676.132 826.168 685.61 837.86 685.61H1507.93C1519.62 685.61 1529.1 676.132 1529.1 664.44V260.87C1529.1 249.178 1519.62 239.7 1507.93 239.7Z" stroke="url(#paint10_linear_7_605)" stroke-width="1.09" stroke-miterlimit="10"/>
<path d="M1074.71 523.24C1074.71 523.24 1074.84 510.67 1074.43 507.56C1074.01 504.45 1085.03 488.18 1085.65 485.59C1086.27 483 1076.3 467.46 1073.34 462.64C1070.38 457.82 1072.15 440.17 1067.28 437.63C1062.41 435.09 1058.58 439.65 1057.65 443.54C1056.72 447.43 1042.12 454.61 1038.91 456.58C1035.7 458.55 1014.11 477.76 1010.86 482.19C1007.61 486.62 1007.84 490.23 1010.33 493.57C1012.82 496.91 1034.64 514.54 1036.5 517.18C1038.36 519.82 1041.22 560.63 1041.22 560.63C1041.22 560.63 1062.14 555.2 1071.09 546.43C1080.04 537.66 1074.73 523.24 1074.73 523.24H1074.71Z" fill="white"/>
<path d="M1060.62 444.09C1060.62 444.09 1063.46 442.2 1064.67 443.13C1065.88 444.06 1065.57 458.63 1067.18 461.24C1068.78 463.85 1078.92 482.68 1078.2 485.69C1077.48 488.7 1065.44 505.72 1064.81 510.34C1064.18 514.96 1064.14 551.25 1064.14 551.25C1064.14 551.25 1053.93 557.97 1047.3 560.63C1047.3 560.63 1040.83 549.97 1039.83 544.58C1038.83 539.19 1038.7 518.75 1035.88 516.49C1033.05 514.23 1014.81 497.29 1013.89 496.12C1012.98 494.95 1010.74 493.19 1010.92 491.04C1011.1 488.89 1014.74 481.93 1016.55 482.93C1018.36 483.93 1060.62 444.09 1060.62 444.09Z" fill="url(#paint11_linear_7_605)"/>
<path d="M1212.65 190.14H955.36C952.891 190.14 950.89 192.141 950.89 194.61V224.98C950.89 227.449 952.891 229.45 955.36 229.45H1212.65C1215.12 229.45 1217.12 227.449 1217.12 224.98V194.61C1217.12 192.141 1215.12 190.14 1212.65 190.14Z" fill="url(#paint12_linear_7_605)"/>
<path d="M1063.13 244.78H955.36C952.891 244.78 950.89 246.781 950.89 249.25V279.62C950.89 282.089 952.891 284.09 955.36 284.09H1063.13C1065.6 284.09 1067.6 282.089 1067.6 279.62V249.25C1067.6 246.781 1065.6 244.78 1063.13 244.78Z" fill="url(#paint13_linear_7_605)"/>
<path d="M865.09 608.18C855.61 545.18 1031.81 466.43 1258.65 432.28C1485.49 398.13 1677.07 421.52 1686.55 484.52" stroke="url(#paint14_linear_7_605)" stroke-width="1.09" stroke-miterlimit="10"/>
<path d="M1629.01 179.24H1441.29C1429.92 179.24 1420.7 188.458 1420.7 199.83V417.2C1420.7 428.572 1429.92 437.79 1441.29 437.79H1629.01C1640.38 437.79 1649.6 428.572 1649.6 417.2V199.83C1649.6 188.458 1640.38 179.24 1629.01 179.24Z" fill="url(#paint15_linear_7_605)"/>
<path d="M1432.55 520.46C1426.9 505.87 1414.44 488.38 1404.83 481.28C1402.17 479.32 1399.15 480.45 1397.63 479.75C1390.61 476.49 1370.28 469.65 1325.9 454.26C1311.29 449.19 1310.89 438.72 1303.92 436.5C1289.79 431.99 1277.85 439.81 1269.97 443.8C1258.2 449.74 1231.1 462.65 1208.24 469.34C1188.34 475.16 1176.81 476.31 1169.06 496.33C1163.03 511.91 1137.45 549.57 1124.94 576.01C1112.42 602.45 1112.9 594.03 1104.76 576.23C1096.63 558.43 1075.11 510.4 1075.11 510.4C1075.11 510.4 1071.75 518.76 1054.73 532.98C1037.99 546.96 1028.48 550.93 1027.45 544.7C1026.53 539.17 1041.47 611.08 1046.49 631.43C1048.42 639.26 1051.58 652.68 1058.4 665.05C1066.85 680.37 1094.87 706.22 1120.53 709.71C1125.31 710.36 1135.27 693.93 1149.25 672.17C1166.75 644.94 1172.38 630.88 1173.17 634.95C1174.05 639.47 1189.05 703.47 1189.53 712.95C1189.59 714.11 1173.69 734.1 1169.78 749.59C1166.66 761.91 1160.6 783.37 1158.06 804C1156.43 817.25 1162.17 814.39 1161.98 816.45C1160.53 832.54 1160.26 834.33 1160.29 837.95C1254.01 830.21 1325.41 825.26 1404.32 797.65C1415.4 793.65 1435.74 788.46 1439.09 783.94C1445.43 775.39 1416.22 751.36 1424.77 735.63C1429.02 727.82 1440.15 693.17 1446.47 664.55C1449.52 650.74 1445.27 553.31 1432.55 520.46Z" fill="#197CE1"/>
<path d="M1074.66 512.08C1074.66 512.08 1074.84 510.67 1074.42 507.56C1074 504.45 1085.02 488.18 1085.64 485.59C1086.26 483 1076.29 467.46 1073.33 462.64C1070.37 457.82 1072.14 440.17 1067.27 437.63C1062.4 435.09 1058.57 439.65 1057.64 443.54C1056.71 447.43 1042.11 454.61 1038.9 456.58C1035.69 458.55 1014.1 477.76 1010.85 482.19C1007.6 486.62 1007.83 490.23 1010.32 493.57C1012.81 496.91 1034.63 514.54 1036.49 517.18C1038.35 519.82 1039.86 543.72 1039.86 543.72" stroke="#113291" stroke-width="1.19" stroke-linecap="round" stroke-linejoin="round"/>
<path d="M1019.53 484.02C1019.53 484.02 1020.68 490.63 1021.46 495.02C1022.24 499.41 1027.01 498.54 1027.01 498.54C1027.01 498.54 1066.26 496.38 1068.97 495.75C1071.68 495.12 1067.84 485.98 1067.84 485.98L1045.27 398.76C1045.27 398.76 1044.97 394.67 1040.19 394.8C1035.41 394.93 1000.94 393.98 1000.94 393.98C1000.94 393.98 995.33 393 996.9 399.4C998.47 405.8 1006.82 435.74 1006.82 435.74" stroke="#113291" stroke-width="1.19" stroke-linecap="round" stroke-linejoin="round"/>
<path d="M1022.57 481.74C1022.57 481.74 1023.72 488.35 1024.5 492.74C1025.28 497.13 1030.05 496.26 1030.05 496.26C1030.05 496.26 1069.3 494.1 1072.01 493.47C1074.72 492.84 1070.88 483.7 1070.88 483.7L1048.31 396.48C1048.31 396.48 1048.01 392.39 1043.23 392.52C1038.45 392.65 1003.98 391.7 1003.98 391.7C1003.98 391.7 998.37 390.72 999.94 397.12C1001.51 403.52 1009.86 433.46 1009.86 433.46L1023.31 480.44C1019.7 478.73 1014.11 480.75 1014.11 480.75" fill="url(#paint16_linear_7_605)"/>
<path d="M1250.49 451.87C1250.49 451.87 1271.74 443.7 1276.43 443.8C1281.12 443.9 1306.38 442.87 1308.65 450.94C1317.46 482.21 1308.13 540.31 1311.47 585.51C1313.8 617.01 1331.44 683.75 1348.32 703.87C1350.24 706.16 1331.17 724.11 1269.15 721.46C1241.78 720.29 1215.66 718.78 1215.91 714.64C1219.49 655.29 1211.26 590.42 1211.12 580.32C1210.83 558.85 1216.35 548.85 1223.32 524.27C1237.69 473.61 1250.49 451.87 1250.49 451.87Z" fill="#F9B471"/>
<path d="M1249.06 430.89C1249.06 430.89 1249.83 452.27 1248.59 456.45C1247.35 460.63 1261.32 467.69 1264.07 469.1C1267.49 470.86 1309.77 456.89 1309.77 456.89C1309.77 456.89 1303.4 405.34 1302.47 399.77C1301.54 394.2 1249.06 430.89 1249.06 430.89Z" fill="#FBFEF9"/>
<path d="M1212.65 343.11C1212.65 343.11 1201.7 377.89 1199.5 394.41C1197.3 410.93 1195.11 418.9 1204.91 425.94C1214.7 432.98 1240.71 445.29 1250.93 432.05C1261.15 418.81 1264.98 351.47 1244.95 343.11C1224.92 334.75 1212.65 343.11 1212.65 343.11Z" fill="url(#paint17_linear_7_605)"/>
<path d="M1239.34 277.18C1239.34 277.18 1214.75 286.47 1199.6 306.59C1184.29 326.92 1208.09 348.64 1221.61 354.23C1235.13 359.83 1266.48 298.75 1263.23 295.27C1259.98 291.79 1239.34 277.18 1239.34 277.18Z" fill="url(#paint18_linear_7_605)"/>
<path d="M1238.85 296.97C1237.46 298.53 1215.63 320.49 1216.09 340.33C1216.55 360.17 1218.95 368.38 1216.8 377.67C1214.65 386.96 1210.05 401.75 1219.46 415.16C1226.56 425.29 1239.54 438.65 1247.26 438.65C1260.74 438.65 1305.96 405.81 1316.53 402.79C1327.1 399.77 1367.04 373.99 1340.1 347.06C1313.16 320.12 1238.85 296.97 1238.85 296.97Z" fill="#FBFEF9"/>
<path d="M1310.67 440.39C1310.67 440.39 1312.53 452.16 1345.97 462.06C1379.41 471.97 1394.51 479.5 1399.95 480.84" stroke="#113291" stroke-width="1.78" stroke-linecap="round"/>
<path d="M1309.24 445.25C1308.85 441.34 1301.82 404.24 1304.55 392.91" stroke="#113291" stroke-width="2.37" stroke-linecap="round"/>
<path d="M1297.13 375.08C1297.13 373.91 1305.29 355.42 1318.07 360.04C1330.85 364.66 1321.88 392.13 1305.56 392.95" stroke="#113291" stroke-width="2.37" stroke-linecap="round"/>
<path d="M1304.7 381.96C1304.7 381.96 1311.73 368.68 1314.86 368.29" stroke="#113291" stroke-width="1.19" stroke-linecap="round"/>
<path d="M1213.46 349.66C1211.19 348.38 1189.32 330.41 1195.57 314.01C1201.82 297.6 1225.65 283.93 1225.65 283.93" stroke="#113291" stroke-width="1.19" stroke-linecap="round"/>
<path d="M1241.3 437.11C1241.3 437.11 1223.14 441.73 1200.12 421.17C1191.26 413.26 1210.06 354.24 1210.06 354.24" stroke="#113291" stroke-width="1.19" stroke-linecap="round"/>
<path d="M1347.99 425.78C1347.99 425.78 1357.38 421.27 1359.65 397.98C1361.92 374.69 1356.67 325.69 1332.05 303.59C1307.43 281.49 1254.39 273.07 1237.92 273.36C1219.54 273.69 1223.2 283.92 1226.39 293.78C1229.75 304.18 1241.3 326.39 1274.83 348.84C1289.8 358.86 1301.72 366.73 1301.72 366.73C1301.72 366.73 1309.5 355.82 1318.07 360.04C1328.95 365.4 1323.14 381.64 1317.35 386.94C1311.56 392.24 1308.71 392.44 1304.55 392.9C1304.55 392.9 1302.99 418.29 1309.24 445.24C1310.08 448.85 1343.86 429.73 1347.99 425.78Z" fill="url(#paint19_linear_7_605)"/>
<path d="M1265.71 362.746C1265.93 359.401 1264.12 356.561 1261.68 356.402C1259.23 356.243 1257.07 358.827 1256.85 362.172C1256.64 365.517 1258.44 368.358 1260.89 368.517C1263.34 368.675 1265.5 366.092 1265.71 362.746Z" fill="#0D2265"/>
<path d="M1248.91 399.52C1250.03 401.08 1254.76 402.57 1256.98 403.12C1252.77 404.01 1248.58 405.9 1245.02 406.21C1240.73 406.59 1237.32 405.31 1235.53 405.26C1237.01 403.47 1240.12 399.74 1240.65 399.12C1241.32 398.34 1242.09 400.3 1243.77 399.71C1245.44 399.12 1247.51 397.57 1248.91 399.52Z" fill="#9C9C9C"/>
<path d="M1239.46 384.42C1243.85 383.83 1251.52 387.68 1252.8 388.03C1248.14 388.31 1238.62 388.57 1234.45 388.66C1234.66 387.44 1235.95 384.89 1239.47 384.42H1239.46Z" fill="#C4C4C4"/>
<path d="M1253.19 363.49C1253.94 362.15 1254.51 358.08 1260.63 356.84C1268.28 355.29 1274.05 362.39 1275.4 362.88C1276.74 363.37 1281.08 362.21 1283.12 362.03" stroke="#113291" stroke-width="2.23" stroke-linecap="round" stroke-linejoin="round"/>
<path d="M1257.73 351.39C1261.99 348.85 1276.18 349.87 1288.17 357.51C1288.36 357.54 1288.99 357.46 1290.02 356.89C1291.31 356.18 1271.73 341.77 1265.85 342.05C1261.15 342.28 1258.2 345.92 1257.31 347.71C1257.4 345.82 1257.39 342.29 1256.66 343.29C1255.75 344.53 1252.41 354.57 1257.73 351.4V351.39Z" fill="#0D2265"/>
<path d="M1075.03 509.82C1075.03 509.82 1113.3 594.5 1114.69 599.6" stroke="#113291" stroke-width="1.78" stroke-linecap="round"/>
<path d="M1280.31 804.82C1444.43 804.82 1577.47 671.777 1577.47 507.66C1577.47 343.543 1444.43 210.5 1280.31 210.5C1116.19 210.5 983.15 343.543 983.15 507.66C983.15 671.777 1116.19 804.82 1280.31 804.82Z" stroke="url(#paint20_linear_7_605)" stroke-width="1.76" stroke-miterlimit="10"/>
<path d="M1380.1 252.2C1343.61 237.99 1303.7 231.63 1264.64 233.83L1262.07 188.06C1307.61 185.5 1354.19 192.91 1396.75 209.48L1380.11 252.2H1380.1Z" fill="#ED6921"/>
<path d="M1143.55 680.81C1133.68 694.98 1123.32 710.58 1120.53 709.71C1114.73 707.92 1091.86 699.83 1087.94 696.76C1052.71 669.19 1050.12 648.57 1044.92 625.35C1030.93 562.81 1026.39 540.35 1027.56 545.25C1028.43 548.89 1031.98 548.37 1038.65 544.77C1040.05 544.01 1060.92 647.92 1068.03 656.37C1097.87 691.83 1145.79 677.58 1143.55 680.8V680.81Z" fill="url(#paint21_linear_7_605)"/>
<path d="M1584.49 216.76H1493.11C1481.4 216.76 1471.91 226.25 1471.91 237.96V376.47L1479.53 368.85L1487.15 376.47L1494.77 368.85L1502.39 376.47L1510.01 368.85L1517.63 376.47L1525.25 368.85L1532.87 376.47L1540.49 368.85L1548.11 376.47L1555.73 368.85L1563.35 376.47V237.96C1563.35 226.25 1572.84 216.76 1584.55 216.76" fill="white"/>
<path d="M1584.49 216.76H1493.11C1481.4 216.76 1471.91 226.25 1471.91 237.96V376.47L1479.53 368.85L1487.15 376.47L1494.77 368.85L1502.39 376.47L1510.01 368.85L1517.63 376.47L1525.25 368.85L1532.87 376.47L1540.49 368.85L1548.11 376.47L1555.73 368.85L1563.35 376.47V237.96C1563.35 226.25 1572.84 216.76 1584.55 216.76" stroke="url(#paint22_linear_7_605)" stroke-width="1.78" stroke-linecap="round" stroke-linejoin="round"/>
<path d="M1584.49 216.76C1572.78 216.76 1563.29 226.25 1563.29 237.96V267.09H1605.7V237.96C1605.7 226.25 1596.21 216.76 1584.5 216.76H1584.49Z" stroke="url(#paint23_linear_7_605)" stroke-width="1.78" stroke-linecap="round" stroke-linejoin="round"/>
<path d="M1127.42 490.05C1143.52 490.05 1156.58 476.995 1156.58 460.89C1156.58 444.785 1143.52 431.73 1127.42 431.73C1111.32 431.73 1098.26 444.785 1098.26 460.89C1098.26 476.995 1111.32 490.05 1127.42 490.05Z" fill="url(#paint24_linear_7_605)"/>
<path d="M1121.03 431.73H1127.82C1143.93 431.73 1156.98 444.79 1156.98 460.89C1156.98 476.99 1143.92 490.05 1127.82 490.05H1121.03" stroke="#E8F1FF" stroke-width="1.19" stroke-miterlimit="10"/>
<path d="M1121.03 490.05C1137.13 490.05 1150.19 476.995 1150.19 460.89C1150.19 444.785 1137.13 431.73 1121.03 431.73C1104.93 431.73 1091.87 444.785 1091.87 460.89C1091.87 476.995 1104.93 490.05 1121.03 490.05Z" fill="url(#paint25_linear_7_605)"/>
<path d="M1118.83 466.94L1121.63 456.28H1126.69L1128.71 449.99H1123.28L1125.34 442.14H1118.5L1116.48 449.99H1110.19L1108.62 456.28H1114.86L1110.19 474.45H1135.78L1138.49 466.94H1118.83Z" stroke="#E8F1FF" stroke-width="1.19" stroke-miterlimit="10"/>
<path d="M1137.91 437.11H1144.7" stroke="#E8F1FF" stroke-width="1.19" stroke-miterlimit="10"/>
<path d="M1143.4 442.14H1150.2" stroke="#E8F1FF" stroke-width="1.19" stroke-miterlimit="10"/>
<path d="M1147.82 449.11H1154.61" stroke="#E8F1FF" stroke-width="1.19" stroke-miterlimit="10"/>
<path d="M1150.2 457.73H1156.99" stroke="#E8F1FF" stroke-width="1.19" stroke-miterlimit="10"/>
<path d="M1149.79 466.46H1156.58" stroke="#E8F1FF" stroke-width="1.19" stroke-miterlimit="10"/>
<path d="M1146.8 474.45H1153.59" stroke="#E8F1FF" stroke-width="1.19" stroke-miterlimit="10"/>
<path d="M1140.01 482.88H1146.8" stroke="#E8F1FF" stroke-width="1.19" stroke-miterlimit="10"/>
<path d="M1121.03 490.05C1137.13 490.05 1150.19 476.995 1150.19 460.89C1150.19 444.785 1137.13 431.73 1121.03 431.73C1104.93 431.73 1091.87 444.785 1091.87 460.89C1091.87 476.995 1104.93 490.05 1121.03 490.05Z" stroke="#E8F1FF" stroke-width="1.19" stroke-miterlimit="10"/>
<path d="M1121.03 485.9C1134.84 485.9 1146.04 474.703 1146.04 460.89C1146.04 447.077 1134.84 435.88 1121.03 435.88C1107.22 435.88 1096.02 447.077 1096.02 460.89C1096.02 474.703 1107.22 485.9 1121.03 485.9Z" stroke="#E8F1FF" stroke-width="1.19" stroke-miterlimit="10"/>
<path d="M1048.78 447.619C1053.45 442.5 1051.49 433.118 1044.41 426.664C1037.32 420.211 1027.8 419.129 1023.14 424.248C1018.47 429.367 1020.43 438.749 1027.51 445.203C1034.6 451.656 1044.12 452.738 1048.78 447.619Z" stroke="#E8F1FF" stroke-width="1.57" stroke-miterlimit="10"/>
<path d="M1082.31 389.37C1110 389.37 1132.45 361.401 1132.45 326.9C1132.45 292.399 1110 264.43 1082.31 264.43C1054.62 264.43 1032.17 292.399 1032.17 326.9C1032.17 361.401 1054.62 389.37 1082.31 389.37Z" fill="url(#paint26_linear_7_605)"/>
<path d="M1091.84 389.37C1119.53 389.37 1141.98 361.401 1141.98 326.9C1141.98 292.399 1119.53 264.43 1091.84 264.43C1064.15 264.43 1041.7 292.399 1041.7 326.9C1041.7 361.401 1064.15 389.37 1091.84 389.37Z" stroke="#113291" stroke-width="1.1" stroke-linecap="round" stroke-linejoin="round"/>
<path d="M1082.31 389.37C1110 389.37 1132.45 361.401 1132.45 326.9C1132.45 292.399 1110 264.43 1082.31 264.43C1054.62 264.43 1032.17 292.399 1032.17 326.9C1032.17 361.401 1054.62 389.37 1082.31 389.37Z" stroke="url(#paint27_linear_7_605)" stroke-width="1.09" stroke-miterlimit="10"/>
<path d="M1068.32 319.27L1083.46 341.58L1107.41 306.02" stroke="white" stroke-width="11.02" stroke-miterlimit="10"/>
<path opacity="0.4" d="M757.43 404.81C754.88 403.34 754.87 400.95 757.41 399.47L846.75 347.55C849.29 346.08 853.4 346.08 855.95 347.55L945.88 399.47C948.43 400.94 948.45 403.33 945.91 404.8L856.57 456.72C854.03 458.19 849.91 458.2 847.36 456.72L757.43 404.8V404.81Z" fill="url(#paint28_linear_7_605)"/>
<path d="M860.59 361.66L781.75 407.18L775.56 403.58L854.4 358.06L860.59 361.66ZM845.32 417.17L900.9 385.08L894.71 381.48L839.13 413.57L845.32 417.17ZM829.52 395.16L874.02 369.47L867.83 365.87L823.33 391.56L829.52 395.16ZM832.32 417.5L815.86 427L822.05 430.6L838.51 421.1L832.32 417.5ZM875.93 384.23L887.72 377.42L881.01 373.52L869.22 380.33L875.93 384.23ZM851.64 390.47L858.35 394.37L870.14 387.56L863.43 383.66L851.64 390.47ZM842.73 442.62L848.92 446.22L880.42 428.03L874.23 424.43L842.73 442.62ZM884.77 402.78L829.29 434.81L835.48 438.41L890.96 406.38L884.77 402.78ZM921.58 397.1L880.23 420.97L886.42 424.57L927.77 400.7L921.58 397.1ZM817.23 395.08L788.98 411.39L795.17 414.99L823.42 398.68L817.23 395.08ZM846.11 393.97L802.42 419.19L808.61 422.79L852.3 397.57L846.11 393.97ZM896.76 403.04L914.33 392.89L908.14 389.29L890.57 399.44L896.76 403.04Z" fill="#F1F6FF" fill-opacity="0.5"/>
<path d="M757.43 396.24C754.88 394.77 754.87 392.38 757.41 390.9L846.75 338.98C849.29 337.51 853.4 337.51 855.95 338.98L945.88 390.9C948.43 392.37 948.45 394.76 945.91 396.23L856.57 448.15C854.03 449.62 849.91 449.63 847.36 448.15L757.43 396.23V396.24Z" stroke="url(#paint29_linear_7_605)" stroke-width="1.76" stroke-miterlimit="10"/>
<path opacity="0.6" d="M847.36 290.94C849.91 289.47 854.04 289.47 856.57 290.94L945.91 342.86C948.45 344.33 948.43 346.72 945.88 348.19L855.95 400.11C853.4 401.58 849.28 401.58 846.75 400.11L757.41 348.19C754.87 346.72 754.88 344.33 757.43 342.85L847.36 290.93V290.94Z" fill="url(#paint30_linear_7_605)"/>
<path d="M927.77 344.1L848.93 389.62L842.74 386.02L921.58 340.5L927.77 344.1ZM858 330.51L802.42 362.6L808.61 366.2L864.19 334.11L858 330.51ZM873.8 352.52L829.3 378.21L835.49 381.81L879.99 356.12L873.8 352.52ZM871 330.18L887.46 320.68L881.27 317.08L864.81 326.58L871 330.18ZM827.39 363.45L815.6 370.26L822.31 374.16L834.1 367.35L827.39 363.45ZM833.18 360.11L839.89 364.01L851.68 357.2L844.97 353.3L833.18 360.11ZM860.59 305.06L854.4 301.46L822.9 319.65L829.09 323.25L860.59 305.06ZM818.55 344.9L874.03 312.87L867.84 309.27L812.36 341.3L818.55 344.9ZM816.9 323.11L775.55 346.98L781.74 350.58L823.09 326.71L816.9 323.11ZM886.09 352.61L914.34 336.3L908.15 332.7L879.9 349.01L886.09 352.61ZM857.21 353.72L900.9 328.5L894.71 324.9L851.02 350.12L857.21 353.72ZM806.56 344.65L788.99 354.8L795.18 358.4L812.75 348.25L806.56 344.65Z" fill="#F1F6FF" fill-opacity="0.5"/>
<path d="M757.43 340.42C754.88 338.95 754.87 336.56 757.41 335.08L846.75 283.16C849.29 281.69 853.4 281.69 855.95 283.16L945.88 335.08C948.43 336.55 948.45 338.94 945.91 340.41L856.57 392.33C854.03 393.8 849.91 393.81 847.36 392.33L757.43 340.41V340.42Z" stroke="url(#paint31_linear_7_605)" stroke-width="1.76" stroke-miterlimit="10"/>
<path opacity="0.8" d="M757.43 291.59C754.88 290.12 754.87 287.73 757.41 286.25L846.75 234.33C849.29 232.86 853.4 232.86 855.95 234.33L945.88 286.25C948.43 287.72 948.45 290.11 945.91 291.58L856.57 343.5C854.03 344.97 849.91 344.98 847.36 343.5L757.43 291.58V291.59Z" fill="url(#paint32_linear_7_605)"/>
<path d="M860.59 248.44L781.75 293.96L775.56 290.36L854.4 244.84L860.59 248.44ZM845.32 303.95L900.9 271.86L894.71 268.26L839.13 300.35L845.32 303.95ZM829.52 281.94L874.02 256.25L867.83 252.65L823.33 278.34L829.52 281.94ZM832.32 304.28L815.86 313.78L822.05 317.38L838.51 307.88L832.32 304.28ZM875.93 271.01L887.72 264.2L881.01 260.3L869.22 267.11L875.93 271.01ZM851.64 277.25L858.35 281.15L870.14 274.34L863.43 270.44L851.64 277.25ZM842.73 329.4L848.92 333L880.42 314.81L874.23 311.21L842.73 329.4ZM884.77 289.56L829.29 321.59L835.48 325.19L890.96 293.16L884.77 289.56ZM921.58 283.88L880.23 307.75L886.42 311.35L927.77 287.48L921.58 283.88ZM817.23 281.86L788.98 298.17L795.17 301.77L823.42 285.46L817.23 281.86ZM846.11 280.75L802.42 305.97L808.61 309.57L852.3 284.35L846.11 280.75ZM896.76 289.82L914.33 279.67L908.14 276.07L890.57 286.22L896.76 289.82Z" fill="#F1F6FF" fill-opacity="0.5"/>
<path d="M757.43 284.61C754.88 283.14 754.87 280.75 757.41 279.27L846.75 227.35C849.29 225.88 853.4 225.88 855.95 227.35L945.88 279.27C948.43 280.74 948.45 283.13 945.91 284.6L856.57 336.52C854.03 337.99 849.91 338 847.36 336.52L757.43 284.6V284.61Z" stroke="url(#paint33_linear_7_605)" stroke-width="1.76" stroke-miterlimit="10"/>
<path d="M1031.93 421C1031.43 418.82 1008.42 328.98 1008.42 328.98H1032.31" stroke="url(#paint34_linear_7_605)" stroke-width="1.76" stroke-miterlimit="10"/>
<path d="M1020.76 433.41H881.94" stroke="url(#paint35_linear_7_605)" stroke-width="1.76" stroke-miterlimit="10"/>
<path d="M1383.81 248.36C1347.32 234.15 1307.41 227.79 1268.35 229.99L1265.78 184.22C1311.32 181.66 1357.9 189.07 1400.46 205.64L1383.82 248.36H1383.81Z" stroke="url(#paint36_linear_7_605)" stroke-width="1.09" stroke-miterlimit="10"/>
<path d="M989.27 200.97H1182.07" stroke="url(#paint37_linear_7_605)" stroke-width="1.76" stroke-linecap="round" stroke-linejoin="round"/>
<path d="M989.27 209.8H1085.67" stroke="url(#paint38_linear_7_605)" stroke-width="1.76" stroke-linecap="round" stroke-linejoin="round"/>
<path d="M989.27 218.62H1096.57" stroke="url(#paint39_linear_7_605)" stroke-width="1.76" stroke-linecap="round" stroke-linejoin="round"/>
<path d="M989.27 256.83H1046.73" stroke="url(#paint40_linear_7_605)" stroke-width="1.76" stroke-linecap="round" stroke-linejoin="round"/>
<path d="M989.27 265.66H1019.55" stroke="url(#paint41_linear_7_605)" stroke-width="1.76" stroke-linecap="round" stroke-linejoin="round"/>
<path d="M989.27 274.48H1040.85" stroke="url(#paint42_linear_7_605)" stroke-width="1.76" stroke-linecap="round" stroke-linejoin="round"/>
<path d="M970.93 219.82C976.464 219.82 980.95 215.334 980.95 209.8C980.95 204.266 976.464 199.78 970.93 199.78C965.396 199.78 960.91 204.266 960.91 209.8C960.91 215.334 965.396 219.82 970.93 219.82Z" stroke="url(#paint43_linear_7_605)" stroke-width="1.78" stroke-linecap="round" stroke-linejoin="round"/>
<path d="M970.93 274.46C976.464 274.46 980.95 269.974 980.95 264.44C980.95 258.906 976.464 254.42 970.93 254.42C965.396 254.42 960.91 258.906 960.91 264.44C960.91 269.974 965.396 274.46 970.93 274.46Z" stroke="url(#paint44_linear_7_605)" stroke-width="1.78" stroke-linecap="round" stroke-linejoin="round"/>
<path opacity="0.8" d="M1550.13 253.08H1481.9V261.78H1550.13V253.08Z" fill="url(#paint45_linear_7_605)"/>
<path opacity="0.8" d="M1550.13 317.29H1481.9V325.99H1550.13V317.29Z" fill="url(#paint46_linear_7_605)"/>
<path opacity="0.8" d="M1535.62 269.13H1481.9V277.83H1535.62V269.13Z" fill="url(#paint47_linear_7_605)"/>
<path opacity="0.8" d="M1550.13 285.19H1481.9V293.89H1550.13V285.19Z" fill="url(#paint48_linear_7_605)"/>
<path opacity="0.8" d="M1550.13 333.34H1481.9V342.04H1550.13V333.34Z" fill="url(#paint49_linear_7_605)"/>
<path opacity="0.8" d="M1535.62 301.24H1481.9V309.94H1535.62V301.24Z" fill="url(#paint50_linear_7_605)"/>
<path d="M1031.93 421C1031.43 418.82 1024.6 392.23 1024.6 392.23" stroke="#E8F1FF" stroke-width="1.57" stroke-miterlimit="10"/>
<path d="M1009.86 433.48L1020.76 433.41" stroke="#E8F1FF" stroke-width="1.57" stroke-miterlimit="10"/>
<path d="M1023.35 489.37C1037.65 484.23 1052.71 479.24 1068.45 474.45" stroke="url(#paint51_linear_7_605)" stroke-width="1.09" stroke-miterlimit="10"/>
<path d="M1007.54 491.26C1007.54 491.26 1006.53 480.43 1006.93 477.97C1007.34 475.51 1000.68 472.82 999.09 468.79C997.5 464.76 1003.93 456.98 1003.56 454.7C1003.37 453.5 996.75 448.28 994.99 446.94C991.78 444.49 994.06 438.64 996.52 437.91C1001.09 436.55 1017.93 435.5 1020.2 438.42C1022.47 441.34 1019.84 445.09 1018.3 446.36C1016.76 447.63 1007.44 450.7 1009.52 451.2C1011.6 451.7 1024.1 457.43 1027.6 458.82C1031.1 460.21 1036.79 463.91 1036.8 466.94C1036.8 469.97 1034.04 473.88 1030.76 473.09C1027.48 472.3 1025.5 472.19 1025.5 472.19C1025.5 472.19 1036.85 478.93 1037.73 480.6C1038.61 482.27 1035.63 486.31 1033.1 486.98C1030.57 487.65 1020.44 483.4 1016.87 483.82C1013.3 484.24 1009.51 492.83 1007.55 491.27L1007.54 491.26Z" fill="white"/>
<path d="M1011.04 466.66C1011.04 466.66 1017.51 467.97 1023 469.52C1028.49 471.07 1032.92 473.77 1034.92 471.52C1036.92 469.27 1037.6 464.75 1033.28 462.08C1028.96 459.41 1017.51 454.43 1015.83 453.71C1014.15 452.99 1005.04 453.31 1005.04 453.31" stroke="#113291" stroke-width="1.19" stroke-linecap="round" stroke-linejoin="round"/>
<path d="M1016.29 468.62C1016.29 468.62 1021.68 469.13 1026.17 472.25C1030.65 475.37 1037.61 479.4 1037.71 480.59C1037.82 481.78 1036.04 485.76 1033.08 486.97C1030.12 488.18 1017.71 482.68 1015.99 482.88C1014.27 483.07 1012.1 486.13 1012.1 486.13" stroke="#113291" stroke-width="1.19" stroke-linecap="round" stroke-linejoin="round"/>
<path d="M1013.41 447.29C1013.41 447.29 997.58 447.09 998.55 448.51C999.52 449.93 1003.49 452.32 1003.45 452.63C1003.41 452.94 1016.47 453.44 1015.6 452.4C1014.73 451.36 1013.4 447.3 1013.4 447.3L1013.41 447.29Z" fill="url(#paint52_linear_7_605)"/>
<path d="M1041.19 450.78L1049.27 480.5" stroke="#E8F1FF" stroke-width="1.57" stroke-miterlimit="10"/>
<path opacity="0.43" d="M893.71 629.03H879.82V642.92H893.71V629.03Z" fill="url(#paint53_linear_7_605)"/>
<path opacity="0.43" d="M892.39 630.34H881.14V641.59H892.39V630.34Z" stroke="url(#paint54_linear_7_605)" stroke-width="0.26" stroke-miterlimit="10"/>
<path opacity="0.43" d="M1175.15 379.79H1151.43V403.51H1175.15V379.79Z" fill="url(#paint55_linear_7_605)"/>
<path opacity="0.43" d="M1172.9 382.04H1153.68V401.26H1172.9V382.04Z" stroke="url(#paint56_linear_7_605)" stroke-width="0.44" stroke-miterlimit="10"/>
<path opacity="0.43" d="M1465.04 484.47H1441.32V508.19H1465.04V484.47Z" fill="url(#paint57_linear_7_605)"/>
<path opacity="0.43" d="M1462.8 486.72H1443.58V505.94H1462.8V486.72Z" stroke="url(#paint58_linear_7_605)" stroke-width="0.44" stroke-miterlimit="10"/>
<path opacity="0.43" d="M1200.54 214.57H1176.82V238.29H1200.54V214.57Z" fill="url(#paint59_linear_7_605)"/>
<path opacity="0.43" d="M1198.29 216.83H1179.07V236.05H1198.29V216.83Z" stroke="url(#paint60_linear_7_605)" stroke-width="0.44" stroke-miterlimit="10"/>
<path d="M918.82 571.7C940.9 571.7 958.8 553.8 958.8 531.72C958.8 509.64 940.9 491.74 918.82 491.74C896.739 491.74 878.84 509.64 878.84 531.72C878.84 553.8 896.739 571.7 918.82 571.7Z" fill="url(#paint61_linear_7_605)"/>
<path opacity="0.43" d="M901.87 520.05H935.76" stroke="url(#paint62_linear_7_605)" stroke-width="0.69" stroke-miterlimit="10"/>
<path opacity="0.43" d="M901.87 528.74H935.76" stroke="url(#paint63_linear_7_605)" stroke-width="0.69" stroke-miterlimit="10"/>
<path opacity="0.43" d="M901.87 537.43H921.15" stroke="url(#paint64_linear_7_605)" stroke-width="0.69" stroke-miterlimit="10"/>
<path opacity="0.43" d="M901.87 546.12H921.15" stroke="url(#paint65_linear_7_605)" stroke-width="0.69" stroke-miterlimit="10"/>
<path d="M1617.01 194.53H1429.29C1417.92 194.53 1408.7 203.748 1408.7 215.12V432.49C1408.7 443.862 1417.92 453.08 1429.29 453.08H1617.01C1628.38 453.08 1637.6 443.862 1637.6 432.49V215.12C1637.6 203.748 1628.38 194.53 1617.01 194.53Z" stroke="url(#paint66_linear_7_605)" stroke-width="1.76" stroke-miterlimit="10"/>
<path d="M1551.55 549.06C1588.05 549.06 1617.64 514.053 1617.64 470.87C1617.64 427.687 1588.05 392.68 1551.55 392.68C1515.05 392.68 1485.46 427.687 1485.46 470.87C1485.46 514.053 1515.05 549.06 1551.55 549.06Z" fill="#FF7E2F"/>
<path d="M1541.08 549.06C1577.58 549.06 1607.17 514.053 1607.17 470.87C1607.17 427.687 1577.58 392.68 1541.08 392.68C1504.58 392.68 1474.99 427.687 1474.99 470.87C1474.99 514.053 1504.58 549.06 1541.08 549.06Z" fill="#FEB36F"/>
<path d="M1497.98 464.21L1517.54 433.24H1534.05L1514.49 464.21H1497.98ZM1510.52 490.26L1539.12 444.96C1541.22 441.47 1543.57 438.25 1546.14 435.36C1549.14 432.02 1552.66 429.62 1556.44 428.31C1561.35 426.58 1566.53 426.75 1571.37 428.8C1576.16 430.82 1580.35 434.84 1583.31 440.27C1587.07 447.39 1588.65 456.15 1587.73 464.78C1587.31 469.03 1586.25 473.13 1584.63 476.83C1583.01 480.53 1580.86 483.77 1578.3 486.35C1575.37 489.25 1571.98 491.21 1568.39 492.08C1566.36 492.65 1564.3 492.96 1562.22 493H1554.15L1539.54 516.19H1523.08L1546.47 479.1L1548.38 476.06H1559.25C1563.07 476.06 1567.1 476.06 1570.41 473.19H1570.47C1572.02 471.76 1573.29 469.86 1574.19 467.64C1575.08 465.42 1575.57 462.96 1575.62 460.44C1575.66 457.92 1575.26 455.43 1574.44 453.16C1573.62 450.89 1572.41 448.92 1570.91 447.39L1570.75 447.23L1570.66 447.14L1570.54 447.03C1568.65 445.25 1566.41 444.26 1564.1 444.16H1563.97C1562.48 444.07 1560.98 444.28 1559.54 444.78C1557.52 445.5 1555.64 446.81 1554.04 448.61C1552.09 450.86 1550.29 453.35 1548.68 456.03L1526.95 490.43L1510.53 490.27L1510.52 490.26Z" fill="#FF7F2E"/>
<path d="M1494.19 462.65L1513.75 431.68H1530.26L1510.7 462.65H1494.19ZM1506.73 488.7L1535.33 443.4C1537.43 439.91 1539.78 436.69 1542.35 433.8C1545.35 430.46 1548.87 428.06 1552.65 426.75C1557.56 425.02 1562.74 425.19 1567.58 427.24C1572.37 429.26 1576.56 433.28 1579.52 438.71C1583.28 445.83 1584.86 454.59 1583.94 463.22C1583.52 467.47 1582.46 471.57 1580.84 475.27C1579.22 478.97 1577.07 482.21 1574.51 484.79C1571.58 487.69 1568.19 489.65 1564.6 490.52C1562.57 491.09 1560.51 491.4 1558.43 491.44H1550.36L1535.75 514.63H1519.29L1542.68 477.54L1544.59 474.5H1555.46C1559.28 474.5 1563.31 474.5 1566.62 471.63H1566.68C1568.23 470.2 1569.5 468.3 1570.4 466.08C1571.29 463.86 1571.78 461.4 1571.83 458.88C1571.87 456.36 1571.47 453.87 1570.65 451.6C1569.83 449.33 1568.62 447.36 1567.12 445.83L1566.96 445.67L1566.87 445.58L1566.75 445.47C1564.86 443.69 1562.62 442.7 1560.31 442.6H1560.18C1558.69 442.51 1557.19 442.72 1555.75 443.22C1553.73 443.94 1551.85 445.25 1550.25 447.05C1548.3 449.3 1546.5 451.79 1544.89 454.47L1523.16 488.87L1506.74 488.71L1506.73 488.7Z" fill="white"/>
<path d="M1541.08 549.06C1577.58 549.06 1607.17 514.053 1607.17 470.87C1607.17 427.687 1577.58 392.68 1541.08 392.68C1504.58 392.68 1474.99 427.687 1474.99 470.87C1474.99 514.053 1504.58 549.06 1541.08 549.06Z" stroke="url(#paint67_linear_7_605)" stroke-width="1.09" stroke-miterlimit="10"/>
<path d="M1027.78 545.9C1027.78 545.9 1044.09 632.76 1054.77 657.84C1065.45 682.92 1101.48 708.08 1118.67 709.71C1126.07 710.41 1149.79 671.15 1173.17 634.96" stroke="#113291" stroke-width="1.78" stroke-linecap="round"/>
<path d="M1231.51 305.02C1231.51 305.02 1214.84 328.06 1215.65 344.16C1216.35 357.95 1218.62 371.81 1217.05 376.89C1215.49 381.97 1207.9 399.55 1221.07 417.51C1234.24 435.48 1240.15 438.25 1250.65 438.99C1259.29 439.6 1279.26 429.18 1279.26 429.18" stroke="#9C9C9C" stroke-width="1.78" stroke-linecap="round"/>
<path d="M1262.07 401.74C1245.05 406.42 1246.24 407.58 1232.34 404.94" stroke="#9C9C9C" stroke-width="1.78" stroke-linecap="round"/>
<path d="M1255.26 408.88C1254.14 409.18 1247.37 413.48 1243.86 413.49C1241.05 413.5 1237.9 410.89 1236.67 409.59" stroke="#9C9C9C" stroke-width="1.78" stroke-linecap="round"/>
<path d="M1249.66 438.92C1249.66 439.33 1248.03 451.9 1248.74 458.49" stroke="#9C9C9C" stroke-width="1.78" stroke-linecap="round"/>
<path d="M1229.26 364.58C1229.47 361.522 1228.02 358.933 1226.03 358.797C1224.03 358.661 1222.25 361.03 1222.04 364.088C1221.83 367.146 1223.28 369.735 1225.27 369.871C1227.27 370.007 1229.05 367.639 1229.26 364.58Z" fill="#0D2265"/>
<path d="M1234.23 353.04C1229.84 350.74 1221.12 349.12 1209.57 357.41C1209.38 357.45 1207.65 355.39 1207.65 354.84C1207.56 352.28 1219.71 344.2 1225.6 344.16C1230.31 344.12 1233.46 347.59 1234.44 349.33C1234.25 347.45 1234.06 343.92 1234.84 344.88C1235.82 346.07 1239.71 355.91 1234.23 353.04Z" fill="#0D2265"/>
<path d="M1234.9 362.63C1233.3 362.49 1225.85 357.59 1220.82 357.81C1216.84 357.99 1216.8 362.66 1214.08 363.89C1213.36 364.22 1213.31 364.4 1212.65 364.31" stroke="#113291" stroke-width="2.23" stroke-linecap="round" stroke-linejoin="round"/>
<path d="M1290.49 357.75C1290.49 357.75 1248.7 338.22 1231.51 305.02C1214.32 271.82 1229.56 273.38 1242.45 273.38C1255.34 273.38 1308.39 280.16 1335.92 306.97C1362.35 332.7 1365.31 408.88 1350.68 423.57C1342.69 431.6 1309.24 446.17 1309.24 446.17" stroke="#113291" stroke-width="1.78" stroke-linecap="round"/>
<path d="M1233.77 815.76C1233.77 815.76 1239.8 829.17 1243.93 830.01" stroke="#113291" stroke-width="1.78" stroke-linecap="round"/>
<path d="M1211.12 737.35C1211.12 737.35 1259.29 753.15 1324.71 737.35" stroke="#113291" stroke-width="1.78" stroke-linecap="round"/>
<path d="M1214.98 749.89C1204.16 792.47 1195.51 830.19 1195.47 835.05" stroke="#113291" stroke-width="1.78" stroke-linecap="round"/>
<path d="M1271.05 474.45C1271.05 474.45 1248.7 565.45 1249.66 576.6C1250.61 587.75 1256.35 697.86 1263.47 715.28" stroke="#ED6921" stroke-width="1.78" stroke-linecap="round" stroke-linejoin="round"/>
<path d="M1242.01 712.96C1242.01 712.96 1231.28 583.07 1234.44 571.71C1237.6 560.35 1259.29 470.68 1259.29 470.68" stroke="#ED6921" stroke-width="1.78" stroke-linecap="round" stroke-linejoin="round"/>
<path d="M1264.08 469.1L1257.11 464.18L1241.3 480.67" stroke="#ED6921" stroke-width="1.78" stroke-linecap="round" stroke-linejoin="round"/>
<path d="M1248.73 458.48C1248.73 458.48 1253.16 462.95 1257.11 464.17" stroke="#ED6921" stroke-width="1.78" stroke-linecap="round" stroke-linejoin="round"/>
<path d="M1276.95 467.41C1276.95 467.41 1297.74 463.83 1308.76 457.24" stroke="#ED6921" stroke-width="1.78" stroke-linecap="round" stroke-linejoin="round"/>
<path d="M1443.58 605.29C1443.58 605.29 1446.98 580.65 1436.91 534.32C1430.23 503.6 1404.16 480.66 1404.16 480.66C1404.16 480.66 1392.08 477.41 1374.89 504.35" stroke="#113291" stroke-width="1.78" stroke-linecap="round"/>
<path d="M1343.76 733.4C1343.76 733.4 1347.11 725.96 1359.24 733.4C1371.37 740.84 1381.74 746.18 1382.61 749.89C1383.48 753.61 1371.18 790.66 1371.18 790.66C1371.18 790.66 1345.66 765.36 1341.19 757.65C1336.72 749.93 1332.32 744.86 1333.79 744.3C1335.26 743.74 1342.05 739.56 1342.4 738.86C1342.75 738.16 1343.76 733.4 1343.76 733.4Z" fill="white"/>
<path d="M1447.34 661.12C1447.34 661.12 1432.26 721.33 1423.92 737.35C1415.58 753.37 1397.88 777.54 1397.88 777.54" stroke="#113291" stroke-width="1.78" stroke-linecap="round"/>
<path d="M1364.78 739.38C1364.78 739.38 1358.33 739.55 1356.59 739.38C1354.85 739.21 1348.92 749.83 1347.53 752.62C1346.14 755.41 1342.36 758.14 1342.36 758.14C1342.36 758.14 1334.76 746.41 1334.72 745.42C1334.68 744.43 1333.41 744.69 1336.49 742.75C1339.57 740.81 1343.63 738.45 1343.86 736.01C1344.09 733.57 1344.02 730.53 1347.67 730.37C1351.32 730.21 1362.39 734.81 1364.15 736.12C1365.91 737.43 1369.23 739.67 1369.23 739.67C1369.23 739.67 1368.77 739.55 1364.76 739.38H1364.78Z" fill="url(#paint68_linear_7_605)"/>
<path d="M1334.73 743.84C1334.73 743.84 1341.61 739.64 1342.39 738.86C1343.17 738.08 1346.66 737.55 1348.31 738.86" stroke="#9C9C9C" stroke-width="1.78" stroke-linecap="round"/>
<path d="M1343.28 738.39C1343.28 738.39 1343.43 734.92 1343.93 733.08C1344.43 731.24 1346.7 730.1 1346.7 730.1" stroke="#9C9C9C" stroke-width="1.78" stroke-linecap="round"/>
<path d="M1036.96 519C1036.96 519 1023.64 541.25 1028.58 546.89C1032.32 551.15 1039.82 543.28 1039.82 543.28L1036.96 519Z" fill="#1B44C0"/>
<path d="M1382.18 751.57C1382.18 751.57 1378.02 769.29 1377.79 770.8C1377.56 772.31 1370.66 790.12 1370.66 790.12" stroke="#9C9C9C" stroke-width="1.78" stroke-linecap="round"/>
<path d="M1332.11 741.76C1333.77 742.69 1339 757.67 1349.45 768.12C1359.9 778.57 1374.89 794.6 1374.89 794.6" stroke="#113291" stroke-width="1.78" stroke-linecap="round"/>
<path d="M1342.48 736.53C1342.48 736.53 1340.63 734.56 1341.82 732.93C1341.82 732.93 1345.35 721.34 1374.88 743.38C1398.23 760.8 1397.88 777.53 1397.88 777.53C1397.88 777.53 1389.96 783.3 1378.35 774.17" stroke="#113291" stroke-width="1.78" stroke-linecap="round"/>
<path d="M1423.48 739.2C1423.48 739.2 1425.5 752.87 1428.57 758.13C1431.65 763.4 1439.9 782 1439.9 782" stroke="#113291" stroke-width="1.78" stroke-linecap="round"/>
<path d="M1404.15 768.71C1404.15 768.71 1414.37 778.23 1416.35 781.48C1418.32 784.73 1423.48 789.03 1423.48 789.03" stroke="#113291" stroke-width="1.78" stroke-linecap="round"/>
<path d="M1036.31 520.12C1033.99 521.98 1021.87 546.8 1030.23 547.73C1038.59 548.66 1079.37 514.39 1074.73 509.28" stroke="#113291" stroke-width="1.19" stroke-linecap="round"/>
<path d="M1310.31 589.81C1310.31 589.81 1312.87 661.83 1313.79 676.13C1314.72 690.43 1313.79 717.02 1313.79 717.02C1313.79 717.02 1343.58 712.74 1346.53 712.24C1349.48 711.74 1354.33 712.48 1350.77 708.53C1347.21 704.58 1322.09 647.74 1319.12 630.67C1316.16 613.6 1310.29 589.81 1310.29 589.81H1310.31Z" fill="url(#paint69_linear_7_605)"/>
<path d="M1308.28 444.84C1308.28 444.84 1312.17 457.23 1312.48 498.61C1312.83 544.46 1306.76 555.23 1312.29 593.24C1319.89 645.51 1332.1 673.87 1352.61 711.94" stroke="#113291" stroke-width="1.78" stroke-linecap="round"/>
<path d="M1225.41 719.32C1225.41 719.32 1227.39 696.46 1225.41 677.88C1223.43 659.3 1211.63 595.42 1211.95 591.82C1212.28 588.22 1212.71 626.52 1213.99 630.76C1215.27 635 1216.5 671.62 1217.06 681.02C1217.62 690.42 1215.17 713.55 1215.17 713.55C1215.17 713.55 1215.82 716.42 1217.91 717.43C1220 718.44 1225.41 719.33 1225.41 719.33V719.32Z" fill="url(#paint70_linear_7_605)"/>
<path d="M1215.91 714.64C1215.91 718.76 1232.2 721.12 1250.03 721.62C1264.46 722.02 1328.66 726.42 1346.7 706.22" stroke="#113291" stroke-width="1.78" stroke-linecap="round"/>
<path d="M1184.73 515.5C1184.73 515.5 1181.34 566.23 1184.73 571.7C1188.12 577.18 1209.05 717.6 1211.11 724.92C1213.17 732.24 1202.08 748.91 1193.88 759.2C1191.96 761.61 1179.51 773.05 1171.85 784.34C1167.21 791.18 1164.32 801.46 1162.22 814.61C1161.31 820.34 1157.59 811.62 1157.59 810.99C1157.54 797.56 1170.24 746.98 1171.75 743.15C1173.26 739.32 1184 723.95 1185.77 719.32C1187.54 714.69 1189.89 711.67 1189.58 708.54C1189.28 705.4 1168.55 616.09 1167.51 608.18C1166.48 600.27 1165.22 591.55 1165.38 587.73C1166.04 571.7 1184.72 515.5 1184.72 515.5H1184.73Z" fill="url(#paint71_linear_7_605)"/>
<path d="M1188.68 501.7C1188.68 501.7 1163.27 578.15 1165.13 594.87C1166.99 611.59 1190.65 704.77 1189.53 712.96C1189 716.8 1171.56 734.79 1167.76 758.12C1163.96 781.45 1159.28 784.69 1157.59 809.59C1157.59 809.59 1156.8 814.04 1161.72 815.77" stroke="#113291" stroke-width="1.78" stroke-linecap="round"/>
<path d="M1686.55 484.53C1696.03 547.53 1519.83 626.28 1292.99 660.43C1066.15 694.58 874.57 671.19 865.09 608.19" stroke="url(#paint72_linear_7_605)" stroke-width="1.09" stroke-miterlimit="10"/>
<path d="M1013.91 700.63C1031.73 700.63 1046.17 686.187 1046.17 668.37C1046.17 650.553 1031.73 636.11 1013.91 636.11C996.094 636.11 981.65 650.553 981.65 668.37C981.65 686.187 996.094 700.63 1013.91 700.63Z" fill="url(#paint73_linear_7_605)"/>
<path d="M1013.91 700.63C1031.73 700.63 1046.17 686.187 1046.17 668.37C1046.17 650.553 1031.73 636.11 1013.91 636.11C996.094 636.11 981.65 650.553 981.65 668.37C981.65 686.187 996.094 700.63 1013.91 700.63Z" fill="url(#paint74_linear_7_605)"/>
<path d="M1006.38 700.63C1024.2 700.63 1038.64 686.187 1038.64 668.37C1038.64 650.553 1024.2 636.11 1006.38 636.11C988.563 636.11 974.12 650.553 974.12 668.37C974.12 686.187 988.563 700.63 1006.38 700.63Z" fill="#FF7F00"/>
<path d="M1006.38 636.11H1013.89C1031.71 636.11 1046.15 650.55 1046.15 668.37C1046.15 686.19 1031.71 700.63 1013.89 700.63H1006.38" stroke="white" stroke-width="0.94" stroke-miterlimit="10"/>
<path d="M1021.67 639.96H1029.19" stroke="white" stroke-width="0.94" stroke-miterlimit="10"/>
<path d="M1028.56 644.94H1036.07" stroke="white" stroke-width="0.94" stroke-miterlimit="10"/>
<path d="M1033.95 651.83H1041.46" stroke="white" stroke-width="0.94" stroke-miterlimit="10"/>
<path d="M1037.71 660.64H1045.22" stroke="white" stroke-width="0.94" stroke-miterlimit="10"/>
<path d="M1038.64 670.28H1046.15" stroke="white" stroke-width="0.94" stroke-miterlimit="10"/>
<path d="M1037.08 679.19H1044.29" stroke="white" stroke-width="0.94" stroke-miterlimit="10"/>
<path d="M1031.93 687.72H1039.45" stroke="white" stroke-width="0.94" stroke-miterlimit="10"/>
<path d="M1024.42 694.98H1031.93" stroke="white" stroke-width="0.94" stroke-miterlimit="10"/>
<path d="M1006.38 696.76C1022.06 696.76 1034.77 684.049 1034.77 668.37C1034.77 652.691 1022.06 639.98 1006.38 639.98C990.701 639.98 977.99 652.691 977.99 668.37C977.99 684.049 990.701 696.76 1006.38 696.76Z" stroke="white" stroke-width="0.94" stroke-miterlimit="10"/>
<path d="M1010.7 665.85H999.21V656.38H1010.7C1012.16 656.38 1013.35 657.57 1013.35 659.03V663.19C1013.35 664.65 1012.16 665.84 1010.7 665.84V665.85Z" stroke="white" stroke-width="0.94" stroke-miterlimit="10"/>
<path d="M1013.5 678.44H999.2V670.64H1013.5C1014.71 670.64 1015.68 671.62 1015.68 672.82V676.25C1015.68 677.46 1014.7 678.43 1013.5 678.43V678.44Z" stroke="white" stroke-width="0.94" stroke-miterlimit="10"/>
<path d="M1015.71 666.79C1018.24 665.51 1019.98 662.89 1019.98 659.86C1019.98 655.57 1016.5 652.09 1012.21 652.09H1010.23V648.14H1006.16V652.09H1001.43V648.14H997.36V652.09H991.07V656.04H994.41V678.88H991.07V683.46H997.36V686.89H1001.43V683.46H1006.16V686.89H1010.23V683.46H1014.07C1018.72 683.46 1022.49 679.69 1022.49 675.05C1022.49 670.96 1019.58 667.56 1015.71 666.8V666.79Z" stroke="white" stroke-width="0.94" stroke-miterlimit="10"/>
<path d="M1006.38 700.63C1024.2 700.63 1038.64 686.187 1038.64 668.37C1038.64 650.553 1024.2 636.11 1006.38 636.11C988.563 636.11 974.12 650.553 974.12 668.37C974.12 686.187 988.563 700.63 1006.38 700.63Z" stroke="white" stroke-width="0.94" stroke-miterlimit="10"/>
<path d="M1469.59 659.59C1490.05 659.59 1506.63 643.007 1506.63 622.55C1506.63 602.093 1490.05 585.51 1469.59 585.51C1449.13 585.51 1432.55 602.093 1432.55 622.55C1432.55 643.007 1449.13 659.59 1469.59 659.59Z" fill="url(#paint75_linear_7_605)"/>
<path d="M1460.96 585.51H1469.59C1490.05 585.51 1506.63 602.09 1506.63 622.55C1506.63 643.01 1490.05 659.59 1469.59 659.59H1460.96" stroke="#E8F1FF" stroke-width="1.19" stroke-miterlimit="10"/>
<path d="M1460.96 659.59C1481.42 659.59 1498 643.007 1498 622.55C1498 602.093 1481.42 585.51 1460.96 585.51C1440.5 585.51 1423.92 602.093 1423.92 622.55C1423.92 643.007 1440.5 659.59 1460.96 659.59Z" fill="url(#paint76_linear_7_605)"/>
<path d="M1447.34 621.14L1460.45 594.01L1474.59 621.14L1460.96 627.98L1447.34 621.14Z" stroke="#E8F1FF" stroke-width="1.19" stroke-linecap="round" stroke-linejoin="round"/>
<path d="M1447.34 625.52L1460.96 633.42L1474.59 625.52L1460.96 648.19L1447.34 625.52Z" stroke="#E8F1FF" stroke-width="1.19" stroke-linecap="round" stroke-linejoin="round"/>
<path d="M1478.56 589.97H1487.35" stroke="#E8F1FF" stroke-width="1.19" stroke-miterlimit="10"/>
<path d="M1487.09 596.22H1495.7" stroke="#E8F1FF" stroke-width="1.19" stroke-miterlimit="10"/>
<path d="M1493.7 605.29H1502.31" stroke="#E8F1FF" stroke-width="1.19" stroke-miterlimit="10"/>
<path d="M1498 616.92H1506.61" stroke="#E8F1FF" stroke-width="1.19" stroke-miterlimit="10"/>
<path d="M1497.61 629.03H1506.21" stroke="#E8F1FF" stroke-width="1.19" stroke-miterlimit="10"/>
<path d="M1493.7 639.29H1502.31" stroke="#E8F1FF" stroke-width="1.19" stroke-miterlimit="10"/>
<path d="M1487.35 648.71H1495.96" stroke="#E8F1FF" stroke-width="1.19" stroke-miterlimit="10"/>
<path d="M1480.69 653.91H1489.53" stroke="#E8F1FF" stroke-width="1.19" stroke-miterlimit="10"/>
<path d="M1460.96 659.59C1481.42 659.59 1498 643.007 1498 622.55C1498 602.093 1481.42 585.51 1460.96 585.51C1440.5 585.51 1423.92 602.093 1423.92 622.55C1423.92 643.007 1440.5 659.59 1460.96 659.59Z" stroke="#E8F1FF" stroke-width="1.19" stroke-miterlimit="10"/>
<path d="M1460.96 655.29C1479.04 655.29 1493.7 640.632 1493.7 622.55C1493.7 604.468 1479.04 589.81 1460.96 589.81C1442.88 589.81 1428.22 604.468 1428.22 622.55C1428.22 640.632 1442.88 655.29 1460.96 655.29Z" stroke="#E8F1FF" stroke-width="1.19" stroke-miterlimit="10"/>
<path d="M1272.1 470.68L1275.63 468.56L1287.8 492.03L1272.1 470.68Z" fill="url(#paint77_linear_7_605)"/>
<path d="M1288.12 492.69L1276 467.69L1271.05 470.45" stroke="#ED6921" stroke-width="1.78" stroke-linecap="round" stroke-linejoin="round"/>
<path d="M1263.5 469.52L1237.77 484.27L1257.11 465.1L1263.5 469.52Z" fill="url(#paint78_linear_7_605)"/>
<path d="M1211.11 468.47C1211.11 468.47 1192.11 473.34 1183.84 489.37C1175.58 505.4 1129.09 593.44 1127.42 605.17C1125.75 616.9 1124.84 638.85 1123.56 632.93C1122.27 627.01 1111.51 595.24 1114.69 592.54C1117.87 589.84 1149.05 536.79 1154.89 522.85C1160.73 508.91 1173.15 486.76 1177.08 482.87C1181 478.98 1211.11 468.47 1211.11 468.47Z" fill="url(#paint79_linear_7_605)"/>
<path d="M1115.6 605.18C1115.6 605.18 1112.81 591.71 1115.6 591.71C1118.39 591.71 1163.69 508.43 1170.35 493.57C1177.01 478.71 1180.1 477.25 1208.23 469.35C1236.36 461.45 1247.83 453.77 1247.83 453.77" stroke="#113291" stroke-width="1.78" stroke-linecap="round"/>
<path d="M1369.25 564.64C1369.25 564.64 1362.95 608.04 1367.57 627.18C1372.19 646.32 1377.62 668.37 1377.62 668.37C1377.62 668.37 1385.21 656.74 1384.64 655.82C1384.07 654.9 1371.31 570.43 1371.04 566.73C1370.77 563.03 1369.25 564.65 1369.25 564.65V564.64Z" fill="url(#paint80_linear_7_605)"/>
<path d="M1370.28 551.82C1370.28 568.61 1377.67 639.67 1384.64 656.39L1379.07 665.86L1341.83 730.75" stroke="#113291" stroke-width="1.78" stroke-linecap="round"/>
<path d="M1214.98 715.28C1214.98 715.28 1220.36 719.32 1241.09 721.73C1261.82 724.14 1297.3 721.73 1297.3 721.73C1297.3 721.73 1251.56 721.54 1247.83 726.42C1244.1 731.31 1253.16 743.72 1252.23 744.25C1251.3 744.78 1222.1 742.38 1213.99 738.79C1205.89 735.2 1210.62 733.99 1211.11 731.02C1211.6 728.05 1214.97 715.29 1214.97 715.29L1214.98 715.28Z" fill="url(#paint81_linear_7_605)"/>
<path d="M1213.56 739.73C1213.56 739.73 1196.84 762.73 1193 775.27C1189.16 787.81 1180.48 834.2 1180.48 834.2C1180.48 834.2 1160.25 836.42 1160.95 829.28C1161.65 822.14 1162.93 805.24 1166.91 794.61C1170.89 783.98 1176.86 776.98 1181.76 771.86C1186.66 766.73 1196.17 756.84 1200.25 751.6C1204.33 746.36 1208.93 735.74 1208.93 735.74L1213.57 739.74L1213.56 739.73Z" fill="url(#paint82_linear_7_605)"/>
<path d="M1247.83 456.45C1247.83 456.45 1245.69 458.51 1235.74 485.6C1224.25 516.85 1211.12 558.02 1211.12 580.33C1211.12 642.65 1232.03 717.2 1195.49 757.45C1185.1 768.89 1174.04 777.91 1168.44 790.77C1161.5 806.71 1161.22 826.01 1160.48 832.92" stroke="#113291" stroke-width="1.78" stroke-linecap="round"/>
<path d="M1304.5 812.73C1304.5 812.73 1306.94 821.2 1307.64 822.89" stroke="#113291" stroke-width="1.78" stroke-linecap="round"/>
<path d="M393 706.22C494.44 724.95 673.71 804.35 992.6 830.28C1483.8 870.22 1577.5 696.76 1607.17 571.7" stroke="#ED6921" stroke-width="7.05" stroke-linecap="round" stroke-linejoin="round"/>
<path d="M481.99 670.46C573.88 687.42 736.28 759.36 1025.15 782.84C1470.11 819.02 1555 661.89 1581.88 548.6" stroke="url(#paint83_linear_7_605)" stroke-width="1.09" stroke-miterlimit="10"/>
</g>
<g clip-path="url(#clip1_7_605)">
<ellipse cx="968" cy="1226" rx="973" ry="134" fill="white"/>
<ellipse cx="968" cy="1212" rx="973" ry="134" fill="#CED1F3"/>
<rect y="864" width="1920" height="360" fill="#CED1F3"/>
</g>
<defs>
<linearGradient id="paint0_linear_7_605" x1="960.005" y1="863.082" x2="960.005" y2="101.003" gradientUnits="userSpaceOnUse">
<stop stop-color="#CED1F3"/>
<stop offset="1" stop-color="#CED1F3" stop-opacity="0"/>
</linearGradient>
<linearGradient id="paint1_linear_7_605" x1="729.12" y1="875.66" x2="1501.52" y2="359.97" gradientUnits="userSpaceOnUse">
<stop stop-color="#9FBDFF" stop-opacity="0.1"/>
<stop offset="1" stop-color="#197CE1"/>
</linearGradient>
<linearGradient id="paint2_linear_7_605" x1="793.59" y1="487.39" x2="1505.99" y2="487.39" gradientUnits="userSpaceOnUse">
<stop stop-color="#D4E0FF" stop-opacity="0.8"/>
<stop offset="1" stop-color="#D4E0FF" stop-opacity="0.8"/>
</linearGradient>
<linearGradient id="paint3_linear_7_605" x1="769.01" y1="507.995" x2="1546.47" y2="507.995" gradientUnits="userSpaceOnUse">
<stop stop-color="white"/>
<stop offset="0.66" stop-color="white" stop-opacity="0.33"/>
<stop offset="1" stop-color="white" stop-opacity="0"/>
</linearGradient>
<linearGradient id="paint4_linear_7_605" x1="1059.15" y1="655.31" x2="1501.56" y2="359.923" gradientUnits="userSpaceOnUse">
<stop stop-color="#9FBDFF" stop-opacity="0.1"/>
<stop offset="1" stop-color="#197CE1"/>
</linearGradient>
<linearGradient id="paint5_linear_7_605" x1="1061.15" y1="507.66" x2="1499.48" y2="507.66" gradientUnits="userSpaceOnUse">
<stop stop-color="white"/>
<stop offset="0.66" stop-color="white" stop-opacity="0.33"/>
<stop offset="1" stop-color="white" stop-opacity="0"/>
</linearGradient>
<linearGradient id="paint6_linear_7_605" x1="1035.8" y1="466.1" x2="1453.31" y2="466.1" gradientUnits="userSpaceOnUse">
<stop stop-color="#197CE1"/>
<stop offset="1" stop-color="#197CE1" stop-opacity="0"/>
</linearGradient>
<linearGradient id="paint7_linear_7_605" x1="1035.64" y1="413.77" x2="1163.58" y2="413.77" gradientUnits="userSpaceOnUse">
<stop stop-color="#197CE1"/>
<stop offset="1" stop-color="#197CE1" stop-opacity="0"/>
</linearGradient>
<linearGradient id="paint8_linear_7_605" x1="886.75" y1="535.93" x2="1036.63" y2="535.93" gradientUnits="userSpaceOnUse">
<stop stop-color="#197CE1" stop-opacity="0"/>
<stop offset="1" stop-color="#197CE1"/>
</linearGradient>
<linearGradient id="paint9_linear_7_605" x1="1035.21" y1="329.73" x2="1190.24" y2="329.73" gradientUnits="userSpaceOnUse">
<stop stop-color="#197CE1"/>
<stop offset="1" stop-color="#197CE1" stop-opacity="0"/>
</linearGradient>
<linearGradient id="paint10_linear_7_605" x1="816.15" y1="462.65" x2="1529.64" y2="462.65" gradientUnits="userSpaceOnUse">
<stop stop-color="white"/>
<stop offset="0.66" stop-color="white" stop-opacity="0.33"/>
<stop offset="1" stop-color="white" stop-opacity="0"/>
</linearGradient>
<linearGradient id="paint11_linear_7_605" x1="1074.92" y1="506.219" x2="1010.91" y2="490.887" gradientUnits="userSpaceOnUse">
<stop stop-color="#969696"/>
<stop offset="0.79" stop-color="#C4C4C4" stop-opacity="0"/>
</linearGradient>
<linearGradient id="paint12_linear_7_605" x1="950.89" y1="209.8" x2="1217.12" y2="209.8" gradientUnits="userSpaceOnUse">
<stop stop-color="#D4E0FF" stop-opacity="0.8"/>
<stop offset="1" stop-color="#D4E0FF" stop-opacity="0.8"/>
</linearGradient>
<linearGradient id="paint13_linear_7_605" x1="950.89" y1="264.44" x2="1067.6" y2="264.44" gradientUnits="userSpaceOnUse">
<stop stop-color="#D4E0FF" stop-opacity="0.8"/>
<stop offset="1" stop-color="#D4E0FF" stop-opacity="0.8"/>
</linearGradient>
<linearGradient id="paint14_linear_7_605" x1="864.18" y1="512.15" x2="1687.09" y2="512.15" gradientUnits="userSpaceOnUse">
<stop stop-color="white"/>
<stop offset="0.66" stop-color="white" stop-opacity="0.33"/>
<stop offset="1" stop-color="white" stop-opacity="0"/>
</linearGradient>
<linearGradient id="paint15_linear_7_605" x1="1420.7" y1="308.52" x2="1649.6" y2="308.52" gradientUnits="userSpaceOnUse">
<stop stop-color="#D4E0FF" stop-opacity="0.8"/>
<stop offset="1" stop-color="#D4E0FF" stop-opacity="0.8"/>
</linearGradient>
<linearGradient id="paint16_linear_7_605" x1="1081.8" y1="455.177" x2="990.356" y2="433.274" gradientUnits="userSpaceOnUse">
<stop stop-color="#197CE1"/>
<stop offset="1" stop-color="#9FBDFF"/>
</linearGradient>
<linearGradient id="paint17_linear_7_605" x1="1197.62" y1="388.66" x2="1259.29" y2="388.66" gradientUnits="userSpaceOnUse">
<stop stop-color="#3845A4"/>
<stop offset="1" stop-color="#113291"/>
</linearGradient>
<linearGradient id="paint18_linear_7_605" x1="1194.64" y1="315.89" x2="1263.46" y2="315.89" gradientUnits="userSpaceOnUse">
<stop stop-color="#3845A4"/>
<stop offset="1" stop-color="#113291"/>
</linearGradient>
<linearGradient id="paint19_linear_7_605" x1="1223.77" y1="359.53" x2="1360.13" y2="359.53" gradientUnits="userSpaceOnUse">
<stop stop-color="#3845A4"/>
<stop offset="1" stop-color="#113291"/>
</linearGradient>
<linearGradient id="paint20_linear_7_605" x1="982.24" y1="507.66" x2="1578.38" y2="507.66" gradientUnits="userSpaceOnUse">
<stop stop-color="#197CE1" stop-opacity="0"/>
<stop offset="1" stop-color="#197CE1"/>
</linearGradient>
<linearGradient id="paint21_linear_7_605" x1="1021.61" y1="641.26" x2="1100.47" y2="620.13" gradientUnits="userSpaceOnUse">
<stop stop-color="#1B44C0"/>
<stop offset="0.19" stop-color="#1A44C0" stop-opacity="0.98"/>
<stop offset="0.33" stop-color="#1A47C2" stop-opacity="0.93"/>
<stop offset="0.47" stop-color="#1A4CC5" stop-opacity="0.85"/>
<stop offset="0.59" stop-color="#1A53C9" stop-opacity="0.72"/>
<stop offset="0.71" stop-color="#1A5CCE" stop-opacity="0.56"/>
<stop offset="0.83" stop-color="#1967D4" stop-opacity="0.37"/>
<stop offset="0.94" stop-color="#1973DC" stop-opacity="0.14"/>
<stop offset="1" stop-color="#197CE1" stop-opacity="0"/>
</linearGradient>
<linearGradient id="paint22_linear_7_605" x1="1471.01" y1="296.62" x2="1585.38" y2="296.62" gradientUnits="userSpaceOnUse">
<stop stop-color="#197CE1" stop-opacity="0.2"/>
<stop offset="1" stop-color="#197CE1"/>
</linearGradient>
<linearGradient id="paint23_linear_7_605" x1="1562.4" y1="241.93" x2="1606.58" y2="241.93" gradientUnits="userSpaceOnUse">
<stop stop-color="#197CE1" stop-opacity="0.2"/>
<stop offset="1" stop-color="#197CE1"/>
</linearGradient>
<linearGradient id="paint24_linear_7_605" x1="1106.8" y1="481.51" x2="1148.04" y2="440.27" gradientUnits="userSpaceOnUse">
<stop stop-color="#4D75D5"/>
<stop offset="0.49" stop-color="#A1B6E8"/>
<stop offset="1" stop-color="white"/>
</linearGradient>
<linearGradient id="paint25_linear_7_605" x1="1100.41" y1="481.51" x2="1141.66" y2="440.27" gradientUnits="userSpaceOnUse">
<stop stop-color="#AFCAFF"/>
<stop offset="0.15" stop-color="#A8C4FB"/>
<stop offset="0.36" stop-color="#95B3F3"/>
<stop offset="0.62" stop-color="#7599E4"/>
<stop offset="0.9" stop-color="#4A74D0"/>
<stop offset="1" stop-color="#3A66C9"/>
</linearGradient>
<linearGradient id="paint26_linear_7_605" x1="1032.18" y1="326.9" x2="1132.45" y2="326.9" gradientUnits="userSpaceOnUse">
<stop stop-color="#197CE1"/>
<stop offset="1" stop-color="#197CE1" stop-opacity="0"/>
</linearGradient>
<linearGradient id="paint27_linear_7_605" x1="1031.63" y1="326.9" x2="1132.99" y2="326.9" gradientUnits="userSpaceOnUse">
<stop stop-color="white"/>
<stop offset="0.66" stop-color="white" stop-opacity="0.33"/>
<stop offset="1" stop-color="white" stop-opacity="0"/>
</linearGradient>
<linearGradient id="paint28_linear_7_605" x1="947.8" y1="402.15" x2="755.51" y2="402.15" gradientUnits="userSpaceOnUse">
<stop stop-color="#9FBDFF" stop-opacity="0.1"/>
<stop offset="1" stop-color="#197CE1"/>
</linearGradient>
<linearGradient id="paint29_linear_7_605" x1="754.63" y1="393.57" x2="948.69" y2="393.57" gradientUnits="userSpaceOnUse">
<stop stop-color="#197CE1" stop-opacity="0"/>
<stop offset="1" stop-color="#197CE1"/>
</linearGradient>
<linearGradient id="paint30_linear_7_605" x1="947.8" y1="345.53" x2="755.51" y2="345.53" gradientUnits="userSpaceOnUse">
<stop stop-color="#9FBDFF" stop-opacity="0.1"/>
<stop offset="1" stop-color="#197CE1"/>
</linearGradient>
<linearGradient id="paint31_linear_7_605" x1="-67.34" y1="337.75" x2="-66.34" y2="337.75" gradientUnits="userSpaceOnUse">
<stop stop-color="#197CE1" stop-opacity="0"/>
<stop offset="1" stop-color="#197CE1"/>
</linearGradient>
<linearGradient id="paint32_linear_7_605" x1="947.8" y1="288.92" x2="755.51" y2="288.92" gradientUnits="userSpaceOnUse">
<stop stop-color="#9FBDFF" stop-opacity="0.1"/>
<stop offset="1" stop-color="#197CE1"/>
</linearGradient>
<linearGradient id="paint33_linear_7_605" x1="-67.34" y1="281.94" x2="-66.34" y2="281.94" gradientUnits="userSpaceOnUse">
<stop stop-color="#197CE1" stop-opacity="0"/>
<stop offset="1" stop-color="#197CE1"/>
</linearGradient>
<linearGradient id="paint34_linear_7_605" x1="1007.29" y1="374.65" x2="1032.79" y2="374.65" gradientUnits="userSpaceOnUse">
<stop stop-color="#197CE1"/>
<stop offset="1" stop-color="#197CE1" stop-opacity="0"/>
</linearGradient>
<linearGradient id="paint35_linear_7_605" x1="-nan" y1="-nan" x2="-nan" y2="-nan" gradientUnits="userSpaceOnUse">
<stop stop-color="#197CE1"/>
<stop offset="1" stop-color="#197CE1" stop-opacity="0"/>
</linearGradient>
<linearGradient id="paint36_linear_7_605" x1="1265.2" y1="216.12" x2="1401.16" y2="216.12" gradientUnits="userSpaceOnUse">
<stop stop-color="white"/>
<stop offset="0.66" stop-color="white" stop-opacity="0.33"/>
<stop offset="1" stop-color="white" stop-opacity="0"/>
</linearGradient>
<linearGradient id="paint37_linear_7_605" x1="-nan" y1="-nan" x2="-nan" y2="-nan" gradientUnits="userSpaceOnUse">
<stop stop-color="#197CE1"/>
<stop offset="1" stop-color="#197CE1" stop-opacity="0"/>
</linearGradient>
<linearGradient id="paint38_linear_7_605" x1="-nan" y1="-nan" x2="-nan" y2="-nan" gradientUnits="userSpaceOnUse">
<stop stop-color="#197CE1"/>
<stop offset="1" stop-color="#197CE1" stop-opacity="0"/>
</linearGradient>
<linearGradient id="paint39_linear_7_605" x1="-nan" y1="-nan" x2="-nan" y2="-nan" gradientUnits="userSpaceOnUse">
<stop stop-color="#197CE1"/>
<stop offset="1" stop-color="#197CE1" stop-opacity="0"/>
</linearGradient>
<linearGradient id="paint40_linear_7_605" x1="-nan" y1="-nan" x2="-nan" y2="-nan" gradientUnits="userSpaceOnUse">
<stop stop-color="#197CE1"/>
<stop offset="1" stop-color="#197CE1" stop-opacity="0"/>
</linearGradient>
<linearGradient id="paint41_linear_7_605" x1="-nan" y1="-nan" x2="-nan" y2="-nan" gradientUnits="userSpaceOnUse">
<stop stop-color="#197CE1"/>
<stop offset="1" stop-color="#197CE1" stop-opacity="0"/>
</linearGradient>
<linearGradient id="paint42_linear_7_605" x1="-nan" y1="-nan" x2="-nan" y2="-nan" gradientUnits="userSpaceOnUse">
<stop stop-color="#197CE1"/>
<stop offset="1" stop-color="#197CE1" stop-opacity="0"/>
</linearGradient>
<linearGradient id="paint43_linear_7_605" x1="960.02" y1="209.8" x2="981.85" y2="209.8" gradientUnits="userSpaceOnUse">
<stop stop-color="#197CE1"/>
<stop offset="1" stop-color="#197CE1" stop-opacity="0"/>
</linearGradient>
<linearGradient id="paint44_linear_7_605" x1="960.02" y1="264.44" x2="981.85" y2="264.44" gradientUnits="userSpaceOnUse">
<stop stop-color="#197CE1"/>
<stop offset="1" stop-color="#197CE1" stop-opacity="0"/>
</linearGradient>
<linearGradient id="paint45_linear_7_605" x1="1481.9" y1="257.43" x2="1550.12" y2="257.43" gradientUnits="userSpaceOnUse">
<stop stop-color="#197CE1"/>
<stop offset="1" stop-color="#9FBDFF" stop-opacity="0.1"/>
</linearGradient>
<linearGradient id="paint46_linear_7_605" x1="-67.3391" y1="321.64" x2="-66.3391" y2="321.64" gradientUnits="userSpaceOnUse">
<stop stop-color="#197CE1"/>
<stop offset="1" stop-color="#9FBDFF" stop-opacity="0.1"/>
</linearGradient>
<linearGradient id="paint47_linear_7_605" x1="-67.3387" y1="273.48" x2="1535.61" y2="273.48" gradientUnits="userSpaceOnUse">
<stop stop-color="#197CE1"/>
<stop offset="1" stop-color="#9FBDFF" stop-opacity="0.1"/>
</linearGradient>
<linearGradient id="paint48_linear_7_605" x1="-67.3391" y1="289.53" x2="-66.3391" y2="289.53" gradientUnits="userSpaceOnUse">
<stop stop-color="#197CE1"/>
<stop offset="1" stop-color="#9FBDFF" stop-opacity="0.1"/>
</linearGradient>
<linearGradient id="paint49_linear_7_605" x1="-67.3391" y1="337.69" x2="-66.3391" y2="337.69" gradientUnits="userSpaceOnUse">
<stop stop-color="#197CE1"/>
<stop offset="1" stop-color="#9FBDFF" stop-opacity="0.1"/>
</linearGradient>
<linearGradient id="paint50_linear_7_605" x1="-67.3387" y1="305.59" x2="1535.61" y2="305.59" gradientUnits="userSpaceOnUse">
<stop stop-color="#197CE1"/>
<stop offset="1" stop-color="#9FBDFF" stop-opacity="0.1"/>
</linearGradient>
<linearGradient id="paint51_linear_7_605" x1="1023.17" y1="481.91" x2="1068.61" y2="481.91" gradientUnits="userSpaceOnUse">
<stop stop-color="white"/>
<stop offset="0.66" stop-color="white" stop-opacity="0.33"/>
<stop offset="1" stop-color="white" stop-opacity="0"/>
</linearGradient>
<linearGradient id="paint52_linear_7_605" x1="1015.86" y1="451.599" x2="998.713" y2="447.492" gradientUnits="userSpaceOnUse">
<stop stop-color="#969696"/>
<stop offset="0.79" stop-color="#C4C4C4" stop-opacity="0"/>
</linearGradient>
<linearGradient id="paint53_linear_7_605" x1="879.82" y1="635.97" x2="893.71" y2="635.97" gradientUnits="userSpaceOnUse">
<stop stop-color="#1B44C0"/>
<stop offset="0.31" stop-color="#1A47C1"/>
<stop offset="0.55" stop-color="#1A51C7"/>
<stop offset="0.77" stop-color="#1961D1"/>
<stop offset="0.98" stop-color="#1979DF"/>
<stop offset="1" stop-color="#197CE1"/>
</linearGradient>
<linearGradient id="paint54_linear_7_605" x1="881.01" y1="9.82515e-05" x2="892.52" y2="9.82515e-05" gradientUnits="userSpaceOnUse">
<stop stop-color="#1B44C0"/>
<stop offset="0.31" stop-color="#1A47C1"/>
<stop offset="0.55" stop-color="#1A51C7"/>
<stop offset="0.77" stop-color="#1961D1"/>
<stop offset="0.98" stop-color="#1979DF"/>
<stop offset="1" stop-color="#197CE1"/>
</linearGradient>
<linearGradient id="paint55_linear_7_605" x1="1151.43" y1="391.65" x2="1175.15" y2="391.65" gradientUnits="userSpaceOnUse">
<stop stop-color="#1B44C0"/>
<stop offset="0.31" stop-color="#1A47C1"/>
<stop offset="0.55" stop-color="#1A51C7"/>
<stop offset="0.77" stop-color="#1961D1"/>
<stop offset="0.98" stop-color="#1979DF"/>
<stop offset="1" stop-color="#197CE1"/>
</linearGradient>
<linearGradient id="paint56_linear_7_605" x1="1153.46" y1="391.65" x2="1173.12" y2="391.65" gradientUnits="userSpaceOnUse">
<stop stop-color="#1B44C0"/>
<stop offset="0.31" stop-color="#1A47C1"/>
<stop offset="0.55" stop-color="#1A51C7"/>
<stop offset="0.77" stop-color="#1961D1"/>
<stop offset="0.98" stop-color="#1979DF"/>
<stop offset="1" stop-color="#197CE1"/>
</linearGradient>
<linearGradient id="paint57_linear_7_605" x1="1441.32" y1="496.33" x2="1465.05" y2="496.33" gradientUnits="userSpaceOnUse">
<stop stop-color="#1B44C0"/>
<stop offset="0.31" stop-color="#1A47C1"/>
<stop offset="0.55" stop-color="#1A51C7"/>
<stop offset="0.77" stop-color="#1961D1"/>
<stop offset="0.98" stop-color="#1979DF"/>
<stop offset="1" stop-color="#197CE1"/>
</linearGradient>
<linearGradient id="paint58_linear_7_605" x1="1443.35" y1="496.33" x2="1463.02" y2="496.33" gradientUnits="userSpaceOnUse">
<stop stop-color="#1B44C0"/>
<stop offset="0.31" stop-color="#1A47C1"/>
<stop offset="0.55" stop-color="#1A51C7"/>
<stop offset="0.77" stop-color="#1961D1"/>
<stop offset="0.98" stop-color="#1979DF"/>
<stop offset="1" stop-color="#197CE1"/>
</linearGradient>
<linearGradient id="paint59_linear_7_605" x1="1176.82" y1="226.43" x2="1200.54" y2="226.43" gradientUnits="userSpaceOnUse">
<stop stop-color="#1B44C0"/>
<stop offset="0.31" stop-color="#1A47C1"/>
<stop offset="0.55" stop-color="#1A51C7"/>
<stop offset="0.77" stop-color="#1961D1"/>
<stop offset="0.98" stop-color="#1979DF"/>
<stop offset="1" stop-color="#197CE1"/>
</linearGradient>
<linearGradient id="paint60_linear_7_605" x1="1178.85" y1="226.43" x2="1198.51" y2="226.43" gradientUnits="userSpaceOnUse">
<stop stop-color="#1B44C0"/>
<stop offset="0.31" stop-color="#1A47C1"/>
<stop offset="0.55" stop-color="#1A51C7"/>
<stop offset="0.77" stop-color="#1961D1"/>
<stop offset="0.98" stop-color="#1979DF"/>
<stop offset="1" stop-color="#197CE1"/>
</linearGradient>
<linearGradient id="paint61_linear_7_605" x1="878.84" y1="531.51" x2="958.8" y2="531.94" gradientUnits="userSpaceOnUse">
<stop stop-color="#F1F6FF"/>
<stop offset="1" stop-color="#F1F6FF" stop-opacity="0"/>
</linearGradient>
<linearGradient id="paint62_linear_7_605" x1="-nan" y1="-nan" x2="-nan" y2="-nan" gradientUnits="userSpaceOnUse">
<stop stop-color="#1B44C0"/>
<stop offset="0.31" stop-color="#1A47C1"/>
<stop offset="0.55" stop-color="#1A51C7"/>
<stop offset="0.77" stop-color="#1961D1"/>
<stop offset="0.98" stop-color="#1979DF"/>
<stop offset="1" stop-color="#197CE1"/>
</linearGradient>
<linearGradient id="paint63_linear_7_605" x1="-nan" y1="-nan" x2="-nan" y2="-nan" gradientUnits="userSpaceOnUse">
<stop stop-color="#1B44C0"/>
<stop offset="0.31" stop-color="#1A47C1"/>
<stop offset="0.55" stop-color="#1A51C7"/>
<stop offset="0.77" stop-color="#1961D1"/>
<stop offset="0.98" stop-color="#1979DF"/>
<stop offset="1" stop-color="#197CE1"/>
</linearGradient>
<linearGradient id="paint64_linear_7_605" x1="-nan" y1="-nan" x2="-nan" y2="-nan" gradientUnits="userSpaceOnUse">
<stop stop-color="#1B44C0"/>
<stop offset="0.31" stop-color="#1A47C1"/>
<stop offset="0.55" stop-color="#1A51C7"/>
<stop offset="0.77" stop-color="#1961D1"/>
<stop offset="0.98" stop-color="#1979DF"/>
<stop offset="1" stop-color="#197CE1"/>
</linearGradient>
<linearGradient id="paint65_linear_7_605" x1="-nan" y1="-nan" x2="-nan" y2="-nan" gradientUnits="userSpaceOnUse">
<stop stop-color="#1B44C0"/>
<stop offset="0.31" stop-color="#1A47C1"/>
<stop offset="0.55" stop-color="#1A51C7"/>
<stop offset="0.77" stop-color="#1961D1"/>
<stop offset="0.98" stop-color="#1979DF"/>
<stop offset="1" stop-color="#197CE1"/>
</linearGradient>
<linearGradient id="paint66_linear_7_605" x1="1407.82" y1="323.8" x2="1638.48" y2="323.8" gradientUnits="userSpaceOnUse">
<stop stop-color="#197CE1" stop-opacity="0"/>
<stop offset="1" stop-color="#197CE1"/>
</linearGradient>
<linearGradient id="paint67_linear_7_605" x1="1474.45" y1="470.87" x2="1607.72" y2="470.87" gradientUnits="userSpaceOnUse">
<stop stop-color="white"/>
<stop offset="0.66" stop-color="white" stop-opacity="0.33"/>
<stop offset="1" stop-color="white" stop-opacity="0"/>
</linearGradient>
<linearGradient id="paint68_linear_7_605" x1="1334.44" y1="744.25" x2="1369.25" y2="744.25" gradientUnits="userSpaceOnUse">
<stop stop-color="#969696"/>
<stop offset="0.79" stop-color="#C4C4C4" stop-opacity="0"/>
</linearGradient>
<linearGradient id="paint69_linear_7_605" x1="1331.17" y1="717.02" x2="1331.17" y2="589.81" gradientUnits="userSpaceOnUse">
<stop stop-color="#ED6921" stop-opacity="0"/>
<stop offset="0.78" stop-color="#ED6921"/>
</linearGradient>
<linearGradient id="paint70_linear_7_605" x1="1211.95" y1="655.45" x2="1226.29" y2="655.45" gradientUnits="userSpaceOnUse">
<stop stop-color="#ED6921" stop-opacity="0"/>
<stop offset="0.78" stop-color="#ED6921"/>
</linearGradient>
<linearGradient id="paint71_linear_7_605" x1="1147.57" y1="667.8" x2="1206.96" y2="663.65" gradientUnits="userSpaceOnUse">
<stop stop-color="#1B44C0"/>
<stop offset="0.19" stop-color="#1A44C0" stop-opacity="0.98"/>
<stop offset="0.33" stop-color="#1A47C2" stop-opacity="0.93"/>
<stop offset="0.47" stop-color="#1A4CC5" stop-opacity="0.85"/>
<stop offset="0.59" stop-color="#1A53C9" stop-opacity="0.72"/>
<stop offset="0.71" stop-color="#1A5CCE" stop-opacity="0.56"/>
<stop offset="0.83" stop-color="#1967D4" stop-opacity="0.37"/>
<stop offset="0.94" stop-color="#1973DC" stop-opacity="0.14"/>
<stop offset="1" stop-color="#197CE1" stop-opacity="0"/>
</linearGradient>
<linearGradient id="paint72_linear_7_605" x1="864.55" y1="580.56" x2="1687.46" y2="580.56" gradientUnits="userSpaceOnUse">
<stop stop-color="white"/>
<stop offset="0.66" stop-color="white" stop-opacity="0.33"/>
<stop offset="1" stop-color="white" stop-opacity="0"/>
</linearGradient>
<linearGradient id="paint73_linear_7_605" x1="983.79" y1="679.93" x2="1044.04" y2="656.8" gradientUnits="userSpaceOnUse">
<stop stop-color="#94C8FF"/>
<stop offset="1" stop-color="white"/>
</linearGradient>
<linearGradient id="paint74_linear_7_605" x1="981.66" y1="668.37" x2="1046.17" y2="668.37" gradientUnits="userSpaceOnUse">
<stop stop-color="#4D75D5"/>
<stop offset="0.04" stop-color="#4D75D4" stop-opacity="0.94"/>
<stop offset="0.23" stop-color="#4D75D4" stop-opacity="0.66"/>
<stop offset="0.42" stop-color="#4D75D4" stop-opacity="0.42"/>
<stop offset="0.6" stop-color="#4D75D4" stop-opacity="0.24"/>
<stop offset="0.76" stop-color="#4D75D4" stop-opacity="0.11"/>
<stop offset="0.9" stop-color="#4D75D4" stop-opacity="0.03"/>
<stop offset="1" stop-color="#4E75D4" stop-opacity="0"/>
</linearGradient>
<linearGradient id="paint75_linear_7_605" x1="1443.4" y1="648.74" x2="1495.78" y2="596.36" gradientUnits="userSpaceOnUse">
<stop stop-color="#4D75D5"/>
<stop offset="0.49" stop-color="#A1B6E8"/>
<stop offset="1" stop-color="white"/>
</linearGradient>
<linearGradient id="paint76_linear_7_605" x1="1434.77" y1="648.74" x2="1487.15" y2="596.36" gradientUnits="userSpaceOnUse">
<stop stop-color="#1A44C0"/>
<stop offset="0.41" stop-color="#1962D2"/>
<stop offset="0.76" stop-color="#1975DD"/>
<stop offset="1" stop-color="#197CE1"/>
</linearGradient>
<linearGradient id="paint77_linear_7_605" x1="1279.95" y1="492.03" x2="1279.95" y2="468.56" gradientUnits="userSpaceOnUse">
<stop stop-color="#ED6921" stop-opacity="0"/>
<stop offset="0.78" stop-color="#ED6921"/>
</linearGradient>
<linearGradient id="paint78_linear_7_605" x1="1237.77" y1="474.69" x2="1263.5" y2="474.69" gradientUnits="userSpaceOnUse">
<stop stop-color="#ED6921" stop-opacity="0"/>
<stop offset="0.78" stop-color="#ED6921"/>
</linearGradient>
<linearGradient id="paint79_linear_7_605" x1="1162.61" y1="633.93" x2="1162.61" y2="468.47" gradientUnits="userSpaceOnUse">
<stop stop-color="#1B44C0"/>
<stop offset="0.19" stop-color="#1A44C0" stop-opacity="0.98"/>
<stop offset="0.33" stop-color="#1A47C2" stop-opacity="0.93"/>
<stop offset="0.47" stop-color="#1A4CC5" stop-opacity="0.85"/>
<stop offset="0.59" stop-color="#1A53C9" stop-opacity="0.72"/>
<stop offset="0.71" stop-color="#1A5CCE" stop-opacity="0.56"/>
<stop offset="0.83" stop-color="#1967D4" stop-opacity="0.37"/>
<stop offset="0.94" stop-color="#1973DC" stop-opacity="0.14"/>
<stop offset="1" stop-color="#197CE1" stop-opacity="0"/>
</linearGradient>
<linearGradient id="paint80_linear_7_605" x1="1365.87" y1="616.33" x2="1384.67" y2="616.33" gradientUnits="userSpaceOnUse">
<stop stop-color="#1B44C0"/>
<stop offset="0.19" stop-color="#1A44C0" stop-opacity="0.98"/>
<stop offset="0.33" stop-color="#1A47C2" stop-opacity="0.93"/>
<stop offset="0.47" stop-color="#1A4CC5" stop-opacity="0.85"/>
<stop offset="0.59" stop-color="#1A53C9" stop-opacity="0.72"/>
<stop offset="0.71" stop-color="#1A5CCE" stop-opacity="0.56"/>
<stop offset="0.83" stop-color="#1967D4" stop-opacity="0.37"/>
<stop offset="0.94" stop-color="#1973DC" stop-opacity="0.14"/>
<stop offset="1" stop-color="#197CE1" stop-opacity="0"/>
</linearGradient>
<linearGradient id="paint81_linear_7_605" x1="1253.3" y1="744.32" x2="1253.3" y2="715.28" gradientUnits="userSpaceOnUse">
<stop stop-color="#1B44C0"/>
<stop offset="0.19" stop-color="#1A44C0" stop-opacity="0.98"/>
<stop offset="0.33" stop-color="#1A47C2" stop-opacity="0.93"/>
<stop offset="0.47" stop-color="#1A4CC5" stop-opacity="0.85"/>
<stop offset="0.59" stop-color="#1A53C9" stop-opacity="0.72"/>
<stop offset="0.71" stop-color="#1A5CCE" stop-opacity="0.56"/>
<stop offset="0.83" stop-color="#1967D4" stop-opacity="0.37"/>
<stop offset="0.94" stop-color="#1973DC" stop-opacity="0.14"/>
<stop offset="1" stop-color="#197CE1" stop-opacity="0"/>
</linearGradient>
<linearGradient id="paint82_linear_7_605" x1="1187.24" y1="834.52" x2="1187.24" y2="735.73" gradientUnits="userSpaceOnUse">
<stop stop-color="#1B44C0"/>
<stop offset="0.19" stop-color="#1A44C0" stop-opacity="0.98"/>
<stop offset="0.33" stop-color="#1A47C2" stop-opacity="0.93"/>
<stop offset="0.47" stop-color="#1A4CC5" stop-opacity="0.85"/>
<stop offset="0.59" stop-color="#1A53C9" stop-opacity="0.72"/>
<stop offset="0.71" stop-color="#1A5CCE" stop-opacity="0.56"/>
<stop offset="0.83" stop-color="#1967D4" stop-opacity="0.37"/>
<stop offset="0.94" stop-color="#1973DC" stop-opacity="0.14"/>
<stop offset="1" stop-color="#197CE1" stop-opacity="0"/>
</linearGradient>
<linearGradient id="paint83_linear_7_605" x1="481.89" y1="668.58" x2="1582.41" y2="668.58" gradientUnits="userSpaceOnUse">
<stop stop-color="white"/>
<stop offset="0.66" stop-color="white" stop-opacity="0.33"/>
<stop offset="1" stop-color="white" stop-opacity="0"/>
</linearGradient>
<clipPath id="clip0_7_605">
<rect width="1257" height="659" fill="white" transform="translate(393 179)"/>
</clipPath>
<clipPath id="clip1_7_605">
<rect width="1920" height="496" fill="white" transform="translate(0 864)"/>
</clipPath>
</defs>
</svg>
