<svg width="1920" height="763" viewBox="0 0 1920 763" fill="none" xmlns="http://www.w3.org/2000/svg">
<path d="M1.23692e-10 695.937C1.23692e-10 695.937 94.3005 557.229 319.922 589.531C545.553 621.833 682.074 684.619 762.844 523.073C843.624 361.528 900.695 295.758 1043.97 325.793C1187.24 355.827 1480.62 336.826 1519.19 177.218C1557.76 17.6091 1793.74 -81.1595 1920 88.8768V763H0L1.23692e-10 695.927V695.937Z" fill="url(#paint0_linear_10_747)"/>
<g clip-path="url(#clip0_10_747)">
<path d="M1501.52 258.97C1419.95 136.8 1254.8 103.89 1132.63 185.45C1126.65 189.44 1120.89 193.64 1115.34 198.02C1115.33 198.02 1115.31 198.04 1115.3 198.05C1110.92 201.15 1106.16 205.21 1101.21 209.99C1069.49 238.8 1046.05 274.11 1031.56 312.48C1007.71 349.35 958.69 399.4 886.77 411.38C799.8 425.87 804.62 525.77 775.81 607.54C747.01 689.31 684.89 708.4 684.89 708.4C684.89 708.4 695.91 709.75 796.28 717.81C896.65 725.87 1189.27 732.01 1228.46 729.21C1238.08 728.52 1241.96 705.32 1242.28 669.89C1304.99 678.97 1371.15 665.82 1428 627.86C1550.17 546.29 1583.08 381.14 1501.52 258.97Z" fill="url(#paint1_linear_10_747)"/>
<path opacity="0.6" d="M1484.83 163.44H814.76C803.068 163.44 793.59 172.918 793.59 184.61V588.18C793.59 599.872 803.068 609.35 814.76 609.35H1484.83C1496.52 609.35 1506 599.872 1506 588.18V184.61C1506 172.918 1496.52 163.44 1484.83 163.44Z" fill="url(#paint2_linear_10_747)"/>
<path d="M1505.99 571.65V291C1505 289.74 1504 288.49 1503 287.2C1374.27 121.2 1311.23 248.29 1197.74 374.43C1084.24 500.57 1027.46 267.62 916.65 427.27C871.75 491.96 829.01 519.24 793.58 528.46V571.64C793.58 592.46 810.46 609.34 831.28 609.34H1468.29C1489.11 609.34 1505.99 592.46 1505.99 571.64V571.65Z" fill="#9FBDFF" fill-opacity="0.8"/>
<path d="M1501.67 259.305C1428.71 150.035 1288.88 112.175 1172.75 163.775H769V580.375C769 602.466 786.909 620.375 809 620.375H1121.57C1209.27 685.675 1332.01 692.385 1428.14 628.205C1550.31 546.635 1583.22 381.485 1501.66 259.315L1501.67 259.305Z" fill="url(#paint3_linear_10_747)" fill-opacity="0.42"/>
<path opacity="0.8" d="M1280.31 672.64C1427.21 672.64 1546.29 553.557 1546.29 406.66C1546.29 259.763 1427.21 140.68 1280.31 140.68C1133.41 140.68 1014.33 259.763 1014.33 406.66C1014.33 553.557 1133.41 672.64 1280.31 672.64Z" fill="url(#paint4_linear_10_747)"/>
<path d="M1280.31 625.4C1401.12 625.4 1499.05 527.467 1499.05 406.66C1499.05 285.853 1401.12 187.92 1280.31 187.92C1159.5 187.92 1061.57 285.853 1061.57 406.66C1061.57 527.467 1159.5 625.4 1280.31 625.4Z" stroke="url(#paint5_linear_10_747)" stroke-width="0.8" stroke-miterlimit="10"/>
<path d="M1453.19 395.33L1035.93 334.88" stroke="url(#paint6_linear_10_747)" stroke-width="1.76" stroke-miterlimit="10"/>
<path d="M1163.29 290.65L1035.93 334.88" stroke="url(#paint7_linear_10_747)" stroke-width="1.76" stroke-miterlimit="10"/>
<path d="M1035.93 334.88L887.46 534.97" stroke="url(#paint8_linear_10_747)" stroke-width="1.76" stroke-miterlimit="10"/>
<path d="M1189.53 122.58L1035.93 334.88" stroke="url(#paint9_linear_10_747)" stroke-width="1.76" stroke-miterlimit="10"/>
<path d="M1507.93 138.7H837.86C826.168 138.7 816.69 148.178 816.69 159.87V563.44C816.69 575.132 826.168 584.61 837.86 584.61H1507.93C1519.62 584.61 1529.1 575.132 1529.1 563.44V159.87C1529.1 148.178 1519.62 138.7 1507.93 138.7Z" stroke="url(#paint10_linear_10_747)" stroke-width="1.09" stroke-miterlimit="10"/>
<path d="M1074.71 422.24C1074.71 422.24 1074.84 409.67 1074.43 406.56C1074.01 403.45 1085.03 387.18 1085.65 384.59C1086.27 382 1076.3 366.46 1073.34 361.64C1070.38 356.82 1072.15 339.17 1067.28 336.63C1062.41 334.09 1058.58 338.65 1057.65 342.54C1056.72 346.43 1042.12 353.61 1038.91 355.58C1035.7 357.55 1014.11 376.76 1010.86 381.19C1007.61 385.62 1007.84 389.23 1010.33 392.57C1012.82 395.91 1034.64 413.54 1036.5 416.18C1038.36 418.82 1041.22 459.63 1041.22 459.63C1041.22 459.63 1062.14 454.2 1071.09 445.43C1080.04 436.66 1074.73 422.24 1074.73 422.24H1074.71Z" fill="white"/>
<path d="M1060.62 343.09C1060.62 343.09 1063.46 341.2 1064.67 342.13C1065.88 343.06 1065.57 357.63 1067.18 360.24C1068.78 362.85 1078.92 381.68 1078.2 384.69C1077.48 387.7 1065.44 404.72 1064.81 409.34C1064.18 413.96 1064.14 450.25 1064.14 450.25C1064.14 450.25 1053.93 456.97 1047.3 459.63C1047.3 459.63 1040.83 448.97 1039.83 443.58C1038.83 438.19 1038.7 417.75 1035.88 415.49C1033.05 413.23 1014.81 396.29 1013.89 395.12C1012.98 393.95 1010.74 392.19 1010.92 390.04C1011.1 387.89 1014.74 380.93 1016.55 381.93C1018.36 382.93 1060.62 343.09 1060.62 343.09Z" fill="url(#paint11_linear_10_747)"/>
<path d="M1212.65 89.1399H955.36C952.891 89.1399 950.89 91.1412 950.89 93.6099V123.98C950.89 126.449 952.891 128.45 955.36 128.45H1212.65C1215.12 128.45 1217.12 126.449 1217.12 123.98V93.6099C1217.12 91.1412 1215.12 89.1399 1212.65 89.1399Z" fill="url(#paint12_linear_10_747)"/>
<path d="M1063.13 143.78H955.36C952.891 143.78 950.89 145.781 950.89 148.25V178.62C950.89 181.089 952.891 183.09 955.36 183.09H1063.13C1065.6 183.09 1067.6 181.089 1067.6 178.62V148.25C1067.6 145.781 1065.6 143.78 1063.13 143.78Z" fill="url(#paint13_linear_10_747)"/>
<path d="M865.09 507.18C855.61 444.18 1031.81 365.43 1258.65 331.28C1485.49 297.13 1677.07 320.52 1686.55 383.52" stroke="url(#paint14_linear_10_747)" stroke-width="1.09" stroke-miterlimit="10"/>
<path d="M1629.01 78.24H1441.29C1429.92 78.24 1420.7 87.4584 1420.7 98.83V316.2C1420.7 327.572 1429.92 336.79 1441.29 336.79H1629.01C1640.38 336.79 1649.6 327.572 1649.6 316.2V98.83C1649.6 87.4584 1640.38 78.24 1629.01 78.24Z" fill="url(#paint15_linear_10_747)"/>
<path d="M1432.55 419.46C1426.9 404.87 1414.44 387.38 1404.83 380.28C1402.17 378.32 1399.15 379.45 1397.63 378.75C1390.61 375.49 1370.28 368.65 1325.9 353.26C1311.29 348.19 1310.89 337.72 1303.92 335.5C1289.79 330.99 1277.85 338.81 1269.97 342.8C1258.2 348.74 1231.1 361.65 1208.24 368.34C1188.34 374.16 1176.81 375.31 1169.06 395.33C1163.03 410.91 1137.45 448.57 1124.94 475.01C1112.42 501.45 1112.9 493.03 1104.76 475.23C1096.63 457.43 1075.11 409.4 1075.11 409.4C1075.11 409.4 1071.75 417.76 1054.73 431.98C1037.99 445.96 1028.48 449.93 1027.45 443.7C1026.53 438.17 1041.47 510.08 1046.49 530.43C1048.42 538.26 1051.58 551.68 1058.4 564.05C1066.85 579.37 1094.87 605.22 1120.53 608.71C1125.31 609.36 1135.27 592.93 1149.25 571.17C1166.75 543.94 1172.38 529.88 1173.17 533.95C1174.05 538.47 1189.05 602.47 1189.53 611.95C1189.59 613.11 1173.69 633.1 1169.78 648.59C1166.66 660.91 1160.6 682.37 1158.06 703C1156.43 716.25 1162.17 713.39 1161.98 715.45C1160.53 731.54 1160.26 733.33 1160.29 736.95C1254.01 729.21 1325.41 724.26 1404.32 696.65C1415.4 692.65 1435.74 687.46 1439.09 682.94C1445.43 674.39 1416.22 650.36 1424.77 634.63C1429.02 626.82 1440.15 592.17 1446.47 563.55C1449.52 549.74 1445.27 452.31 1432.55 419.46Z" fill="#197CE1"/>
<path d="M1074.66 411.08C1074.66 411.08 1074.84 409.67 1074.42 406.56C1074 403.45 1085.02 387.18 1085.64 384.59C1086.26 382 1076.29 366.46 1073.33 361.64C1070.37 356.82 1072.14 339.17 1067.27 336.63C1062.4 334.09 1058.57 338.65 1057.64 342.54C1056.71 346.43 1042.11 353.61 1038.9 355.58C1035.69 357.55 1014.1 376.76 1010.85 381.19C1007.6 385.62 1007.83 389.23 1010.32 392.57C1012.81 395.91 1034.63 413.54 1036.49 416.18C1038.35 418.82 1039.86 442.72 1039.86 442.72" stroke="#113291" stroke-width="1.19" stroke-linecap="round" stroke-linejoin="round"/>
<path d="M1019.53 383.02C1019.53 383.02 1020.68 389.63 1021.46 394.02C1022.24 398.41 1027.01 397.54 1027.01 397.54C1027.01 397.54 1066.26 395.38 1068.97 394.75C1071.68 394.12 1067.84 384.98 1067.84 384.98L1045.27 297.76C1045.27 297.76 1044.97 293.67 1040.19 293.8C1035.41 293.93 1000.94 292.98 1000.94 292.98C1000.94 292.98 995.33 292 996.9 298.4C998.47 304.8 1006.82 334.74 1006.82 334.74" stroke="#113291" stroke-width="1.19" stroke-linecap="round" stroke-linejoin="round"/>
<path d="M1022.57 380.74C1022.57 380.74 1023.72 387.35 1024.5 391.74C1025.28 396.13 1030.05 395.26 1030.05 395.26C1030.05 395.26 1069.3 393.1 1072.01 392.47C1074.72 391.84 1070.88 382.7 1070.88 382.7L1048.31 295.48C1048.31 295.48 1048.01 291.39 1043.23 291.52C1038.45 291.65 1003.98 290.7 1003.98 290.7C1003.98 290.7 998.37 289.72 999.94 296.12C1001.51 302.52 1009.86 332.46 1009.86 332.46L1023.31 379.44C1019.7 377.73 1014.11 379.75 1014.11 379.75" fill="url(#paint16_linear_10_747)"/>
<path d="M1250.49 350.87C1250.49 350.87 1271.74 342.7 1276.43 342.8C1281.12 342.9 1306.38 341.87 1308.65 349.94C1317.46 381.21 1308.13 439.31 1311.47 484.51C1313.8 516.01 1331.44 582.75 1348.32 602.87C1350.24 605.16 1331.17 623.11 1269.15 620.46C1241.78 619.29 1215.66 617.78 1215.91 613.64C1219.49 554.29 1211.26 489.42 1211.12 479.32C1210.83 457.85 1216.35 447.85 1223.32 423.27C1237.69 372.61 1250.49 350.87 1250.49 350.87Z" fill="#F9B471"/>
<path d="M1249.06 329.89C1249.06 329.89 1249.83 351.27 1248.59 355.45C1247.35 359.63 1261.32 366.69 1264.07 368.1C1267.49 369.86 1309.77 355.89 1309.77 355.89C1309.77 355.89 1303.4 304.34 1302.47 298.77C1301.54 293.2 1249.06 329.89 1249.06 329.89Z" fill="#FBFEF9"/>
<path d="M1212.65 242.11C1212.65 242.11 1201.7 276.89 1199.5 293.41C1197.3 309.93 1195.11 317.9 1204.91 324.94C1214.7 331.98 1240.71 344.29 1250.93 331.05C1261.15 317.81 1264.98 250.47 1244.95 242.11C1224.92 233.75 1212.65 242.11 1212.65 242.11Z" fill="url(#paint17_linear_10_747)"/>
<path d="M1239.34 176.18C1239.34 176.18 1214.75 185.47 1199.6 205.59C1184.29 225.92 1208.09 247.64 1221.61 253.23C1235.13 258.83 1266.48 197.75 1263.23 194.27C1259.98 190.79 1239.34 176.18 1239.34 176.18Z" fill="url(#paint18_linear_10_747)"/>
<path d="M1238.85 195.97C1237.46 197.53 1215.63 219.49 1216.09 239.33C1216.55 259.17 1218.95 267.38 1216.8 276.67C1214.65 285.96 1210.05 300.75 1219.46 314.16C1226.56 324.29 1239.54 337.65 1247.26 337.65C1260.74 337.65 1305.96 304.81 1316.53 301.79C1327.1 298.77 1367.04 272.99 1340.1 246.06C1313.16 219.12 1238.85 195.97 1238.85 195.97Z" fill="#FBFEF9"/>
<path d="M1310.67 339.39C1310.67 339.39 1312.53 351.16 1345.97 361.06C1379.41 370.97 1394.51 378.5 1399.95 379.84" stroke="#113291" stroke-width="1.78" stroke-linecap="round"/>
<path d="M1309.24 344.25C1308.85 340.34 1301.82 303.24 1304.55 291.91" stroke="#113291" stroke-width="2.37" stroke-linecap="round"/>
<path d="M1297.13 274.08C1297.13 272.91 1305.29 254.42 1318.07 259.04C1330.85 263.66 1321.88 291.13 1305.56 291.95" stroke="#113291" stroke-width="2.37" stroke-linecap="round"/>
<path d="M1304.7 280.96C1304.7 280.96 1311.73 267.68 1314.86 267.29" stroke="#113291" stroke-width="1.19" stroke-linecap="round"/>
<path d="M1213.46 248.66C1211.19 247.38 1189.32 229.41 1195.57 213.01C1201.82 196.6 1225.65 182.93 1225.65 182.93" stroke="#113291" stroke-width="1.19" stroke-linecap="round"/>
<path d="M1241.3 336.11C1241.3 336.11 1223.14 340.73 1200.12 320.17C1191.26 312.26 1210.06 253.24 1210.06 253.24" stroke="#113291" stroke-width="1.19" stroke-linecap="round"/>
<path d="M1347.99 324.78C1347.99 324.78 1357.38 320.27 1359.65 296.98C1361.92 273.69 1356.67 224.69 1332.05 202.59C1307.43 180.49 1254.39 172.07 1237.92 172.36C1219.54 172.69 1223.2 182.92 1226.39 192.78C1229.75 203.18 1241.3 225.39 1274.83 247.84C1289.8 257.86 1301.72 265.73 1301.72 265.73C1301.72 265.73 1309.5 254.82 1318.07 259.04C1328.95 264.4 1323.14 280.64 1317.35 285.94C1311.56 291.24 1308.71 291.44 1304.55 291.9C1304.55 291.9 1302.99 317.29 1309.24 344.24C1310.08 347.85 1343.86 328.73 1347.99 324.78Z" fill="url(#paint19_linear_10_747)"/>
<path d="M1265.71 261.746C1265.93 258.401 1264.12 255.561 1261.68 255.402C1259.23 255.243 1257.07 257.827 1256.85 261.172C1256.64 264.517 1258.44 267.358 1260.89 267.517C1263.34 267.675 1265.5 265.092 1265.71 261.746Z" fill="#0D2265"/>
<path d="M1248.91 298.52C1250.03 300.08 1254.76 301.57 1256.98 302.12C1252.77 303.01 1248.58 304.9 1245.02 305.21C1240.73 305.59 1237.32 304.31 1235.53 304.26C1237.01 302.47 1240.12 298.74 1240.65 298.12C1241.32 297.34 1242.09 299.3 1243.77 298.71C1245.44 298.12 1247.51 296.57 1248.91 298.52Z" fill="#9C9C9C"/>
<path d="M1239.46 283.42C1243.85 282.83 1251.52 286.68 1252.8 287.03C1248.14 287.31 1238.62 287.57 1234.45 287.66C1234.66 286.44 1235.95 283.89 1239.47 283.42H1239.46Z" fill="#C4C4C4"/>
<path d="M1253.19 262.49C1253.94 261.15 1254.51 257.08 1260.63 255.84C1268.28 254.29 1274.05 261.39 1275.4 261.88C1276.74 262.37 1281.08 261.21 1283.12 261.03" stroke="#113291" stroke-width="2.23" stroke-linecap="round" stroke-linejoin="round"/>
<path d="M1257.73 250.39C1261.99 247.85 1276.18 248.87 1288.17 256.51C1288.36 256.54 1288.99 256.46 1290.02 255.89C1291.31 255.18 1271.73 240.77 1265.85 241.05C1261.15 241.28 1258.2 244.92 1257.31 246.71C1257.4 244.82 1257.39 241.29 1256.66 242.29C1255.75 243.53 1252.41 253.57 1257.73 250.4V250.39Z" fill="#0D2265"/>
<path d="M1075.03 408.82C1075.03 408.82 1113.3 493.5 1114.69 498.6" stroke="#113291" stroke-width="1.78" stroke-linecap="round"/>
<path d="M1280.31 703.82C1444.43 703.82 1577.47 570.777 1577.47 406.66C1577.47 242.543 1444.43 109.5 1280.31 109.5C1116.19 109.5 983.15 242.543 983.15 406.66C983.15 570.777 1116.19 703.82 1280.31 703.82Z" stroke="url(#paint20_linear_10_747)" stroke-width="1.76" stroke-miterlimit="10"/>
<path d="M1380.1 151.2C1343.61 136.99 1303.7 130.63 1264.64 132.83L1262.07 87.0599C1307.61 84.4999 1354.19 91.9099 1396.75 108.48L1380.11 151.2H1380.1Z" fill="#ED6921"/>
<path d="M1143.55 579.81C1133.68 593.98 1123.32 609.58 1120.53 608.71C1114.73 606.92 1091.86 598.83 1087.94 595.76C1052.71 568.19 1050.12 547.57 1044.92 524.35C1030.93 461.81 1026.39 439.35 1027.56 444.25C1028.43 447.89 1031.98 447.37 1038.65 443.77C1040.05 443.01 1060.92 546.92 1068.03 555.37C1097.87 590.83 1145.79 576.58 1143.55 579.8V579.81Z" fill="url(#paint21_linear_10_747)"/>
<path d="M1584.49 115.76H1493.11C1481.4 115.76 1471.91 125.25 1471.91 136.96V275.47L1479.53 267.85L1487.15 275.47L1494.77 267.85L1502.39 275.47L1510.01 267.85L1517.63 275.47L1525.25 267.85L1532.87 275.47L1540.49 267.85L1548.11 275.47L1555.73 267.85L1563.35 275.47V136.96C1563.35 125.25 1572.84 115.76 1584.55 115.76" fill="white"/>
<path d="M1584.49 115.76H1493.11C1481.4 115.76 1471.91 125.25 1471.91 136.96V275.47L1479.53 267.85L1487.15 275.47L1494.77 267.85L1502.39 275.47L1510.01 267.85L1517.63 275.47L1525.25 267.85L1532.87 275.47L1540.49 267.85L1548.11 275.47L1555.73 267.85L1563.35 275.47V136.96C1563.35 125.25 1572.84 115.76 1584.55 115.76" stroke="url(#paint22_linear_10_747)" stroke-width="1.78" stroke-linecap="round" stroke-linejoin="round"/>
<path d="M1584.49 115.76C1572.78 115.76 1563.29 125.25 1563.29 136.96V166.09H1605.7V136.96C1605.7 125.25 1596.21 115.76 1584.5 115.76H1584.49Z" stroke="url(#paint23_linear_10_747)" stroke-width="1.78" stroke-linecap="round" stroke-linejoin="round"/>
<path d="M1127.42 389.05C1143.52 389.05 1156.58 375.995 1156.58 359.89C1156.58 343.785 1143.52 330.73 1127.42 330.73C1111.32 330.73 1098.26 343.785 1098.26 359.89C1098.26 375.995 1111.32 389.05 1127.42 389.05Z" fill="url(#paint24_linear_10_747)"/>
<path d="M1121.03 330.73H1127.82C1143.93 330.73 1156.98 343.79 1156.98 359.89C1156.98 375.99 1143.92 389.05 1127.82 389.05H1121.03" stroke="#E8F1FF" stroke-width="1.19" stroke-miterlimit="10"/>
<path d="M1121.03 389.05C1137.13 389.05 1150.19 375.995 1150.19 359.89C1150.19 343.785 1137.13 330.73 1121.03 330.73C1104.93 330.73 1091.87 343.785 1091.87 359.89C1091.87 375.995 1104.93 389.05 1121.03 389.05Z" fill="url(#paint25_linear_10_747)"/>
<path d="M1118.83 365.94L1121.63 355.28H1126.69L1128.71 348.99H1123.28L1125.34 341.14H1118.5L1116.48 348.99H1110.19L1108.62 355.28H1114.86L1110.19 373.45H1135.78L1138.49 365.94H1118.83Z" stroke="#E8F1FF" stroke-width="1.19" stroke-miterlimit="10"/>
<path d="M1137.91 336.11H1144.7" stroke="#E8F1FF" stroke-width="1.19" stroke-miterlimit="10"/>
<path d="M1143.4 341.14H1150.2" stroke="#E8F1FF" stroke-width="1.19" stroke-miterlimit="10"/>
<path d="M1147.82 348.11H1154.61" stroke="#E8F1FF" stroke-width="1.19" stroke-miterlimit="10"/>
<path d="M1150.2 356.73H1156.99" stroke="#E8F1FF" stroke-width="1.19" stroke-miterlimit="10"/>
<path d="M1149.79 365.46H1156.58" stroke="#E8F1FF" stroke-width="1.19" stroke-miterlimit="10"/>
<path d="M1146.8 373.45H1153.59" stroke="#E8F1FF" stroke-width="1.19" stroke-miterlimit="10"/>
<path d="M1140.01 381.88H1146.8" stroke="#E8F1FF" stroke-width="1.19" stroke-miterlimit="10"/>
<path d="M1121.03 389.05C1137.13 389.05 1150.19 375.995 1150.19 359.89C1150.19 343.785 1137.13 330.73 1121.03 330.73C1104.93 330.73 1091.87 343.785 1091.87 359.89C1091.87 375.995 1104.93 389.05 1121.03 389.05Z" stroke="#E8F1FF" stroke-width="1.19" stroke-miterlimit="10"/>
<path d="M1121.03 384.9C1134.84 384.9 1146.04 373.703 1146.04 359.89C1146.04 346.077 1134.84 334.88 1121.03 334.88C1107.22 334.88 1096.02 346.077 1096.02 359.89C1096.02 373.703 1107.22 384.9 1121.03 384.9Z" stroke="#E8F1FF" stroke-width="1.19" stroke-miterlimit="10"/>
<path d="M1048.78 346.619C1053.45 341.5 1051.49 332.118 1044.41 325.664C1037.32 319.211 1027.8 318.129 1023.14 323.248C1018.47 328.367 1020.43 337.749 1027.51 344.203C1034.6 350.656 1044.12 351.738 1048.78 346.619Z" stroke="#E8F1FF" stroke-width="1.57" stroke-miterlimit="10"/>
<path d="M1082.31 288.37C1110 288.37 1132.45 260.401 1132.45 225.9C1132.45 191.399 1110 163.43 1082.31 163.43C1054.62 163.43 1032.17 191.399 1032.17 225.9C1032.17 260.401 1054.62 288.37 1082.31 288.37Z" fill="url(#paint26_linear_10_747)"/>
<path d="M1091.84 288.37C1119.53 288.37 1141.98 260.401 1141.98 225.9C1141.98 191.399 1119.53 163.43 1091.84 163.43C1064.15 163.43 1041.7 191.399 1041.7 225.9C1041.7 260.401 1064.15 288.37 1091.84 288.37Z" stroke="#113291" stroke-width="1.1" stroke-linecap="round" stroke-linejoin="round"/>
<path d="M1082.31 288.37C1110 288.37 1132.45 260.401 1132.45 225.9C1132.45 191.399 1110 163.43 1082.31 163.43C1054.62 163.43 1032.17 191.399 1032.17 225.9C1032.17 260.401 1054.62 288.37 1082.31 288.37Z" stroke="url(#paint27_linear_10_747)" stroke-width="1.09" stroke-miterlimit="10"/>
<path d="M1068.32 218.27L1083.46 240.58L1107.41 205.02" stroke="white" stroke-width="11.02" stroke-miterlimit="10"/>
<path opacity="0.4" d="M757.43 303.81C754.88 302.34 754.87 299.95 757.41 298.47L846.75 246.55C849.29 245.08 853.4 245.08 855.95 246.55L945.88 298.47C948.43 299.94 948.45 302.33 945.91 303.8L856.57 355.72C854.03 357.19 849.91 357.2 847.36 355.72L757.43 303.8V303.81Z" fill="url(#paint28_linear_10_747)"/>
<path d="M860.59 260.66L781.75 306.18L775.56 302.58L854.4 257.06L860.59 260.66ZM845.32 316.17L900.9 284.08L894.71 280.48L839.13 312.57L845.32 316.17ZM829.52 294.16L874.02 268.47L867.83 264.87L823.33 290.56L829.52 294.16ZM832.32 316.5L815.86 326L822.05 329.6L838.51 320.1L832.32 316.5ZM875.93 283.23L887.72 276.42L881.01 272.52L869.22 279.33L875.93 283.23ZM851.64 289.47L858.35 293.37L870.14 286.56L863.43 282.66L851.64 289.47ZM842.73 341.62L848.92 345.22L880.42 327.03L874.23 323.43L842.73 341.62ZM884.77 301.78L829.29 333.81L835.48 337.41L890.96 305.38L884.77 301.78ZM921.58 296.1L880.23 319.97L886.42 323.57L927.77 299.7L921.58 296.1ZM817.23 294.08L788.98 310.39L795.17 313.99L823.42 297.68L817.23 294.08ZM846.11 292.97L802.42 318.19L808.61 321.79L852.3 296.57L846.11 292.97ZM896.76 302.04L914.33 291.89L908.14 288.29L890.57 298.44L896.76 302.04Z" fill="#F1F6FF" fill-opacity="0.5"/>
<path d="M757.43 295.24C754.88 293.77 754.87 291.38 757.41 289.9L846.75 237.98C849.29 236.51 853.4 236.51 855.95 237.98L945.88 289.9C948.43 291.37 948.45 293.76 945.91 295.23L856.57 347.15C854.03 348.62 849.91 348.63 847.36 347.15L757.43 295.23V295.24Z" stroke="url(#paint29_linear_10_747)" stroke-width="1.76" stroke-miterlimit="10"/>
<path opacity="0.6" d="M847.36 189.94C849.91 188.47 854.04 188.47 856.57 189.94L945.91 241.86C948.45 243.33 948.43 245.72 945.88 247.19L855.95 299.11C853.4 300.58 849.28 300.58 846.75 299.11L757.41 247.19C754.87 245.72 754.88 243.33 757.43 241.85L847.36 189.93V189.94Z" fill="url(#paint30_linear_10_747)"/>
<path d="M927.77 243.1L848.93 288.62L842.74 285.02L921.58 239.5L927.77 243.1ZM858 229.51L802.42 261.6L808.61 265.2L864.19 233.11L858 229.51ZM873.8 251.52L829.3 277.21L835.49 280.81L879.99 255.12L873.8 251.52ZM871 229.18L887.46 219.68L881.27 216.08L864.81 225.58L871 229.18ZM827.39 262.45L815.6 269.26L822.31 273.16L834.1 266.35L827.39 262.45ZM833.18 259.11L839.89 263.01L851.68 256.2L844.97 252.3L833.18 259.11ZM860.59 204.06L854.4 200.46L822.9 218.65L829.09 222.25L860.59 204.06ZM818.55 243.9L874.03 211.87L867.84 208.27L812.36 240.3L818.55 243.9ZM816.9 222.11L775.55 245.98L781.74 249.58L823.09 225.71L816.9 222.11ZM886.09 251.61L914.34 235.3L908.15 231.7L879.9 248.01L886.09 251.61ZM857.21 252.72L900.9 227.5L894.71 223.9L851.02 249.12L857.21 252.72ZM806.56 243.65L788.99 253.8L795.18 257.4L812.75 247.25L806.56 243.65Z" fill="#F1F6FF" fill-opacity="0.5"/>
<path d="M757.43 239.42C754.88 237.95 754.87 235.56 757.41 234.08L846.75 182.16C849.29 180.69 853.4 180.69 855.95 182.16L945.88 234.08C948.43 235.55 948.45 237.94 945.91 239.41L856.57 291.33C854.03 292.8 849.91 292.81 847.36 291.33L757.43 239.41V239.42Z" stroke="url(#paint31_linear_10_747)" stroke-width="1.76" stroke-miterlimit="10"/>
<path opacity="0.8" d="M757.43 190.59C754.88 189.12 754.87 186.73 757.41 185.25L846.75 133.33C849.29 131.86 853.4 131.86 855.95 133.33L945.88 185.25C948.43 186.72 948.45 189.11 945.91 190.58L856.57 242.5C854.03 243.97 849.91 243.98 847.36 242.5L757.43 190.58V190.59Z" fill="url(#paint32_linear_10_747)"/>
<path d="M860.59 147.44L781.75 192.96L775.56 189.36L854.4 143.84L860.59 147.44ZM845.32 202.95L900.9 170.86L894.71 167.26L839.13 199.35L845.32 202.95ZM829.52 180.94L874.02 155.25L867.83 151.65L823.33 177.34L829.52 180.94ZM832.32 203.28L815.86 212.78L822.05 216.38L838.51 206.88L832.32 203.28ZM875.93 170.01L887.72 163.2L881.01 159.3L869.22 166.11L875.93 170.01ZM851.64 176.25L858.35 180.15L870.14 173.34L863.43 169.44L851.64 176.25ZM842.73 228.4L848.92 232L880.42 213.81L874.23 210.21L842.73 228.4ZM884.77 188.56L829.29 220.59L835.48 224.19L890.96 192.16L884.77 188.56ZM921.58 182.88L880.23 206.75L886.42 210.35L927.77 186.48L921.58 182.88ZM817.23 180.86L788.98 197.17L795.17 200.77L823.42 184.46L817.23 180.86ZM846.11 179.75L802.42 204.97L808.61 208.57L852.3 183.35L846.11 179.75ZM896.76 188.82L914.33 178.67L908.14 175.07L890.57 185.22L896.76 188.82Z" fill="#F1F6FF" fill-opacity="0.5"/>
<path d="M757.43 183.61C754.88 182.14 754.87 179.75 757.41 178.27L846.75 126.35C849.29 124.88 853.4 124.88 855.95 126.35L945.88 178.27C948.43 179.74 948.45 182.13 945.91 183.6L856.57 235.52C854.03 236.99 849.91 237 847.36 235.52L757.43 183.6V183.61Z" stroke="url(#paint33_linear_10_747)" stroke-width="1.76" stroke-miterlimit="10"/>
<path d="M1031.93 320C1031.43 317.82 1008.42 227.98 1008.42 227.98H1032.31" stroke="url(#paint34_linear_10_747)" stroke-width="1.76" stroke-miterlimit="10"/>
<path d="M1020.76 332.41H881.94" stroke="url(#paint35_linear_10_747)" stroke-width="1.76" stroke-miterlimit="10"/>
<path d="M1383.81 147.36C1347.32 133.15 1307.41 126.79 1268.35 128.99L1265.78 83.2201C1311.32 80.6601 1357.9 88.0701 1400.46 104.64L1383.82 147.36H1383.81Z" stroke="url(#paint36_linear_10_747)" stroke-width="1.09" stroke-miterlimit="10"/>
<path d="M989.27 99.97H1182.07" stroke="url(#paint37_linear_10_747)" stroke-width="1.76" stroke-linecap="round" stroke-linejoin="round"/>
<path d="M989.27 108.8H1085.67" stroke="url(#paint38_linear_10_747)" stroke-width="1.76" stroke-linecap="round" stroke-linejoin="round"/>
<path d="M989.27 117.62H1096.57" stroke="url(#paint39_linear_10_747)" stroke-width="1.76" stroke-linecap="round" stroke-linejoin="round"/>
<path d="M989.27 155.83H1046.73" stroke="url(#paint40_linear_10_747)" stroke-width="1.76" stroke-linecap="round" stroke-linejoin="round"/>
<path d="M989.27 164.66H1019.55" stroke="url(#paint41_linear_10_747)" stroke-width="1.76" stroke-linecap="round" stroke-linejoin="round"/>
<path d="M989.27 173.48H1040.85" stroke="url(#paint42_linear_10_747)" stroke-width="1.76" stroke-linecap="round" stroke-linejoin="round"/>
<path d="M970.93 118.82C976.464 118.82 980.95 114.334 980.95 108.8C980.95 103.266 976.464 98.78 970.93 98.78C965.396 98.78 960.91 103.266 960.91 108.8C960.91 114.334 965.396 118.82 970.93 118.82Z" stroke="url(#paint43_linear_10_747)" stroke-width="1.78" stroke-linecap="round" stroke-linejoin="round"/>
<path d="M970.93 173.46C976.464 173.46 980.95 168.974 980.95 163.44C980.95 157.906 976.464 153.42 970.93 153.42C965.396 153.42 960.91 157.906 960.91 163.44C960.91 168.974 965.396 173.46 970.93 173.46Z" stroke="url(#paint44_linear_10_747)" stroke-width="1.78" stroke-linecap="round" stroke-linejoin="round"/>
<path opacity="0.8" d="M1550.13 152.08H1481.9V160.78H1550.13V152.08Z" fill="url(#paint45_linear_10_747)"/>
<path opacity="0.8" d="M1550.13 216.29H1481.9V224.99H1550.13V216.29Z" fill="url(#paint46_linear_10_747)"/>
<path opacity="0.8" d="M1535.62 168.13H1481.9V176.83H1535.62V168.13Z" fill="url(#paint47_linear_10_747)"/>
<path opacity="0.8" d="M1550.13 184.19H1481.9V192.89H1550.13V184.19Z" fill="url(#paint48_linear_10_747)"/>
<path opacity="0.8" d="M1550.13 232.34H1481.9V241.04H1550.13V232.34Z" fill="url(#paint49_linear_10_747)"/>
<path opacity="0.8" d="M1535.62 200.24H1481.9V208.94H1535.62V200.24Z" fill="url(#paint50_linear_10_747)"/>
<path d="M1031.93 320C1031.43 317.82 1024.6 291.23 1024.6 291.23" stroke="#E8F1FF" stroke-width="1.57" stroke-miterlimit="10"/>
<path d="M1009.86 332.48L1020.76 332.41" stroke="#E8F1FF" stroke-width="1.57" stroke-miterlimit="10"/>
<path d="M1023.35 388.37C1037.65 383.23 1052.71 378.24 1068.45 373.45" stroke="url(#paint51_linear_10_747)" stroke-width="1.09" stroke-miterlimit="10"/>
<path d="M1007.54 390.26C1007.54 390.26 1006.53 379.43 1006.93 376.97C1007.34 374.51 1000.68 371.82 999.09 367.79C997.5 363.76 1003.93 355.98 1003.56 353.7C1003.37 352.5 996.75 347.28 994.99 345.94C991.78 343.49 994.06 337.64 996.52 336.91C1001.09 335.55 1017.93 334.5 1020.2 337.42C1022.47 340.34 1019.84 344.09 1018.3 345.36C1016.76 346.63 1007.44 349.7 1009.52 350.2C1011.6 350.7 1024.1 356.43 1027.6 357.82C1031.1 359.21 1036.79 362.91 1036.8 365.94C1036.8 368.97 1034.04 372.88 1030.76 372.09C1027.48 371.3 1025.5 371.19 1025.5 371.19C1025.5 371.19 1036.85 377.93 1037.73 379.6C1038.61 381.27 1035.63 385.31 1033.1 385.98C1030.57 386.65 1020.44 382.4 1016.87 382.82C1013.3 383.24 1009.51 391.83 1007.55 390.27L1007.54 390.26Z" fill="white"/>
<path d="M1011.04 365.66C1011.04 365.66 1017.51 366.97 1023 368.52C1028.49 370.07 1032.92 372.77 1034.92 370.52C1036.92 368.27 1037.6 363.75 1033.28 361.08C1028.96 358.41 1017.51 353.43 1015.83 352.71C1014.15 351.99 1005.04 352.31 1005.04 352.31" stroke="#113291" stroke-width="1.19" stroke-linecap="round" stroke-linejoin="round"/>
<path d="M1016.29 367.62C1016.29 367.62 1021.68 368.13 1026.17 371.25C1030.65 374.37 1037.61 378.4 1037.71 379.59C1037.82 380.78 1036.04 384.76 1033.08 385.97C1030.12 387.18 1017.71 381.68 1015.99 381.88C1014.27 382.07 1012.1 385.13 1012.1 385.13" stroke="#113291" stroke-width="1.19" stroke-linecap="round" stroke-linejoin="round"/>
<path d="M1013.41 346.29C1013.41 346.29 997.58 346.09 998.55 347.51C999.52 348.93 1003.49 351.32 1003.45 351.63C1003.41 351.94 1016.47 352.44 1015.6 351.4C1014.73 350.36 1013.4 346.3 1013.4 346.3L1013.41 346.29Z" fill="url(#paint52_linear_10_747)"/>
<path d="M1041.19 349.78L1049.27 379.5" stroke="#E8F1FF" stroke-width="1.57" stroke-miterlimit="10"/>
<path opacity="0.43" d="M893.71 528.03H879.82V541.92H893.71V528.03Z" fill="url(#paint53_linear_10_747)"/>
<path opacity="0.43" d="M892.39 529.34H881.14V540.59H892.39V529.34Z" stroke="url(#paint54_linear_10_747)" stroke-width="0.26" stroke-miterlimit="10"/>
<path opacity="0.43" d="M1175.15 278.79H1151.43V302.51H1175.15V278.79Z" fill="url(#paint55_linear_10_747)"/>
<path opacity="0.43" d="M1172.9 281.04H1153.68V300.26H1172.9V281.04Z" stroke="url(#paint56_linear_10_747)" stroke-width="0.44" stroke-miterlimit="10"/>
<path opacity="0.43" d="M1465.04 383.47H1441.32V407.19H1465.04V383.47Z" fill="url(#paint57_linear_10_747)"/>
<path opacity="0.43" d="M1462.8 385.72H1443.58V404.94H1462.8V385.72Z" stroke="url(#paint58_linear_10_747)" stroke-width="0.44" stroke-miterlimit="10"/>
<path opacity="0.43" d="M1200.54 113.57H1176.82V137.29H1200.54V113.57Z" fill="url(#paint59_linear_10_747)"/>
<path opacity="0.43" d="M1198.29 115.83H1179.07V135.05H1198.29V115.83Z" stroke="url(#paint60_linear_10_747)" stroke-width="0.44" stroke-miterlimit="10"/>
<path d="M918.82 470.7C940.9 470.7 958.8 452.8 958.8 430.72C958.8 408.64 940.9 390.74 918.82 390.74C896.739 390.74 878.84 408.64 878.84 430.72C878.84 452.8 896.739 470.7 918.82 470.7Z" fill="url(#paint61_linear_10_747)"/>
<path opacity="0.43" d="M901.87 419.05H935.76" stroke="url(#paint62_linear_10_747)" stroke-width="0.69" stroke-miterlimit="10"/>
<path opacity="0.43" d="M901.87 427.74H935.76" stroke="url(#paint63_linear_10_747)" stroke-width="0.69" stroke-miterlimit="10"/>
<path opacity="0.43" d="M901.87 436.43H921.15" stroke="url(#paint64_linear_10_747)" stroke-width="0.69" stroke-miterlimit="10"/>
<path opacity="0.43" d="M901.87 445.12H921.15" stroke="url(#paint65_linear_10_747)" stroke-width="0.69" stroke-miterlimit="10"/>
<path d="M1617.01 93.53H1429.29C1417.92 93.53 1408.7 102.748 1408.7 114.12V331.49C1408.7 342.862 1417.92 352.08 1429.29 352.08H1617.01C1628.38 352.08 1637.6 342.862 1637.6 331.49V114.12C1637.6 102.748 1628.38 93.53 1617.01 93.53Z" stroke="url(#paint66_linear_10_747)" stroke-width="1.76" stroke-miterlimit="10"/>
<path d="M1551.55 448.06C1588.05 448.06 1617.64 413.053 1617.64 369.87C1617.64 326.687 1588.05 291.68 1551.55 291.68C1515.05 291.68 1485.46 326.687 1485.46 369.87C1485.46 413.053 1515.05 448.06 1551.55 448.06Z" fill="#FF7E2F"/>
<path d="M1541.08 448.06C1577.58 448.06 1607.17 413.053 1607.17 369.87C1607.17 326.687 1577.58 291.68 1541.08 291.68C1504.58 291.68 1474.99 326.687 1474.99 369.87C1474.99 413.053 1504.58 448.06 1541.08 448.06Z" fill="#FEB36F"/>
<path d="M1497.98 363.21L1517.54 332.24H1534.05L1514.49 363.21H1497.98ZM1510.52 389.26L1539.12 343.96C1541.22 340.47 1543.57 337.25 1546.14 334.36C1549.14 331.02 1552.66 328.62 1556.44 327.31C1561.35 325.58 1566.53 325.75 1571.37 327.8C1576.16 329.82 1580.35 333.84 1583.31 339.27C1587.07 346.39 1588.65 355.15 1587.73 363.78C1587.31 368.03 1586.25 372.13 1584.63 375.83C1583.01 379.53 1580.86 382.77 1578.3 385.35C1575.37 388.25 1571.98 390.21 1568.39 391.08C1566.36 391.65 1564.3 391.96 1562.22 392H1554.15L1539.54 415.19H1523.08L1546.47 378.1L1548.38 375.06H1559.25C1563.07 375.06 1567.1 375.06 1570.41 372.19H1570.47C1572.02 370.76 1573.29 368.86 1574.19 366.64C1575.08 364.42 1575.57 361.96 1575.62 359.44C1575.66 356.92 1575.26 354.43 1574.44 352.16C1573.62 349.89 1572.41 347.92 1570.91 346.39L1570.75 346.23L1570.66 346.14L1570.54 346.03C1568.65 344.25 1566.41 343.26 1564.1 343.16H1563.97C1562.48 343.07 1560.98 343.28 1559.54 343.78C1557.52 344.5 1555.64 345.81 1554.04 347.61C1552.09 349.86 1550.29 352.35 1548.68 355.03L1526.95 389.43L1510.53 389.27L1510.52 389.26Z" fill="#FF7F2E"/>
<path d="M1494.19 361.65L1513.75 330.68H1530.26L1510.7 361.65H1494.19ZM1506.73 387.7L1535.33 342.4C1537.43 338.91 1539.78 335.69 1542.35 332.8C1545.35 329.46 1548.87 327.06 1552.65 325.75C1557.56 324.02 1562.74 324.19 1567.58 326.24C1572.37 328.26 1576.56 332.28 1579.52 337.71C1583.28 344.83 1584.86 353.59 1583.94 362.22C1583.52 366.47 1582.46 370.57 1580.84 374.27C1579.22 377.97 1577.07 381.21 1574.51 383.79C1571.58 386.69 1568.19 388.65 1564.6 389.52C1562.57 390.09 1560.51 390.4 1558.43 390.44H1550.36L1535.75 413.63H1519.29L1542.68 376.54L1544.59 373.5H1555.46C1559.28 373.5 1563.31 373.5 1566.62 370.63H1566.68C1568.23 369.2 1569.5 367.3 1570.4 365.08C1571.29 362.86 1571.78 360.4 1571.83 357.88C1571.87 355.36 1571.47 352.87 1570.65 350.6C1569.83 348.33 1568.62 346.36 1567.12 344.83L1566.96 344.67L1566.87 344.58L1566.75 344.47C1564.86 342.69 1562.62 341.7 1560.31 341.6H1560.18C1558.69 341.51 1557.19 341.72 1555.75 342.22C1553.73 342.94 1551.85 344.25 1550.25 346.05C1548.3 348.3 1546.5 350.79 1544.89 353.47L1523.16 387.87L1506.74 387.71L1506.73 387.7Z" fill="white"/>
<path d="M1541.08 448.06C1577.58 448.06 1607.17 413.053 1607.17 369.87C1607.17 326.687 1577.58 291.68 1541.08 291.68C1504.58 291.68 1474.99 326.687 1474.99 369.87C1474.99 413.053 1504.58 448.06 1541.08 448.06Z" stroke="url(#paint67_linear_10_747)" stroke-width="1.09" stroke-miterlimit="10"/>
<path d="M1027.78 444.9C1027.78 444.9 1044.09 531.76 1054.77 556.84C1065.45 581.92 1101.48 607.08 1118.67 608.71C1126.07 609.41 1149.79 570.15 1173.17 533.96" stroke="#113291" stroke-width="1.78" stroke-linecap="round"/>
<path d="M1231.51 204.02C1231.51 204.02 1214.84 227.06 1215.65 243.16C1216.35 256.95 1218.62 270.81 1217.05 275.89C1215.49 280.97 1207.9 298.55 1221.07 316.51C1234.24 334.48 1240.15 337.25 1250.65 337.99C1259.29 338.6 1279.26 328.18 1279.26 328.18" stroke="#9C9C9C" stroke-width="1.78" stroke-linecap="round"/>
<path d="M1262.07 300.74C1245.05 305.42 1246.24 306.58 1232.34 303.94" stroke="#9C9C9C" stroke-width="1.78" stroke-linecap="round"/>
<path d="M1255.26 307.88C1254.14 308.18 1247.37 312.48 1243.86 312.49C1241.05 312.5 1237.9 309.89 1236.67 308.59" stroke="#9C9C9C" stroke-width="1.78" stroke-linecap="round"/>
<path d="M1249.66 337.92C1249.66 338.33 1248.03 350.9 1248.74 357.49" stroke="#9C9C9C" stroke-width="1.78" stroke-linecap="round"/>
<path d="M1229.26 263.58C1229.47 260.522 1228.02 257.933 1226.03 257.797C1224.03 257.661 1222.25 260.03 1222.04 263.088C1221.83 266.146 1223.28 268.735 1225.27 268.871C1227.27 269.007 1229.05 266.639 1229.26 263.58Z" fill="#0D2265"/>
<path d="M1234.23 252.04C1229.84 249.74 1221.12 248.12 1209.57 256.41C1209.38 256.45 1207.65 254.39 1207.65 253.84C1207.56 251.28 1219.71 243.2 1225.6 243.16C1230.31 243.12 1233.46 246.59 1234.44 248.33C1234.25 246.45 1234.06 242.92 1234.84 243.88C1235.82 245.07 1239.71 254.91 1234.23 252.04Z" fill="#0D2265"/>
<path d="M1234.9 261.63C1233.3 261.49 1225.85 256.59 1220.82 256.81C1216.84 256.99 1216.8 261.66 1214.08 262.89C1213.36 263.22 1213.31 263.4 1212.65 263.31" stroke="#113291" stroke-width="2.23" stroke-linecap="round" stroke-linejoin="round"/>
<path d="M1290.49 256.75C1290.49 256.75 1248.7 237.22 1231.51 204.02C1214.32 170.82 1229.56 172.38 1242.45 172.38C1255.34 172.38 1308.39 179.16 1335.92 205.97C1362.35 231.7 1365.31 307.88 1350.68 322.57C1342.69 330.6 1309.24 345.17 1309.24 345.17" stroke="#113291" stroke-width="1.78" stroke-linecap="round"/>
<path d="M1233.77 714.76C1233.77 714.76 1239.8 728.17 1243.93 729.01" stroke="#113291" stroke-width="1.78" stroke-linecap="round"/>
<path d="M1211.12 636.35C1211.12 636.35 1259.29 652.15 1324.71 636.35" stroke="#113291" stroke-width="1.78" stroke-linecap="round"/>
<path d="M1214.98 648.89C1204.16 691.47 1195.51 729.19 1195.47 734.05" stroke="#113291" stroke-width="1.78" stroke-linecap="round"/>
<path d="M1271.05 373.45C1271.05 373.45 1248.7 464.45 1249.66 475.6C1250.61 486.75 1256.35 596.86 1263.47 614.28" stroke="#ED6921" stroke-width="1.78" stroke-linecap="round" stroke-linejoin="round"/>
<path d="M1242.01 611.96C1242.01 611.96 1231.28 482.07 1234.44 470.71C1237.6 459.35 1259.29 369.68 1259.29 369.68" stroke="#ED6921" stroke-width="1.78" stroke-linecap="round" stroke-linejoin="round"/>
<path d="M1264.08 368.1L1257.11 363.18L1241.3 379.67" stroke="#ED6921" stroke-width="1.78" stroke-linecap="round" stroke-linejoin="round"/>
<path d="M1248.73 357.48C1248.73 357.48 1253.16 361.95 1257.11 363.17" stroke="#ED6921" stroke-width="1.78" stroke-linecap="round" stroke-linejoin="round"/>
<path d="M1276.95 366.41C1276.95 366.41 1297.74 362.83 1308.76 356.24" stroke="#ED6921" stroke-width="1.78" stroke-linecap="round" stroke-linejoin="round"/>
<path d="M1443.58 504.29C1443.58 504.29 1446.98 479.65 1436.91 433.32C1430.23 402.6 1404.16 379.66 1404.16 379.66C1404.16 379.66 1392.08 376.41 1374.89 403.35" stroke="#113291" stroke-width="1.78" stroke-linecap="round"/>
<path d="M1343.76 632.4C1343.76 632.4 1347.11 624.96 1359.24 632.4C1371.37 639.84 1381.74 645.18 1382.61 648.89C1383.48 652.61 1371.18 689.66 1371.18 689.66C1371.18 689.66 1345.66 664.36 1341.19 656.65C1336.72 648.93 1332.32 643.86 1333.79 643.3C1335.26 642.74 1342.05 638.56 1342.4 637.86C1342.75 637.16 1343.76 632.4 1343.76 632.4Z" fill="white"/>
<path d="M1447.34 560.12C1447.34 560.12 1432.26 620.33 1423.92 636.35C1415.58 652.37 1397.88 676.54 1397.88 676.54" stroke="#113291" stroke-width="1.78" stroke-linecap="round"/>
<path d="M1364.78 638.38C1364.78 638.38 1358.33 638.55 1356.59 638.38C1354.85 638.21 1348.92 648.83 1347.53 651.62C1346.14 654.41 1342.36 657.14 1342.36 657.14C1342.36 657.14 1334.76 645.41 1334.72 644.42C1334.68 643.43 1333.41 643.69 1336.49 641.75C1339.57 639.81 1343.63 637.45 1343.86 635.01C1344.09 632.57 1344.02 629.53 1347.67 629.37C1351.32 629.21 1362.39 633.81 1364.15 635.12C1365.91 636.43 1369.23 638.67 1369.23 638.67C1369.23 638.67 1368.77 638.55 1364.76 638.38H1364.78Z" fill="url(#paint68_linear_10_747)"/>
<path d="M1334.73 642.84C1334.73 642.84 1341.61 638.64 1342.39 637.86C1343.17 637.08 1346.66 636.55 1348.31 637.86" stroke="#9C9C9C" stroke-width="1.78" stroke-linecap="round"/>
<path d="M1343.28 637.39C1343.28 637.39 1343.43 633.92 1343.93 632.08C1344.43 630.24 1346.7 629.1 1346.7 629.1" stroke="#9C9C9C" stroke-width="1.78" stroke-linecap="round"/>
<path d="M1036.96 418C1036.96 418 1023.64 440.25 1028.58 445.89C1032.32 450.15 1039.82 442.28 1039.82 442.28L1036.96 418Z" fill="#1B44C0"/>
<path d="M1382.18 650.57C1382.18 650.57 1378.02 668.29 1377.79 669.8C1377.56 671.31 1370.66 689.12 1370.66 689.12" stroke="#9C9C9C" stroke-width="1.78" stroke-linecap="round"/>
<path d="M1332.11 640.76C1333.77 641.69 1339 656.67 1349.45 667.12C1359.9 677.57 1374.89 693.6 1374.89 693.6" stroke="#113291" stroke-width="1.78" stroke-linecap="round"/>
<path d="M1342.48 635.53C1342.48 635.53 1340.63 633.56 1341.82 631.93C1341.82 631.93 1345.35 620.34 1374.88 642.38C1398.23 659.8 1397.88 676.53 1397.88 676.53C1397.88 676.53 1389.96 682.3 1378.35 673.17" stroke="#113291" stroke-width="1.78" stroke-linecap="round"/>
<path d="M1423.48 638.2C1423.48 638.2 1425.5 651.87 1428.57 657.13C1431.65 662.4 1439.9 681 1439.9 681" stroke="#113291" stroke-width="1.78" stroke-linecap="round"/>
<path d="M1404.15 667.71C1404.15 667.71 1414.37 677.23 1416.35 680.48C1418.32 683.73 1423.48 688.03 1423.48 688.03" stroke="#113291" stroke-width="1.78" stroke-linecap="round"/>
<path d="M1036.31 419.12C1033.99 420.98 1021.87 445.8 1030.23 446.73C1038.59 447.66 1079.37 413.39 1074.73 408.28" stroke="#113291" stroke-width="1.19" stroke-linecap="round"/>
<path d="M1310.31 488.81C1310.31 488.81 1312.87 560.83 1313.79 575.13C1314.72 589.43 1313.79 616.02 1313.79 616.02C1313.79 616.02 1343.58 611.74 1346.53 611.24C1349.48 610.74 1354.33 611.48 1350.77 607.53C1347.21 603.58 1322.09 546.74 1319.12 529.67C1316.16 512.6 1310.29 488.81 1310.29 488.81H1310.31Z" fill="url(#paint69_linear_10_747)"/>
<path d="M1308.28 343.84C1308.28 343.84 1312.17 356.23 1312.48 397.61C1312.83 443.46 1306.76 454.23 1312.29 492.24C1319.89 544.51 1332.1 572.87 1352.61 610.94" stroke="#113291" stroke-width="1.78" stroke-linecap="round"/>
<path d="M1225.41 618.32C1225.41 618.32 1227.39 595.46 1225.41 576.88C1223.43 558.3 1211.63 494.42 1211.95 490.82C1212.28 487.22 1212.71 525.52 1213.99 529.76C1215.27 534 1216.5 570.62 1217.06 580.02C1217.62 589.42 1215.17 612.55 1215.17 612.55C1215.17 612.55 1215.82 615.42 1217.91 616.43C1220 617.44 1225.41 618.33 1225.41 618.33V618.32Z" fill="url(#paint70_linear_10_747)"/>
<path d="M1215.91 613.64C1215.91 617.76 1232.2 620.12 1250.03 620.62C1264.46 621.02 1328.66 625.42 1346.7 605.22" stroke="#113291" stroke-width="1.78" stroke-linecap="round"/>
<path d="M1184.73 414.5C1184.73 414.5 1181.34 465.23 1184.73 470.7C1188.12 476.18 1209.05 616.6 1211.11 623.92C1213.17 631.24 1202.08 647.91 1193.88 658.2C1191.96 660.61 1179.51 672.05 1171.85 683.34C1167.21 690.18 1164.32 700.46 1162.22 713.61C1161.31 719.34 1157.59 710.62 1157.59 709.99C1157.54 696.56 1170.24 645.98 1171.75 642.15C1173.26 638.32 1184 622.95 1185.77 618.32C1187.54 613.69 1189.89 610.67 1189.58 607.54C1189.28 604.4 1168.55 515.09 1167.51 507.18C1166.48 499.27 1165.22 490.55 1165.38 486.73C1166.04 470.7 1184.72 414.5 1184.72 414.5H1184.73Z" fill="url(#paint71_linear_10_747)"/>
<path d="M1188.68 400.7C1188.68 400.7 1163.27 477.15 1165.13 493.87C1166.99 510.59 1190.65 603.77 1189.53 611.96C1189 615.8 1171.56 633.79 1167.76 657.12C1163.96 680.45 1159.28 683.69 1157.59 708.59C1157.59 708.59 1156.8 713.04 1161.72 714.77" stroke="#113291" stroke-width="1.78" stroke-linecap="round"/>
<path d="M1686.55 383.53C1696.03 446.53 1519.83 525.28 1292.99 559.43C1066.15 593.58 874.57 570.19 865.09 507.19" stroke="url(#paint72_linear_10_747)" stroke-width="1.09" stroke-miterlimit="10"/>
<path d="M1013.91 599.63C1031.73 599.63 1046.17 585.187 1046.17 567.37C1046.17 549.553 1031.73 535.11 1013.91 535.11C996.094 535.11 981.65 549.553 981.65 567.37C981.65 585.187 996.094 599.63 1013.91 599.63Z" fill="url(#paint73_linear_10_747)"/>
<path d="M1013.91 599.63C1031.73 599.63 1046.17 585.187 1046.17 567.37C1046.17 549.553 1031.73 535.11 1013.91 535.11C996.094 535.11 981.65 549.553 981.65 567.37C981.65 585.187 996.094 599.63 1013.91 599.63Z" fill="url(#paint74_linear_10_747)"/>
<path d="M1006.38 599.63C1024.2 599.63 1038.64 585.187 1038.64 567.37C1038.64 549.553 1024.2 535.11 1006.38 535.11C988.563 535.11 974.12 549.553 974.12 567.37C974.12 585.187 988.563 599.63 1006.38 599.63Z" fill="#FF7F00"/>
<path d="M1006.38 535.11H1013.89C1031.71 535.11 1046.15 549.55 1046.15 567.37C1046.15 585.19 1031.71 599.63 1013.89 599.63H1006.38" stroke="white" stroke-width="0.94" stroke-miterlimit="10"/>
<path d="M1021.67 538.96H1029.19" stroke="white" stroke-width="0.94" stroke-miterlimit="10"/>
<path d="M1028.56 543.94H1036.07" stroke="white" stroke-width="0.94" stroke-miterlimit="10"/>
<path d="M1033.95 550.83H1041.46" stroke="white" stroke-width="0.94" stroke-miterlimit="10"/>
<path d="M1037.71 559.64H1045.22" stroke="white" stroke-width="0.94" stroke-miterlimit="10"/>
<path d="M1038.64 569.28H1046.15" stroke="white" stroke-width="0.94" stroke-miterlimit="10"/>
<path d="M1037.08 578.19H1044.29" stroke="white" stroke-width="0.94" stroke-miterlimit="10"/>
<path d="M1031.93 586.72H1039.45" stroke="white" stroke-width="0.94" stroke-miterlimit="10"/>
<path d="M1024.42 593.98H1031.93" stroke="white" stroke-width="0.94" stroke-miterlimit="10"/>
<path d="M1006.38 595.76C1022.06 595.76 1034.77 583.049 1034.77 567.37C1034.77 551.691 1022.06 538.98 1006.38 538.98C990.701 538.98 977.99 551.691 977.99 567.37C977.99 583.049 990.701 595.76 1006.38 595.76Z" stroke="white" stroke-width="0.94" stroke-miterlimit="10"/>
<path d="M1010.7 564.85H999.21V555.38H1010.7C1012.16 555.38 1013.35 556.57 1013.35 558.03V562.19C1013.35 563.65 1012.16 564.84 1010.7 564.84V564.85Z" stroke="white" stroke-width="0.94" stroke-miterlimit="10"/>
<path d="M1013.5 577.44H999.2V569.64H1013.5C1014.71 569.64 1015.68 570.62 1015.68 571.82V575.25C1015.68 576.46 1014.7 577.43 1013.5 577.43V577.44Z" stroke="white" stroke-width="0.94" stroke-miterlimit="10"/>
<path d="M1015.71 565.79C1018.24 564.51 1019.98 561.89 1019.98 558.86C1019.98 554.57 1016.5 551.09 1012.21 551.09H1010.23V547.14H1006.16V551.09H1001.43V547.14H997.36V551.09H991.07V555.04H994.41V577.88H991.07V582.46H997.36V585.89H1001.43V582.46H1006.16V585.89H1010.23V582.46H1014.07C1018.72 582.46 1022.49 578.69 1022.49 574.05C1022.49 569.96 1019.58 566.56 1015.71 565.8V565.79Z" stroke="white" stroke-width="0.94" stroke-miterlimit="10"/>
<path d="M1006.38 599.63C1024.2 599.63 1038.64 585.187 1038.64 567.37C1038.64 549.553 1024.2 535.11 1006.38 535.11C988.563 535.11 974.12 549.553 974.12 567.37C974.12 585.187 988.563 599.63 1006.38 599.63Z" stroke="white" stroke-width="0.94" stroke-miterlimit="10"/>
<path d="M1469.59 558.59C1490.05 558.59 1506.63 542.007 1506.63 521.55C1506.63 501.093 1490.05 484.51 1469.59 484.51C1449.13 484.51 1432.55 501.093 1432.55 521.55C1432.55 542.007 1449.13 558.59 1469.59 558.59Z" fill="url(#paint75_linear_10_747)"/>
<path d="M1460.96 484.51H1469.59C1490.05 484.51 1506.63 501.09 1506.63 521.55C1506.63 542.01 1490.05 558.59 1469.59 558.59H1460.96" stroke="#E8F1FF" stroke-width="1.19" stroke-miterlimit="10"/>
<path d="M1460.96 558.59C1481.42 558.59 1498 542.007 1498 521.55C1498 501.093 1481.42 484.51 1460.96 484.51C1440.5 484.51 1423.92 501.093 1423.92 521.55C1423.92 542.007 1440.5 558.59 1460.96 558.59Z" fill="url(#paint76_linear_10_747)"/>
<path d="M1447.34 520.14L1460.45 493.01L1474.59 520.14L1460.96 526.98L1447.34 520.14Z" stroke="#E8F1FF" stroke-width="1.19" stroke-linecap="round" stroke-linejoin="round"/>
<path d="M1447.34 524.52L1460.96 532.42L1474.59 524.52L1460.96 547.19L1447.34 524.52Z" stroke="#E8F1FF" stroke-width="1.19" stroke-linecap="round" stroke-linejoin="round"/>
<path d="M1478.56 488.97H1487.35" stroke="#E8F1FF" stroke-width="1.19" stroke-miterlimit="10"/>
<path d="M1487.09 495.22H1495.7" stroke="#E8F1FF" stroke-width="1.19" stroke-miterlimit="10"/>
<path d="M1493.7 504.29H1502.31" stroke="#E8F1FF" stroke-width="1.19" stroke-miterlimit="10"/>
<path d="M1498 515.92H1506.61" stroke="#E8F1FF" stroke-width="1.19" stroke-miterlimit="10"/>
<path d="M1497.61 528.03H1506.21" stroke="#E8F1FF" stroke-width="1.19" stroke-miterlimit="10"/>
<path d="M1493.7 538.29H1502.31" stroke="#E8F1FF" stroke-width="1.19" stroke-miterlimit="10"/>
<path d="M1487.35 547.71H1495.96" stroke="#E8F1FF" stroke-width="1.19" stroke-miterlimit="10"/>
<path d="M1480.69 552.91H1489.53" stroke="#E8F1FF" stroke-width="1.19" stroke-miterlimit="10"/>
<path d="M1460.96 558.59C1481.42 558.59 1498 542.007 1498 521.55C1498 501.093 1481.42 484.51 1460.96 484.51C1440.5 484.51 1423.92 501.093 1423.92 521.55C1423.92 542.007 1440.5 558.59 1460.96 558.59Z" stroke="#E8F1FF" stroke-width="1.19" stroke-miterlimit="10"/>
<path d="M1460.96 554.29C1479.04 554.29 1493.7 539.632 1493.7 521.55C1493.7 503.468 1479.04 488.81 1460.96 488.81C1442.88 488.81 1428.22 503.468 1428.22 521.55C1428.22 539.632 1442.88 554.29 1460.96 554.29Z" stroke="#E8F1FF" stroke-width="1.19" stroke-miterlimit="10"/>
<path d="M1272.1 369.68L1275.63 367.56L1287.8 391.03L1272.1 369.68Z" fill="url(#paint77_linear_10_747)"/>
<path d="M1288.12 391.69L1276 366.69L1271.05 369.45" stroke="#ED6921" stroke-width="1.78" stroke-linecap="round" stroke-linejoin="round"/>
<path d="M1263.5 368.52L1237.77 383.27L1257.11 364.1L1263.5 368.52Z" fill="url(#paint78_linear_10_747)"/>
<path d="M1211.11 367.47C1211.11 367.47 1192.11 372.34 1183.84 388.37C1175.58 404.4 1129.09 492.44 1127.42 504.17C1125.75 515.9 1124.84 537.85 1123.56 531.93C1122.27 526.01 1111.51 494.24 1114.69 491.54C1117.87 488.84 1149.05 435.79 1154.89 421.85C1160.73 407.91 1173.15 385.76 1177.08 381.87C1181 377.98 1211.11 367.47 1211.11 367.47Z" fill="url(#paint79_linear_10_747)"/>
<path d="M1115.6 504.18C1115.6 504.18 1112.81 490.71 1115.6 490.71C1118.39 490.71 1163.69 407.43 1170.35 392.57C1177.01 377.71 1180.1 376.25 1208.23 368.35C1236.36 360.45 1247.83 352.77 1247.83 352.77" stroke="#113291" stroke-width="1.78" stroke-linecap="round"/>
<path d="M1369.25 463.64C1369.25 463.64 1362.95 507.04 1367.57 526.18C1372.19 545.32 1377.62 567.37 1377.62 567.37C1377.62 567.37 1385.21 555.74 1384.64 554.82C1384.07 553.9 1371.31 469.43 1371.04 465.73C1370.77 462.03 1369.25 463.65 1369.25 463.65V463.64Z" fill="url(#paint80_linear_10_747)"/>
<path d="M1370.28 450.82C1370.28 467.61 1377.67 538.67 1384.64 555.39L1379.07 564.86L1341.83 629.75" stroke="#113291" stroke-width="1.78" stroke-linecap="round"/>
<path d="M1214.98 614.28C1214.98 614.28 1220.36 618.32 1241.09 620.73C1261.82 623.14 1297.3 620.73 1297.3 620.73C1297.3 620.73 1251.56 620.54 1247.83 625.42C1244.1 630.31 1253.16 642.72 1252.23 643.25C1251.3 643.78 1222.1 641.38 1213.99 637.79C1205.89 634.2 1210.62 632.99 1211.11 630.02C1211.6 627.05 1214.97 614.29 1214.97 614.29L1214.98 614.28Z" fill="url(#paint81_linear_10_747)"/>
<path d="M1213.56 638.73C1213.56 638.73 1196.84 661.73 1193 674.27C1189.16 686.81 1180.48 733.2 1180.48 733.2C1180.48 733.2 1160.25 735.42 1160.95 728.28C1161.65 721.14 1162.93 704.24 1166.91 693.61C1170.89 682.98 1176.86 675.98 1181.76 670.86C1186.66 665.73 1196.17 655.84 1200.25 650.6C1204.33 645.36 1208.93 634.74 1208.93 634.74L1213.57 638.74L1213.56 638.73Z" fill="url(#paint82_linear_10_747)"/>
<path d="M1247.83 355.45C1247.83 355.45 1245.69 357.51 1235.74 384.6C1224.25 415.85 1211.12 457.02 1211.12 479.33C1211.12 541.65 1232.03 616.2 1195.49 656.45C1185.1 667.89 1174.04 676.91 1168.44 689.77C1161.5 705.71 1161.22 725.01 1160.48 731.92" stroke="#113291" stroke-width="1.78" stroke-linecap="round"/>
<path d="M1304.5 711.73C1304.5 711.73 1306.94 720.2 1307.64 721.89" stroke="#113291" stroke-width="1.78" stroke-linecap="round"/>
<path d="M393 605.22C494.44 623.95 673.71 703.35 992.6 729.28C1483.8 769.22 1577.5 595.76 1607.17 470.7" stroke="#ED6921" stroke-width="7.05" stroke-linecap="round" stroke-linejoin="round"/>
<path d="M481.99 569.46C573.88 586.42 736.28 658.36 1025.15 681.84C1470.11 718.02 1555 560.89 1581.88 447.6" stroke="url(#paint83_linear_10_747)" stroke-width="1.09" stroke-miterlimit="10"/>
</g>
<defs>
<linearGradient id="paint0_linear_10_747" x1="960.005" y1="762.082" x2="960.005" y2="0.00336133" gradientUnits="userSpaceOnUse">
<stop stop-color="#CED1F3"/>
<stop offset="1" stop-color="#CED1F3" stop-opacity="0"/>
</linearGradient>
<linearGradient id="paint1_linear_10_747" x1="729.12" y1="774.66" x2="1501.52" y2="258.97" gradientUnits="userSpaceOnUse">
<stop stop-color="#9FBDFF" stop-opacity="0.1"/>
<stop offset="1" stop-color="#197CE1"/>
</linearGradient>
<linearGradient id="paint2_linear_10_747" x1="793.59" y1="386.39" x2="1505.99" y2="386.39" gradientUnits="userSpaceOnUse">
<stop stop-color="#D4E0FF" stop-opacity="0.8"/>
<stop offset="1" stop-color="#D4E0FF" stop-opacity="0.8"/>
</linearGradient>
<linearGradient id="paint3_linear_10_747" x1="769.01" y1="406.995" x2="1546.47" y2="406.995" gradientUnits="userSpaceOnUse">
<stop stop-color="white"/>
<stop offset="0.66" stop-color="white" stop-opacity="0.33"/>
<stop offset="1" stop-color="white" stop-opacity="0"/>
</linearGradient>
<linearGradient id="paint4_linear_10_747" x1="1059.15" y1="554.31" x2="1501.56" y2="258.923" gradientUnits="userSpaceOnUse">
<stop stop-color="#9FBDFF" stop-opacity="0.1"/>
<stop offset="1" stop-color="#197CE1"/>
</linearGradient>
<linearGradient id="paint5_linear_10_747" x1="1061.15" y1="406.66" x2="1499.48" y2="406.66" gradientUnits="userSpaceOnUse">
<stop stop-color="white"/>
<stop offset="0.66" stop-color="white" stop-opacity="0.33"/>
<stop offset="1" stop-color="white" stop-opacity="0"/>
</linearGradient>
<linearGradient id="paint6_linear_10_747" x1="1035.8" y1="365.1" x2="1453.31" y2="365.1" gradientUnits="userSpaceOnUse">
<stop stop-color="#197CE1"/>
<stop offset="1" stop-color="#197CE1" stop-opacity="0"/>
</linearGradient>
<linearGradient id="paint7_linear_10_747" x1="1035.64" y1="312.77" x2="1163.58" y2="312.77" gradientUnits="userSpaceOnUse">
<stop stop-color="#197CE1"/>
<stop offset="1" stop-color="#197CE1" stop-opacity="0"/>
</linearGradient>
<linearGradient id="paint8_linear_10_747" x1="886.75" y1="434.93" x2="1036.63" y2="434.93" gradientUnits="userSpaceOnUse">
<stop stop-color="#197CE1" stop-opacity="0"/>
<stop offset="1" stop-color="#197CE1"/>
</linearGradient>
<linearGradient id="paint9_linear_10_747" x1="1035.21" y1="228.73" x2="1190.24" y2="228.73" gradientUnits="userSpaceOnUse">
<stop stop-color="#197CE1"/>
<stop offset="1" stop-color="#197CE1" stop-opacity="0"/>
</linearGradient>
<linearGradient id="paint10_linear_10_747" x1="816.15" y1="361.65" x2="1529.64" y2="361.65" gradientUnits="userSpaceOnUse">
<stop stop-color="white"/>
<stop offset="0.66" stop-color="white" stop-opacity="0.33"/>
<stop offset="1" stop-color="white" stop-opacity="0"/>
</linearGradient>
<linearGradient id="paint11_linear_10_747" x1="1074.92" y1="405.219" x2="1010.91" y2="389.887" gradientUnits="userSpaceOnUse">
<stop stop-color="#969696"/>
<stop offset="0.79" stop-color="#C4C4C4" stop-opacity="0"/>
</linearGradient>
<linearGradient id="paint12_linear_10_747" x1="950.89" y1="108.8" x2="1217.12" y2="108.8" gradientUnits="userSpaceOnUse">
<stop stop-color="#D4E0FF" stop-opacity="0.8"/>
<stop offset="1" stop-color="#D4E0FF" stop-opacity="0.8"/>
</linearGradient>
<linearGradient id="paint13_linear_10_747" x1="950.89" y1="163.44" x2="1067.6" y2="163.44" gradientUnits="userSpaceOnUse">
<stop stop-color="#D4E0FF" stop-opacity="0.8"/>
<stop offset="1" stop-color="#D4E0FF" stop-opacity="0.8"/>
</linearGradient>
<linearGradient id="paint14_linear_10_747" x1="864.18" y1="411.15" x2="1687.09" y2="411.15" gradientUnits="userSpaceOnUse">
<stop stop-color="white"/>
<stop offset="0.66" stop-color="white" stop-opacity="0.33"/>
<stop offset="1" stop-color="white" stop-opacity="0"/>
</linearGradient>
<linearGradient id="paint15_linear_10_747" x1="1420.7" y1="207.52" x2="1649.6" y2="207.52" gradientUnits="userSpaceOnUse">
<stop stop-color="#D4E0FF" stop-opacity="0.8"/>
<stop offset="1" stop-color="#D4E0FF" stop-opacity="0.8"/>
</linearGradient>
<linearGradient id="paint16_linear_10_747" x1="1081.8" y1="354.177" x2="990.356" y2="332.274" gradientUnits="userSpaceOnUse">
<stop stop-color="#197CE1"/>
<stop offset="1" stop-color="#9FBDFF"/>
</linearGradient>
<linearGradient id="paint17_linear_10_747" x1="1197.62" y1="287.66" x2="1259.29" y2="287.66" gradientUnits="userSpaceOnUse">
<stop stop-color="#3845A4"/>
<stop offset="1" stop-color="#113291"/>
</linearGradient>
<linearGradient id="paint18_linear_10_747" x1="1194.64" y1="214.89" x2="1263.46" y2="214.89" gradientUnits="userSpaceOnUse">
<stop stop-color="#3845A4"/>
<stop offset="1" stop-color="#113291"/>
</linearGradient>
<linearGradient id="paint19_linear_10_747" x1="1223.77" y1="258.53" x2="1360.13" y2="258.53" gradientUnits="userSpaceOnUse">
<stop stop-color="#3845A4"/>
<stop offset="1" stop-color="#113291"/>
</linearGradient>
<linearGradient id="paint20_linear_10_747" x1="982.24" y1="406.66" x2="1578.38" y2="406.66" gradientUnits="userSpaceOnUse">
<stop stop-color="#197CE1" stop-opacity="0"/>
<stop offset="1" stop-color="#197CE1"/>
</linearGradient>
<linearGradient id="paint21_linear_10_747" x1="1021.61" y1="540.26" x2="1100.47" y2="519.13" gradientUnits="userSpaceOnUse">
<stop stop-color="#1B44C0"/>
<stop offset="0.19" stop-color="#1A44C0" stop-opacity="0.98"/>
<stop offset="0.33" stop-color="#1A47C2" stop-opacity="0.93"/>
<stop offset="0.47" stop-color="#1A4CC5" stop-opacity="0.85"/>
<stop offset="0.59" stop-color="#1A53C9" stop-opacity="0.72"/>
<stop offset="0.71" stop-color="#1A5CCE" stop-opacity="0.56"/>
<stop offset="0.83" stop-color="#1967D4" stop-opacity="0.37"/>
<stop offset="0.94" stop-color="#1973DC" stop-opacity="0.14"/>
<stop offset="1" stop-color="#197CE1" stop-opacity="0"/>
</linearGradient>
<linearGradient id="paint22_linear_10_747" x1="1471.01" y1="195.62" x2="1585.38" y2="195.62" gradientUnits="userSpaceOnUse">
<stop stop-color="#197CE1" stop-opacity="0.2"/>
<stop offset="1" stop-color="#197CE1"/>
</linearGradient>
<linearGradient id="paint23_linear_10_747" x1="1562.4" y1="140.93" x2="1606.58" y2="140.93" gradientUnits="userSpaceOnUse">
<stop stop-color="#197CE1" stop-opacity="0.2"/>
<stop offset="1" stop-color="#197CE1"/>
</linearGradient>
<linearGradient id="paint24_linear_10_747" x1="1106.8" y1="380.51" x2="1148.04" y2="339.27" gradientUnits="userSpaceOnUse">
<stop stop-color="#4D75D5"/>
<stop offset="0.49" stop-color="#A1B6E8"/>
<stop offset="1" stop-color="white"/>
</linearGradient>
<linearGradient id="paint25_linear_10_747" x1="1100.41" y1="380.51" x2="1141.66" y2="339.27" gradientUnits="userSpaceOnUse">
<stop stop-color="#AFCAFF"/>
<stop offset="0.15" stop-color="#A8C4FB"/>
<stop offset="0.36" stop-color="#95B3F3"/>
<stop offset="0.62" stop-color="#7599E4"/>
<stop offset="0.9" stop-color="#4A74D0"/>
<stop offset="1" stop-color="#3A66C9"/>
</linearGradient>
<linearGradient id="paint26_linear_10_747" x1="1032.18" y1="225.9" x2="1132.45" y2="225.9" gradientUnits="userSpaceOnUse">
<stop stop-color="#197CE1"/>
<stop offset="1" stop-color="#197CE1" stop-opacity="0"/>
</linearGradient>
<linearGradient id="paint27_linear_10_747" x1="1031.63" y1="225.9" x2="1132.99" y2="225.9" gradientUnits="userSpaceOnUse">
<stop stop-color="white"/>
<stop offset="0.66" stop-color="white" stop-opacity="0.33"/>
<stop offset="1" stop-color="white" stop-opacity="0"/>
</linearGradient>
<linearGradient id="paint28_linear_10_747" x1="947.8" y1="301.15" x2="755.51" y2="301.15" gradientUnits="userSpaceOnUse">
<stop stop-color="#9FBDFF" stop-opacity="0.1"/>
<stop offset="1" stop-color="#197CE1"/>
</linearGradient>
<linearGradient id="paint29_linear_10_747" x1="754.63" y1="292.57" x2="948.69" y2="292.57" gradientUnits="userSpaceOnUse">
<stop stop-color="#197CE1" stop-opacity="0"/>
<stop offset="1" stop-color="#197CE1"/>
</linearGradient>
<linearGradient id="paint30_linear_10_747" x1="947.8" y1="244.53" x2="755.51" y2="244.53" gradientUnits="userSpaceOnUse">
<stop stop-color="#9FBDFF" stop-opacity="0.1"/>
<stop offset="1" stop-color="#197CE1"/>
</linearGradient>
<linearGradient id="paint31_linear_10_747" x1="-67.34" y1="236.75" x2="-66.34" y2="236.75" gradientUnits="userSpaceOnUse">
<stop stop-color="#197CE1" stop-opacity="0"/>
<stop offset="1" stop-color="#197CE1"/>
</linearGradient>
<linearGradient id="paint32_linear_10_747" x1="947.8" y1="187.92" x2="755.51" y2="187.92" gradientUnits="userSpaceOnUse">
<stop stop-color="#9FBDFF" stop-opacity="0.1"/>
<stop offset="1" stop-color="#197CE1"/>
</linearGradient>
<linearGradient id="paint33_linear_10_747" x1="-67.34" y1="180.94" x2="-66.34" y2="180.94" gradientUnits="userSpaceOnUse">
<stop stop-color="#197CE1" stop-opacity="0"/>
<stop offset="1" stop-color="#197CE1"/>
</linearGradient>
<linearGradient id="paint34_linear_10_747" x1="1007.29" y1="273.65" x2="1032.79" y2="273.65" gradientUnits="userSpaceOnUse">
<stop stop-color="#197CE1"/>
<stop offset="1" stop-color="#197CE1" stop-opacity="0"/>
</linearGradient>
<linearGradient id="paint35_linear_10_747" x1="-nan" y1="-nan" x2="-nan" y2="-nan" gradientUnits="userSpaceOnUse">
<stop stop-color="#197CE1"/>
<stop offset="1" stop-color="#197CE1" stop-opacity="0"/>
</linearGradient>
<linearGradient id="paint36_linear_10_747" x1="1265.2" y1="115.12" x2="1401.16" y2="115.12" gradientUnits="userSpaceOnUse">
<stop stop-color="white"/>
<stop offset="0.66" stop-color="white" stop-opacity="0.33"/>
<stop offset="1" stop-color="white" stop-opacity="0"/>
</linearGradient>
<linearGradient id="paint37_linear_10_747" x1="-nan" y1="-nan" x2="-nan" y2="-nan" gradientUnits="userSpaceOnUse">
<stop stop-color="#197CE1"/>
<stop offset="1" stop-color="#197CE1" stop-opacity="0"/>
</linearGradient>
<linearGradient id="paint38_linear_10_747" x1="-nan" y1="-nan" x2="-nan" y2="-nan" gradientUnits="userSpaceOnUse">
<stop stop-color="#197CE1"/>
<stop offset="1" stop-color="#197CE1" stop-opacity="0"/>
</linearGradient>
<linearGradient id="paint39_linear_10_747" x1="-nan" y1="-nan" x2="-nan" y2="-nan" gradientUnits="userSpaceOnUse">
<stop stop-color="#197CE1"/>
<stop offset="1" stop-color="#197CE1" stop-opacity="0"/>
</linearGradient>
<linearGradient id="paint40_linear_10_747" x1="-nan" y1="-nan" x2="-nan" y2="-nan" gradientUnits="userSpaceOnUse">
<stop stop-color="#197CE1"/>
<stop offset="1" stop-color="#197CE1" stop-opacity="0"/>
</linearGradient>
<linearGradient id="paint41_linear_10_747" x1="-nan" y1="-nan" x2="-nan" y2="-nan" gradientUnits="userSpaceOnUse">
<stop stop-color="#197CE1"/>
<stop offset="1" stop-color="#197CE1" stop-opacity="0"/>
</linearGradient>
<linearGradient id="paint42_linear_10_747" x1="-nan" y1="-nan" x2="-nan" y2="-nan" gradientUnits="userSpaceOnUse">
<stop stop-color="#197CE1"/>
<stop offset="1" stop-color="#197CE1" stop-opacity="0"/>
</linearGradient>
<linearGradient id="paint43_linear_10_747" x1="960.02" y1="108.8" x2="981.85" y2="108.8" gradientUnits="userSpaceOnUse">
<stop stop-color="#197CE1"/>
<stop offset="1" stop-color="#197CE1" stop-opacity="0"/>
</linearGradient>
<linearGradient id="paint44_linear_10_747" x1="960.02" y1="163.44" x2="981.85" y2="163.44" gradientUnits="userSpaceOnUse">
<stop stop-color="#197CE1"/>
<stop offset="1" stop-color="#197CE1" stop-opacity="0"/>
</linearGradient>
<linearGradient id="paint45_linear_10_747" x1="1481.9" y1="156.43" x2="1550.12" y2="156.43" gradientUnits="userSpaceOnUse">
<stop stop-color="#197CE1"/>
<stop offset="1" stop-color="#9FBDFF" stop-opacity="0.1"/>
</linearGradient>
<linearGradient id="paint46_linear_10_747" x1="-67.3391" y1="220.64" x2="-66.3391" y2="220.64" gradientUnits="userSpaceOnUse">
<stop stop-color="#197CE1"/>
<stop offset="1" stop-color="#9FBDFF" stop-opacity="0.1"/>
</linearGradient>
<linearGradient id="paint47_linear_10_747" x1="-67.3387" y1="172.48" x2="1535.61" y2="172.48" gradientUnits="userSpaceOnUse">
<stop stop-color="#197CE1"/>
<stop offset="1" stop-color="#9FBDFF" stop-opacity="0.1"/>
</linearGradient>
<linearGradient id="paint48_linear_10_747" x1="-67.3391" y1="188.53" x2="-66.3391" y2="188.53" gradientUnits="userSpaceOnUse">
<stop stop-color="#197CE1"/>
<stop offset="1" stop-color="#9FBDFF" stop-opacity="0.1"/>
</linearGradient>
<linearGradient id="paint49_linear_10_747" x1="-67.3391" y1="236.69" x2="-66.3391" y2="236.69" gradientUnits="userSpaceOnUse">
<stop stop-color="#197CE1"/>
<stop offset="1" stop-color="#9FBDFF" stop-opacity="0.1"/>
</linearGradient>
<linearGradient id="paint50_linear_10_747" x1="-67.3387" y1="204.59" x2="1535.61" y2="204.59" gradientUnits="userSpaceOnUse">
<stop stop-color="#197CE1"/>
<stop offset="1" stop-color="#9FBDFF" stop-opacity="0.1"/>
</linearGradient>
<linearGradient id="paint51_linear_10_747" x1="1023.17" y1="380.91" x2="1068.61" y2="380.91" gradientUnits="userSpaceOnUse">
<stop stop-color="white"/>
<stop offset="0.66" stop-color="white" stop-opacity="0.33"/>
<stop offset="1" stop-color="white" stop-opacity="0"/>
</linearGradient>
<linearGradient id="paint52_linear_10_747" x1="1015.86" y1="350.599" x2="998.713" y2="346.492" gradientUnits="userSpaceOnUse">
<stop stop-color="#969696"/>
<stop offset="0.79" stop-color="#C4C4C4" stop-opacity="0"/>
</linearGradient>
<linearGradient id="paint53_linear_10_747" x1="879.82" y1="534.97" x2="893.71" y2="534.97" gradientUnits="userSpaceOnUse">
<stop stop-color="#1B44C0"/>
<stop offset="0.31" stop-color="#1A47C1"/>
<stop offset="0.55" stop-color="#1A51C7"/>
<stop offset="0.77" stop-color="#1961D1"/>
<stop offset="0.98" stop-color="#1979DF"/>
<stop offset="1" stop-color="#197CE1"/>
</linearGradient>
<linearGradient id="paint54_linear_10_747" x1="881.01" y1="-101" x2="892.52" y2="-101" gradientUnits="userSpaceOnUse">
<stop stop-color="#1B44C0"/>
<stop offset="0.31" stop-color="#1A47C1"/>
<stop offset="0.55" stop-color="#1A51C7"/>
<stop offset="0.77" stop-color="#1961D1"/>
<stop offset="0.98" stop-color="#1979DF"/>
<stop offset="1" stop-color="#197CE1"/>
</linearGradient>
<linearGradient id="paint55_linear_10_747" x1="1151.43" y1="290.65" x2="1175.15" y2="290.65" gradientUnits="userSpaceOnUse">
<stop stop-color="#1B44C0"/>
<stop offset="0.31" stop-color="#1A47C1"/>
<stop offset="0.55" stop-color="#1A51C7"/>
<stop offset="0.77" stop-color="#1961D1"/>
<stop offset="0.98" stop-color="#1979DF"/>
<stop offset="1" stop-color="#197CE1"/>
</linearGradient>
<linearGradient id="paint56_linear_10_747" x1="1153.46" y1="290.65" x2="1173.12" y2="290.65" gradientUnits="userSpaceOnUse">
<stop stop-color="#1B44C0"/>
<stop offset="0.31" stop-color="#1A47C1"/>
<stop offset="0.55" stop-color="#1A51C7"/>
<stop offset="0.77" stop-color="#1961D1"/>
<stop offset="0.98" stop-color="#1979DF"/>
<stop offset="1" stop-color="#197CE1"/>
</linearGradient>
<linearGradient id="paint57_linear_10_747" x1="1441.32" y1="395.33" x2="1465.05" y2="395.33" gradientUnits="userSpaceOnUse">
<stop stop-color="#1B44C0"/>
<stop offset="0.31" stop-color="#1A47C1"/>
<stop offset="0.55" stop-color="#1A51C7"/>
<stop offset="0.77" stop-color="#1961D1"/>
<stop offset="0.98" stop-color="#1979DF"/>
<stop offset="1" stop-color="#197CE1"/>
</linearGradient>
<linearGradient id="paint58_linear_10_747" x1="1443.35" y1="395.33" x2="1463.02" y2="395.33" gradientUnits="userSpaceOnUse">
<stop stop-color="#1B44C0"/>
<stop offset="0.31" stop-color="#1A47C1"/>
<stop offset="0.55" stop-color="#1A51C7"/>
<stop offset="0.77" stop-color="#1961D1"/>
<stop offset="0.98" stop-color="#1979DF"/>
<stop offset="1" stop-color="#197CE1"/>
</linearGradient>
<linearGradient id="paint59_linear_10_747" x1="1176.82" y1="125.43" x2="1200.54" y2="125.43" gradientUnits="userSpaceOnUse">
<stop stop-color="#1B44C0"/>
<stop offset="0.31" stop-color="#1A47C1"/>
<stop offset="0.55" stop-color="#1A51C7"/>
<stop offset="0.77" stop-color="#1961D1"/>
<stop offset="0.98" stop-color="#1979DF"/>
<stop offset="1" stop-color="#197CE1"/>
</linearGradient>
<linearGradient id="paint60_linear_10_747" x1="1178.85" y1="125.43" x2="1198.51" y2="125.43" gradientUnits="userSpaceOnUse">
<stop stop-color="#1B44C0"/>
<stop offset="0.31" stop-color="#1A47C1"/>
<stop offset="0.55" stop-color="#1A51C7"/>
<stop offset="0.77" stop-color="#1961D1"/>
<stop offset="0.98" stop-color="#1979DF"/>
<stop offset="1" stop-color="#197CE1"/>
</linearGradient>
<linearGradient id="paint61_linear_10_747" x1="878.84" y1="430.51" x2="958.8" y2="430.94" gradientUnits="userSpaceOnUse">
<stop stop-color="#F1F6FF"/>
<stop offset="1" stop-color="#F1F6FF" stop-opacity="0"/>
</linearGradient>
<linearGradient id="paint62_linear_10_747" x1="-nan" y1="-nan" x2="-nan" y2="-nan" gradientUnits="userSpaceOnUse">
<stop stop-color="#1B44C0"/>
<stop offset="0.31" stop-color="#1A47C1"/>
<stop offset="0.55" stop-color="#1A51C7"/>
<stop offset="0.77" stop-color="#1961D1"/>
<stop offset="0.98" stop-color="#1979DF"/>
<stop offset="1" stop-color="#197CE1"/>
</linearGradient>
<linearGradient id="paint63_linear_10_747" x1="-nan" y1="-nan" x2="-nan" y2="-nan" gradientUnits="userSpaceOnUse">
<stop stop-color="#1B44C0"/>
<stop offset="0.31" stop-color="#1A47C1"/>
<stop offset="0.55" stop-color="#1A51C7"/>
<stop offset="0.77" stop-color="#1961D1"/>
<stop offset="0.98" stop-color="#1979DF"/>
<stop offset="1" stop-color="#197CE1"/>
</linearGradient>
<linearGradient id="paint64_linear_10_747" x1="-nan" y1="-nan" x2="-nan" y2="-nan" gradientUnits="userSpaceOnUse">
<stop stop-color="#1B44C0"/>
<stop offset="0.31" stop-color="#1A47C1"/>
<stop offset="0.55" stop-color="#1A51C7"/>
<stop offset="0.77" stop-color="#1961D1"/>
<stop offset="0.98" stop-color="#1979DF"/>
<stop offset="1" stop-color="#197CE1"/>
</linearGradient>
<linearGradient id="paint65_linear_10_747" x1="-nan" y1="-nan" x2="-nan" y2="-nan" gradientUnits="userSpaceOnUse">
<stop stop-color="#1B44C0"/>
<stop offset="0.31" stop-color="#1A47C1"/>
<stop offset="0.55" stop-color="#1A51C7"/>
<stop offset="0.77" stop-color="#1961D1"/>
<stop offset="0.98" stop-color="#1979DF"/>
<stop offset="1" stop-color="#197CE1"/>
</linearGradient>
<linearGradient id="paint66_linear_10_747" x1="1407.82" y1="222.8" x2="1638.48" y2="222.8" gradientUnits="userSpaceOnUse">
<stop stop-color="#197CE1" stop-opacity="0"/>
<stop offset="1" stop-color="#197CE1"/>
</linearGradient>
<linearGradient id="paint67_linear_10_747" x1="1474.45" y1="369.87" x2="1607.72" y2="369.87" gradientUnits="userSpaceOnUse">
<stop stop-color="white"/>
<stop offset="0.66" stop-color="white" stop-opacity="0.33"/>
<stop offset="1" stop-color="white" stop-opacity="0"/>
</linearGradient>
<linearGradient id="paint68_linear_10_747" x1="1334.44" y1="643.25" x2="1369.25" y2="643.25" gradientUnits="userSpaceOnUse">
<stop stop-color="#969696"/>
<stop offset="0.79" stop-color="#C4C4C4" stop-opacity="0"/>
</linearGradient>
<linearGradient id="paint69_linear_10_747" x1="1331.17" y1="616.02" x2="1331.17" y2="488.81" gradientUnits="userSpaceOnUse">
<stop stop-color="#ED6921" stop-opacity="0"/>
<stop offset="0.78" stop-color="#ED6921"/>
</linearGradient>
<linearGradient id="paint70_linear_10_747" x1="1211.95" y1="554.45" x2="1226.29" y2="554.45" gradientUnits="userSpaceOnUse">
<stop stop-color="#ED6921" stop-opacity="0"/>
<stop offset="0.78" stop-color="#ED6921"/>
</linearGradient>
<linearGradient id="paint71_linear_10_747" x1="1147.57" y1="566.8" x2="1206.96" y2="562.65" gradientUnits="userSpaceOnUse">
<stop stop-color="#1B44C0"/>
<stop offset="0.19" stop-color="#1A44C0" stop-opacity="0.98"/>
<stop offset="0.33" stop-color="#1A47C2" stop-opacity="0.93"/>
<stop offset="0.47" stop-color="#1A4CC5" stop-opacity="0.85"/>
<stop offset="0.59" stop-color="#1A53C9" stop-opacity="0.72"/>
<stop offset="0.71" stop-color="#1A5CCE" stop-opacity="0.56"/>
<stop offset="0.83" stop-color="#1967D4" stop-opacity="0.37"/>
<stop offset="0.94" stop-color="#1973DC" stop-opacity="0.14"/>
<stop offset="1" stop-color="#197CE1" stop-opacity="0"/>
</linearGradient>
<linearGradient id="paint72_linear_10_747" x1="864.55" y1="479.56" x2="1687.46" y2="479.56" gradientUnits="userSpaceOnUse">
<stop stop-color="white"/>
<stop offset="0.66" stop-color="white" stop-opacity="0.33"/>
<stop offset="1" stop-color="white" stop-opacity="0"/>
</linearGradient>
<linearGradient id="paint73_linear_10_747" x1="983.79" y1="578.93" x2="1044.04" y2="555.8" gradientUnits="userSpaceOnUse">
<stop stop-color="#94C8FF"/>
<stop offset="1" stop-color="white"/>
</linearGradient>
<linearGradient id="paint74_linear_10_747" x1="981.66" y1="567.37" x2="1046.17" y2="567.37" gradientUnits="userSpaceOnUse">
<stop stop-color="#4D75D5"/>
<stop offset="0.04" stop-color="#4D75D4" stop-opacity="0.94"/>
<stop offset="0.23" stop-color="#4D75D4" stop-opacity="0.66"/>
<stop offset="0.42" stop-color="#4D75D4" stop-opacity="0.42"/>
<stop offset="0.6" stop-color="#4D75D4" stop-opacity="0.24"/>
<stop offset="0.76" stop-color="#4D75D4" stop-opacity="0.11"/>
<stop offset="0.9" stop-color="#4D75D4" stop-opacity="0.03"/>
<stop offset="1" stop-color="#4E75D4" stop-opacity="0"/>
</linearGradient>
<linearGradient id="paint75_linear_10_747" x1="1443.4" y1="547.74" x2="1495.78" y2="495.36" gradientUnits="userSpaceOnUse">
<stop stop-color="#4D75D5"/>
<stop offset="0.49" stop-color="#A1B6E8"/>
<stop offset="1" stop-color="white"/>
</linearGradient>
<linearGradient id="paint76_linear_10_747" x1="1434.77" y1="547.74" x2="1487.15" y2="495.36" gradientUnits="userSpaceOnUse">
<stop stop-color="#1A44C0"/>
<stop offset="0.41" stop-color="#1962D2"/>
<stop offset="0.76" stop-color="#1975DD"/>
<stop offset="1" stop-color="#197CE1"/>
</linearGradient>
<linearGradient id="paint77_linear_10_747" x1="1279.95" y1="391.03" x2="1279.95" y2="367.56" gradientUnits="userSpaceOnUse">
<stop stop-color="#ED6921" stop-opacity="0"/>
<stop offset="0.78" stop-color="#ED6921"/>
</linearGradient>
<linearGradient id="paint78_linear_10_747" x1="1237.77" y1="373.69" x2="1263.5" y2="373.69" gradientUnits="userSpaceOnUse">
<stop stop-color="#ED6921" stop-opacity="0"/>
<stop offset="0.78" stop-color="#ED6921"/>
</linearGradient>
<linearGradient id="paint79_linear_10_747" x1="1162.61" y1="532.93" x2="1162.61" y2="367.47" gradientUnits="userSpaceOnUse">
<stop stop-color="#1B44C0"/>
<stop offset="0.19" stop-color="#1A44C0" stop-opacity="0.98"/>
<stop offset="0.33" stop-color="#1A47C2" stop-opacity="0.93"/>
<stop offset="0.47" stop-color="#1A4CC5" stop-opacity="0.85"/>
<stop offset="0.59" stop-color="#1A53C9" stop-opacity="0.72"/>
<stop offset="0.71" stop-color="#1A5CCE" stop-opacity="0.56"/>
<stop offset="0.83" stop-color="#1967D4" stop-opacity="0.37"/>
<stop offset="0.94" stop-color="#1973DC" stop-opacity="0.14"/>
<stop offset="1" stop-color="#197CE1" stop-opacity="0"/>
</linearGradient>
<linearGradient id="paint80_linear_10_747" x1="1365.87" y1="515.33" x2="1384.67" y2="515.33" gradientUnits="userSpaceOnUse">
<stop stop-color="#1B44C0"/>
<stop offset="0.19" stop-color="#1A44C0" stop-opacity="0.98"/>
<stop offset="0.33" stop-color="#1A47C2" stop-opacity="0.93"/>
<stop offset="0.47" stop-color="#1A4CC5" stop-opacity="0.85"/>
<stop offset="0.59" stop-color="#1A53C9" stop-opacity="0.72"/>
<stop offset="0.71" stop-color="#1A5CCE" stop-opacity="0.56"/>
<stop offset="0.83" stop-color="#1967D4" stop-opacity="0.37"/>
<stop offset="0.94" stop-color="#1973DC" stop-opacity="0.14"/>
<stop offset="1" stop-color="#197CE1" stop-opacity="0"/>
</linearGradient>
<linearGradient id="paint81_linear_10_747" x1="1253.3" y1="643.32" x2="1253.3" y2="614.28" gradientUnits="userSpaceOnUse">
<stop stop-color="#1B44C0"/>
<stop offset="0.19" stop-color="#1A44C0" stop-opacity="0.98"/>
<stop offset="0.33" stop-color="#1A47C2" stop-opacity="0.93"/>
<stop offset="0.47" stop-color="#1A4CC5" stop-opacity="0.85"/>
<stop offset="0.59" stop-color="#1A53C9" stop-opacity="0.72"/>
<stop offset="0.71" stop-color="#1A5CCE" stop-opacity="0.56"/>
<stop offset="0.83" stop-color="#1967D4" stop-opacity="0.37"/>
<stop offset="0.94" stop-color="#1973DC" stop-opacity="0.14"/>
<stop offset="1" stop-color="#197CE1" stop-opacity="0"/>
</linearGradient>
<linearGradient id="paint82_linear_10_747" x1="1187.24" y1="733.52" x2="1187.24" y2="634.73" gradientUnits="userSpaceOnUse">
<stop stop-color="#1B44C0"/>
<stop offset="0.19" stop-color="#1A44C0" stop-opacity="0.98"/>
<stop offset="0.33" stop-color="#1A47C2" stop-opacity="0.93"/>
<stop offset="0.47" stop-color="#1A4CC5" stop-opacity="0.85"/>
<stop offset="0.59" stop-color="#1A53C9" stop-opacity="0.72"/>
<stop offset="0.71" stop-color="#1A5CCE" stop-opacity="0.56"/>
<stop offset="0.83" stop-color="#1967D4" stop-opacity="0.37"/>
<stop offset="0.94" stop-color="#1973DC" stop-opacity="0.14"/>
<stop offset="1" stop-color="#197CE1" stop-opacity="0"/>
</linearGradient>
<linearGradient id="paint83_linear_10_747" x1="481.89" y1="567.58" x2="1582.41" y2="567.58" gradientUnits="userSpaceOnUse">
<stop stop-color="white"/>
<stop offset="0.66" stop-color="white" stop-opacity="0.33"/>
<stop offset="1" stop-color="white" stop-opacity="0"/>
</linearGradient>
<clipPath id="clip0_10_747">
<rect width="1257" height="659" fill="white" transform="translate(393 78)"/>
</clipPath>
</defs>
</svg>
