<svg width="1920" height="748" viewBox="0 0 1920 748" fill="none" xmlns="http://www.w3.org/2000/svg">
<path d="M955.075 746.93C1143.63 746.93 1296.48 594.08 1296.48 405.53C1296.48 216.98 1143.63 64.13 955.075 64.13C766.525 64.13 613.675 216.98 613.675 405.53C613.675 594.08 766.525 746.93 955.075 746.93Z" stroke="url(#paint0_linear_12_1464)" stroke-miterlimit="10"/>
<path d="M1554.52 114.31C1476.92 99.37 1391.46 90.1799 1301.23 92.2099C1012.27 98.6999 879.065 293.6 703.715 374.39V459.78C954.905 387.78 1023.85 304.14 1307.76 286.72C1386.12 281.91 1472.04 285.95 1554.52 294V114.3V114.31Z" fill="#E9F3FF"/>
<path d="M-14.9051 215.13C-14.9051 215.13 166.925 476.05 484.695 467.08C802.465 458.1 906.565 190.64 1301.22 181.77C1661.59 173.67 1945.88 344.45 1957.3 346.19L1936.71 444.2C1923.39 444.72 1572.47 360.05 1307.76 376.29C1012.49 394.41 949.745 484.14 672.675 557.93C484.695 607.99 211.695 603.01 -12.7951 569.61L-14.8951 215.13H-14.9051Z" fill="url(#paint1_linear_12_1464)"/>
<path d="M-14.9051 280.47C-14.9051 280.47 166.925 425.08 484.695 420.11C802.465 415.14 906.565 266.9 1301.22 261.98C1661.59 257.49 1945.88 352.14 1957.3 353.1L1936.71 407.42C1923.39 407.71 1572.47 360.78 1307.76 369.79C1012.49 379.83 949.745 429.57 672.675 470.46C484.695 498.2 211.695 495.44 -12.7951 476.94L-14.8951 280.48L-14.9051 280.47Z" stroke="white" stroke-miterlimit="10"/>
<path d="M1449.65 265.59V179.77C1402.09 174.7 1352.42 172.23 1301.22 173.38C1092.28 178.08 964.785 255.25 843.905 328.18V371.99C843.905 371.99 950.335 304.79 1093.56 277.55C1280.06 242.08 1449.65 265.6 1449.65 265.6V265.59Z" fill="url(#paint2_linear_12_1464)"/>
<path d="M1435.56 249.65V163.83C1388 158.76 1338.34 156.29 1287.14 157.44C1078.2 162.14 950.705 239.31 829.825 312.24V356.05C829.825 356.05 936.255 288.85 1079.47 261.61C1265.97 226.14 1435.56 249.66 1435.56 249.66V249.65Z" stroke="white" stroke-miterlimit="10"/>
<path d="M260.205 604.49C323.795 606.48 387.195 605.81 447.965 601.99V477.4C378.055 474.81 315.285 459.31 260.205 437.16V604.49Z" fill="url(#paint3_linear_12_1464)"/>
<path d="M899.865 386.95C899.865 386.95 1042.9 311.79 1300.32 308.11C1557.74 304.43 1882.75 386.95 1882.75 386.95" stroke="url(#paint4_linear_12_1464)" stroke-width="8.86" stroke-miterlimit="10"/>
<path d="M510.525 513.42C175.555 535.85 -33.3951 442.86 -33.3951 442.86V370.72C-33.3951 370.72 122.865 504.02 510.525 493.59V513.42Z" fill="#9FBDFF" fill-opacity="0.8"/>
<path d="M1752.82 278.29C1741.4 276.56 1549.72 197.88 1189.28 201.49C849.385 204.89 781.875 434.86 464.105 443.84C146.335 452.81 -14.9051 287.88 -14.9051 287.88" stroke="white" stroke-miterlimit="10"/>
<path d="M1936.72 416.02C1923.4 416.54 1504.63 311.74 1239.92 327.98C944.645 346.1 946.825 482.62 652.075 534.68C524.655 557.19 242.195 582.94 -37.305 512.37" stroke="white" stroke-miterlimit="10"/>
<path d="M722.995 142.29H434.755C429.232 142.29 424.755 146.767 424.755 152.29V290.88C424.755 296.403 429.232 300.88 434.755 300.88H722.995C728.518 300.88 732.995 296.403 732.995 290.88V152.29C732.995 146.767 728.518 142.29 722.995 142.29Z" fill="#E9F3FF"/>
<path d="M548.505 342.58H510.525V522.24H548.505V342.58Z" stroke="url(#paint5_linear_12_1464)" stroke-width="0.88" stroke-miterlimit="10"/>
<path d="M604.465 397.33H566.485V522.24H604.465V397.33Z" stroke="url(#paint6_linear_12_1464)" stroke-miterlimit="10"/>
<path d="M1330.5 140.34V151.74H1533.74V140.34H1330.5Z" stroke="url(#paint7_linear_12_1464)" stroke-width="0.51" stroke-miterlimit="10"/>
<path d="M1408.83 124.08V135.48H1533.74V124.08H1408.83Z" stroke="url(#paint8_linear_12_1464)" stroke-width="0.55" stroke-miterlimit="10"/>
<path d="M1354.08 172.86V184.26H1533.74V172.86H1354.08Z" stroke="url(#paint9_linear_12_1464)" stroke-width="0.48" stroke-miterlimit="10"/>
<path d="M1372.96 156.6V168H1533.75V156.6H1372.96Z" stroke="url(#paint10_linear_12_1464)" stroke-width="0.62" stroke-miterlimit="10"/>
<path d="M507.975 166.52H465.555V276.65H507.975V166.52Z" fill="url(#paint11_linear_12_1464)"/>
<path d="M569.385 209H526.965V276.66H569.385V209Z" fill="url(#paint12_linear_12_1464)"/>
<path d="M630.795 194.71H588.375V276.65H630.795V194.71Z" fill="url(#paint13_linear_12_1464)"/>
<path d="M789.015 226.05C786.27 226.05 784.045 228.273 784.045 231.015C784.045 233.757 786.27 235.98 789.015 235.98H1014.62C1017.37 235.98 1019.59 233.757 1019.59 231.015C1019.59 228.273 1017.37 226.05 1014.62 226.05H789.015Z" stroke="url(#paint14_linear_12_1464)" stroke-width="0.63" stroke-miterlimit="10"/>
<path d="M789.015 246.68C786.27 246.68 784.045 248.903 784.045 251.645C784.045 254.387 786.27 256.61 789.015 256.61H932.655C935.4 256.61 937.625 254.387 937.625 251.645C937.625 248.903 935.4 246.68 932.655 246.68H789.015Z" stroke="url(#paint15_linear_12_1464)" stroke-width="0.51" stroke-miterlimit="10"/>
<path d="M789.015 267.58C786.27 267.58 784.045 269.803 784.045 272.545C784.045 275.287 786.27 277.51 789.015 277.51H958.155C960.9 277.51 963.125 275.287 963.125 272.545C963.125 269.803 960.9 267.58 958.155 267.58H789.015Z" stroke="url(#paint16_linear_12_1464)" stroke-width="0.55" stroke-miterlimit="10"/>
<path d="M692.205 216.7H649.785V276.65H692.205V216.7Z" fill="url(#paint17_linear_12_1464)"/>
<path d="M238.565 492.36C238.565 492.36 378.515 520.19 577.295 495.67" stroke="white" stroke-miterlimit="10"/>
<path opacity="0.3" d="M955.075 504.26C1009.6 504.26 1053.81 460.057 1053.81 405.53C1053.81 351.003 1009.6 306.8 955.075 306.8C900.548 306.8 856.345 351.003 856.345 405.53C856.345 460.057 900.548 504.26 955.075 504.26Z" fill="url(#paint18_linear_12_1464)"/>
<path d="M955.075 492.35C1003.02 492.35 1041.89 453.479 1041.89 405.53C1041.89 357.581 1003.02 318.71 955.075 318.71C907.126 318.71 868.255 357.581 868.255 405.53C868.255 453.479 907.126 492.35 955.075 492.35Z" fill="#FEB36F"/>
<path d="M997.585 329.83C972.235 315.63 940.335 314.46 913.035 329.57C871.085 352.79 855.895 405.62 879.115 447.57C890.755 468.6 909.835 482.9 931.245 489.01L997.575 329.83H997.585Z" fill="url(#paint19_linear_12_1464)"/>
<path d="M908.165 399.5L928.555 374.4H945.765L925.375 399.5H908.165ZM921.235 420.62L951.045 383.9C953.235 381.07 955.685 378.46 958.355 376.12C961.485 373.42 965.155 371.46 969.095 370.4C974.215 369 979.615 369.13 984.665 370.79C989.665 372.43 994.025 375.68 997.115 380.08C1001.04 385.85 1002.69 392.96 1001.73 399.95C1001.29 403.4 1000.19 406.71 998.495 409.72C996.805 412.72 994.565 415.34 991.895 417.44C988.835 419.79 985.305 421.38 981.565 422.09C979.445 422.55 977.295 422.8 975.135 422.83H966.725L951.495 441.63H934.345L958.725 411.57L960.715 409.11H972.045C976.025 409.11 980.235 409.11 983.675 406.79H983.745C985.365 405.63 986.685 404.09 987.625 402.29C988.555 400.49 989.065 398.49 989.115 396.45C989.155 394.41 988.735 392.39 987.885 390.55C987.035 388.71 985.775 387.11 984.205 385.87L984.035 385.74L983.945 385.67L983.825 385.58C981.855 384.14 979.525 383.33 977.115 383.26H976.985C975.435 383.19 973.875 383.35 972.365 383.76C970.255 384.35 968.295 385.41 966.625 386.86C964.595 388.69 962.715 390.7 961.035 392.88L938.375 420.76L921.255 420.63L921.235 420.62Z" fill="white"/>
<path d="M955.075 483.06C997.894 483.06 1032.6 448.349 1032.6 405.53C1032.6 362.711 997.894 328 955.075 328C912.256 328 877.545 362.711 877.545 405.53C877.545 448.349 912.256 483.06 955.075 483.06Z" stroke="white" stroke-miterlimit="10"/>
<path d="M1294.06 266.98C1301.98 266.98 1308.41 260.555 1308.41 252.63C1308.41 244.705 1301.98 238.28 1294.06 238.28C1286.13 238.28 1279.71 244.705 1279.71 252.63C1279.71 260.555 1286.13 266.98 1294.06 266.98Z" stroke="white" stroke-width="0.81" stroke-miterlimit="10"/>
<path d="M1374.64 266.98C1382.56 266.98 1388.99 260.555 1388.99 252.63C1388.99 244.705 1382.56 238.28 1374.64 238.28C1366.71 238.28 1360.29 244.705 1360.29 252.63C1360.29 260.555 1366.71 266.98 1374.64 266.98Z" stroke="white" stroke-width="0.81" stroke-miterlimit="10"/>
<path d="M1334.35 266.98C1342.27 266.98 1348.7 260.555 1348.7 252.63C1348.7 244.705 1342.27 238.28 1334.35 238.28C1326.42 238.28 1320 244.705 1320 252.63C1320 260.555 1326.42 266.98 1334.35 266.98Z" stroke="white" stroke-width="0.81" stroke-miterlimit="10"/>
<path d="M1173.19 266.98C1181.12 266.98 1187.54 260.555 1187.54 252.63C1187.54 244.705 1181.12 238.28 1173.19 238.28C1165.27 238.28 1158.84 244.705 1158.84 252.63C1158.84 260.555 1165.27 266.98 1173.19 266.98Z" stroke="white" stroke-width="0.81" stroke-miterlimit="10"/>
<path d="M1253.77 266.98C1261.7 266.98 1268.12 260.555 1268.12 252.63C1268.12 244.705 1261.7 238.28 1253.77 238.28C1245.85 238.28 1239.42 244.705 1239.42 252.63C1239.42 260.555 1245.85 266.98 1253.77 266.98Z" stroke="white" stroke-width="0.81" stroke-miterlimit="10"/>
<path d="M1213.48 266.98C1221.41 266.98 1227.83 260.555 1227.83 252.63C1227.83 244.705 1221.41 238.28 1213.48 238.28C1205.56 238.28 1199.13 244.705 1199.13 252.63C1199.13 260.555 1205.56 266.98 1213.48 266.98Z" stroke="white" stroke-width="0.81" stroke-miterlimit="10"/>
<path d="M955.075 492.35C1003.02 492.35 1041.89 453.479 1041.89 405.53C1041.89 357.581 1003.02 318.71 955.075 318.71C907.126 318.71 868.255 357.581 868.255 405.53C868.255 453.479 907.126 492.35 955.075 492.35Z" stroke="#ED6921" stroke-linecap="round" stroke-linejoin="round"/>
<path opacity="0.43" d="M75.9551 312.16V505.77C75.9551 505.77 96.1251 512.76 152.865 521.36V370.5C123.535 351.37 97.8451 331.29 75.9551 312.15V312.16Z" fill="url(#paint20_linear_12_1464)"/>
<path d="M443.665 292.65L736.185 292.65C741.708 292.65 746.185 288.173 746.185 282.65V144.06C746.185 138.537 741.708 134.06 736.185 134.06L443.665 134.06C438.142 134.06 433.665 138.537 433.665 144.06V282.65C433.665 288.173 438.142 292.65 443.665 292.65Z" stroke="url(#paint21_linear_12_1464)" stroke-miterlimit="10"/>
<path d="M1090.65 170.16L1220.44 170.16C1225.96 170.16 1230.44 165.683 1230.44 160.16V21.57C1230.44 16.0472 1225.96 11.57 1220.44 11.57L1090.65 11.57C1085.12 11.57 1080.65 16.0472 1080.65 21.57V160.16C1080.65 165.683 1085.12 170.16 1090.65 170.16Z" fill="#E9F3FF"/>
<path d="M1210.08 598.44H1339.88C1345.4 598.44 1349.88 593.963 1349.88 588.44V388.29C1349.88 382.767 1345.4 378.29 1339.88 378.29H1210.08C1204.56 378.29 1200.08 382.767 1200.08 388.29V588.44C1200.08 593.963 1204.56 598.44 1210.08 598.44Z" fill="#E9F3FF"/>
<path d="M507.975 166.52H465.555V276.65H507.975V166.52Z" stroke="white" stroke-miterlimit="10"/>
<path d="M569.385 209H526.965V276.66H569.385V209Z" stroke="white" stroke-miterlimit="10"/>
<path d="M630.795 194.71H588.375V276.65H630.795V194.71Z" stroke="white" stroke-miterlimit="10"/>
<path d="M692.205 216.7H649.785V276.65H692.205V216.7Z" stroke="white" stroke-miterlimit="10"/>
<path d="M716.615 155.24L687.295 170.27L695.185 175.72C658.255 224.67 597.535 247.99 551.995 258.97C499.635 271.59 455.325 271.16 454.885 271.16L454.735 282.16C454.885 282.16 455.335 282.16 456.055 282.16C463.985 282.16 505.115 281.55 554.315 269.72C585.925 262.12 614.225 251.43 638.415 237.95C665.695 222.76 687.785 203.95 704.255 181.97L712.955 187.97L716.615 155.23V155.24Z" fill="url(#paint22_linear_12_1464)"/>
<path opacity="0.77" d="M716.615 155.24L687.295 170.27L695.185 175.72C658.255 224.67 597.535 247.99 551.995 258.97C499.635 271.59 455.325 271.16 454.885 271.16L454.735 282.16C454.885 282.16 455.335 282.16 456.055 282.16C463.985 282.16 505.115 281.55 554.315 269.72C585.925 262.12 614.225 251.43 638.415 237.95C665.695 222.76 687.785 203.95 704.255 181.97L712.955 187.97L716.615 155.23V155.24Z" stroke="#E8F1FF" stroke-miterlimit="10"/>
<path d="M1165.4 33.29L1210.93 59.58L1165.69 85.86L1120.16 59.58L1165.4 33.29Z" fill="#E9F3FF"/>
<path d="M1120.16 59.58L1165.69 85.86L1165.54 138.18L1120.02 111.89L1120.16 59.58Z" fill="url(#paint23_linear_12_1464)"/>
<path d="M1165.4 85.86L1210.93 59.58L1211.06 111.89L1165.54 138.18L1165.4 85.86Z" fill="#6A91D6"/>
<path d="M1170.64 56.61C1173.48 58.25 1173.5 60.9 1170.67 62.54C1167.84 64.18 1163.27 64.18 1160.43 62.54C1157.59 60.9 1157.58 58.25 1160.4 56.61C1163.22 54.97 1167.8 54.97 1170.64 56.61Z" fill="#6A91D6"/>
<path d="M1131.34 86.2C1134.18 87.84 1136.49 86.53 1136.5 83.26C1136.5 80 1134.22 76.03 1131.38 74.39C1128.55 72.75 1126.24 74.0699 1126.23 77.3199C1126.23 80.5799 1128.51 84.5499 1131.35 86.1899L1131.34 86.2Z" fill="white"/>
<path d="M1140.63 104.07C1143.47 105.71 1145.78 104.4 1145.79 101.13C1145.79 97.8699 1143.51 93.9 1140.67 92.26C1137.84 90.62 1135.53 91.9399 1135.52 95.1899C1135.52 98.4499 1137.8 102.42 1140.64 104.06L1140.63 104.07Z" fill="white"/>
<path d="M1151.44 122.2C1154.28 123.84 1156.59 122.53 1156.6 119.26C1156.6 116 1154.32 112.03 1151.48 110.39C1148.65 108.75 1146.34 110.07 1146.33 113.32C1146.33 116.58 1148.61 120.55 1151.45 122.19L1151.44 122.2Z" fill="white"/>
<path d="M1178.15 110.4C1180.99 108.76 1183.3 110.07 1183.31 113.34C1183.31 116.6 1181.03 120.57 1178.19 122.21C1175.36 123.85 1173.05 122.53 1173.04 119.28C1173.04 116.02 1175.32 112.05 1178.16 110.41L1178.15 110.4Z" fill="white"/>
<path d="M1198.27 97.75C1201.11 96.11 1203.42 97.42 1203.43 100.69C1203.43 103.95 1201.15 107.92 1198.31 109.56C1195.47 111.2 1193.17 109.88 1193.16 106.63C1193.16 103.37 1195.44 99.4 1198.28 97.76L1198.27 97.75Z" fill="white"/>
<path d="M1178.15 87.05C1180.99 85.41 1183.3 86.72 1183.31 89.99C1183.31 93.25 1181.03 97.22 1178.19 98.86C1175.36 100.5 1173.05 99.18 1173.04 95.93C1173.04 92.67 1175.32 88.7 1178.16 87.06L1178.15 87.05Z" fill="white"/>
<path d="M1198.27 74.4001C1201.11 72.7601 1203.42 74.0701 1203.43 77.3401C1203.43 80.6001 1201.15 84.5701 1198.31 86.2101C1195.47 87.8501 1193.17 86.5301 1193.16 83.2801C1193.16 80.0201 1195.44 76.0501 1198.28 74.4101L1198.27 74.4001Z" fill="white"/>
<path d="M1165.4 33.29L1210.93 59.58L1165.69 85.86L1120.16 59.58L1165.4 33.29Z" stroke="url(#paint24_linear_12_1464)" stroke-width="0.97" stroke-linecap="round" stroke-linejoin="round"/>
<path d="M1120.16 59.58L1165.69 85.86L1165.54 138.18L1120.02 111.89L1120.16 59.58Z" stroke="url(#paint25_linear_12_1464)" stroke-width="0.97" stroke-linecap="round" stroke-linejoin="round"/>
<path d="M1165.4 85.86L1210.93 59.58L1211.06 111.89L1165.54 138.18L1165.4 85.86Z" stroke="url(#paint26_linear_12_1464)" stroke-width="0.97" stroke-linecap="round" stroke-linejoin="round"/>
<path d="M1101.21 159.59L1231 159.59C1236.52 159.59 1241 155.113 1241 149.59V11C1241 5.47711 1236.52 0.999954 1231 0.999954L1101.21 0.999954C1095.68 0.999954 1091.21 5.47711 1091.21 11V149.59C1091.21 155.113 1095.68 159.59 1101.21 159.59Z" stroke="url(#paint27_linear_12_1464)" stroke-miterlimit="10"/>
<path d="M1220.65 587.87H1350.44C1355.97 587.87 1360.44 583.393 1360.44 577.87V377.72C1360.44 372.197 1355.97 367.72 1350.44 367.72H1220.65C1215.13 367.72 1210.65 372.197 1210.65 377.72V577.87C1210.65 583.393 1215.13 587.87 1220.65 587.87Z" stroke="url(#paint28_linear_12_1464)" stroke-miterlimit="10"/>
<path d="M1291.44 503.14H1275.21C1258.06 503.14 1244.17 489.24 1244.17 472.09V413.9C1244.17 396.75 1258.06 382.85 1275.21 382.85H1291.44" stroke="url(#paint29_linear_12_1464)" stroke-width="0.88" stroke-miterlimit="10"/>
<path d="M1327.87 413.9C1327.87 396.752 1313.96 382.85 1296.82 382.85C1279.67 382.85 1265.77 396.752 1265.77 413.9V472.09C1265.77 489.239 1279.67 503.14 1296.82 503.14C1313.96 503.14 1327.87 489.239 1327.87 472.09V413.9Z" fill="url(#paint30_linear_12_1464)"/>
<path d="M1296.81 424.31C1304.42 424.31 1310.58 418.145 1310.58 410.54C1310.58 402.935 1304.42 396.77 1296.81 396.77C1289.21 396.77 1283.04 402.935 1283.04 410.54C1283.04 418.145 1289.21 424.31 1296.81 424.31Z" fill="white"/>
<path d="M1296.82 492.89C1308.57 492.89 1318.1 483.363 1318.1 471.61C1318.1 459.857 1308.57 450.33 1296.82 450.33C1285.06 450.33 1275.54 459.857 1275.54 471.61C1275.54 483.363 1285.06 492.89 1296.82 492.89Z" stroke="white" stroke-miterlimit="10"/>
<path d="M1296.81 485.05C1304.24 485.05 1310.26 479.033 1310.26 471.61C1310.26 464.187 1304.24 458.17 1296.81 458.17C1289.39 458.17 1283.38 464.187 1283.38 471.61C1283.38 479.033 1289.39 485.05 1296.81 485.05Z" fill="white"/>
<path d="M1285.54 555.57C1308.92 555.57 1327.87 550.054 1327.87 543.25C1327.87 536.446 1308.92 530.93 1285.54 530.93C1262.17 530.93 1243.21 536.446 1243.21 543.25C1243.21 550.054 1262.17 555.57 1285.54 555.57Z" stroke="url(#paint31_linear_12_1464)" stroke-width="1.22" stroke-miterlimit="10"/>
<path d="M1275.9 503.14V543.25C1275.9 544.8 1280.22 546.06 1285.55 546.06C1290.88 546.06 1295.19 544.8 1295.19 543.25V503.14H1275.9Z" fill="url(#paint32_linear_12_1464)"/>
<path d="M588.875 676.66H954.605C960.128 676.66 964.605 672.183 964.605 666.66V572.59C964.605 567.067 960.128 562.59 954.605 562.59H588.875C583.352 562.59 578.875 567.067 578.875 572.59V666.66C578.875 672.183 583.352 676.66 588.875 676.66Z" fill="#E9F3FF"/>
<path d="M585.475 588.25H955.625" stroke="white" stroke-miterlimit="10"/>
<path d="M585.475 618.96H955.625" stroke="white" stroke-miterlimit="10"/>
<path d="M585.475 649.66H955.625" stroke="white" stroke-miterlimit="10"/>
<path d="M599.435 666.09H965.165C970.688 666.09 975.165 661.613 975.165 656.09V562.02C975.165 556.497 970.688 552.02 965.165 552.02H599.435C593.912 552.02 589.435 556.497 589.435 562.02V656.09C589.435 661.613 593.912 666.09 599.435 666.09Z" stroke="url(#paint33_linear_12_1464)" stroke-miterlimit="10"/>
<path d="M695.455 706.76V738.85" stroke="url(#paint34_linear_12_1464)" stroke-width="2" stroke-miterlimit="10"/>
<path d="M702.775 625.24H688.135C685.539 625.24 683.435 627.344 683.435 629.94V706.37C683.435 708.966 685.539 711.07 688.135 711.07H702.775C705.371 711.07 707.475 708.966 707.475 706.37V629.94C707.475 627.344 705.371 625.24 702.775 625.24Z" fill="url(#paint35_linear_12_1464)"/>
<path d="M695.455 596.8V628.89" stroke="url(#paint36_linear_12_1464)" stroke-width="2" stroke-miterlimit="10"/>
<path d="M766.515 693.32V738.85" stroke="url(#paint37_linear_12_1464)" stroke-width="2" stroke-miterlimit="10"/>
<path d="M766.515 596.8V647.93" stroke="url(#paint38_linear_12_1464)" stroke-width="2" stroke-miterlimit="10"/>
<path d="M837.575 627.45V701.54" stroke="url(#paint39_linear_12_1464)" stroke-width="2" stroke-miterlimit="10"/>
<path d="M837.575 532.24V574.56" stroke="url(#paint40_linear_12_1464)" stroke-width="2" stroke-miterlimit="10"/>
<path d="M738.305 584.54H723.665C721.069 584.54 718.965 586.644 718.965 589.24V665.67C718.965 668.266 721.069 670.37 723.665 670.37H738.305C740.901 670.37 743.005 668.266 743.005 665.67V589.24C743.005 586.644 740.901 584.54 738.305 584.54Z" fill="#FEB36F"/>
<path d="M730.985 556.11V588.19" stroke="#FEB36F" stroke-width="2" stroke-miterlimit="10"/>
<path d="M730.985 654.32V686.41" stroke="#FEB36F" stroke-width="2" stroke-miterlimit="10"/>
<path d="M773.835 641.83H759.195C756.599 641.83 754.495 643.934 754.495 646.53V689.77C754.495 692.366 756.599 694.47 759.195 694.47H773.835C776.431 694.47 778.535 692.366 778.535 689.77V646.53C778.535 643.934 776.431 641.83 773.835 641.83Z" fill="url(#paint41_linear_12_1464)"/>
<path d="M809.365 595.11H794.725C792.129 595.11 790.025 597.214 790.025 599.81V676.24C790.025 678.836 792.129 680.94 794.725 680.94H809.365C811.961 680.94 814.065 678.836 814.065 676.24V599.81C814.065 597.214 811.961 595.11 809.365 595.11Z" fill="#FEB36F"/>
<path d="M802.045 543.91V605.22" stroke="#FEB36F" stroke-width="2" stroke-miterlimit="10"/>
<path d="M802.045 664.89V742.89" stroke="#FEB36F" stroke-width="2" stroke-miterlimit="10"/>
<path d="M844.895 573.04H830.255C827.659 573.04 825.555 575.144 825.555 577.74V623.75C825.555 626.346 827.659 628.45 830.255 628.45H844.895C847.491 628.45 849.595 626.346 849.595 623.75V577.74C849.595 575.144 847.491 573.04 844.895 573.04Z" fill="url(#paint42_linear_12_1464)"/>
<path d="M880.425 509.18H865.785C863.189 509.18 861.085 511.284 861.085 513.88V590.31C861.085 592.906 863.189 595.01 865.785 595.01H880.425C883.021 595.01 885.125 592.906 885.125 590.31V513.88C885.125 511.284 883.021 509.18 880.425 509.18Z" fill="#FEB36F"/>
<path d="M873.105 480.74V512.83" stroke="#FEB36F" stroke-width="2" stroke-miterlimit="10"/>
<path d="M873.105 584.54V631.47" stroke="#FEB36F" stroke-width="2" stroke-miterlimit="10"/>
<path d="M727.555 148.79C736.336 148.79 743.455 141.671 743.455 132.89C743.455 124.109 736.336 116.99 727.555 116.99C718.774 116.99 711.655 124.109 711.655 132.89C711.655 141.671 718.774 148.79 727.555 148.79Z" fill="url(#paint43_linear_12_1464)"/>
<path d="M724.075 116.99H727.775C736.555 116.99 743.675 124.11 743.675 132.89C743.675 141.67 736.555 148.79 727.775 148.79H724.075" stroke="#E8F1FF" stroke-miterlimit="10"/>
<path d="M724.075 148.79C732.856 148.79 739.975 141.671 739.975 132.89C739.975 124.109 732.856 116.99 724.075 116.99C715.294 116.99 708.175 124.109 708.175 132.89C708.175 141.671 715.294 148.79 724.075 148.79Z" fill="url(#paint44_linear_12_1464)"/>
<path d="M733.275 119.92H736.975" stroke="#E8F1FF" stroke-miterlimit="10"/>
<path d="M736.265 122.67H739.975" stroke="#E8F1FF" stroke-miterlimit="10"/>
<path d="M738.675 126.46H742.375" stroke="#E8F1FF" stroke-miterlimit="10"/>
<path d="M739.975 131.17H743.675" stroke="#E8F1FF" stroke-miterlimit="10"/>
<path d="M739.745 135.93H743.455" stroke="#E8F1FF" stroke-miterlimit="10"/>
<path d="M738.115 140.28H741.825" stroke="#E8F1FF" stroke-miterlimit="10"/>
<path d="M734.415 144.88H738.115" stroke="#E8F1FF" stroke-miterlimit="10"/>
<path d="M724.075 148.79C732.856 148.79 739.975 141.671 739.975 132.89C739.975 124.109 732.856 116.99 724.075 116.99C715.294 116.99 708.175 124.109 708.175 132.89C708.175 141.671 715.294 148.79 724.075 148.79Z" stroke="#E8F1FF" stroke-miterlimit="10"/>
<path d="M724.075 146.53C731.608 146.53 737.715 140.423 737.715 132.89C737.715 125.357 731.608 119.25 724.075 119.25C716.542 119.25 710.435 125.357 710.435 132.89C710.435 140.423 716.542 146.53 724.075 146.53Z" stroke="#E8F1FF" stroke-miterlimit="10"/>
<path d="M711.555 148.79C720.336 148.79 727.455 141.671 727.455 132.89C727.455 124.109 720.336 116.99 711.555 116.99C702.774 116.99 695.655 124.109 695.655 132.89C695.655 141.671 702.774 148.79 711.555 148.79Z" fill="url(#paint45_linear_12_1464)"/>
<path d="M708.075 116.99H711.775C720.555 116.99 727.675 124.11 727.675 132.89C727.675 141.67 720.555 148.79 711.775 148.79H708.075" stroke="#E8F1FF" stroke-miterlimit="10"/>
<path d="M708.075 148.79C716.856 148.79 723.975 141.671 723.975 132.89C723.975 124.109 716.856 116.99 708.075 116.99C699.294 116.99 692.175 124.109 692.175 132.89C692.175 141.671 699.294 148.79 708.075 148.79Z" fill="url(#paint46_linear_12_1464)"/>
<path d="M717.275 119.92H720.975" stroke="#E8F1FF" stroke-miterlimit="10"/>
<path d="M720.275 122.67H723.975" stroke="#E8F1FF" stroke-miterlimit="10"/>
<path d="M722.675 126.46H726.385" stroke="#E8F1FF" stroke-miterlimit="10"/>
<path d="M723.975 131.17H727.675" stroke="#E8F1FF" stroke-miterlimit="10"/>
<path d="M723.755 135.93H727.455" stroke="#E8F1FF" stroke-miterlimit="10"/>
<path d="M722.125 140.28H725.825" stroke="#E8F1FF" stroke-miterlimit="10"/>
<path d="M718.415 144.88H722.125" stroke="#E8F1FF" stroke-miterlimit="10"/>
<path d="M708.075 148.79C716.856 148.79 723.975 141.671 723.975 132.89C723.975 124.109 716.856 116.99 708.075 116.99C699.294 116.99 692.175 124.109 692.175 132.89C692.175 141.671 699.294 148.79 708.075 148.79Z" stroke="#E8F1FF" stroke-miterlimit="10"/>
<path d="M708.075 146.53C715.608 146.53 721.715 140.423 721.715 132.89C721.715 125.357 715.608 119.25 708.075 119.25C700.542 119.25 694.435 125.357 694.435 132.89C694.435 140.423 700.542 146.53 708.075 146.53Z" stroke="#E8F1FF" stroke-miterlimit="10"/>
<path d="M695.565 148.79C704.346 148.79 711.465 141.671 711.465 132.89C711.465 124.109 704.346 116.99 695.565 116.99C686.784 116.99 679.665 124.109 679.665 132.89C679.665 141.671 686.784 148.79 695.565 148.79Z" fill="url(#paint47_linear_12_1464)"/>
<path d="M692.075 116.99H695.775C704.555 116.99 711.675 124.11 711.675 132.89C711.675 141.67 704.555 148.79 695.775 148.79H692.075" stroke="#E8F1FF" stroke-miterlimit="10"/>
<path d="M692.075 148.79C700.856 148.79 707.975 141.671 707.975 132.89C707.975 124.109 700.856 116.99 692.075 116.99C683.294 116.99 676.175 124.109 676.175 132.89C676.175 141.671 683.294 148.79 692.075 148.79Z" fill="url(#paint48_linear_12_1464)"/>
<path d="M701.275 119.92H704.985" stroke="#E8F1FF" stroke-miterlimit="10"/>
<path d="M704.275 122.67H707.975" stroke="#E8F1FF" stroke-miterlimit="10"/>
<path d="M706.685 126.46H710.385" stroke="#E8F1FF" stroke-miterlimit="10"/>
<path d="M707.975 131.17H711.685" stroke="#E8F1FF" stroke-miterlimit="10"/>
<path d="M707.755 135.93H711.465" stroke="#E8F1FF" stroke-miterlimit="10"/>
<path d="M706.125 140.28H709.835" stroke="#E8F1FF" stroke-miterlimit="10"/>
<path d="M702.425 144.88H706.125" stroke="#E8F1FF" stroke-miterlimit="10"/>
<path d="M692.075 148.79C700.856 148.79 707.975 141.671 707.975 132.89C707.975 124.109 700.856 116.99 692.075 116.99C683.294 116.99 676.175 124.109 676.175 132.89C676.175 141.671 683.294 148.79 692.075 148.79Z" stroke="#E8F1FF" stroke-miterlimit="10"/>
<path d="M692.075 146.53C699.608 146.53 705.715 140.423 705.715 132.89C705.715 125.357 699.608 119.25 692.075 119.25C684.542 119.25 678.435 125.357 678.435 132.89C678.435 140.423 684.542 146.53 692.075 146.53Z" stroke="#E8F1FF" stroke-miterlimit="10"/>
<path d="M679.565 148.79C688.346 148.79 695.465 141.671 695.465 132.89C695.465 124.109 688.346 116.99 679.565 116.99C670.784 116.99 663.665 124.109 663.665 132.89C663.665 141.671 670.784 148.79 679.565 148.79Z" fill="url(#paint49_linear_12_1464)"/>
<path d="M676.085 116.99H679.785C688.565 116.99 695.685 124.11 695.685 132.89C695.685 141.67 688.565 148.79 679.785 148.79H676.085" stroke="#E8F1FF" stroke-miterlimit="10"/>
<path d="M676.085 148.79C684.866 148.79 691.985 141.671 691.985 132.89C691.985 124.109 684.866 116.99 676.085 116.99C667.304 116.99 660.185 124.109 660.185 132.89C660.185 141.671 667.304 148.79 676.085 148.79Z" fill="url(#paint50_linear_12_1464)"/>
<path d="M685.285 119.92H688.985" stroke="#E8F1FF" stroke-miterlimit="10"/>
<path d="M688.275 122.67H691.985" stroke="#E8F1FF" stroke-miterlimit="10"/>
<path d="M690.685 126.46H694.385" stroke="#E8F1FF" stroke-miterlimit="10"/>
<path d="M691.985 131.17H695.685" stroke="#E8F1FF" stroke-miterlimit="10"/>
<path d="M691.765 135.93H695.465" stroke="#E8F1FF" stroke-miterlimit="10"/>
<path d="M690.135 140.28H693.835" stroke="#E8F1FF" stroke-miterlimit="10"/>
<path d="M686.425 144.88H690.135" stroke="#E8F1FF" stroke-miterlimit="10"/>
<path d="M676.085 148.79C684.866 148.79 691.985 141.671 691.985 132.89C691.985 124.109 684.866 116.99 676.085 116.99C667.304 116.99 660.185 124.109 660.185 132.89C660.185 141.671 667.304 148.79 676.085 148.79Z" stroke="#E8F1FF" stroke-miterlimit="10"/>
<path d="M676.085 146.53C683.618 146.53 689.725 140.423 689.725 132.89C689.725 125.357 683.618 119.25 676.085 119.25C668.552 119.25 662.445 125.357 662.445 132.89C662.445 140.423 668.552 146.53 676.085 146.53Z" stroke="#E8F1FF" stroke-miterlimit="10"/>
<path opacity="0.26" d="M740.895 471.14C772.016 471.14 797.245 445.911 797.245 414.79C797.245 383.669 772.016 358.44 740.895 358.44C709.774 358.44 684.545 383.669 684.545 414.79C684.545 445.911 709.774 471.14 740.895 471.14Z" stroke="#4F92FD" stroke-width="2.08" stroke-miterlimit="10"/>
<path d="M775.775 370.63C800.055 389.76 804.285 425.48 785.155 449.76C766.025 474.04 730.305 478.27 706.025 459.14C701.675 455.72 697.865 451.67 694.695 447.13" stroke="white" stroke-width="16.63" stroke-miterlimit="10"/>
<path d="M684.945 421.53C683.185 406.7 687.395 391.75 696.645 380.02C711.415 361.27 736.575 353.85 759.165 361.59" stroke="#4F92FD" stroke-width="31.18" stroke-miterlimit="10"/>
<path d="M955.075 678.26C1105.7 678.26 1227.81 556.155 1227.81 405.53C1227.81 254.905 1105.7 132.8 955.075 132.8C804.45 132.8 682.345 254.905 682.345 405.53C682.345 556.155 804.45 678.26 955.075 678.26Z" stroke="url(#paint51_linear_12_1464)" stroke-width="0.8" stroke-miterlimit="10"/>
<path d="M955.075 600.19C1062.58 600.19 1149.74 513.038 1149.74 405.53C1149.74 298.022 1062.58 210.87 955.075 210.87C847.567 210.87 760.415 298.022 760.415 405.53C760.415 513.038 847.567 600.19 955.075 600.19Z" stroke="url(#paint52_linear_12_1464)" stroke-width="0.57" stroke-miterlimit="10"/>
<path d="M181.425 516.91V537.98C181.425 537.98 272.995 550.89 381.385 550.11V540.72C381.385 540.72 285.515 541.31 181.425 516.91Z" fill="url(#paint53_linear_12_1464)"/>
<path d="M274.295 589.81C337.885 591.8 401.285 591.13 462.055 587.31V462.72C392.145 460.13 329.375 444.63 274.295 422.48V589.81Z" stroke="white" stroke-miterlimit="10"/>
<path d="M90.0449 297.48V491.09C90.0449 491.09 110.215 498.08 166.955 506.68V355.82C137.625 336.69 111.935 316.61 90.0449 297.47V297.48Z" stroke="white" stroke-miterlimit="10"/>
<path d="M195.515 502.22V523.29C195.515 523.29 287.085 536.2 395.475 535.42V526.03C395.475 526.03 299.605 526.62 195.515 502.22Z" stroke="white" stroke-miterlimit="10"/>
<path d="M1429.29 245.28V289.89C1429.29 289.89 1527.51 294.72 1614.77 312.72V275.86C1614.77 275.86 1531.03 253.76 1429.29 245.28Z" fill="url(#paint54_linear_12_1464)"/>
<path d="M1438.17 238.82V283.43C1438.17 283.43 1536.39 288.26 1623.65 306.26V269.4C1623.65 269.4 1539.91 247.3 1438.17 238.82Z" stroke="white" stroke-miterlimit="10"/>
<path d="M1568.6 336.96C1533.24 332.25 1512.77 330.19 1512.77 330.19V417.06C1530.87 416.87 1549.62 417.13 1568.6 417.72V336.96Z" fill="url(#paint55_linear_12_1464)"/>
<path d="M1577.87 324.77C1542.51 320.06 1522.04 318 1522.04 318V404.87C1540.14 404.68 1558.89 404.94 1577.87 405.53V324.77Z" stroke="white" stroke-miterlimit="10"/>
<defs>
<linearGradient id="paint0_linear_12_1464" x1="613.115" y1="405.53" x2="1297.04" y2="405.53" gradientUnits="userSpaceOnUse">
<stop stop-color="#197CE1"/>
<stop offset="1" stop-color="#9FBDFF"/>
</linearGradient>
<linearGradient id="paint1_linear_12_1464" x1="1957.3" y1="388.3" x2="-14.9051" y2="388.3" gradientUnits="userSpaceOnUse">
<stop stop-color="#BFC8FF" stop-opacity="0.8"/>
<stop offset="1" stop-color="#D4E0FF" stop-opacity="0.8"/>
</linearGradient>
<linearGradient id="paint2_linear_12_1464" x1="843.905" y1="272.54" x2="1449.65" y2="272.54" gradientUnits="userSpaceOnUse">
<stop stop-color="#197CE1"/>
<stop offset="1" stop-color="#9FBDFF"/>
</linearGradient>
<linearGradient id="paint3_linear_12_1464" x1="260.205" y1="521.37" x2="447.975" y2="521.37" gradientUnits="userSpaceOnUse">
<stop stop-color="#197CE1"/>
<stop offset="1" stop-color="#9FBDFF"/>
</linearGradient>
<linearGradient id="paint4_linear_12_1464" x1="897.805" y1="347.4" x2="1883.84" y2="347.4" gradientUnits="userSpaceOnUse">
<stop stop-color="#197CE1"/>
<stop offset="1" stop-color="#9FBDFF"/>
</linearGradient>
<linearGradient id="paint5_linear_12_1464" x1="510.085" y1="432.41" x2="548.945" y2="432.41" gradientUnits="userSpaceOnUse">
<stop stop-color="#197CE1"/>
<stop offset="1" stop-color="#9FBDFF"/>
</linearGradient>
<linearGradient id="paint6_linear_12_1464" x1="565.985" y1="459.79" x2="604.965" y2="459.79" gradientUnits="userSpaceOnUse">
<stop stop-color="#197CE1"/>
<stop offset="1" stop-color="#9FBDFF"/>
</linearGradient>
<linearGradient id="paint7_linear_12_1464" x1="1432.11" y1="152" x2="1432.11" y2="140.08" gradientUnits="userSpaceOnUse">
<stop stop-color="#197CE1"/>
<stop offset="1" stop-color="#9FBDFF"/>
</linearGradient>
<linearGradient id="paint8_linear_12_1464" x1="1471.29" y1="135.76" x2="1471.29" y2="123.8" gradientUnits="userSpaceOnUse">
<stop stop-color="#197CE1"/>
<stop offset="1" stop-color="#9FBDFF"/>
</linearGradient>
<linearGradient id="paint9_linear_12_1464" x1="1443.92" y1="184.5" x2="1443.92" y2="172.61" gradientUnits="userSpaceOnUse">
<stop stop-color="#197CE1"/>
<stop offset="1" stop-color="#9FBDFF"/>
</linearGradient>
<linearGradient id="paint10_linear_12_1464" x1="1453.35" y1="168.32" x2="1453.35" y2="156.29" gradientUnits="userSpaceOnUse">
<stop stop-color="#197CE1"/>
<stop offset="1" stop-color="#9FBDFF"/>
</linearGradient>
<linearGradient id="paint11_linear_12_1464" x1="486.765" y1="166.52" x2="486.765" y2="276.65" gradientUnits="userSpaceOnUse">
<stop stop-color="#94C8FF"/>
<stop offset="1" stop-color="white" stop-opacity="0"/>
</linearGradient>
<linearGradient id="paint12_linear_12_1464" x1="548.175" y1="209" x2="548.175" y2="-143.85" gradientUnits="userSpaceOnUse">
<stop stop-color="#94C8FF"/>
<stop offset="1" stop-color="white" stop-opacity="0"/>
</linearGradient>
<linearGradient id="paint13_linear_12_1464" x1="609.585" y1="194.71" x2="609.585" y2="-143.85" gradientUnits="userSpaceOnUse">
<stop stop-color="#94C8FF"/>
<stop offset="1" stop-color="white" stop-opacity="0"/>
</linearGradient>
<linearGradient id="paint14_linear_12_1464" x1="783.725" y1="231.01" x2="1019.91" y2="231.01" gradientUnits="userSpaceOnUse">
<stop stop-color="#197CE1"/>
<stop offset="1" stop-color="#9FBDFF"/>
</linearGradient>
<linearGradient id="paint15_linear_12_1464" x1="783.795" y1="251.64" x2="937.885" y2="251.64" gradientUnits="userSpaceOnUse">
<stop stop-color="#197CE1"/>
<stop offset="1" stop-color="#9FBDFF"/>
</linearGradient>
<linearGradient id="paint16_linear_12_1464" x1="783.775" y1="272.54" x2="963.405" y2="272.54" gradientUnits="userSpaceOnUse">
<stop stop-color="#197CE1"/>
<stop offset="1" stop-color="#9FBDFF"/>
</linearGradient>
<linearGradient id="paint17_linear_12_1464" x1="670.995" y1="216.7" x2="670.995" y2="-143.85" gradientUnits="userSpaceOnUse">
<stop stop-color="#94C8FF"/>
<stop offset="1" stop-color="white" stop-opacity="0"/>
</linearGradient>
<linearGradient id="paint18_linear_12_1464" x1="856.325" y1="405.53" x2="1053.83" y2="405.53" gradientUnits="userSpaceOnUse">
<stop offset="0.32" stop-color="#197DDF"/>
<stop offset="0.39" stop-color="#197DDF" stop-opacity="0.93"/>
<stop offset="0.54" stop-color="#197DDF" stop-opacity="0.73"/>
<stop offset="0.75" stop-color="#197DDF" stop-opacity="0.42"/>
<stop offset="1" stop-color="#197DDF" stop-opacity="0"/>
</linearGradient>
<linearGradient id="paint19_linear_12_1464" x1="868.245" y1="403.86" x2="997.585" y2="403.86" gradientUnits="userSpaceOnUse">
<stop stop-color="#F37435"/>
<stop offset="1" stop-color="#F9B471"/>
</linearGradient>
<linearGradient id="paint20_linear_12_1464" x1="75.9551" y1="416.77" x2="152.865" y2="416.77" gradientUnits="userSpaceOnUse">
<stop stop-color="#1B44C0"/>
<stop offset="0.31" stop-color="#1A47C1"/>
<stop offset="0.55" stop-color="#1A51C7"/>
<stop offset="0.77" stop-color="#1961D1"/>
<stop offset="0.98" stop-color="#1979DF"/>
<stop offset="1" stop-color="#197CE1"/>
</linearGradient>
<linearGradient id="paint21_linear_12_1464" x1="746.685" y1="213.35" x2="433.165" y2="213.35" gradientUnits="userSpaceOnUse">
<stop stop-color="#197CE1"/>
<stop offset="1" stop-color="#9FBDFF"/>
</linearGradient>
<linearGradient id="paint22_linear_12_1464" x1="546.505" y1="179.53" x2="633.955" y2="266.98" gradientUnits="userSpaceOnUse">
<stop stop-color="#F37435"/>
<stop offset="1" stop-color="#F9B471"/>
</linearGradient>
<linearGradient id="paint23_linear_12_1464" x1="1120.02" y1="98.88" x2="1165.69" y2="98.88" gradientUnits="userSpaceOnUse">
<stop stop-color="#BFC8FF" stop-opacity="0.8"/>
<stop offset="1" stop-color="#D4E0FF" stop-opacity="0.8"/>
</linearGradient>
<linearGradient id="paint24_linear_12_1464" x1="1119.68" y1="59.58" x2="1211.41" y2="59.58" gradientUnits="userSpaceOnUse">
<stop stop-color="#1B44C0"/>
<stop offset="0.19" stop-color="#1A44C0" stop-opacity="0.98"/>
<stop offset="0.33" stop-color="#1A47C2" stop-opacity="0.93"/>
<stop offset="0.47" stop-color="#1A4CC5" stop-opacity="0.85"/>
<stop offset="0.59" stop-color="#1A53C9" stop-opacity="0.72"/>
<stop offset="0.71" stop-color="#1A5CCE" stop-opacity="0.56"/>
<stop offset="0.83" stop-color="#1967D4" stop-opacity="0.37"/>
<stop offset="0.94" stop-color="#1973DC" stop-opacity="0.14"/>
<stop offset="1" stop-color="#197CE1" stop-opacity="0"/>
</linearGradient>
<linearGradient id="paint25_linear_12_1464" x1="1119.53" y1="98.88" x2="1166.18" y2="98.88" gradientUnits="userSpaceOnUse">
<stop stop-color="#1B44C0"/>
<stop offset="0.19" stop-color="#1A44C0" stop-opacity="0.98"/>
<stop offset="0.33" stop-color="#1A47C2" stop-opacity="0.93"/>
<stop offset="0.47" stop-color="#1A4CC5" stop-opacity="0.85"/>
<stop offset="0.59" stop-color="#1A53C9" stop-opacity="0.72"/>
<stop offset="0.71" stop-color="#1A5CCE" stop-opacity="0.56"/>
<stop offset="0.83" stop-color="#1967D4" stop-opacity="0.37"/>
<stop offset="0.94" stop-color="#1973DC" stop-opacity="0.14"/>
<stop offset="1" stop-color="#197CE1" stop-opacity="0"/>
</linearGradient>
<linearGradient id="paint26_linear_12_1464" x1="1164.91" y1="98.88" x2="1211.55" y2="98.88" gradientUnits="userSpaceOnUse">
<stop stop-color="#1B44C0"/>
<stop offset="0.19" stop-color="#1A44C0" stop-opacity="0.98"/>
<stop offset="0.33" stop-color="#1A47C2" stop-opacity="0.93"/>
<stop offset="0.47" stop-color="#1A4CC5" stop-opacity="0.85"/>
<stop offset="0.59" stop-color="#1A53C9" stop-opacity="0.72"/>
<stop offset="0.71" stop-color="#1A5CCE" stop-opacity="0.56"/>
<stop offset="0.83" stop-color="#1967D4" stop-opacity="0.37"/>
<stop offset="0.94" stop-color="#1973DC" stop-opacity="0.14"/>
<stop offset="1" stop-color="#197CE1" stop-opacity="0"/>
</linearGradient>
<linearGradient id="paint27_linear_12_1464" x1="1241.5" y1="80.3" x2="1090.71" y2="80.3" gradientUnits="userSpaceOnUse">
<stop stop-color="#197CE1"/>
<stop offset="1" stop-color="#9FBDFF"/>
</linearGradient>
<linearGradient id="paint28_linear_12_1464" x1="1360.94" y1="477.79" x2="1210.15" y2="477.79" gradientUnits="userSpaceOnUse">
<stop stop-color="#197CE1"/>
<stop offset="1" stop-color="#9FBDFF"/>
</linearGradient>
<linearGradient id="paint29_linear_12_1464" x1="1243.73" y1="443" x2="1291.44" y2="443" gradientUnits="userSpaceOnUse">
<stop stop-color="#197CE1"/>
<stop offset="1" stop-color="#9FBDFF"/>
</linearGradient>
<linearGradient id="paint30_linear_12_1464" x1="1268.7" y1="491.71" x2="1324.95" y2="394.28" gradientUnits="userSpaceOnUse">
<stop stop-color="#197CE1"/>
<stop offset="1" stop-color="#9FBDFF"/>
</linearGradient>
<linearGradient id="paint31_linear_12_1464" x1="1242.6" y1="543.25" x2="1328.48" y2="543.25" gradientUnits="userSpaceOnUse">
<stop stop-color="#197CE1"/>
<stop offset="1" stop-color="#9FBDFF"/>
</linearGradient>
<linearGradient id="paint32_linear_12_1464" x1="1275.9" y1="524.6" x2="1295.19" y2="524.6" gradientUnits="userSpaceOnUse">
<stop stop-color="#197CE1"/>
<stop offset="1" stop-color="#9FBDFF"/>
</linearGradient>
<linearGradient id="paint33_linear_12_1464" x1="975.665" y1="609.06" x2="588.935" y2="609.06" gradientUnits="userSpaceOnUse">
<stop stop-color="#197CE1"/>
<stop offset="1" stop-color="#9FBDFF"/>
</linearGradient>
<linearGradient id="paint34_linear_12_1464"  gradientUnits="userSpaceOnUse">
<stop stop-color="#197CE1"/>
<stop offset="1" stop-color="#9FBDFF"/>
</linearGradient>
<linearGradient id="paint35_linear_12_1464" x1="674.725" y1="632.25" x2="716.185" y2="704.05" gradientUnits="userSpaceOnUse">
<stop stop-color="#197CE1"/>
<stop offset="1" stop-color="#9FBDFF"/>
</linearGradient>
<linearGradient id="paint36_linear_12_1464"  gradientUnits="userSpaceOnUse">
<stop stop-color="#197CE1"/>
<stop offset="1" stop-color="#9FBDFF"/>
</linearGradient>
<linearGradient id="paint37_linear_12_1464"  gradientUnits="userSpaceOnUse">
<stop stop-color="#197CE1"/>
<stop offset="1" stop-color="#9FBDFF"/>
</linearGradient>
<linearGradient id="paint38_linear_12_1464"  gradientUnits="userSpaceOnUse">
<stop stop-color="#197CE1"/>
<stop offset="1" stop-color="#9FBDFF"/>
</linearGradient>
<linearGradient id="paint39_linear_12_1464"  gradientUnits="userSpaceOnUse">
<stop stop-color="#197CE1"/>
<stop offset="1" stop-color="#9FBDFF"/>
</linearGradient>
<linearGradient id="paint40_linear_12_1464"  gradientUnits="userSpaceOnUse">
<stop stop-color="#197CE1"/>
<stop offset="1" stop-color="#9FBDFF"/>
</linearGradient>
<linearGradient id="paint41_linear_12_1464" x1="752.965" y1="644.69" x2="780.055" y2="691.61" gradientUnits="userSpaceOnUse">
<stop stop-color="#197CE1"/>
<stop offset="1" stop-color="#9FBDFF"/>
</linearGradient>
<linearGradient id="paint42_linear_12_1464" x1="823.435" y1="576.25" x2="851.715" y2="625.24" gradientUnits="userSpaceOnUse">
<stop stop-color="#197CE1"/>
<stop offset="1" stop-color="#9FBDFF"/>
</linearGradient>
<linearGradient id="paint43_linear_12_1464" x1="716.305" y1="144.13" x2="738.795" y2="121.65" gradientUnits="userSpaceOnUse">
<stop stop-color="#4D75D5"/>
<stop offset="0.49" stop-color="#A1B6E8"/>
<stop offset="1" stop-color="white"/>
</linearGradient>
<linearGradient id="paint44_linear_12_1464" x1="712.825" y1="144.13" x2="735.315" y2="121.65" gradientUnits="userSpaceOnUse">
<stop stop-color="#AFCAFF"/>
<stop offset="0.15" stop-color="#A8C4FB"/>
<stop offset="0.36" stop-color="#95B3F3"/>
<stop offset="0.62" stop-color="#7599E4"/>
<stop offset="0.9" stop-color="#4A74D0"/>
<stop offset="1" stop-color="#3A66C9"/>
</linearGradient>
<linearGradient id="paint45_linear_12_1464" x1="700.315" y1="144.13" x2="722.795" y2="121.65" gradientUnits="userSpaceOnUse">
<stop stop-color="#4D75D5"/>
<stop offset="0.49" stop-color="#A1B6E8"/>
<stop offset="1" stop-color="white"/>
</linearGradient>
<linearGradient id="paint46_linear_12_1464" x1="696.835" y1="-143.85" x2="719.315" y2="121.65" gradientUnits="userSpaceOnUse">
<stop stop-color="#AFCAFF"/>
<stop offset="0.15" stop-color="#A8C4FB"/>
<stop offset="0.36" stop-color="#95B3F3"/>
<stop offset="0.62" stop-color="#7599E4"/>
<stop offset="0.9" stop-color="#4A74D0"/>
<stop offset="1" stop-color="#3A66C9"/>
</linearGradient>
<linearGradient id="paint47_linear_12_1464" x1="684.315" y1="144.13" x2="706.805" y2="121.65" gradientUnits="userSpaceOnUse">
<stop stop-color="#4D75D5"/>
<stop offset="0.49" stop-color="#A1B6E8"/>
<stop offset="1" stop-color="white"/>
</linearGradient>
<linearGradient id="paint48_linear_12_1464" x1="680.835" y1="-143.85" x2="703.325" y2="121.65" gradientUnits="userSpaceOnUse">
<stop stop-color="#AFCAFF"/>
<stop offset="0.15" stop-color="#A8C4FB"/>
<stop offset="0.36" stop-color="#95B3F3"/>
<stop offset="0.62" stop-color="#7599E4"/>
<stop offset="0.9" stop-color="#4A74D0"/>
<stop offset="1" stop-color="#3A66C9"/>
</linearGradient>
<linearGradient id="paint49_linear_12_1464" x1="668.325" y1="144.13" x2="690.805" y2="121.65" gradientUnits="userSpaceOnUse">
<stop stop-color="#4D75D5"/>
<stop offset="0.49" stop-color="#A1B6E8"/>
<stop offset="1" stop-color="white"/>
</linearGradient>
<linearGradient id="paint50_linear_12_1464" x1="664.835" y1="144.13" x2="687.325" y2="121.65" gradientUnits="userSpaceOnUse">
<stop stop-color="#AFCAFF"/>
<stop offset="0.15" stop-color="#A8C4FB"/>
<stop offset="0.36" stop-color="#95B3F3"/>
<stop offset="0.62" stop-color="#7599E4"/>
<stop offset="0.9" stop-color="#4A74D0"/>
<stop offset="1" stop-color="#3A66C9"/>
</linearGradient>
<linearGradient id="paint51_linear_12_1464" x1="681.905" y1="405.53" x2="1228.26" y2="405.53" gradientUnits="userSpaceOnUse">
<stop stop-color="#197CE1"/>
<stop offset="1" stop-color="#9FBDFF"/>
</linearGradient>
<linearGradient id="paint52_linear_12_1464" x1="760.095" y1="405.53" x2="1150.06" y2="405.53" gradientUnits="userSpaceOnUse">
<stop stop-color="#197CE1"/>
<stop offset="1" stop-color="#9FBDFF"/>
</linearGradient>
<linearGradient id="paint53_linear_12_1464" x1="181.425" y1="533.52" x2="381.385" y2="533.52" gradientUnits="userSpaceOnUse">
<stop stop-color="#F37435"/>
<stop offset="1" stop-color="#F9B471"/>
</linearGradient>
<linearGradient id="paint54_linear_12_1464" x1="1429.29" y1="279" x2="1614.77" y2="279" gradientUnits="userSpaceOnUse">
<stop stop-color="#F37435"/>
<stop offset="1" stop-color="#F9B471"/>
</linearGradient>
<linearGradient id="paint55_linear_12_1464" x1="1568.6" y1="373.96" x2="1512.77" y2="373.96" gradientUnits="userSpaceOnUse">
<stop stop-color="#197CE1"/>
<stop offset="1" stop-color="#9FBDFF"/>
</linearGradient>
</defs>
</svg>
