<svg width="160" height="160" viewBox="0 0 160 160" fill="none" xmlns="http://www.w3.org/2000/svg">
<path d="M54.3971 102.384C36.5303 79.1054 -16.6283 75.458 29.6007 39.9767C52.8795 22.1099 105.723 31.3175 123.59 54.5963C154.576 94.9682 130.494 126.39 106.504 140.174C78.9377 156.013 72.2638 125.663 54.3971 102.384Z" fill="#DEEBFC"/>
<circle cx="77.3767" cy="84.7766" r="52.6063" stroke="#1C53EE" stroke-width="0.791072" stroke-linecap="round" stroke-dasharray="8.7 8.7"/>
<circle cx="77.3767" cy="84.7766" r="46.4095" stroke="#FF7F2E" stroke-width="0.791072" stroke-linejoin="round"/>
<rect x="0.642672" y="51.0242" width="79.8982" height="21.8863" rx="3.03244" fill="white" stroke="#FF7F2E" stroke-width="0.791072" stroke-linejoin="round"/>
<rect x="10.6629" y="76.3385" width="80.1619" height="22.15" rx="3.03244" fill="white" stroke="#0C38B7" stroke-width="0.791072" stroke-linejoin="round"/>
<rect x="99.7904" y="58.9349" width="40.3447" height="27.4238" rx="3.03244" fill="white" stroke="#0C38B7" stroke-width="0.791072" stroke-linejoin="round"/>
<rect x="20.9469" y="101.916" width="79.8982" height="21.8863" rx="3.03244" fill="white" stroke="#0C38B7" stroke-width="0.791072" stroke-linejoin="round"/>
<path d="M12.9043 68.2959C16.3994 68.2959 19.2328 65.4625 19.2328 61.9673C19.2328 58.4721 16.3994 55.6387 12.9043 55.6387C9.40908 55.6387 6.57568 58.4721 6.57568 61.9673C6.57568 65.4625 9.40908 68.2959 12.9043 68.2959Z" fill="white" stroke="#0C38B7" stroke-width="0.791072" stroke-miterlimit="10" stroke-linecap="round" stroke-linejoin="round"/>
<path d="M90.4293 47.728C99.0216 47.728 105.987 40.7626 105.987 32.1703C105.987 23.578 99.0216 16.6125 90.4293 16.6125C81.837 16.6125 74.8716 23.578 74.8716 32.1703C74.8716 40.7626 81.837 47.728 90.4293 47.728Z" fill="white" stroke="#0C38B7" stroke-width="0.791072" stroke-miterlimit="10" stroke-linecap="round" stroke-linejoin="round"/>
<path d="M22.9245 93.8739C26.4197 93.8739 29.2531 91.0405 29.2531 87.5453C29.2531 84.0501 26.4197 81.2167 22.9245 81.2167C19.4293 81.2167 16.5959 84.0501 16.5959 87.5453C16.5959 91.0405 19.4293 93.8739 22.9245 93.8739Z" fill="white" stroke="#0C38B7" stroke-width="0.791072" stroke-miterlimit="10" stroke-linecap="round" stroke-linejoin="round"/>
<path d="M33.7359 119.452C37.2311 119.452 40.0645 116.618 40.0645 113.123C40.0645 109.628 37.2311 106.795 33.7359 106.795C30.2407 106.795 27.4073 109.628 27.4073 113.123C27.4073 116.618 30.2407 119.452 33.7359 119.452Z" fill="white" stroke="#0C38B7" stroke-width="0.791072" stroke-miterlimit="10" stroke-linecap="round" stroke-linejoin="round"/>
<path d="M27.671 59.3304H47.7115" stroke="#0C38B7" stroke-width="0.791072" stroke-miterlimit="10" stroke-linecap="round" stroke-linejoin="round"/>
<path d="M36.6365 84.9084H66.1698" stroke="#0C38B7" stroke-width="0.791072" stroke-miterlimit="10" stroke-linecap="round" stroke-linejoin="round"/>
<path d="M47.7114 110.486H71.971" stroke="#0C38B7" stroke-width="0.791072" stroke-miterlimit="10" stroke-linecap="round" stroke-linejoin="round"/>
<path d="M106.515 65.3953H133.675" stroke="#0C38B7" stroke-width="0.791072" stroke-linecap="round" stroke-linejoin="round"/>
<path d="M106.515 80.162H133.675" stroke="#0C38B7" stroke-width="0.791072" stroke-linecap="round" stroke-linejoin="round"/>
<path d="M106.515 72.7786H133.675" stroke="#0C38B7" stroke-width="0.791072" stroke-linecap="round" stroke-linejoin="round"/>
<path d="M27.671 64.3405H63.5329" stroke="#0C38B7" stroke-width="0.791072" stroke-miterlimit="10" stroke-linecap="round" stroke-linejoin="round"/>
<path d="M36.6365 89.9185H60.896" stroke="#0C38B7" stroke-width="0.791072" stroke-miterlimit="10" stroke-linecap="round" stroke-linejoin="round"/>
<path d="M47.7114 115.497H84.8918" stroke="#0C38B7" stroke-width="0.791072" stroke-miterlimit="10" stroke-linecap="round" stroke-linejoin="round"/>
<rect x="113.239" y="111.937" width="27.1601" height="27.1601" rx="3.03244" fill="white" stroke="#0C38B7" stroke-width="0.791072" stroke-linejoin="round"/>
<path d="M126.819 131.845C130.314 131.845 133.147 129.012 133.147 125.517C133.147 122.022 130.314 119.188 126.819 119.188C123.324 119.188 120.49 122.022 120.49 125.517C120.49 129.012 123.324 131.845 126.819 131.845Z" fill="white" stroke="#0C38B7" stroke-width="0.791072" stroke-miterlimit="10" stroke-linecap="round" stroke-linejoin="round"/>
<path d="M112.579 75.9429C114.327 75.9429 115.744 74.5262 115.744 72.7786C115.744 71.031 114.327 69.6143 112.579 69.6143C110.832 69.6143 109.415 71.031 109.415 72.7786C109.415 74.5262 110.832 75.9429 112.579 75.9429Z" fill="white" stroke="#0C38B7" stroke-width="0.791072" stroke-miterlimit="10" stroke-linecap="round" stroke-linejoin="round"/>
<path d="M127.346 68.5596C129.094 68.5596 130.51 67.1429 130.51 65.3953C130.51 63.6477 129.094 62.231 127.346 62.231C125.598 62.231 124.182 63.6477 124.182 65.3953C124.182 67.1429 125.598 68.5596 127.346 68.5596Z" fill="white" stroke="#0C38B7" stroke-width="0.791072" stroke-miterlimit="10" stroke-linecap="round" stroke-linejoin="round"/>
<path d="M121.545 83.3263C123.292 83.3263 124.709 81.9096 124.709 80.162C124.709 78.4144 123.292 76.9977 121.545 76.9977C119.797 76.9977 118.381 78.4144 118.381 80.162C118.381 81.9096 119.797 83.3263 121.545 83.3263Z" fill="white" stroke="#0C38B7" stroke-width="0.791072" stroke-miterlimit="10" stroke-linecap="round" stroke-linejoin="round"/>
</svg>
