<svg width="160" height="160" viewBox="0 0 160 160" fill="none" xmlns="http://www.w3.org/2000/svg">
<path d="M113.326 54.2385C133.605 54.5036 159.192 80.1455 148.762 111.355C132.661 159.533 66.7565 147.739 45.6628 134.535C31.6931 125.791 7.30858 97.1116 6.08126 61.3591C4.35971 11.2096 53.0698 -6.45916 58.2326 17.8779C62.5503 98.4315 60.1808 53.5438 113.326 54.2385Z" fill="#DEEBFC"/>
<path d="M116.155 53.1796C136.434 53.4447 162.022 79.0866 151.591 110.296C135.49 158.474 69.5856 146.68 48.4919 133.476C34.5222 124.732 10.1377 96.0527 8.91036 60.3002C7.18881 10.1507 55.8989 -7.51807 61.0617 16.819C65.3794 97.3726 63.0099 52.4848 116.155 53.1796Z" stroke="#0C38B7" stroke-width="0.858573" stroke-linecap="round" stroke-linejoin="round"/>
<path d="M54.3267 153.529H115.651C120.504 153.529 124.282 149.317 123.751 144.499L110.267 21.9789C109.744 17.2309 105.729 13.6371 100.948 13.6371H39.6242C34.7712 13.6371 30.9925 17.8486 31.5234 22.6668L45.008 145.187C45.5311 149.935 49.5455 153.529 54.3267 153.529V153.529Z" fill="#E1EAFB"/>
<path d="M54.4746 153.53H115.799C120.652 153.53 124.43 149.319 123.899 144.501L110.415 21.9805C109.892 17.2325 105.877 13.6387 101.096 13.6387H39.7721C34.9191 13.6387 31.1405 17.8501 31.6714 22.6683L45.1559 145.189C45.679 149.937 49.6935 153.53 54.4746 153.53V153.53Z" stroke="#0C38B7" stroke-width="0.858573" stroke-linecap="round" stroke-linejoin="round"/>
<path d="M118.695 65.0635L113.953 21.9789C113.43 17.2309 109.416 13.6371 104.634 13.6371H43.3104C38.4575 13.6371 34.6788 17.8486 35.2097 22.6668L48.6943 145.187C49.2174 149.935 53.2318 153.529 58.013 153.529H119.337C124.19 153.529 127.969 149.317 127.438 144.499L126.42 135.253" fill="white"/>
<path d="M118.695 65.0635L113.953 21.9789C113.43 17.2309 109.416 13.6371 104.634 13.6371H43.3104C38.4575 13.6371 34.6788 17.8486 35.2097 22.6668L48.6943 145.187C49.2174 149.935 53.2318 153.529 58.013 153.529H119.337C124.19 153.529 127.969 149.317 127.438 144.499L126.42 135.253" stroke="#0C38B7" stroke-width="0.858573" stroke-linecap="round" stroke-linejoin="round"/>
<path d="M115.663 66.5656L111.306 26.978C110.825 22.6153 107.137 19.3132 102.743 19.3132H46.3971C41.9377 19.3132 38.4666 23.1831 38.9538 27.6113L42.0513 55.7558L43.6 69.8281L45.1488 83.9004L46.6975 97.9726L48.2463 112.045L51.3438 140.189C51.8247 144.552 55.5128 147.854 59.9067 147.854H116.253C120.712 147.854 124.183 143.984 123.696 139.556L122.761 131.06" stroke="#0C38B7" stroke-width="0.858573" stroke-linecap="round" stroke-linejoin="round"/>
<ellipse cx="76.7495" cy="51.9012" rx="14.9769" ry="16.7503" transform="rotate(-52.7472 76.7495 51.9012)" stroke="#0C38B7" stroke-width="0.858573" stroke-miterlimit="10"/>
<ellipse cx="76.4441" cy="46.9737" rx="7.14893" ry="7.99542" transform="rotate(-52.7472 76.4441 46.9737)" stroke="#0C38B7" stroke-width="0.858573" stroke-miterlimit="10"/>
<path d="M90.0782 61.4601C89.1623 60.1911 88.0343 59.0228 86.7054 58.0121C80.1986 53.0637 71.337 53.7686 66.9125 59.5865C66.3977 60.2634 65.9657 60.9797 65.6143 61.7249" stroke="#0C38B7" stroke-width="0.858573" stroke-miterlimit="10"/>
<path d="M57.2991 90.0998H79.4679L79.8723 93.1304H57.704L57.2991 90.0998Z" fill="#2342B7"/>
<path d="M57.905 95.2519H73.0548L73.4592 98.2826H58.31L57.905 95.2519Z" fill="#2342B7"/>
<path d="M59.364 110.708H107.995L108.399 113.739H59.7689L59.364 110.708Z" fill="#DEEBFC"/>
<path d="M59.97 115.254H89.8652L90.2696 118.285H60.3749L59.97 115.254Z" fill="#DEEBFC"/>
<path d="M91.9915 71.5207L119.258 46.2384L146.525 71.5207V107.125H91.9915V71.5207Z" fill="white" stroke="#0C38B7" stroke-width="0.858573" stroke-linecap="round" stroke-linejoin="round"/>
<rect x="98.7101" y="52.1625" width="41.0969" height="47.4503" fill="white" stroke="#FF7F2E" stroke-width="0.858573" stroke-linejoin="round"/>
<path d="M91.9915 71.5208L119.126 94.0215L146.525 71.5208V107.125H91.9915V71.5208Z" fill="white" stroke="#0C38B7" stroke-width="0.858573" stroke-linecap="round" stroke-linejoin="round"/>
<path d="M119.258 84.2265L146.525 107.125H91.9915L119.258 84.2265Z" fill="white" stroke="#0C38B7" stroke-width="0.858573" stroke-linecap="round" stroke-linejoin="round"/>
<path d="M103.11 57.6216H119.391" stroke="#0C38B7" stroke-width="0.858573" stroke-linecap="round" stroke-linejoin="round"/>
<path d="M103.11 60.7983H121.641" stroke="#0C38B7" stroke-width="0.858573" stroke-linecap="round" stroke-linejoin="round"/>
<path d="M124.288 57.6216L135.672 57.6216" stroke="#0C38B7" stroke-width="0.858573" stroke-linecap="round" stroke-linejoin="round"/>
<ellipse cx="119.391" cy="72.3139" rx="7.80941" ry="7.80942" fill="white" stroke="#1C53EE" stroke-width="0.858573" stroke-linejoin="round"/>
<path d="M116.346 71.7844L118.729 74.167L123.361 69.5343" stroke="#0C38B7" stroke-width="0.858573" stroke-linecap="round" stroke-linejoin="round"/>
</svg>
