<svg width="160" height="160" viewBox="0 0 160 160" fill="none" xmlns="http://www.w3.org/2000/svg">
<circle cx="94.727" cy="80.3112" r="62.3112" fill="#DEEBFC"/>
<path d="M29.3232 41.0201C25.6479 41.0201 22.6565 43.9581 22.6565 47.5971V122.723C22.6565 124.586 24.1669 126.096 26.03 126.096H148.271C150.134 126.096 151.645 124.586 151.645 122.723V47.5971C151.645 43.9581 148.653 41.0201 144.978 41.0201H29.3232Z" fill="white" stroke="#FF7F2E" stroke-width="0.963855" stroke-linejoin="round"/>
<path d="M23.1384 53.5622L151.472 53.5622" stroke="#FF7F2E" stroke-width="0.963855" stroke-linejoin="round"/>
<rect x="29.3232" y="62.8393" width="63.0843" height="56.8996" rx="3.21285" stroke="#E1EAFB" stroke-width="0.963855" stroke-miterlimit="10" stroke-linecap="round"/>
<rect x="96.1189" y="62.8393" width="49.1687" height="56.8996" rx="3.21285" stroke="#E1EAFB" stroke-width="0.963855" stroke-miterlimit="10" stroke-linecap="round"/>
<path d="M101.376 77.3599H114.663" stroke="#E1EAFB" stroke-width="0.963855" stroke-miterlimit="10" stroke-linecap="round"/>
<path d="M118.477 77.3599L140.031 77.3599" stroke="#E1EAFB" stroke-width="0.963855" stroke-miterlimit="10" stroke-linecap="round"/>
<path d="M140.031 90.3311L126.743 90.3311" stroke="#E1EAFB" stroke-width="0.963855" stroke-miterlimit="10" stroke-linecap="round"/>
<path d="M125.384 90.3311L101.376 90.3311" stroke="#E1EAFB" stroke-width="0.963855" stroke-miterlimit="10" stroke-linecap="round"/>
<path d="M101.375 67.7871H130.819" stroke="#E1EAFB" stroke-width="0.963855" stroke-miterlimit="10" stroke-linecap="round"/>
<path d="M134.865 67.7872L140.03 67.7872" stroke="#E1EAFB" stroke-width="0.963855" stroke-miterlimit="10" stroke-linecap="round"/>
<path d="M140.031 99.9036L110.587 99.9036" stroke="#E1EAFB" stroke-width="0.963855" stroke-miterlimit="10" stroke-linecap="round"/>
<path d="M106.057 99.9036L101.376 99.9036" stroke="#E1EAFB" stroke-width="0.963855" stroke-miterlimit="10" stroke-linecap="round"/>
<path d="M140.031 85.5445L119.495 85.5445" stroke="#E1EAFB" stroke-width="0.963855" stroke-miterlimit="10" stroke-linecap="round"/>
<path d="M115.72 85.5445L101.376 85.5445" stroke="#E1EAFB" stroke-width="0.963855" stroke-miterlimit="10" stroke-linecap="round"/>
<path d="M130.82 72.5737L140.031 72.5737" stroke="#E1EAFB" stroke-width="0.963855" stroke-miterlimit="10" stroke-linecap="round"/>
<path d="M101.376 72.5737H116.022" stroke="#E1EAFB" stroke-width="0.963855" stroke-miterlimit="10" stroke-linecap="round"/>
<path d="M119.545 72.5737H127.205" stroke="#E1EAFB" stroke-width="0.963855" stroke-miterlimit="10" stroke-linecap="round"/>
<path d="M110.586 95.1173L101.376 95.1173" stroke="#E1EAFB" stroke-width="0.963855" stroke-miterlimit="10" stroke-linecap="round"/>
<path d="M140.031 95.1173L125.384 95.1173" stroke="#E1EAFB" stroke-width="0.963855" stroke-miterlimit="10" stroke-linecap="round"/>
<path d="M122.364 95.1173L113.305 95.1173" stroke="#E1EAFB" stroke-width="0.963855" stroke-miterlimit="10" stroke-linecap="round"/>
<circle cx="29.3234" cy="47.3775" r="2.16466" fill="white" stroke="#FF7F2E" stroke-width="0.963855" stroke-linejoin="round"/>
<circle cx="37.6727" cy="47.3775" r="2.16466" fill="white" stroke="#FF7F2E" stroke-width="0.963855" stroke-linejoin="round"/>
<circle cx="46.0223" cy="47.3775" r="2.16466" fill="white" stroke="#FF7F2E" stroke-width="0.963855" stroke-linejoin="round"/>
<path fill-rule="evenodd" clip-rule="evenodd" d="M119.494 28.3609C119.481 27.9294 119.128 27.5863 118.696 27.5863H112.946C112.514 27.5863 112.161 27.9294 112.148 28.3609L112.093 30.1577C112.082 30.511 111.84 30.8131 111.502 30.9172C110.542 31.2129 109.623 31.6026 108.756 32.0757C108.443 32.2469 108.052 32.2066 107.792 31.9617L106.524 30.7681C106.21 30.4722 105.717 30.4796 105.412 30.7849L101.346 34.8508C101.041 35.1561 101.033 35.6487 101.329 35.963L102.563 37.2739C102.805 37.5312 102.847 37.9162 102.682 38.2285C102.223 39.0968 101.846 40.0157 101.563 40.9747C101.462 41.3172 101.158 41.5645 100.801 41.5753L99.058 41.6281C98.6265 41.6412 98.2834 41.9948 98.2834 42.4265L98.2834 48.1765C98.2834 48.6082 98.6265 48.9618 99.058 48.9749L100.855 49.0294C101.208 49.0401 101.51 49.2825 101.614 49.6203C101.903 50.5577 102.281 51.4557 102.739 52.3045C102.908 52.6177 102.867 53.006 102.623 53.2652L101.328 54.6419C101.032 54.9563 101.039 55.4489 101.344 55.7542L105.41 59.8201C105.716 60.1253 106.208 60.1328 106.523 59.8369L107.912 58.5289C108.171 58.2858 108.557 58.2442 108.87 58.4114C109.703 58.8568 110.584 59.2257 111.502 59.5085C111.84 59.6125 112.082 59.9147 112.093 60.268L112.148 62.0648C112.161 62.4963 112.514 62.8393 112.946 62.8393H118.696C119.128 62.8393 119.481 62.4963 119.494 62.0648L119.547 60.3222C119.558 59.9651 119.805 59.6608 120.148 59.5598C121.107 59.277 122.026 58.9005 122.894 58.4411C123.207 58.2758 123.592 58.3181 123.849 58.5604L125.161 59.7953C125.476 60.0912 125.968 60.0837 126.273 59.7785L130.339 55.7126C130.645 55.4073 130.652 54.9147 130.356 54.6003L129.161 53.3308C128.916 53.0705 128.876 52.6803 129.047 52.3666C129.52 51.4996 129.91 50.5806 130.206 49.6203C130.31 49.2824 130.612 49.0401 130.966 49.0293L132.762 48.9749C133.193 48.9618 133.536 48.6082 133.536 48.1765V42.4265C133.536 41.9948 133.193 41.6412 132.762 41.6281L131.019 41.5753C130.662 41.5645 130.358 41.3173 130.257 40.9747C129.967 39.9926 129.58 39.0526 129.105 38.166C128.938 37.8531 128.979 37.4662 129.222 37.2078L130.355 36.0047C130.651 35.6903 130.643 35.1977 130.338 34.8924L126.272 30.8265C125.967 30.5213 125.474 30.5138 125.16 30.8097L123.97 31.9299C123.71 32.1739 123.322 32.2149 123.009 32.0456C122.107 31.5584 121.149 31.1611 120.148 30.8659C119.805 30.7648 119.558 30.4605 119.547 30.1035L119.494 28.3609Z" fill="white" stroke="#0C38B7" stroke-width="0.963855" stroke-miterlimit="10" stroke-linecap="round" stroke-linejoin="round"/>
<path fill-rule="evenodd" clip-rule="evenodd" d="M144.459 50.0314C144.451 49.7588 144.227 49.5422 143.955 49.5422H140.323C140.05 49.5422 139.827 49.7588 139.819 50.0314L139.784 51.1662C139.778 51.3893 139.625 51.5802 139.411 51.6459C138.805 51.8326 138.224 52.0788 137.677 52.3776C137.479 52.4857 137.232 52.4603 137.068 52.3056L136.267 51.5517C136.068 51.3648 135.757 51.3695 135.565 51.5623L132.997 54.1303C132.804 54.3231 132.799 54.6342 132.986 54.8327L133.765 55.6606C133.918 55.8232 133.945 56.0663 133.84 56.2636C133.55 56.8119 133.313 57.3923 133.134 57.998C133.07 58.2143 132.878 58.3705 132.653 58.3773L131.552 58.4107C131.279 58.4189 131.062 58.6422 131.062 58.9149L131.063 62.5465C131.063 62.8192 131.279 63.0425 131.552 63.0508L132.687 63.0851C132.91 63.0919 133.101 63.245 133.166 63.4584C133.349 64.0504 133.587 64.6176 133.877 65.1536C133.983 65.3515 133.958 65.5967 133.803 65.7604L132.985 66.6299C132.798 66.8285 132.803 67.1396 132.996 67.3324L135.564 69.9003C135.756 70.0931 136.068 70.0978 136.266 69.911L137.144 69.0849C137.307 68.9313 137.551 68.905 137.749 69.0106C138.275 69.292 138.831 69.5249 139.411 69.7035C139.625 69.7692 139.778 69.9601 139.784 70.1832L139.819 71.318C139.827 71.5906 140.05 71.8072 140.323 71.8072H143.955C144.227 71.8072 144.451 71.5906 144.459 71.318L144.492 70.2174C144.499 69.992 144.655 69.7998 144.872 69.736C145.477 69.5573 146.058 69.3196 146.606 69.0294C146.804 68.925 147.047 68.9517 147.209 69.1047L148.038 69.8847C148.236 70.0716 148.548 70.0669 148.74 69.874L151.308 67.3061C151.501 67.1133 151.506 66.8022 151.319 66.6036L150.564 65.8018C150.41 65.6375 150.384 65.391 150.492 65.1929C150.791 64.6453 151.037 64.0648 151.224 63.4584C151.29 63.245 151.481 63.0919 151.704 63.0851L152.838 63.0508C153.111 63.0425 153.328 62.8192 153.328 62.5465V58.9149C153.328 58.6422 153.111 58.4189 152.838 58.4107L151.738 58.3773C151.512 58.3705 151.32 58.2143 151.256 57.998C151.073 57.3777 150.828 56.784 150.529 56.2241C150.423 56.0265 150.449 55.7821 150.603 55.6189L151.318 54.859C151.505 54.6605 151.5 54.3494 151.307 54.1566L148.74 51.5886C148.547 51.3958 148.236 51.3911 148.037 51.578L147.285 52.2855C147.122 52.4396 146.876 52.4655 146.678 52.3586C146.109 52.0509 145.504 51.8 144.872 51.6135C144.655 51.5496 144.499 51.3575 144.492 51.132L144.459 50.0314Z" fill="white" stroke="#0C38B7" stroke-width="0.963855" stroke-miterlimit="10" stroke-linecap="round" stroke-linejoin="round"/>
<path d="M115.91 52.6345C120.009 52.6345 123.331 49.3117 123.331 45.2128C123.331 41.114 120.009 37.7911 115.91 37.7911C111.811 37.7911 108.488 41.114 108.488 45.2128C108.488 49.3117 111.811 52.6345 115.91 52.6345Z" fill="white" stroke="#0C38B7" stroke-width="0.963855" stroke-miterlimit="10" stroke-linecap="round" stroke-linejoin="round"/>
<path d="M142.195 65.3132C144.757 65.3132 146.833 63.2365 146.833 60.6747C146.833 58.1129 144.757 56.0361 142.195 56.0361C139.633 56.0361 137.556 58.1129 137.556 60.6747C137.556 63.2365 139.633 65.3132 142.195 65.3132Z" fill="white" stroke="#0C38B7" stroke-width="0.963855" stroke-miterlimit="10" stroke-linecap="round" stroke-linejoin="round"/>
<path d="M51.5886 31.2972V64.5402" stroke="#1C53EE" stroke-width="0.963855" stroke-linecap="round"/>
<path d="M52.5164 119.894L52.5164 86.6505" stroke="#1C53EE" stroke-width="0.963855" stroke-linecap="round"/>
<path d="M6.74927 89.1245L39.9922 89.1245" stroke="#1C53EE" stroke-width="0.963855" stroke-linecap="round"/>
<path d="M63.3397 78.1466L63.3397 70.4779C63.3397 67.284 65.9289 64.6948 69.1228 64.6948L81.2132 64.6948C84.4071 64.6948 86.9963 62.1056 86.9963 58.9117L86.9963 40.2651" stroke="#1C53EE" stroke-width="0.963855" stroke-linecap="round"/>
<path d="M100.757 89.1245L108.426 89.1245C111.62 89.1245 114.209 91.7137 114.209 94.9076L114.209 106.998C114.209 110.192 116.798 112.781 119.992 112.781L138.638 112.781" stroke="#1C53EE" stroke-width="0.963855" stroke-linecap="round"/>
<circle cx="87.1509" cy="40.265" r="3.40161" fill="white" stroke="#1C53EE" stroke-width="0.963855" stroke-linecap="round"/>
<circle cx="138.638" cy="112.936" r="3.40161" transform="rotate(90 138.638 112.936)" fill="white" stroke="#1C53EE" stroke-width="0.963855" stroke-linecap="round"/>
<circle cx="51.5886" cy="30.9879" r="3.40161" fill="white" stroke="#1C53EE" stroke-width="0.963855" stroke-linecap="round"/>
<circle cx="52.5164" cy="120.203" r="3.40161" transform="rotate(-180 52.5164 120.203)" fill="white" stroke="#1C53EE" stroke-width="0.963855" stroke-linecap="round"/>
<circle cx="6.43994" cy="89.1244" r="3.40161" transform="rotate(-90 6.43994 89.1244)" fill="white" stroke="#1C53EE" stroke-width="0.963855" stroke-linecap="round"/>
<circle cx="15.5625" cy="62.6848" r="2.01004" fill="white" stroke="#1C53EE" stroke-width="0.963855" stroke-linejoin="round"/>
<circle cx="22.9844" cy="62.6848" r="2.01004" fill="white" stroke="#1C53EE" stroke-width="0.963855" stroke-linejoin="round"/>
<circle cx="37.8274" cy="62.6848" r="2.01004" fill="white" stroke="#1C53EE" stroke-width="0.963855" stroke-linejoin="round"/>
<circle cx="30.406" cy="62.6848" r="2.01004" fill="white" stroke="#1C53EE" stroke-width="0.963855" stroke-linejoin="round"/>
<path d="M39.1626 108.916H100.412C112.754 108.916 123.332 107.793 123.332 96.4101C123.332 90.0661 118.363 85.8288 112.754 84.734C112.754 81.1794 108.585 73.4989 100.412 70.598C92.2387 67.6971 86.1484 70.598 83.7443 72.8423C82.9429 66.7501 78.1348 59.696 67.3965 57.9324C52.3056 55.4539 45.6024 66.7675 44.6379 72.0408C34.8315 69.3241 22.5203 78.614 22.5203 89.8367C22.5203 101.059 30.7215 108.916 39.1626 108.916Z" fill="white" stroke="#0C38B7" stroke-width="0.963855" stroke-miterlimit="10" stroke-linecap="round" stroke-linejoin="round"/>
<path fill-rule="evenodd" clip-rule="evenodd" d="M49.4241 98.0924H54.8172L55.8809 94.6002H61.9511L63.0148 98.0924H68.408L62.3317 79.8474H55.5004L49.4241 98.0924ZM60.8223 90.8942L58.9879 84.8719H58.8441L57.0097 90.8942H60.8223Z" stroke="#FF7F2E" stroke-width="0.963855" stroke-linecap="round" stroke-linejoin="round"/>
<path d="M91.7895 98.0924V79.8474H86.7919V98.0924H91.7895Z" stroke="#FF7F2E" stroke-width="0.963855" stroke-linecap="round" stroke-linejoin="round"/>
<path fill-rule="evenodd" clip-rule="evenodd" d="M70.181 98.0924V79.8474H78.1269C79.4931 79.8474 80.6886 80.1147 81.7133 80.6492C82.738 81.1837 83.535 81.935 84.1043 82.9031C84.6736 83.8712 84.9582 85.0026 84.9582 86.2973C84.9582 87.6039 84.6646 88.7353 84.0773 89.6915C83.4961 90.6477 82.6781 91.3842 81.6234 91.9009C80.5748 92.4176 79.3493 92.6759 77.9471 92.6759H75.1786V98.0924H70.181ZM75.1786 88.8274H76.9404C77.5276 88.8274 78.028 88.7264 78.4415 88.5245C78.8609 88.3166 79.1815 88.0226 79.4033 87.6425C79.631 87.2624 79.7448 86.814 79.7448 86.2973C79.7448 85.7747 79.631 85.3292 79.4033 84.961C79.1815 84.5869 78.8609 84.3018 78.4415 84.1058C78.028 83.9039 77.5276 83.8029 76.9404 83.8029H75.1786V88.8274Z" stroke="#FF7F2E" stroke-width="0.963855" stroke-linecap="round" stroke-linejoin="round"/>
</svg>
