<svg width="25" height="25" viewBox="0 0 25 25" fill="none" xmlns="http://www.w3.org/2000/svg">
<g clip-path="url(#clip0_6_287)">
<path d="M19.4 0.0695392H5.6C4.26103 0.0575404 2.972 0.577286 2.01584 1.5147C1.05968 2.45211 0.514515 3.73059 0.5 5.06954L0.5 8.06954C0.5 8.33476 0.605357 8.58911 0.792893 8.77665C0.98043 8.96418 1.23478 9.06954 1.5 9.06954C1.76522 9.06954 2.01957 8.96418 2.20711 8.77665C2.39464 8.58911 2.5 8.33476 2.5 8.06954V5.06954C2.51421 4.26094 2.84856 3.49098 3.42971 2.92857C4.01087 2.36617 4.79137 2.05723 5.6 2.06954H19.4C20.2086 2.05723 20.9891 2.36617 21.5703 2.92857C22.1514 3.49098 22.4858 4.26094 22.5 5.06954V19.0695C22.4858 19.8781 22.1514 20.6481 21.5703 21.2105C20.9891 21.7729 20.2086 22.0818 19.4 22.0695H5.6C4.79137 22.0818 4.01087 21.7729 3.42971 21.2105C2.84856 20.6481 2.51421 19.8781 2.5 19.0695V16.0695C2.5 15.8043 2.39464 15.55 2.20711 15.3624C2.01957 15.1749 1.76522 15.0695 1.5 15.0695C1.23478 15.0695 0.98043 15.1749 0.792893 15.3624C0.605357 15.55 0.5 15.8043 0.5 16.0695L0.5 19.0695C0.514515 20.4085 1.05968 21.687 2.01584 22.6244C2.972 23.5618 4.26103 24.0815 5.6 24.0695H19.4C20.739 24.0815 22.028 23.5618 22.9842 22.6244C23.9403 21.687 24.4855 20.4085 24.5 19.0695V5.06954C24.4855 3.73059 23.9403 2.45211 22.9842 1.5147C22.028 0.577286 20.739 0.0575404 19.4 0.0695392Z" fill="#9796FB"/>
<path d="M3.5 12.0688C3.5 12.334 3.60536 12.5883 3.79289 12.7759C3.98043 12.9634 4.23478 13.0688 4.5 13.0688L17.688 13.0388L13.365 17.3618C13.2695 17.454 13.1933 17.5644 13.1409 17.6864C13.0885 17.8084 13.0609 17.9396 13.0597 18.0724C13.0586 18.2051 13.0839 18.3368 13.1342 18.4597C13.1845 18.5826 13.2587 18.6943 13.3526 18.7882C13.4465 18.8821 13.5581 18.9563 13.681 19.0066C13.8039 19.0569 13.9356 19.0822 14.0684 19.081C14.2012 19.0799 14.3324 19.0523 14.4544 18.9999C14.5764 18.9475 14.6868 18.8713 14.779 18.7758L19.365 14.1898C19.9274 13.6272 20.2434 12.8643 20.2434 12.0688C20.2434 11.2733 19.9274 10.5103 19.365 9.94777L14.781 5.36177C14.5924 5.17961 14.3398 5.07881 14.0776 5.08109C13.8154 5.08337 13.5646 5.18854 13.3792 5.37395C13.1938 5.55936 13.0886 5.81017 13.0863 6.07237C13.084 6.33456 13.1848 6.58716 13.367 6.77577L17.629 11.0388L4.5 11.0688C4.23478 11.0688 3.98043 11.1741 3.79289 11.3617C3.60536 11.5492 3.5 11.8035 3.5 12.0688Z" fill="white"/>
</g>
<defs>
<clipPath id="clip0_6_287">
<rect width="24" height="24" fill="white" transform="translate(0.5 0.0698242)"/>
</clipPath>
</defs>
</svg>
