<svg width="829" height="640" viewBox="0 0 829 640" fill="none" xmlns="http://www.w3.org/2000/svg">
<path d="M154.026 462.824C154.026 462.824 60.6949 366.95 123.141 272.269C155.868 222.652 218.041 249.556 254.907 257.168C296.167 265.692 315.301 289.649 373.941 221.916C399.004 192.968 409.457 144.992 512.618 133.574C716.976 110.958 712.855 382.025 636.028 466.683C636.028 466.683 539.987 505.048 378.519 495.122C217.051 485.195 154.026 462.816 154.026 462.816V462.824Z" fill="url(#paint0_linear_0_11101)"/>
<path d="M197.329 195.126H620.48C624.68 195.126 628.091 198.537 628.091 202.737V469.515H189.717V202.737C189.717 198.537 193.128 195.126 197.329 195.126Z" fill="url(#paint1_linear_0_11101)"/>
<path fill-rule="evenodd" clip-rule="evenodd" d="M200.152 244.628C182.947 242.067 165.4 242.067 149.966 248.925L153.491 462.263C153.842 462.64 154.035 462.833 154.035 462.833C154.035 462.833 169.591 468.349 205.01 475.119C203.467 401.843 201.687 317.5 200.161 244.628H200.152Z" fill="url(#paint2_linear_0_11101)"/>
<path d="M144.713 464.491L315.073 454.511C315.073 454.511 317.564 392.407 297.842 375.351C278.12 358.295 263.124 407.227 240.561 397.783C217.998 388.347 202.827 355.331 179.615 383.673C156.403 412.015 144.704 464.482 144.704 464.482L144.713 464.491Z" fill="#DAE5FF"/>
<path d="M95.1493 469.375L306.19 454.003C306.19 454.003 306.602 420.18 282.951 410.428C260.134 401.019 246.647 422.872 246.647 422.872C246.647 422.872 237.036 393.793 206.37 396.801C180.763 399.309 169.741 417.9 173.362 446.233C173.362 446.233 157.902 434.912 137.987 440.7C119.537 446.058 121.457 456.607 95.1493 469.375Z" fill="white"/>
<path d="M306.19 454.003C306.19 454.003 306.602 420.18 282.951 410.428C260.134 401.019 246.647 422.872 246.647 422.872C246.647 422.872 237.036 393.793 206.37 396.801C180.763 399.309 169.741 417.9 173.362 446.233C173.362 446.233 157.902 434.912 137.987 440.7C119.537 446.058 121.457 456.607 95.1493 469.375" stroke="#FF7F00" stroke-miterlimit="10"/>
<path d="M245.621 149.376H153.105C146.485 149.376 141.118 154.743 141.118 161.364V210.305C141.118 216.926 146.485 222.293 153.105 222.293H245.621C252.241 222.293 257.608 216.926 257.608 210.305V161.364C257.608 154.743 252.241 149.376 245.621 149.376Z" stroke="url(#paint3_linear_0_11101)" stroke-width="0.99" stroke-miterlimit="10"/>
<path d="M687.293 274.084H601.766C595.146 274.084 589.779 279.451 589.779 286.071V416.944C589.779 423.564 595.146 428.931 601.766 428.931H687.293C693.913 428.931 699.28 423.564 699.28 416.944V286.071C699.28 279.451 693.913 274.084 687.293 274.084Z" stroke="white" stroke-miterlimit="10"/>
<path d="M130.007 363.776C130.007 363.776 109.627 230.01 213.736 231.386C317.844 232.763 318.519 261.149 353.789 229.782C389.059 198.405 412.324 109.187 520.887 99.5847C658.617 87.3955 660.827 269.691 658.766 281.924" stroke="url(#paint4_linear_0_11101)" stroke-miterlimit="10"/>
<path d="M71.3145 472.506C95.1581 469.463 235.212 457.458 365.189 456.142C633.125 453.433 686.986 477.408 686.986 477.408C643.797 514.826 527.85 527.805 395.549 528.427L383.754 516.387L235.405 500.874C235.405 500.874 235.352 509.293 233.642 517.93C127.289 502.347 54.6617 474.637 71.3145 472.506Z" fill="url(#paint5_linear_0_11101)"/>
<path d="M365.19 456.142C371.477 456.142 377.826 456.151 384.21 456.169C465.825 466.753 547.87 502.751 584.324 522.026C533.164 529.672 463.072 539.81 398.767 540.967C358.586 486.712 306.479 462.237 288.02 457.519C313.495 456.66 339.539 456.142 365.198 456.142H365.19Z" fill="url(#paint6_linear_0_11101)"/>
<path d="M113.749 468.945C113.749 468.945 161.638 492.701 387.998 492.701C614.359 492.701 644.464 468.147 644.464 468.147C644.464 468.147 536.672 453.433 385.464 453.433C234.256 453.433 113.749 468.945 113.749 468.945Z" fill="url(#paint7_linear_0_11101)"/>
<path opacity="0.77" d="M594.935 462.789C594.935 462.789 530.025 486.449 389.963 494.025L358.577 495.893C358.577 495.893 334.751 480.302 328.227 476.583C328.227 476.583 398.784 480.53 493.291 456.809C493.291 456.809 582.474 459.887 594.944 462.789H594.935Z" fill="url(#paint8_linear_0_11101)"/>
<path d="M693.501 479.96C693.501 479.96 667.518 467.227 597.601 461.974C491.949 454.038 301.367 443.444 67 473.058" stroke="url(#paint9_linear_0_11101)" stroke-width="5" stroke-miterlimit="10"/>
<path d="M564.26 424.257L282.952 414.751C281.198 414.69 277.374 413.541 275.787 412.778L269.719 409.578L304.752 219.022L586.438 170.958L596.084 175.526C597.408 176.851 598.083 178.701 597.908 180.569L576.642 414.111C576.239 418.601 574.95 424.257 564.251 424.257H564.26Z" fill="#6A91D6"/>
<path d="M558.367 420.539L272.376 410.691C269.763 410.604 267.807 408.253 268.193 405.667L296.044 217.198C296.57 213.646 299.376 210.858 302.928 210.358L583.719 170.738C587.113 170.256 590.059 173.071 589.752 176.473L568.434 411.656C567.97 416.821 563.55 420.715 558.367 420.539Z" fill="#DAE5FF"/>
<path d="M491.879 461.93C491.116 461.912 387.227 456.975 387.227 456.975L334.103 464.008C334.103 464.008 319.51 464.973 333.261 467.148C347.02 469.331 439.044 477.618 439.044 477.618C439.044 477.618 448.322 479.574 454.434 477.153C460.546 474.733 491.782 464.789 491.782 464.789C491.782 464.789 498.85 462.114 491.879 461.921V461.93Z" fill="#6A91D6"/>
<path d="M448.462 466.692L435.212 469.515L408.834 407.762L454.504 401.317L448.462 466.692Z" fill="#6A91D6"/>
<path d="M440.938 468.033L385.973 463.745L390.199 415.734L445.191 417.689L440.938 468.033Z" fill="#DAE5FF"/>
<path d="M587.06 171.361C587.63 171.729 594.26 174.527 595.233 175.07C596.978 176.052 598.118 177.991 597.925 180.183L576.607 415.365C576.142 420.53 571.723 424.424 566.54 424.248L450.76 420.258" stroke="#113291" stroke-linecap="round" stroke-linejoin="round"/>
<path d="M385.973 457.142L335.032 463.947C335.032 463.947 318.476 464.815 332.226 466.999C345.985 469.182 439.035 477.627 439.035 477.627C439.035 477.627 448.313 479.582 454.425 477.162C460.538 474.742 491.774 464.798 491.774 464.798C491.774 464.798 498.842 462.123 491.87 461.93C491.528 461.921 472.332 461.009 449.085 459.913" stroke="#113291" stroke-linecap="round" stroke-linejoin="round"/>
<path d="M326.763 465.499C326.763 465.499 326.763 468.393 326.78 469.717C326.78 470.199 327.929 470.708 332.226 471.392C345.985 473.576 439.035 482.02 439.035 482.02C439.035 482.02 448.313 483.976 454.425 481.556C460.537 479.135 491.773 469.191 491.773 469.191C491.773 469.191 494.746 468.068 494.93 467.218C495.027 466.762 494.939 462.824 494.939 462.824" stroke="#113291" stroke-linecap="round" stroke-linejoin="round"/>
<path d="M450.751 420.259L445.191 417.689L440.938 468.033L448.524 466.069L450.751 420.259Z" stroke="#113291" stroke-linecap="round" stroke-linejoin="round"/>
<path d="M440.938 468.033L385.973 463.745L390.199 415.734L445.191 417.689" stroke="#113291" stroke-linecap="round" stroke-linejoin="round"/>
<path d="M268.193 405.667L296.044 217.198C296.57 213.646 299.376 210.858 302.928 210.358L459.406 188.277L373.792 392.162L571.004 383.366L568.443 411.656C567.978 416.821 563.558 420.715 558.376 420.539L272.384 410.691C269.771 410.604 267.816 408.253 268.202 405.667H268.193Z" fill="url(#paint10_linear_0_11101)"/>
<path d="M273.446 370.142L572.775 363.776L568.434 411.656C567.97 416.821 563.55 420.714 558.367 420.539L272.376 410.691C269.763 410.604 267.807 408.253 268.193 405.666L273.446 370.142Z" fill="#9FBDFF"/>
<path d="M558.367 420.539L272.376 410.691C269.763 410.604 267.807 408.253 268.193 405.667L296.044 217.198C296.57 213.646 299.376 210.858 302.928 210.358L583.719 170.738C587.113 170.256 590.059 173.071 589.752 176.473L568.434 411.656C567.97 416.821 563.55 420.715 558.367 420.539Z" stroke="#113291" stroke-linecap="round" stroke-linejoin="round"/>
<path d="M572.775 363.776L273.446 370.142" stroke="#113291" stroke-linecap="round" stroke-linejoin="round"/>
<path opacity="0.8" d="M314.942 243.777L341.539 241.112L325.114 369.055L298.657 369.607L314.942 243.777Z" fill="url(#paint11_linear_0_11101)"/>
<path opacity="0.8" d="M353.386 242.83L379.975 240.164L363.55 368.108L337.093 368.651L353.386 242.83Z" fill="url(#paint12_linear_0_11101)"/>
<path opacity="0.8" d="M393.707 242.83L420.304 240.164L403.879 368.108L377.423 368.651L393.707 242.83Z" fill="url(#paint13_linear_0_11101)"/>
<path opacity="0.8" d="M430.555 270.304L457.144 267.639L445.954 365.696L419.497 366.249L430.555 270.304Z" fill="url(#paint14_linear_0_11101)"/>
<path opacity="0.8" d="M467.693 198.353L548.861 187.479L548.247 198.379L467.149 208.279L467.693 198.353Z" fill="url(#paint15_linear_0_11101)"/>
<path opacity="0.8" d="M466.369 214.295L521.115 208.279L520.501 219.171L465.825 224.222L466.369 214.295Z" fill="url(#paint16_linear_0_11101)"/>
<path opacity="0.8" d="M469.728 287.15L496.316 284.484L488.038 365.696L461.581 366.249L469.728 287.15Z" fill="url(#paint17_linear_0_11101)"/>
<path opacity="0.8" d="M520.335 260.57L546.923 257.905L534.199 364.486L507.725 365.161L520.335 260.57Z" fill="url(#paint18_linear_0_11101)"/>
<path d="M212.035 332.829L252.961 329.076L246.831 376.772L205.002 378.833L212.035 332.829Z" fill="url(#paint19_linear_0_11101)"/>
<path d="M413.964 162.916L477.383 154.743L468.298 231.632L404.484 235.499L413.964 162.916Z" fill="url(#paint20_linear_0_11101)"/>
<path d="M586.823 177.464L586.131 139.529L548.423 152.086L551.466 161.241L568.25 155.655C433.186 377.465 241.473 411.7 185.323 416.9C182.859 417.128 182.044 417.207 181.377 417.365L183.552 426.765L183.421 426.792C183.736 426.739 184.99 426.625 186.209 426.511C249.848 420.609 304.927 399.265 339.934 382.402C383.64 361.338 424.715 333.697 462.011 300.234C505.366 261.333 543.968 214.216 576.862 160.075L577.186 177.657L586.832 177.482L586.823 177.464Z" fill="url(#paint21_linear_0_11101)"/>
<path d="M586.823 177.464L586.131 139.529L548.423 152.086L551.466 161.241L568.25 155.655C433.186 377.465 241.473 411.7 185.323 416.9C182.859 417.128 182.044 417.207 181.377 417.365L183.552 426.765L183.421 426.792C183.736 426.739 184.99 426.625 186.209 426.511C249.848 420.609 304.927 399.265 339.934 382.402C383.64 361.338 424.715 333.697 462.011 300.234C505.366 261.333 543.968 214.216 576.862 160.075L577.186 177.657L586.832 177.482L586.823 177.464Z" stroke="url(#paint22_linear_0_11101)" stroke-miterlimit="10"/>
<path d="M381.053 280.305C390.362 261.756 387.833 241.664 375.406 235.428C362.978 229.191 345.358 239.171 336.05 257.719C326.741 276.267 329.27 296.359 341.697 302.596C354.124 308.833 371.745 298.853 381.053 280.305Z" stroke="url(#paint23_linear_0_11101)" stroke-miterlimit="10"/>
<path d="M457.011 344.009C461.621 334.823 460.368 324.873 454.213 321.784C448.057 318.695 439.331 323.637 434.721 332.822C430.111 342.008 431.364 351.958 437.519 355.047C443.675 358.136 452.401 353.194 457.011 344.009Z" stroke="url(#paint24_linear_0_11101)" stroke-miterlimit="10"/>
<path d="M536.879 340.19C543.102 327.789 541.41 314.354 533.099 310.184C524.788 306.013 513.006 312.685 506.782 325.086C500.558 337.488 502.25 350.922 510.561 355.093C518.872 359.264 530.655 352.592 536.879 340.19Z" stroke="url(#paint25_linear_0_11101)" stroke-miterlimit="10"/>
<path d="M208.325 218.241C211.498 218.241 214.069 215.67 214.069 212.498C214.069 209.325 211.498 206.754 208.325 206.754C205.153 206.754 202.581 209.325 202.581 212.498C202.581 215.67 205.153 218.241 208.325 218.241Z" stroke="url(#paint26_linear_0_11101)" stroke-miterlimit="10"/>
<path d="M229.968 218.241C233.14 218.241 235.712 215.67 235.712 212.498C235.712 209.325 233.14 206.754 229.968 206.754C226.795 206.754 224.224 209.325 224.224 212.498C224.224 215.67 226.795 218.241 229.968 218.241Z" stroke="url(#paint27_linear_0_11101)" stroke-miterlimit="10"/>
<path d="M251.61 218.241C254.782 218.241 257.354 215.67 257.354 212.498C257.354 209.325 254.782 206.754 251.61 206.754C248.438 206.754 245.866 209.325 245.866 212.498C245.866 215.67 248.438 218.241 251.61 218.241Z" stroke="url(#paint28_linear_0_11101)" stroke-miterlimit="10"/>
<path d="M289.011 265.394L325.316 261.868L319.195 309.564L281.978 311.397L289.011 265.394Z" fill="url(#paint29_linear_0_11101)"/>
<path d="M631.099 404.158C654.036 404.158 672.63 385.564 672.63 362.627C672.63 339.69 654.036 321.096 631.099 321.096C608.162 321.096 589.568 339.69 589.568 362.627C589.568 385.564 608.162 404.158 631.099 404.158Z" fill="url(#paint30_linear_0_11101)"/>
<path fill-rule="evenodd" clip-rule="evenodd" d="M656.101 395.784C651.269 399.432 645.613 402.054 639.465 403.316V333.724H656.101V395.784Z" fill="#E9F3FF"/>
<path fill-rule="evenodd" clip-rule="evenodd" d="M622.83 403.334C616.683 402.097 611.035 399.493 606.195 395.871V343.51H622.83V403.343V403.334Z" fill="#E9F3FF"/>
<path fill-rule="evenodd" clip-rule="evenodd" d="M606.195 395.871C600.082 391.285 595.286 385.041 592.436 377.824H606.195V395.871Z" fill="url(#paint31_linear_0_11101)"/>
<path fill-rule="evenodd" clip-rule="evenodd" d="M655.995 395.871V357.059H672.244C672.49 358.883 672.63 360.733 672.63 362.627C672.63 376.228 666.097 388.295 655.995 395.871Z" fill="url(#paint32_linear_0_11101)" stroke="#164DA7" stroke-width="0.5" stroke-miterlimit="10"/>
<path fill-rule="evenodd" clip-rule="evenodd" d="M639.465 403.316C636.764 403.869 633.958 404.158 631.091 404.158C628.223 404.158 625.496 403.869 622.83 403.334V348.237H639.465V403.308V403.316Z" fill="url(#paint33_linear_0_11101)" stroke="#164DA7" stroke-width="0.5" stroke-miterlimit="10"/>
<path fill-rule="evenodd" clip-rule="evenodd" d="M162.637 327.866H134.453L148.545 313.774L162.637 327.866Z" stroke="white" stroke-miterlimit="10"/>
<path fill-rule="evenodd" clip-rule="evenodd" d="M162.637 348.324H134.453L148.545 334.232L162.637 348.324Z" stroke="white" stroke-miterlimit="10"/>
<path fill-rule="evenodd" clip-rule="evenodd" d="M162.637 368.783H134.453L148.545 354.691L162.637 368.783Z" stroke="white" stroke-miterlimit="10"/>
<path fill-rule="evenodd" clip-rule="evenodd" d="M162.637 389.242H134.453L148.545 375.15L162.637 389.242Z" stroke="white" stroke-miterlimit="10"/>
<path d="M153.193 213.822V165.486H307.917" stroke="url(#paint34_linear_0_11101)" stroke-width="0.99" stroke-miterlimit="10"/>
<path d="M156.113 162.574H150.29V168.397H156.113V162.574Z" fill="url(#paint35_linear_0_11101)"/>
<path d="M185.481 183.252H168.241V200.492H185.481V183.252Z" fill="url(#paint36_linear_0_11101)"/>
<path d="M214.876 183.252H197.635V200.492H214.876V183.252Z" stroke="url(#paint37_linear_0_11101)" stroke-width="0.83" stroke-miterlimit="10"/>
<path d="M244.262 183.252H227.021V200.492H244.262V183.252Z" fill="url(#paint38_linear_0_11101)"/>
<path d="M380.246 283.151L505.041 329.023L459.766 335.872" stroke="url(#paint39_linear_0_11101)" stroke-miterlimit="10"/>
<path d="M587.998 300.199L586.078 319.903" stroke="url(#paint40_linear_0_11101)" stroke-width="1.05" stroke-miterlimit="10"/>
<path d="M207.282 328.032L248.199 324.279L242.078 371.975L200.249 374.027L207.282 328.032Z" fill="#E9F3FF"/>
<path d="M209.886 331.619L243.508 329.128L240.07 354.454L206.107 356.357L209.886 331.619Z" stroke="#113291" stroke-linecap="round"/>
<path d="M262.519 259.36L307.812 255.598L301.691 303.303L255.486 305.355L262.519 259.36Z" fill="#E9F3FF"/>
<path d="M265.974 263.657L301.753 260.728L298.245 286.58L262.195 288.395L265.974 263.657Z" stroke="#113291" stroke-linecap="round"/>
<path d="M288.292 288.64C291.994 281.264 290.987 273.274 286.044 270.793C281.101 268.312 274.093 272.281 270.391 279.657C266.69 287.033 267.696 295.023 272.639 297.504C277.583 299.985 284.591 296.016 288.292 288.64Z" fill="url(#paint41_linear_0_11101)"/>
<path d="M230.924 358.481C234.626 351.105 233.619 343.115 228.676 340.634C223.733 338.153 216.725 342.121 213.023 349.497C209.321 356.873 210.328 364.864 215.271 367.344C220.214 369.825 227.222 365.857 230.924 358.481Z" fill="url(#paint42_linear_0_11101)"/>
<path d="M386.402 153.217L449.821 145.053L440.745 221.933L376.931 225.8L386.402 153.217Z" fill="#E9F3FF"/>
<path d="M385.473 195.327L408.168 193.503L405.432 218.39L382.491 220.004L385.473 195.327Z" fill="url(#paint43_linear_0_11101)"/>
<path d="M387.025 188.277L438.492 183.401" stroke="#113291" stroke-linecap="round" stroke-linejoin="round"/>
<path d="M391.313 156.462L388.393 177.736" stroke="#113291" stroke-linecap="round" stroke-linejoin="round"/>
<path d="M398.863 164.249L396.802 177.114" stroke="#113291" stroke-linecap="round" stroke-linejoin="round"/>
<path d="M407.826 163.679L405.765 176.552" stroke="#113291" stroke-linecap="round" stroke-linejoin="round"/>
<path d="M418.103 162.539L416.042 175.404" stroke="#113291" stroke-linecap="round" stroke-linejoin="round"/>
<path d="M428.959 162.539L426.907 175.404" stroke="#113291" stroke-linecap="round" stroke-linejoin="round"/>
<path d="M541.592 255.896L582.983 250.766L574.099 340.45L531.875 342.388L541.592 255.896Z" fill="url(#paint44_linear_0_11101)"/>
<path d="M531.525 246.101L617.569 239.042L608.685 328.725L521.808 332.601L531.525 246.101Z" fill="#E9F3FF"/>
<path d="M538.216 254.853L564.515 252.547L557.262 321.096L530.569 322.692L538.216 254.853Z" fill="url(#paint45_linear_0_11101)"/>
<path d="M608.378 251.266L603.187 258.922L599.679 252.249L594.111 260.097L590.726 253.178L584.912 261.369L581.518 254.432L575.967 262.254L572.792 255.756" stroke="url(#paint46_linear_0_11101)" stroke-width="1.05" stroke-miterlimit="10"/>
<path d="M606.589 268.971L601.407 276.627L597.89 269.954L592.322 277.793L588.937 270.874L583.123 279.074L579.729 272.128L574.178 279.959L571.004 273.461" stroke="url(#paint47_linear_0_11101)" stroke-width="1.05" stroke-miterlimit="10"/>
<path d="M571.004 288.229L567.584 320.587" stroke="url(#paint48_linear_0_11101)" stroke-width="1.05" stroke-miterlimit="10"/>
<path d="M579.755 291.938L577.037 319.903" stroke="url(#paint49_linear_0_11101)" stroke-width="1.05" stroke-miterlimit="10"/>
<path d="M596.233 309.512L595.224 319.903" stroke="url(#paint50_linear_0_11101)" stroke-width="1.05" stroke-miterlimit="10"/>
<path d="M272.77 379.911L363.865 377.947L369.469 322.464L279.83 326.927L272.77 379.911Z" fill="url(#paint51_linear_0_11101)"/>
<path d="M261.248 365.214L354.359 361.522L360.48 312.66L269.008 316.36L261.248 365.214Z" fill="#E9F3FF"/>
<path d="M462.309 402.536L569.311 403.255L572.687 381.06L464.291 388.119L462.309 402.536Z" fill="url(#paint52_linear_0_11101)"/>
<path opacity="0.8" d="M351.439 319.351L350.483 328.594L272.77 331.908L273.446 322.832L351.439 319.351ZM271.052 345.08L307.909 343.457L308.961 333.268L272.306 335.179L271.052 345.08Z" fill="url(#paint53_linear_0_11101)"/>
<path d="M347.633 353.805L267.596 356.19" stroke="white" stroke-width="0.91" stroke-miterlimit="10"/>
<path d="M458.047 395.678L572.337 395.468L574.459 369.835L460.222 373.422L458.047 395.678Z" fill="#E9F3FF"/>
<path d="M565.225 378.552L483.469 380.472" stroke="white" stroke-miterlimit="10"/>
<path d="M519.449 385.445L483.469 386.295" stroke="white" stroke-miterlimit="10"/>
<path d="M473.34 387.509C476.026 385.545 476.929 382.21 475.357 380.06C473.785 377.909 470.333 377.758 467.647 379.722C464.961 381.685 464.058 385.02 465.63 387.171C467.202 389.321 470.654 389.472 473.34 387.509Z" stroke="white" stroke-miterlimit="10"/>
<g >
<rect x="605" y="144" width="220" height="110" rx="10" fill="#524EC6"/>
<rect x="609" y="148" width="220" height="110" rx="10" fill="#9796FB"/>
</g>
<g >
<rect x="0" y="240" width="220" height="110" rx="10" fill="#9796FB"/>
<rect x="4" y="244" width="220" height="110" rx="10" fill="#524EC6"/>
</g>
<text x="20" y="307"><tspan style="fill:#ffffff; font-size: 50px; font-weight: 500;">32000+</tspan></text>
<text x="20" y="335"><tspan style="fill:#ffffff; font-size: 14px;">Active users</tspan></text>
<text x="630" y="207"><tspan style="fill:#ffffff; font-size: 50px; font-weight: 500;">15000+</tspan></text>
<text x="630" y="235"><tspan style="fill:#ffffff; font-size: 14px;">Projects with us</tspan></text>
<defs>
<linearGradient id="paint0_linear_0_11101" x1="101.621" y1="314.51" x2="684.697" y2="314.51" gradientUnits="userSpaceOnUse">
<stop stop-color="#197CE1"/>
<stop offset="1" stop-color="#9FBDFF"/>
</linearGradient>
<linearGradient id="paint1_linear_0_11101" x1="189.717" y1="332.32" x2="628.1" y2="332.32" gradientUnits="userSpaceOnUse">
<stop stop-color="#D4E0FF" stop-opacity="0.8"/>
<stop offset="1" stop-color="#D4E0FF" stop-opacity="0.8"/>
</linearGradient>
<linearGradient id="paint2_linear_0_11101" x1="127.964" y1="447.785" x2="233.984" y2="264.157" gradientUnits="userSpaceOnUse">
<stop stop-color="#94C8FF" stop-opacity="0.8"/>
<stop offset="1" stop-color="white" stop-opacity="0"/>
</linearGradient>
<linearGradient id="paint3_linear_0_11101" x1="140.688" y1="185.839" x2="258.047" y2="185.839" gradientUnits="userSpaceOnUse">
<stop stop-color="#197CE1"/>
<stop offset="1" stop-color="#197CE1" stop-opacity="0"/>
</linearGradient>
<linearGradient id="paint4_linear_0_11101" x1="127.955" y1="231.194" x2="659.564" y2="231.194" gradientUnits="userSpaceOnUse">
<stop stop-color="#3B7CE9"/>
<stop offset="1" stop-color="#2B84E5"/>
</linearGradient>
<linearGradient id="paint5_linear_0_11101" x1="686.986" y1="492.175" x2="68.938" y2="492.175" gradientUnits="userSpaceOnUse">
<stop stop-color="#B5CDFD"/>
<stop offset="1" stop-color="#ECF1FF"/>
</linearGradient>
<linearGradient id="paint6_linear_0_11101" x1="288.011" y1="498.55" x2="584.324" y2="498.55" gradientUnits="userSpaceOnUse">
<stop stop-color="#197CE1"/>
<stop offset="1" stop-color="#9FBDFF" stop-opacity="0"/>
</linearGradient>
<linearGradient id="paint7_linear_0_11101" x1="644.464" y1="473.058" x2="113.749" y2="473.058" gradientUnits="userSpaceOnUse">
<stop offset="0.48" stop-color="#94C8FF"/>
<stop offset="0.53" stop-color="#96C9FF" stop-opacity="0.98"/>
<stop offset="0.6" stop-color="#9CCCFF" stop-opacity="0.92"/>
<stop offset="0.67" stop-color="#A6D1FF" stop-opacity="0.83"/>
<stop offset="0.74" stop-color="#B3D8FF" stop-opacity="0.7"/>
<stop offset="0.82" stop-color="#C5E1FF" stop-opacity="0.53"/>
<stop offset="0.89" stop-color="#DBECFF" stop-opacity="0.33"/>
<stop offset="0.97" stop-color="#F5F9FF" stop-opacity="0.09"/>
<stop offset="1" stop-color="white" stop-opacity="0"/>
</linearGradient>
<linearGradient id="paint8_linear_0_11101" x1="461.581" y1="495.893" x2="461.581" y2="456.809" gradientUnits="userSpaceOnUse">
<stop stop-color="#F8FBFF"/>
<stop offset="0.14" stop-color="#F8FBFF" stop-opacity="0.78"/>
<stop offset="0.32" stop-color="#F8FBFF" stop-opacity="0.55"/>
<stop offset="0.48" stop-color="#F8FBFF" stop-opacity="0.35"/>
<stop offset="0.64" stop-color="#F8FBFF" stop-opacity="0.2"/>
<stop offset="0.78" stop-color="#F8FBFF" stop-opacity="0.09"/>
<stop offset="0.91" stop-color="#F8FBFF" stop-opacity="0.02"/>
<stop offset="1" stop-color="#F8FBFF" stop-opacity="0"/>
</linearGradient>
<linearGradient id="paint9_linear_0_11101" x1="694.466" y1="466.578" x2="66.7194" y2="466.578" gradientUnits="userSpaceOnUse">
<stop stop-color="#3B7CE9"/>
<stop offset="1" stop-color="#2B84E5"/>
</linearGradient>
<linearGradient id="paint10_linear_0_11101" x1="571.004" y1="304.408" x2="268.149" y2="304.408" gradientUnits="userSpaceOnUse">
<stop stop-color="#197DDF" stop-opacity="0"/>
<stop offset="0.1" stop-color="#197DDF" stop-opacity="0.04"/>
<stop offset="0.7" stop-color="#197DDF" stop-opacity="0.23"/>
<stop offset="1" stop-color="#197DDF" stop-opacity="0.3"/>
</linearGradient>
<linearGradient id="paint11_linear_0_11101" x1="287.327" y1="363.066" x2="353.684" y2="248.127" gradientUnits="userSpaceOnUse">
<stop stop-color="#9FBDFF" stop-opacity="0.1"/>
<stop offset="1" stop-color="#197CE1"/>
</linearGradient>
<linearGradient id="paint12_linear_0_11101" x1="325.763" y1="362.11" x2="392.12" y2="247.18" gradientUnits="userSpaceOnUse">
<stop stop-color="#9FBDFF" stop-opacity="0.1"/>
<stop offset="1" stop-color="#197CE1"/>
</linearGradient>
<linearGradient id="paint13_linear_0_11101" x1="366.093" y1="362.11" x2="432.45" y2="247.18" gradientUnits="userSpaceOnUse">
<stop stop-color="#9FBDFF" stop-opacity="0.1"/>
<stop offset="1" stop-color="#197CE1"/>
</linearGradient>
<linearGradient id="paint14_linear_0_11101" x1="412.675" y1="362.311" x2="464.782" y2="272.049" gradientUnits="userSpaceOnUse">
<stop stop-color="#9FBDFF" stop-opacity="0.1"/>
<stop offset="1" stop-color="#197CE1"/>
</linearGradient>
<linearGradient id="paint15_linear_0_11101" x1="493.475" y1="223.477" x2="522.904" y2="172.492" gradientUnits="userSpaceOnUse">
<stop stop-color="#9FBDFF" stop-opacity="0.1"/>
<stop offset="1" stop-color="#197CE1"/>
</linearGradient>
<linearGradient id="paint16_linear_0_11101" x1="483.294" y1="234.307" x2="504.015" y2="198.405" gradientUnits="userSpaceOnUse">
<stop stop-color="#9FBDFF" stop-opacity="0.1"/>
<stop offset="1" stop-color="#197CE1"/>
</linearGradient>
<linearGradient id="paint17_linear_0_11101" x1="457.31" y1="363.785" x2="501.402" y2="287.422" gradientUnits="userSpaceOnUse">
<stop stop-color="#9FBDFF" stop-opacity="0.1"/>
<stop offset="1" stop-color="#197CE1"/>
</linearGradient>
<linearGradient id="paint18_linear_0_11101" x1="499.596" y1="360.461" x2="555.833" y2="263.043" gradientUnits="userSpaceOnUse">
<stop stop-color="#9FBDFF" stop-opacity="0.1"/>
<stop offset="1" stop-color="#197CE1"/>
</linearGradient>
<linearGradient id="paint19_linear_0_11101" x1="205.002" y1="353.954" x2="252.961" y2="353.954" gradientUnits="userSpaceOnUse">
<stop stop-color="#94C8FF" stop-opacity="0.8"/>
<stop offset="1" stop-color="white" stop-opacity="0"/>
</linearGradient>
<linearGradient id="paint20_linear_0_11101" x1="404.484" y1="195.126" x2="477.383" y2="195.126" gradientUnits="userSpaceOnUse">
<stop offset="0.32" stop-color="#197DDF" stop-opacity="0.43"/>
<stop offset="0.47" stop-color="#197DDF" stop-opacity="0.36"/>
<stop offset="0.77" stop-color="#197DDF" stop-opacity="0.17"/>
<stop offset="1" stop-color="#197DDF" stop-opacity="0"/>
</linearGradient>
<linearGradient id="paint21_linear_0_11101" x1="181.377" y1="283.151" x2="586.823" y2="283.151" gradientUnits="userSpaceOnUse">
<stop stop-color="#F9B471"/>
<stop offset="1" stop-color="#F37435"/>
</linearGradient>
<linearGradient id="paint22_linear_0_11101" x1="180.851" y1="283.064" x2="587.271" y2="283.064" gradientUnits="userSpaceOnUse">
<stop stop-color="white" stop-opacity="0"/>
<stop offset="0.34" stop-color="white" stop-opacity="0.33"/>
<stop offset="1" stop-color="white"/>
</linearGradient>
<linearGradient id="paint23_linear_0_11101" x1="330.02" y1="268.979" x2="387.126" y2="268.979" gradientUnits="userSpaceOnUse">
<stop stop-color="#2B84E5" stop-opacity="0"/>
<stop offset="1" stop-color="#3B7CE9"/>
</linearGradient>
<linearGradient id="paint24_linear_0_11101" x1="431.534" y1="338.379" x2="460.254" y2="338.379" gradientUnits="userSpaceOnUse">
<stop stop-color="#2B84E5" stop-opacity="0"/>
<stop offset="1" stop-color="#3B7CE9"/>
</linearGradient>
<linearGradient id="paint25_linear_0_11101" x1="501.521" y1="336.307" x2="542.184" y2="328.897" gradientUnits="userSpaceOnUse">
<stop stop-color="#2B84E5" stop-opacity="0"/>
<stop offset="1" stop-color="#3B7CE9"/>
</linearGradient>
<linearGradient id="paint26_linear_0_11101" x1="202.143" y1="212.498" x2="214.516" y2="212.498" gradientUnits="userSpaceOnUse">
<stop stop-color="#3B7CE9"/>
<stop offset="1" stop-color="#2B84E5"/>
</linearGradient>
<linearGradient id="paint27_linear_0_11101" x1="223.785" y1="212.498" x2="236.159" y2="212.498" gradientUnits="userSpaceOnUse">
<stop stop-color="#3B7CE9"/>
<stop offset="1" stop-color="#2B84E5"/>
</linearGradient>
<linearGradient id="paint28_linear_0_11101" x1="245.428" y1="212.498" x2="257.801" y2="212.498" gradientUnits="userSpaceOnUse">
<stop stop-color="#3B7CE9"/>
<stop offset="1" stop-color="#2B84E5"/>
</linearGradient>
<linearGradient id="paint29_linear_0_11101" x1="281.978" y1="286.633" x2="325.316" y2="286.633" gradientUnits="userSpaceOnUse">
<stop stop-color="#197DDF" stop-opacity="0"/>
<stop offset="0.23" stop-color="#197DDF" stop-opacity="0.17"/>
<stop offset="0.53" stop-color="#197DDF" stop-opacity="0.36"/>
<stop offset="0.68" stop-color="#197DDF" stop-opacity="0.43"/>
</linearGradient>
<linearGradient id="paint30_linear_0_11101" x1="651.865" y1="326.656" x2="610.325" y2="398.598" gradientUnits="userSpaceOnUse">
<stop stop-color="#BFC8FF" stop-opacity="0.8"/>
<stop offset="1" stop-color="#D4E0FF" stop-opacity="0.8"/>
</linearGradient>
<linearGradient id="paint31_linear_0_11101" x1="604.949" y1="377.096" x2="597.127" y2="390.636" gradientUnits="userSpaceOnUse">
<stop stop-color="#197CE1"/>
<stop offset="1" stop-color="#9FBDFF"/>
</linearGradient>
<linearGradient id="paint32_linear_0_11101" x1="669.912" y1="355.717" x2="649.041" y2="391.855" gradientUnits="userSpaceOnUse">
<stop stop-color="#FBFEF9"/>
<stop offset="0.52" stop-color="#ECEDFB"/>
<stop offset="1" stop-color="#DBDBFF"/>
</linearGradient>
<linearGradient id="paint33_linear_0_11101" x1="645.148" y1="351.525" x2="617.139" y2="400.045" gradientUnits="userSpaceOnUse">
<stop stop-color="#FBFEF9"/>
<stop offset="0.52" stop-color="#ECEDFB"/>
<stop offset="1" stop-color="#DBDBFF"/>
</linearGradient>
<linearGradient id="paint34_linear_0_11101" x1="152.763" y1="189.434" x2="307.917" y2="189.434" gradientUnits="userSpaceOnUse">
<stop stop-color="#197CE1"/>
<stop offset="1" stop-color="#197CE1" stop-opacity="0"/>
</linearGradient>
<linearGradient id="paint35_linear_0_11101" x1="150.284" y1="168.39" x2="156.106" y2="162.568" gradientUnits="userSpaceOnUse">
<stop stop-color="#3B7CE9"/>
<stop offset="1" stop-color="#2B84E5"/>
</linearGradient>
<linearGradient id="paint36_linear_0_11101" x1="168.241" y1="200.485" x2="185.48" y2="183.247" gradientUnits="userSpaceOnUse">
<stop stop-color="#F9B471"/>
<stop offset="1" stop-color="#F37435"/>
</linearGradient>
<linearGradient id="paint37_linear_0_11101" x1="197.267" y1="200.852" x2="215.235" y2="182.884" gradientUnits="userSpaceOnUse">
<stop stop-color="#3B7CE9"/>
<stop offset="1" stop-color="#2B84E5"/>
</linearGradient>
<linearGradient id="paint38_linear_0_11101" x1="227.025" y1="200.485" x2="244.263" y2="183.247" gradientUnits="userSpaceOnUse">
<stop stop-color="#F9B471"/>
<stop offset="1" stop-color="#F37435"/>
</linearGradient>
<linearGradient id="paint39_linear_0_11101" x1="386.095" y1="316.457" x2="500.665" y2="295.56" gradientUnits="userSpaceOnUse">
<stop stop-color="#2B84E5" stop-opacity="0"/>
<stop offset="1" stop-color="#3B7CE9"/>
</linearGradient>
<linearGradient id="paint40_linear_0_11101" x1="585.622" y1="310.047" x2="588.454" y2="310.047" gradientUnits="userSpaceOnUse">
<stop stop-color="#197CE1"/>
<stop offset="1" stop-color="#9FBDFF"/>
</linearGradient>
<linearGradient id="paint41_linear_0_11101" x1="268.189" y1="284.126" x2="290.55" y2="284.126" gradientUnits="userSpaceOnUse">
<stop stop-color="#197CE1"/>
<stop offset="1" stop-color="#9FBDFF"/>
</linearGradient>
<linearGradient id="paint42_linear_0_11101" x1="210.822" y1="353.965" x2="233.183" y2="353.965" gradientUnits="userSpaceOnUse">
<stop stop-color="#197CE1"/>
<stop offset="1" stop-color="#9FBDFF"/>
</linearGradient>
<linearGradient id="paint43_linear_0_11101" x1="382.491" y1="206.754" x2="408.168" y2="206.754" gradientUnits="userSpaceOnUse">
<stop stop-color="#F9B471"/>
<stop offset="1" stop-color="#F37435"/>
</linearGradient>
<linearGradient id="paint44_linear_0_11101" x1="531.875" y1="296.577" x2="582.983" y2="296.577" gradientUnits="userSpaceOnUse">
<stop offset="0.32" stop-color="#197DDF" stop-opacity="0.43"/>
<stop offset="0.47" stop-color="#197DDF" stop-opacity="0.36"/>
<stop offset="0.77" stop-color="#197DDF" stop-opacity="0.17"/>
<stop offset="1" stop-color="#197DDF" stop-opacity="0"/>
</linearGradient>
<linearGradient id="paint45_linear_0_11101" x1="528.412" y1="321.447" x2="567.277" y2="254.134" gradientUnits="userSpaceOnUse">
<stop stop-color="#197CE1"/>
<stop offset="1" stop-color="#9FBDFF"/>
</linearGradient>
<linearGradient id="paint46_linear_0_11101" x1="607.503" y1="259.305" x2="572.588" y2="254.012" gradientUnits="userSpaceOnUse">
<stop stop-color="#197CE1"/>
<stop offset="1" stop-color="#9FBDFF"/>
</linearGradient>
<linearGradient id="paint47_linear_0_11101" x1="605.714" y1="277.012" x2="570.8" y2="271.719" gradientUnits="userSpaceOnUse">
<stop stop-color="#197CE1"/>
<stop offset="1" stop-color="#9FBDFF"/>
</linearGradient>
<linearGradient id="paint48_linear_0_11101" x1="567.128" y1="304.408" x2="571.46" y2="304.408" gradientUnits="userSpaceOnUse">
<stop stop-color="#197CE1"/>
<stop offset="1" stop-color="#9FBDFF"/>
</linearGradient>
<linearGradient id="paint49_linear_0_11101" x1="576.581" y1="305.925" x2="580.211" y2="305.925" gradientUnits="userSpaceOnUse">
<stop stop-color="#197CE1"/>
<stop offset="1" stop-color="#9FBDFF"/>
</linearGradient>
<linearGradient id="paint50_linear_0_11101" x1="594.768" y1="314.712" x2="596.689" y2="314.712" gradientUnits="userSpaceOnUse">
<stop stop-color="#197CE1"/>
<stop offset="1" stop-color="#9FBDFF"/>
</linearGradient>
<linearGradient id="paint51_linear_0_11101" x1="369.478" y1="351.183" x2="272.77" y2="351.183" gradientUnits="userSpaceOnUse">
<stop stop-color="#197DDF" stop-opacity="0"/>
<stop offset="0.23" stop-color="#197DDF" stop-opacity="0.17"/>
<stop offset="0.53" stop-color="#197DDF" stop-opacity="0.36"/>
<stop offset="0.68" stop-color="#197DDF" stop-opacity="0.43"/>
</linearGradient>
<linearGradient id="paint52_linear_0_11101" x1="571.915" y1="394.986" x2="463.149" y2="388.677" gradientUnits="userSpaceOnUse">
<stop stop-color="#197DDF" stop-opacity="0"/>
<stop offset="0.23" stop-color="#197DDF" stop-opacity="0.17"/>
<stop offset="0.53" stop-color="#197DDF" stop-opacity="0.36"/>
<stop offset="0.68" stop-color="#197DDF" stop-opacity="0.43"/>
</linearGradient>
<linearGradient id="paint53_linear_0_11101" x1="271.043" y1="332.206" x2="351.439" y2="332.206" gradientUnits="userSpaceOnUse">
<stop stop-color="#9FBDFF" stop-opacity="0.1"/>
<stop offset="1" stop-color="#197CE1"/>
</linearGradient>
</defs>
</svg>
