<svg width="829" height="470" viewBox="0 0 829 470" fill="none" xmlns="http://www.w3.org/2000/svg">
<path d="M154.026 372.824C154.026 372.824 60.6949 276.95 123.141 182.269C155.868 132.652 218.041 159.556 254.907 167.168C296.167 175.692 315.301 199.649 373.941 131.916C399.004 102.968 409.457 54.9918 512.618 43.5743C716.976 20.9584 712.855 292.025 636.028 376.683C636.028 376.683 539.987 415.048 378.519 405.122C217.051 395.195 154.026 372.816 154.026 372.816V372.824Z" fill="url(#paint0_linear_0_11101)"/>
<path d="M197.329 105.126H620.48C624.68 105.126 628.091 108.537 628.091 112.737V379.515H189.717V112.737C189.717 108.537 193.128 105.126 197.329 105.126Z" fill="url(#paint1_linear_0_11101)"/>
<path fill-rule="evenodd" clip-rule="evenodd" d="M200.152 154.628C182.947 152.067 165.4 152.067 149.966 158.925L153.491 372.263C153.842 372.64 154.035 372.833 154.035 372.833C154.035 372.833 169.591 378.349 205.01 385.119C203.467 311.843 201.687 227.5 200.161 154.628H200.152Z" fill="url(#paint2_linear_0_11101)"/>
<path d="M144.713 374.491L315.073 364.511C315.073 364.511 317.564 302.407 297.842 285.351C278.12 268.295 263.124 317.227 240.561 307.783C217.998 298.347 202.827 265.331 179.615 293.673C156.403 322.015 144.704 374.482 144.704 374.482L144.713 374.491Z" fill="#DAE5FF"/>
<path d="M95.1493 379.375L306.19 364.003C306.19 364.003 306.602 330.18 282.951 320.428C260.134 311.019 246.647 332.872 246.647 332.872C246.647 332.872 237.036 303.793 206.37 306.801C180.763 309.309 169.741 327.9 173.362 356.233C173.362 356.233 157.902 344.912 137.987 350.7C119.537 356.058 121.457 366.607 95.1493 379.375Z" fill="white"/>
<path d="M306.19 364.003C306.19 364.003 306.602 330.18 282.951 320.428C260.134 311.019 246.647 332.872 246.647 332.872C246.647 332.872 237.036 303.793 206.37 306.801C180.763 309.309 169.741 327.9 173.362 356.233C173.362 356.233 157.902 344.912 137.987 350.7C119.537 356.058 121.457 366.607 95.1493 379.375" stroke="#FF7F00" stroke-miterlimit="10"/>
<path d="M245.621 59.3765H153.105C146.485 59.3765 141.118 64.7435 141.118 71.364V120.305C141.118 126.926 146.485 132.293 153.105 132.293H245.621C252.241 132.293 257.608 126.926 257.608 120.305V71.364C257.608 64.7435 252.241 59.3765 245.621 59.3765Z" stroke="url(#paint3_linear_0_11101)" stroke-width="0.99" stroke-miterlimit="10"/>
<path d="M687.293 184.084H601.766C595.146 184.084 589.779 189.451 589.779 196.071V326.944C589.779 333.564 595.146 338.931 601.766 338.931H687.293C693.913 338.931 699.28 333.564 699.28 326.944V196.071C699.28 189.451 693.913 184.084 687.293 184.084Z" stroke="white" stroke-miterlimit="10"/>
<path d="M130.007 273.776C130.007 273.776 109.627 140.01 213.736 141.386C317.844 142.763 318.519 171.149 353.789 139.782C389.059 108.405 412.324 19.187 520.887 9.58471C658.617 -2.60454 660.827 179.691 658.766 191.924" stroke="url(#paint4_linear_0_11101)" stroke-miterlimit="10"/>
<path d="M71.3145 382.506C95.1581 379.463 235.212 367.458 365.189 366.142C633.125 363.433 686.986 387.408 686.986 387.408C643.797 424.826 527.85 437.805 395.549 438.427L383.754 426.387L235.405 410.874C235.405 410.874 235.352 419.293 233.642 427.93C127.289 412.347 54.6617 384.637 71.3145 382.506Z" fill="url(#paint5_linear_0_11101)"/>
<path d="M365.19 366.142C371.477 366.142 377.826 366.151 384.21 366.169C465.825 376.753 547.87 412.751 584.324 432.026C533.164 439.672 463.072 449.81 398.767 450.967C358.586 396.712 306.479 372.237 288.02 367.519C313.495 366.66 339.539 366.142 365.198 366.142H365.19Z" fill="url(#paint6_linear_0_11101)"/>
<path d="M113.749 378.945C113.749 378.945 161.638 402.701 387.998 402.701C614.359 402.701 644.464 378.147 644.464 378.147C644.464 378.147 536.672 363.433 385.464 363.433C234.256 363.433 113.749 378.945 113.749 378.945Z" fill="url(#paint7_linear_0_11101)"/>
<path opacity="0.77" d="M594.935 372.789C594.935 372.789 530.025 396.449 389.963 404.025L358.577 405.893C358.577 405.893 334.751 390.302 328.227 386.583C328.227 386.583 398.784 390.53 493.291 366.809C493.291 366.809 582.474 369.887 594.944 372.789H594.935Z" fill="url(#paint8_linear_0_11101)"/>
<path d="M693.501 389.96C693.501 389.96 667.518 377.227 597.601 371.974C491.949 364.038 301.367 353.444 67 383.058" stroke="url(#paint9_linear_0_11101)" stroke-width="5" stroke-miterlimit="10"/>
<path d="M564.26 334.257L282.952 324.751C281.198 324.69 277.374 323.541 275.787 322.778L269.719 319.578L304.752 129.022L586.438 80.9576L596.084 85.5264C597.408 86.8505 598.083 88.7008 597.908 90.5687L576.642 324.111C576.239 328.601 574.95 334.257 564.251 334.257H564.26Z" fill="#6A91D6"/>
<path d="M558.367 330.539L272.376 320.691C269.763 320.604 267.807 318.253 268.193 315.667L296.044 127.198C296.57 123.646 299.376 120.858 302.928 120.358L583.719 80.7384C587.113 80.2561 590.059 83.071 589.752 86.4735L568.434 321.656C567.97 326.821 563.55 330.715 558.367 330.539Z" fill="#DAE5FF"/>
<path d="M491.879 371.93C491.116 371.912 387.227 366.975 387.227 366.975L334.103 374.008C334.103 374.008 319.51 374.973 333.261 377.148C347.02 379.331 439.044 387.618 439.044 387.618C439.044 387.618 448.322 389.574 454.434 387.153C460.546 384.733 491.782 374.789 491.782 374.789C491.782 374.789 498.85 372.114 491.879 371.921V371.93Z" fill="#6A91D6"/>
<path d="M448.462 376.692L435.212 379.515L408.834 317.762L454.504 311.317L448.462 376.692Z" fill="#6A91D6"/>
<path d="M440.938 378.033L385.973 373.745L390.199 325.734L445.191 327.689L440.938 378.033Z" fill="#DAE5FF"/>
<path d="M587.06 81.361C587.63 81.7293 594.26 84.5266 595.233 85.0703C596.978 86.0525 598.118 87.9905 597.925 90.1828L576.607 325.365C576.142 330.53 571.723 334.424 566.54 334.248L450.76 330.258" stroke="#113291" stroke-linecap="round" stroke-linejoin="round"/>
<path d="M385.973 367.142L335.032 373.947C335.032 373.947 318.476 374.815 332.226 376.999C345.985 379.182 439.035 387.627 439.035 387.627C439.035 387.627 448.313 389.582 454.425 387.162C460.538 384.742 491.774 374.798 491.774 374.798C491.774 374.798 498.842 372.123 491.87 371.93C491.528 371.921 472.332 371.009 449.085 369.913" stroke="#113291" stroke-linecap="round" stroke-linejoin="round"/>
<path d="M326.763 375.499C326.763 375.499 326.763 378.393 326.78 379.717C326.78 380.199 327.929 380.708 332.226 381.392C345.985 383.576 439.035 392.02 439.035 392.02C439.035 392.02 448.313 393.976 454.425 391.556C460.537 389.135 491.773 379.191 491.773 379.191C491.773 379.191 494.746 378.068 494.93 377.218C495.027 376.762 494.939 372.824 494.939 372.824" stroke="#113291" stroke-linecap="round" stroke-linejoin="round"/>
<path d="M450.751 330.259L445.191 327.689L440.938 378.033L448.524 376.069L450.751 330.259Z" stroke="#113291" stroke-linecap="round" stroke-linejoin="round"/>
<path d="M440.938 378.033L385.973 373.745L390.199 325.734L445.191 327.689" stroke="#113291" stroke-linecap="round" stroke-linejoin="round"/>
<path d="M268.193 315.667L296.044 127.198C296.57 123.646 299.376 120.858 302.928 120.358L459.406 98.2769L373.792 302.162L571.004 293.366L568.443 321.656C567.978 326.821 563.558 330.715 558.376 330.539L272.384 320.691C269.771 320.604 267.816 318.253 268.202 315.667H268.193Z" fill="url(#paint10_linear_0_11101)"/>
<path d="M273.446 280.142L572.775 273.776L568.434 321.656C567.97 326.821 563.55 330.714 558.367 330.539L272.376 320.691C269.763 320.604 267.807 318.253 268.193 315.666L273.446 280.142Z" fill="#9FBDFF"/>
<path d="M558.367 330.539L272.376 320.691C269.763 320.604 267.807 318.253 268.193 315.667L296.044 127.198C296.57 123.646 299.376 120.858 302.928 120.358L583.719 80.7384C587.113 80.2561 590.059 83.071 589.752 86.4735L568.434 321.656C567.97 326.821 563.55 330.715 558.367 330.539Z" stroke="#113291" stroke-linecap="round" stroke-linejoin="round"/>
<path d="M572.775 273.776L273.446 280.142" stroke="#113291" stroke-linecap="round" stroke-linejoin="round"/>
<path opacity="0.8" d="M314.942 153.777L341.539 151.112L325.114 279.055L298.657 279.607L314.942 153.777Z" fill="url(#paint11_linear_0_11101)"/>
<path opacity="0.8" d="M353.386 152.83L379.975 150.164L363.55 278.108L337.093 278.651L353.386 152.83Z" fill="url(#paint12_linear_0_11101)"/>
<path opacity="0.8" d="M393.707 152.83L420.304 150.164L403.879 278.108L377.423 278.651L393.707 152.83Z" fill="url(#paint13_linear_0_11101)"/>
<path opacity="0.8" d="M430.555 180.304L457.144 177.639L445.954 275.696L419.497 276.249L430.555 180.304Z" fill="url(#paint14_linear_0_11101)"/>
<path opacity="0.8" d="M467.693 108.353L548.861 97.4789L548.247 108.379L467.149 118.279L467.693 108.353Z" fill="url(#paint15_linear_0_11101)"/>
<path opacity="0.8" d="M466.369 124.295L521.115 118.279L520.501 129.171L465.825 134.222L466.369 124.295Z" fill="url(#paint16_linear_0_11101)"/>
<path opacity="0.8" d="M469.728 197.15L496.316 194.484L488.038 275.696L461.581 276.249L469.728 197.15Z" fill="url(#paint17_linear_0_11101)"/>
<path opacity="0.8" d="M520.335 170.571L546.923 167.905L534.199 274.486L507.725 275.161L520.335 170.571Z" fill="url(#paint18_linear_0_11101)"/>
<path d="M212.035 242.829L252.961 239.076L246.831 286.772L205.002 288.833L212.035 242.829Z" fill="url(#paint19_linear_0_11101)"/>
<path d="M413.964 72.9162L477.383 64.7432L468.298 141.632L404.484 145.499L413.964 72.9162Z" fill="url(#paint20_linear_0_11101)"/>
<path d="M586.823 87.4644L586.131 49.5286L548.423 62.0862L551.466 71.2413L568.25 65.6553C433.186 287.465 241.473 321.7 185.323 326.9C182.859 327.128 182.044 327.207 181.377 327.365L183.552 336.765L183.421 336.792C183.736 336.739 184.99 336.625 186.209 336.511C249.848 330.609 304.927 309.265 339.934 292.402C383.64 271.338 424.715 243.697 462.011 210.234C505.366 171.333 543.968 124.216 576.862 70.075L577.186 87.6573L586.832 87.4819L586.823 87.4644Z" fill="url(#paint21_linear_0_11101)"/>
<path d="M586.823 87.4644L586.131 49.5286L548.423 62.0862L551.466 71.2413L568.25 65.6553C433.186 287.465 241.473 321.7 185.323 326.9C182.859 327.128 182.044 327.207 181.377 327.365L183.552 336.765L183.421 336.792C183.736 336.739 184.99 336.625 186.209 336.511C249.848 330.609 304.927 309.265 339.934 292.402C383.64 271.338 424.715 243.697 462.011 210.234C505.366 171.333 543.968 124.216 576.862 70.075L577.186 87.6573L586.832 87.4819L586.823 87.4644Z" stroke="url(#paint22_linear_0_11101)" stroke-miterlimit="10"/>
<path d="M381.053 190.305C390.362 171.756 387.833 151.664 375.406 145.428C362.978 139.191 345.358 149.171 336.05 167.719C326.741 186.267 329.27 206.359 341.697 212.596C354.124 218.833 371.745 208.853 381.053 190.305Z" stroke="url(#paint23_linear_0_11101)" stroke-miterlimit="10"/>
<path d="M457.011 254.009C461.621 244.823 460.368 234.873 454.213 231.784C448.057 228.695 439.331 233.637 434.721 242.822C430.111 252.008 431.364 261.958 437.519 265.047C443.675 268.136 452.401 263.194 457.011 254.009Z" stroke="url(#paint24_linear_0_11101)" stroke-miterlimit="10"/>
<path d="M536.879 250.19C543.102 237.789 541.41 224.354 533.099 220.184C524.788 216.013 513.006 222.685 506.782 235.086C500.558 247.488 502.25 260.922 510.561 265.093C518.872 269.264 530.655 262.592 536.879 250.19Z" stroke="url(#paint25_linear_0_11101)" stroke-miterlimit="10"/>
<path d="M208.325 128.241C211.498 128.241 214.069 125.67 214.069 122.498C214.069 119.325 211.498 116.754 208.325 116.754C205.153 116.754 202.581 119.325 202.581 122.498C202.581 125.67 205.153 128.241 208.325 128.241Z" stroke="url(#paint26_linear_0_11101)" stroke-miterlimit="10"/>
<path d="M229.968 128.241C233.14 128.241 235.712 125.67 235.712 122.498C235.712 119.325 233.14 116.754 229.968 116.754C226.795 116.754 224.224 119.325 224.224 122.498C224.224 125.67 226.795 128.241 229.968 128.241Z" stroke="url(#paint27_linear_0_11101)" stroke-miterlimit="10"/>
<path d="M251.61 128.241C254.782 128.241 257.354 125.67 257.354 122.498C257.354 119.325 254.782 116.754 251.61 116.754C248.438 116.754 245.866 119.325 245.866 122.498C245.866 125.67 248.438 128.241 251.61 128.241Z" stroke="url(#paint28_linear_0_11101)" stroke-miterlimit="10"/>
<path d="M289.011 175.394L325.316 171.868L319.195 219.564L281.978 221.397L289.011 175.394Z" fill="url(#paint29_linear_0_11101)"/>
<path d="M631.099 314.158C654.036 314.158 672.63 295.564 672.63 272.627C672.63 249.69 654.036 231.096 631.099 231.096C608.162 231.096 589.568 249.69 589.568 272.627C589.568 295.564 608.162 314.158 631.099 314.158Z" fill="url(#paint30_linear_0_11101)"/>
<path fill-rule="evenodd" clip-rule="evenodd" d="M656.101 305.784C651.269 309.432 645.613 312.054 639.465 313.316V243.724H656.101V305.784Z" fill="#E9F3FF"/>
<path fill-rule="evenodd" clip-rule="evenodd" d="M622.83 313.334C616.683 312.097 611.035 309.493 606.195 305.871V253.51H622.83V313.343V313.334Z" fill="#E9F3FF"/>
<path fill-rule="evenodd" clip-rule="evenodd" d="M606.195 305.871C600.082 301.285 595.286 295.041 592.436 287.824H606.195V305.871Z" fill="url(#paint31_linear_0_11101)"/>
<path fill-rule="evenodd" clip-rule="evenodd" d="M655.995 305.871V267.059H672.244C672.49 268.883 672.63 270.733 672.63 272.627C672.63 286.228 666.097 298.295 655.995 305.871Z" fill="url(#paint32_linear_0_11101)" stroke="#164DA7" stroke-width="0.5" stroke-miterlimit="10"/>
<path fill-rule="evenodd" clip-rule="evenodd" d="M639.465 313.316C636.764 313.869 633.958 314.158 631.091 314.158C628.223 314.158 625.496 313.869 622.83 313.334V258.237H639.465V313.308V313.316Z" fill="url(#paint33_linear_0_11101)" stroke="#164DA7" stroke-width="0.5" stroke-miterlimit="10"/>
<path fill-rule="evenodd" clip-rule="evenodd" d="M162.637 237.866H134.453L148.545 223.774L162.637 237.866Z" stroke="white" stroke-miterlimit="10"/>
<path fill-rule="evenodd" clip-rule="evenodd" d="M162.637 258.324H134.453L148.545 244.232L162.637 258.324Z" stroke="white" stroke-miterlimit="10"/>
<path fill-rule="evenodd" clip-rule="evenodd" d="M162.637 278.783H134.453L148.545 264.691L162.637 278.783Z" stroke="white" stroke-miterlimit="10"/>
<path fill-rule="evenodd" clip-rule="evenodd" d="M162.637 299.242H134.453L148.545 285.15L162.637 299.242Z" stroke="white" stroke-miterlimit="10"/>
<path d="M153.193 123.822V75.4855H307.917" stroke="url(#paint34_linear_0_11101)" stroke-width="0.99" stroke-miterlimit="10"/>
<path d="M156.113 72.5742H150.29V78.397H156.113V72.5742Z" fill="url(#paint35_linear_0_11101)"/>
<path d="M185.481 93.2521H168.241V110.492H185.481V93.2521Z" fill="url(#paint36_linear_0_11101)"/>
<path d="M214.876 93.2521H197.635V110.492H214.876V93.2521Z" stroke="url(#paint37_linear_0_11101)" stroke-width="0.83" stroke-miterlimit="10"/>
<path d="M244.262 93.2521H227.021V110.492H244.262V93.2521Z" fill="url(#paint38_linear_0_11101)"/>
<path d="M380.246 193.151L505.041 239.023L459.766 245.872" stroke="url(#paint39_linear_0_11101)" stroke-miterlimit="10"/>
<path d="M587.998 210.199L586.078 229.903" stroke="url(#paint40_linear_0_11101)" stroke-width="1.05" stroke-miterlimit="10"/>
<path d="M207.282 238.032L248.199 234.279L242.078 281.975L200.249 284.027L207.282 238.032Z" fill="#E9F3FF"/>
<path d="M209.886 241.619L243.508 239.128L240.07 264.454L206.107 266.357L209.886 241.619Z" stroke="#113291" stroke-linecap="round"/>
<path d="M262.519 169.36L307.812 165.598L301.691 213.303L255.486 215.355L262.519 169.36Z" fill="#E9F3FF"/>
<path d="M265.974 173.657L301.753 170.728L298.245 196.58L262.195 198.395L265.974 173.657Z" stroke="#113291" stroke-linecap="round"/>
<path d="M288.292 198.64C291.994 191.264 290.987 183.274 286.044 180.793C281.101 178.312 274.093 182.281 270.391 189.657C266.69 197.033 267.696 205.023 272.639 207.504C277.583 209.985 284.591 206.016 288.292 198.64Z" fill="url(#paint41_linear_0_11101)"/>
<path d="M230.924 268.481C234.626 261.105 233.619 253.115 228.676 250.634C223.733 248.153 216.725 252.121 213.023 259.497C209.321 266.873 210.328 274.864 215.271 277.344C220.214 279.825 227.222 275.857 230.924 268.481Z" fill="url(#paint42_linear_0_11101)"/>
<path d="M386.402 63.2174L449.821 55.0533L440.745 131.933L376.931 135.8L386.402 63.2174Z" fill="#E9F3FF"/>
<path d="M385.473 105.327L408.168 103.503L405.432 128.39L382.491 130.004L385.473 105.327Z" fill="url(#paint43_linear_0_11101)"/>
<path d="M387.025 98.2769L438.492 93.4012" stroke="#113291" stroke-linecap="round" stroke-linejoin="round"/>
<path d="M391.313 66.462L388.393 87.7362" stroke="#113291" stroke-linecap="round" stroke-linejoin="round"/>
<path d="M398.863 74.2491L396.802 87.1136" stroke="#113291" stroke-linecap="round" stroke-linejoin="round"/>
<path d="M407.826 73.6791L405.765 86.5524" stroke="#113291" stroke-linecap="round" stroke-linejoin="round"/>
<path d="M418.103 72.5391L416.042 85.4036" stroke="#113291" stroke-linecap="round" stroke-linejoin="round"/>
<path d="M428.959 72.5391L426.907 85.4036" stroke="#113291" stroke-linecap="round" stroke-linejoin="round"/>
<path d="M541.592 165.897L582.983 160.767L574.099 250.45L531.875 252.388L541.592 165.897Z" fill="url(#paint44_linear_0_11101)"/>
<path d="M531.525 156.101L617.569 149.042L608.685 238.725L521.808 242.601L531.525 156.101Z" fill="#E9F3FF"/>
<path d="M538.216 164.853L564.515 162.547L557.262 231.096L530.569 232.692L538.216 164.853Z" fill="url(#paint45_linear_0_11101)"/>
<path d="M608.378 161.266L603.187 168.922L599.679 162.249L594.111 170.097L590.726 163.178L584.912 171.369L581.518 164.432L575.967 172.254L572.792 165.756" stroke="url(#paint46_linear_0_11101)" stroke-width="1.05" stroke-miterlimit="10"/>
<path d="M606.589 178.971L601.407 186.627L597.89 179.954L592.322 187.793L588.937 180.874L583.123 189.074L579.729 182.128L574.178 189.959L571.004 183.461" stroke="url(#paint47_linear_0_11101)" stroke-width="1.05" stroke-miterlimit="10"/>
<path d="M571.004 198.229L567.584 230.587" stroke="url(#paint48_linear_0_11101)" stroke-width="1.05" stroke-miterlimit="10"/>
<path d="M579.755 201.938L577.037 229.903" stroke="url(#paint49_linear_0_11101)" stroke-width="1.05" stroke-miterlimit="10"/>
<path d="M596.233 219.512L595.224 229.903" stroke="url(#paint50_linear_0_11101)" stroke-width="1.05" stroke-miterlimit="10"/>
<path d="M272.77 289.911L363.865 287.947L369.469 232.464L279.83 236.927L272.77 289.911Z" fill="url(#paint51_linear_0_11101)"/>
<path d="M261.248 275.214L354.359 271.522L360.48 222.66L269.008 226.36L261.248 275.214Z" fill="#E9F3FF"/>
<path d="M462.309 312.536L569.311 313.255L572.687 291.06L464.291 298.119L462.309 312.536Z" fill="url(#paint52_linear_0_11101)"/>
<path opacity="0.8" d="M351.439 229.351L350.483 238.594L272.77 241.908L273.446 232.832L351.439 229.351ZM271.052 255.08L307.909 253.457L308.961 243.268L272.306 245.179L271.052 255.08Z" fill="url(#paint53_linear_0_11101)"/>
<path d="M347.633 263.805L267.596 266.19" stroke="white" stroke-width="0.91" stroke-miterlimit="10"/>
<path d="M458.047 305.678L572.337 305.468L574.459 279.835L460.222 283.422L458.047 305.678Z" fill="#E9F3FF"/>
<path d="M565.225 288.552L483.469 290.472" stroke="white" stroke-miterlimit="10"/>
<path d="M519.449 295.445L483.469 296.295" stroke="white" stroke-miterlimit="10"/>
<path d="M473.34 297.509C476.026 295.545 476.929 292.21 475.357 290.06C473.785 287.909 470.333 287.758 467.647 289.722C464.961 291.685 464.058 295.02 465.63 297.171C467.202 299.321 470.654 299.472 473.34 297.509Z" stroke="white" stroke-miterlimit="10"/>
<g filter="url(#filter0_d_0_11101)">
<rect x="609" y="108.688" width="220" height="80.7812" rx="10" fill="#9796FB" shape-rendering="crispEdges"/>
<path d="M643.88 122.418V154.578H638.12V128.034H630.392V122.418H643.88ZM655.725 135.282H663.261C666.237 135.282 668.605 136.21 670.365 138.066C672.125 139.89 673.005 142.13 673.005 144.786C673.005 147.506 672.109 149.826 670.317 151.746C668.557 153.634 666.205 154.578 663.261 154.578H650.397V148.962H662.973C664.253 148.962 665.245 148.562 665.949 147.762C666.685 146.93 667.069 145.938 667.101 144.786C667.101 143.666 666.733 142.69 665.997 141.858C665.293 141.026 664.285 140.61 662.973 140.61H649.965L651.741 122.418H670.653V128.034H656.445L655.725 135.282ZM676.262 142.482V134.514C676.262 130.802 677.462 127.746 679.862 125.346C682.294 122.946 685.35 121.746 689.03 121.746C692.678 121.746 695.718 122.946 698.15 125.346C700.582 127.714 701.798 130.754 701.798 134.466V142.482C701.798 146.194 700.566 149.25 698.102 151.65C695.67 154.05 692.63 155.25 688.982 155.25C685.334 155.25 682.294 154.05 679.862 151.65C677.462 149.25 676.262 146.194 676.262 142.482ZM682.022 134.514V142.482C682.022 144.626 682.662 146.338 683.942 147.618C685.254 148.898 686.934 149.538 688.982 149.538C691.03 149.538 692.726 148.898 694.07 147.618C695.414 146.306 696.086 144.594 696.086 142.482V134.466C696.086 132.386 695.414 130.69 694.07 129.378C692.758 128.034 691.078 127.362 689.03 127.362C686.982 127.362 685.302 128.018 683.99 129.33C682.678 130.642 682.022 132.37 682.022 134.514ZM706.637 142.482V134.514C706.637 130.802 707.837 127.746 710.237 125.346C712.669 122.946 715.725 121.746 719.405 121.746C723.053 121.746 726.093 122.946 728.525 125.346C730.957 127.714 732.173 130.754 732.173 134.466V142.482C732.173 146.194 730.941 149.25 728.477 151.65C726.045 154.05 723.005 155.25 719.357 155.25C715.709 155.25 712.669 154.05 710.237 151.65C707.837 149.25 706.637 146.194 706.637 142.482ZM712.397 134.514V142.482C712.397 144.626 713.037 146.338 714.317 147.618C715.629 148.898 717.309 149.538 719.357 149.538C721.405 149.538 723.101 148.898 724.445 147.618C725.789 146.306 726.461 144.594 726.461 142.482V134.466C726.461 132.386 725.789 130.69 724.445 129.378C723.133 128.034 721.453 127.362 719.405 127.362C717.357 127.362 715.677 128.018 714.365 129.33C713.053 130.642 712.397 132.37 712.397 134.514ZM737.012 142.482V134.514C737.012 130.802 738.212 127.746 740.612 125.346C743.044 122.946 746.1 121.746 749.78 121.746C753.428 121.746 756.468 122.946 758.9 125.346C761.332 127.714 762.548 130.754 762.548 134.466V142.482C762.548 146.194 761.316 149.25 758.852 151.65C756.42 154.05 753.38 155.25 749.732 155.25C746.084 155.25 743.044 154.05 740.612 151.65C738.212 149.25 737.012 146.194 737.012 142.482ZM742.772 134.514V142.482C742.772 144.626 743.412 146.338 744.692 147.618C746.004 148.898 747.684 149.538 749.732 149.538C751.78 149.538 753.476 148.898 754.82 147.618C756.164 146.306 756.836 144.594 756.836 142.482V134.466C756.836 132.386 756.164 130.69 754.82 129.378C753.508 128.034 751.828 127.362 749.78 127.362C747.732 127.362 746.052 128.018 744.74 129.33C743.428 130.642 742.772 132.37 742.772 134.514ZM781.783 136.482H790.807V141.618H781.783V150.594H776.647V141.618H767.671V136.482H776.647V127.458H781.783V136.482Z" fill="white"/>
<path d="M632.906 173.778C634.315 173.778 635.393 174.035 636.14 174.548C636.896 175.061 637.274 175.864 637.274 176.956C637.274 177.525 637.171 178.015 636.966 178.426C636.77 178.827 636.481 179.159 636.098 179.42C635.715 179.672 635.249 179.859 634.698 179.98C634.147 180.101 633.517 180.162 632.808 180.162H631.926V183.578H630.162V174.016C630.573 173.923 631.025 173.862 631.52 173.834C632.024 173.797 632.486 173.778 632.906 173.778ZM633.032 175.304C632.584 175.304 632.215 175.318 631.926 175.346V178.65H632.78C633.629 178.65 634.283 178.533 634.74 178.3C635.197 178.057 635.426 177.605 635.426 176.942C635.426 176.625 635.365 176.359 635.244 176.144C635.123 175.929 634.955 175.761 634.74 175.64C634.525 175.519 634.269 175.435 633.97 175.388C633.681 175.332 633.368 175.304 633.032 175.304ZM642.973 177.782C642.833 177.735 642.637 177.689 642.385 177.642C642.142 177.586 641.857 177.558 641.531 177.558C641.344 177.558 641.143 177.577 640.929 177.614C640.723 177.651 640.579 177.684 640.495 177.712V183.578H638.801V176.606C639.127 176.485 639.533 176.373 640.019 176.27C640.513 176.158 641.059 176.102 641.657 176.102C641.769 176.102 641.899 176.111 642.049 176.13C642.198 176.139 642.347 176.158 642.497 176.186C642.646 176.205 642.791 176.233 642.931 176.27C643.071 176.298 643.183 176.326 643.267 176.354L642.973 177.782ZM651.069 179.91C651.069 180.489 650.985 181.016 650.817 181.492C650.649 181.968 650.411 182.374 650.103 182.71C649.795 183.046 649.422 183.307 648.983 183.494C648.554 183.681 648.078 183.774 647.555 183.774C647.032 183.774 646.556 183.681 646.127 183.494C645.698 183.307 645.329 183.046 645.021 182.71C644.713 182.374 644.47 181.968 644.293 181.492C644.125 181.016 644.041 180.489 644.041 179.91C644.041 179.331 644.125 178.809 644.293 178.342C644.47 177.866 644.713 177.46 645.021 177.124C645.338 176.788 645.712 176.531 646.141 176.354C646.57 176.167 647.042 176.074 647.555 176.074C648.068 176.074 648.54 176.167 648.969 176.354C649.408 176.531 649.781 176.788 650.089 177.124C650.397 177.46 650.635 177.866 650.803 178.342C650.98 178.809 651.069 179.331 651.069 179.91ZM649.333 179.91C649.333 179.182 649.174 178.608 648.857 178.188C648.549 177.759 648.115 177.544 647.555 177.544C646.995 177.544 646.556 177.759 646.239 178.188C645.931 178.608 645.777 179.182 645.777 179.91C645.777 180.647 645.931 181.231 646.239 181.66C646.556 182.089 646.995 182.304 647.555 182.304C648.115 182.304 648.549 182.089 648.857 181.66C649.174 181.231 649.333 180.647 649.333 179.91ZM651.876 186.182C651.755 186.182 651.587 186.168 651.372 186.14C651.148 186.121 650.952 186.079 650.784 186.014L651.008 184.628C651.214 184.693 651.461 184.726 651.75 184.726C652.142 184.726 652.418 184.609 652.576 184.376C652.735 184.152 652.814 183.811 652.814 183.354V176.256H654.508V183.382C654.508 184.334 654.28 185.039 653.822 185.496C653.374 185.953 652.726 186.182 651.876 186.182ZM654.69 174.114C654.69 174.431 654.588 174.683 654.382 174.87C654.177 175.057 653.934 175.15 653.654 175.15C653.365 175.15 653.118 175.057 652.912 174.87C652.707 174.683 652.604 174.431 652.604 174.114C652.604 173.787 652.707 173.531 652.912 173.344C653.118 173.157 653.365 173.064 653.654 173.064C653.934 173.064 654.177 173.157 654.382 173.344C654.588 173.531 654.69 173.787 654.69 174.114ZM656.264 179.952C656.264 179.308 656.357 178.743 656.544 178.258C656.74 177.773 656.996 177.371 657.314 177.054C657.631 176.727 657.995 176.485 658.406 176.326C658.816 176.158 659.236 176.074 659.666 176.074C660.674 176.074 661.458 176.387 662.018 177.012C662.587 177.637 662.872 178.571 662.872 179.812C662.872 179.905 662.867 180.013 662.858 180.134C662.858 180.246 662.853 180.349 662.844 180.442H658.014C658.06 181.03 658.266 181.487 658.63 181.814C659.003 182.131 659.54 182.29 660.24 182.29C660.65 182.29 661.024 182.253 661.36 182.178C661.705 182.103 661.976 182.024 662.172 181.94L662.396 183.326C662.302 183.373 662.172 183.424 662.004 183.48C661.845 183.527 661.658 183.569 661.444 183.606C661.238 183.653 661.014 183.69 660.772 183.718C660.529 183.746 660.282 183.76 660.03 183.76C659.386 183.76 658.826 183.667 658.35 183.48C657.874 183.284 657.482 183.018 657.174 182.682C656.866 182.337 656.637 181.935 656.488 181.478C656.338 181.011 656.264 180.503 656.264 179.952ZM661.178 179.196C661.178 178.963 661.145 178.743 661.08 178.538C661.014 178.323 660.916 178.141 660.786 177.992C660.664 177.833 660.51 177.712 660.324 177.628C660.146 177.535 659.932 177.488 659.68 177.488C659.418 177.488 659.19 177.539 658.994 177.642C658.798 177.735 658.63 177.861 658.49 178.02C658.359 178.179 658.256 178.361 658.182 178.566C658.107 178.771 658.056 178.981 658.028 179.196H661.178ZM664.262 179.924C664.262 179.383 664.346 178.879 664.514 178.412C664.682 177.936 664.92 177.525 665.228 177.18C665.545 176.835 665.928 176.564 666.376 176.368C666.824 176.172 667.328 176.074 667.888 176.074C668.579 176.074 669.232 176.2 669.848 176.452L669.484 177.838C669.288 177.754 669.064 177.684 668.812 177.628C668.569 177.572 668.308 177.544 668.028 177.544C667.365 177.544 666.861 177.754 666.516 178.174C666.171 178.585 665.998 179.168 665.998 179.924C665.998 180.652 666.161 181.231 666.488 181.66C666.815 182.08 667.365 182.29 668.14 182.29C668.429 182.29 668.714 182.262 668.994 182.206C669.274 182.15 669.517 182.08 669.722 181.996L669.96 183.396C669.773 183.489 669.489 183.573 669.106 183.648C668.733 183.723 668.345 183.76 667.944 183.76C667.319 183.76 666.773 183.667 666.306 183.48C665.849 183.284 665.466 183.018 665.158 182.682C664.859 182.337 664.635 181.931 664.486 181.464C664.337 180.988 664.262 180.475 664.262 179.924ZM671.187 174.324L672.881 174.044V176.256H675.485V177.67H672.881V180.652C672.881 181.24 672.975 181.66 673.161 181.912C673.348 182.164 673.665 182.29 674.113 182.29C674.421 182.29 674.692 182.257 674.925 182.192C675.168 182.127 675.359 182.066 675.499 182.01L675.779 183.354C675.583 183.438 675.327 183.522 675.009 183.606C674.692 183.699 674.319 183.746 673.889 183.746C673.367 183.746 672.928 183.676 672.573 183.536C672.228 183.396 671.953 183.195 671.747 182.934C671.542 182.663 671.397 182.341 671.313 181.968C671.229 181.585 671.187 181.151 671.187 180.666V174.324ZM678.957 182.36C679.405 182.36 679.732 182.309 679.937 182.206C680.142 182.094 680.245 181.907 680.245 181.646C680.245 181.403 680.133 181.203 679.909 181.044C679.694 180.885 679.335 180.713 678.831 180.526C678.523 180.414 678.238 180.297 677.977 180.176C677.725 180.045 677.506 179.896 677.319 179.728C677.132 179.56 676.983 179.359 676.871 179.126C676.768 178.883 676.717 178.589 676.717 178.244C676.717 177.572 676.964 177.045 677.459 176.662C677.954 176.27 678.626 176.074 679.475 176.074C679.904 176.074 680.315 176.116 680.707 176.2C681.099 176.275 681.393 176.349 681.589 176.424L681.281 177.796C681.094 177.712 680.856 177.637 680.567 177.572C680.278 177.497 679.942 177.46 679.559 177.46C679.214 177.46 678.934 177.521 678.719 177.642C678.504 177.754 678.397 177.931 678.397 178.174C678.397 178.295 678.416 178.403 678.453 178.496C678.5 178.589 678.574 178.678 678.677 178.762C678.78 178.837 678.915 178.916 679.083 179C679.251 179.075 679.456 179.154 679.699 179.238C680.1 179.387 680.441 179.537 680.721 179.686C681.001 179.826 681.23 179.989 681.407 180.176C681.594 180.353 681.729 180.559 681.813 180.792C681.897 181.025 681.939 181.305 681.939 181.632C681.939 182.332 681.678 182.864 681.155 183.228C680.642 183.583 679.904 183.76 678.943 183.76C678.299 183.76 677.781 183.704 677.389 183.592C676.997 183.489 676.722 183.405 676.563 183.34L676.857 181.926C677.109 182.029 677.408 182.127 677.753 182.22C678.108 182.313 678.509 182.36 678.957 182.36ZM691.157 178.972C690.942 179.793 690.709 180.596 690.457 181.38C690.214 182.155 689.972 182.887 689.729 183.578H688.343C688.156 183.149 687.96 182.659 687.755 182.108C687.55 181.557 687.344 180.969 687.139 180.344C686.934 179.719 686.728 179.061 686.523 178.37C686.318 177.679 686.117 176.975 685.921 176.256H687.713C687.797 176.648 687.895 177.073 688.007 177.53C688.119 177.978 688.236 178.44 688.357 178.916C688.478 179.383 688.604 179.84 688.735 180.288C688.866 180.736 688.996 181.147 689.127 181.52C689.267 181.091 689.402 180.647 689.533 180.19C689.673 179.733 689.804 179.275 689.925 178.818C690.046 178.361 690.158 177.917 690.261 177.488C690.373 177.049 690.471 176.639 690.555 176.256H691.857C691.941 176.639 692.034 177.049 692.137 177.488C692.24 177.917 692.347 178.361 692.459 178.818C692.58 179.275 692.706 179.733 692.837 180.19C692.977 180.647 693.117 181.091 693.257 181.52C693.378 181.147 693.504 180.736 693.635 180.288C693.766 179.84 693.892 179.383 694.013 178.916C694.144 178.44 694.265 177.978 694.377 177.53C694.489 177.073 694.587 176.648 694.671 176.256H696.421C696.225 176.975 696.024 177.679 695.819 178.37C695.614 179.061 695.408 179.719 695.203 180.344C694.998 180.969 694.792 181.557 694.587 182.108C694.382 182.659 694.181 183.149 693.985 183.578H692.613C692.37 182.887 692.118 182.155 691.857 181.38C691.605 180.596 691.372 179.793 691.157 178.972ZM699.421 183.578H697.727V176.256H699.421V183.578ZM699.603 174.114C699.603 174.431 699.5 174.683 699.295 174.87C699.089 175.057 698.847 175.15 698.567 175.15C698.277 175.15 698.03 175.057 697.825 174.87C697.619 174.683 697.517 174.431 697.517 174.114C697.517 173.787 697.619 173.531 697.825 173.344C698.03 173.157 698.277 173.064 698.567 173.064C698.847 173.064 699.089 173.157 699.295 173.344C699.5 173.531 699.603 173.787 699.603 174.114ZM701.498 174.324L703.192 174.044V176.256H705.796V177.67H703.192V180.652C703.192 181.24 703.285 181.66 703.472 181.912C703.659 182.164 703.976 182.29 704.424 182.29C704.732 182.29 705.003 182.257 705.236 182.192C705.479 182.127 705.67 182.066 705.81 182.01L706.09 183.354C705.894 183.438 705.637 183.522 705.32 183.606C705.003 183.699 704.629 183.746 704.2 183.746C703.677 183.746 703.239 183.676 702.884 183.536C702.539 183.396 702.263 183.195 702.058 182.934C701.853 182.663 701.708 182.341 701.624 181.968C701.54 181.585 701.498 181.151 701.498 180.666V174.324ZM707.433 183.578V172.994L709.127 172.714V176.34C709.314 176.275 709.529 176.219 709.771 176.172C710.023 176.125 710.271 176.102 710.513 176.102C711.101 176.102 711.587 176.186 711.969 176.354C712.361 176.513 712.674 176.741 712.907 177.04C713.141 177.329 713.304 177.679 713.397 178.09C713.5 178.501 713.551 178.958 713.551 179.462V183.578H711.857V179.728C711.857 179.336 711.829 179.005 711.773 178.734C711.727 178.454 711.643 178.23 711.521 178.062C711.409 177.885 711.255 177.759 711.059 177.684C710.863 177.6 710.621 177.558 710.331 177.558C710.107 177.558 709.879 177.581 709.645 177.628C709.412 177.675 709.239 177.717 709.127 177.754V183.578H707.433ZM724.855 183.354C724.529 183.438 724.104 183.522 723.581 183.606C723.059 183.699 722.485 183.746 721.859 183.746C721.271 183.746 720.777 183.662 720.375 183.494C719.983 183.326 719.666 183.093 719.423 182.794C719.19 182.495 719.022 182.141 718.919 181.73C718.817 181.31 718.765 180.853 718.765 180.358V176.256H720.459V180.092C720.459 180.876 720.571 181.436 720.795 181.772C721.029 182.108 721.43 182.276 721.999 182.276C722.205 182.276 722.419 182.267 722.643 182.248C722.877 182.229 723.049 182.206 723.161 182.178V176.256H724.855V183.354ZM728.846 182.36C729.294 182.36 729.62 182.309 729.826 182.206C730.031 182.094 730.134 181.907 730.134 181.646C730.134 181.403 730.022 181.203 729.798 181.044C729.583 180.885 729.224 180.713 728.72 180.526C728.412 180.414 728.127 180.297 727.866 180.176C727.614 180.045 727.394 179.896 727.208 179.728C727.021 179.56 726.872 179.359 726.76 179.126C726.657 178.883 726.606 178.589 726.606 178.244C726.606 177.572 726.853 177.045 727.348 176.662C727.842 176.27 728.514 176.074 729.364 176.074C729.793 176.074 730.204 176.116 730.596 176.2C730.988 176.275 731.282 176.349 731.478 176.424L731.17 177.796C730.983 177.712 730.745 177.637 730.456 177.572C730.166 177.497 729.83 177.46 729.448 177.46C729.102 177.46 728.822 177.521 728.608 177.642C728.393 177.754 728.286 177.931 728.286 178.174C728.286 178.295 728.304 178.403 728.342 178.496C728.388 178.589 728.463 178.678 728.566 178.762C728.668 178.837 728.804 178.916 728.972 179C729.14 179.075 729.345 179.154 729.588 179.238C729.989 179.387 730.33 179.537 730.61 179.686C730.89 179.826 731.118 179.989 731.296 180.176C731.482 180.353 731.618 180.559 731.702 180.792C731.786 181.025 731.828 181.305 731.828 181.632C731.828 182.332 731.566 182.864 731.044 183.228C730.53 183.583 729.793 183.76 728.832 183.76C728.188 183.76 727.67 183.704 727.278 183.592C726.886 183.489 726.61 183.405 726.452 183.34L726.746 181.926C726.998 182.029 727.296 182.127 727.642 182.22C727.996 182.313 728.398 182.36 728.846 182.36Z" fill="white"/>
</g>
<g filter="url(#filter1_d_0_11101)">
<rect x="4" y="179.188" width="220" height="80.7812" rx="10" fill="#524EC6" shape-rendering="crispEdges"/>
<path d="M39.744 212.358H39.984C42.512 212.358 44.688 213.206 46.512 214.902C48.336 216.566 49.248 218.742 49.248 221.43C49.248 224.15 48.32 226.438 46.464 228.294C44.64 230.15 42.4 231.078 39.744 231.078H25.968V225.462H39.264C40.448 225.462 41.44 225.062 42.24 224.262C43.04 223.462 43.44 222.486 43.44 221.334C43.44 220.214 43.04 219.254 42.24 218.454C41.472 217.654 40.48 217.254 39.264 217.254H32.064V213.51L39.984 204.534H25.968V198.918H47.76V203.19L39.744 212.358ZM70.419 215.142L60.243 225.462H74.115V231.078H51.699V226.614L66.627 211.35C67.651 210.422 68.163 209.302 68.163 207.99C68.163 206.966 67.779 206.134 67.011 205.494C66.243 204.854 65.251 204.534 64.035 204.534H52.035V198.918H64.035C66.947 198.918 69.315 199.75 71.139 201.414C72.963 203.078 73.875 205.174 73.875 207.702C73.875 210.422 72.723 212.902 70.419 215.142ZM77.9179 218.982V211.014C77.9179 207.302 79.1179 204.246 81.5179 201.846C83.9499 199.446 87.0059 198.246 90.6859 198.246C94.3339 198.246 97.3739 199.446 99.8059 201.846C102.238 204.214 103.454 207.254 103.454 210.966V218.982C103.454 222.694 102.222 225.75 99.7579 228.15C97.3259 230.55 94.2859 231.75 90.6379 231.75C86.9899 231.75 83.9499 230.55 81.5179 228.15C79.1179 225.75 77.9179 222.694 77.9179 218.982ZM83.6779 211.014V218.982C83.6779 221.126 84.3179 222.838 85.5979 224.118C86.9099 225.398 88.5899 226.038 90.6379 226.038C92.6859 226.038 94.3819 225.398 95.7259 224.118C97.0699 222.806 97.7419 221.094 97.7419 218.982V210.966C97.7419 208.886 97.0699 207.19 95.7259 205.878C94.4139 204.534 92.7339 203.862 90.6859 203.862C88.6379 203.862 86.9579 204.518 85.6459 205.83C84.3339 207.142 83.6779 208.87 83.6779 211.014ZM108.293 218.982V211.014C108.293 207.302 109.493 204.246 111.893 201.846C114.325 199.446 117.381 198.246 121.061 198.246C124.709 198.246 127.749 199.446 130.181 201.846C132.613 204.214 133.829 207.254 133.829 210.966V218.982C133.829 222.694 132.597 225.75 130.133 228.15C127.701 230.55 124.661 231.75 121.013 231.75C117.365 231.75 114.325 230.55 111.893 228.15C109.493 225.75 108.293 222.694 108.293 218.982ZM114.053 211.014V218.982C114.053 221.126 114.693 222.838 115.973 224.118C117.285 225.398 118.965 226.038 121.013 226.038C123.061 226.038 124.757 225.398 126.101 224.118C127.445 222.806 128.117 221.094 128.117 218.982V210.966C128.117 208.886 127.445 207.19 126.101 205.878C124.789 204.534 123.109 203.862 121.061 203.862C119.013 203.862 117.333 204.518 116.021 205.83C114.709 207.142 114.053 208.87 114.053 211.014ZM138.668 218.982V211.014C138.668 207.302 139.868 204.246 142.268 201.846C144.7 199.446 147.756 198.246 151.436 198.246C155.084 198.246 158.124 199.446 160.556 201.846C162.988 204.214 164.204 207.254 164.204 210.966V218.982C164.204 222.694 162.972 225.75 160.508 228.15C158.076 230.55 155.036 231.75 151.388 231.75C147.74 231.75 144.7 230.55 142.268 228.15C139.868 225.75 138.668 222.694 138.668 218.982ZM144.428 211.014V218.982C144.428 221.126 145.068 222.838 146.348 224.118C147.66 225.398 149.34 226.038 151.388 226.038C153.436 226.038 155.132 225.398 156.476 224.118C157.82 222.806 158.492 221.094 158.492 218.982V210.966C158.492 208.886 157.82 207.19 156.476 205.878C155.164 204.534 153.484 203.862 151.436 203.862C149.388 203.862 147.708 204.518 146.396 205.83C145.084 207.142 144.428 208.87 144.428 211.014ZM183.44 212.982H192.464V218.118H183.44V227.094H178.304V218.118H169.328V212.982H178.304V203.958H183.44V212.982Z" fill="white"/>
<path d="M31.602 254.078C31.4713 253.695 31.336 253.317 31.196 252.944C31.056 252.571 30.9207 252.188 30.79 251.796H26.702C26.5713 252.188 26.436 252.575 26.296 252.958C26.1653 253.331 26.0347 253.705 25.904 254.078H24.07C24.434 253.042 24.7793 252.085 25.106 251.208C25.4327 250.331 25.75 249.5 26.058 248.716C26.3753 247.932 26.688 247.185 26.996 246.476C27.304 245.767 27.6213 245.067 27.948 244.376H29.614C29.9407 245.067 30.258 245.767 30.566 246.476C30.874 247.185 31.182 247.932 31.49 248.716C31.8073 249.5 32.1293 250.331 32.456 251.208C32.792 252.085 33.142 253.042 33.506 254.078H31.602ZM28.746 246.252C28.5313 246.747 28.284 247.349 28.004 248.058C27.7333 248.767 27.4487 249.537 27.15 250.368H30.342C30.0433 249.537 29.754 248.763 29.474 248.044C29.194 247.325 28.9513 246.728 28.746 246.252ZM34.0509 250.424C34.0509 249.883 34.1349 249.379 34.3029 248.912C34.4709 248.436 34.7089 248.025 35.0169 247.68C35.3342 247.335 35.7169 247.064 36.1649 246.868C36.6129 246.672 37.1169 246.574 37.6769 246.574C38.3676 246.574 39.0209 246.7 39.6369 246.952L39.2729 248.338C39.0769 248.254 38.8529 248.184 38.6009 248.128C38.3582 248.072 38.0969 248.044 37.8169 248.044C37.1542 248.044 36.6502 248.254 36.3049 248.674C35.9596 249.085 35.7869 249.668 35.7869 250.424C35.7869 251.152 35.9502 251.731 36.2769 252.16C36.6036 252.58 37.1542 252.79 37.9289 252.79C38.2182 252.79 38.5029 252.762 38.7829 252.706C39.0629 252.65 39.3056 252.58 39.5109 252.496L39.7489 253.896C39.5622 253.989 39.2776 254.073 38.8949 254.148C38.5216 254.223 38.1342 254.26 37.7329 254.26C37.1076 254.26 36.5616 254.167 36.0949 253.98C35.6376 253.784 35.2549 253.518 34.9469 253.182C34.6482 252.837 34.4242 252.431 34.2749 251.964C34.1256 251.488 34.0509 250.975 34.0509 250.424ZM40.9764 244.824L42.6704 244.544V246.756H45.2744V248.17H42.6704V251.152C42.6704 251.74 42.7638 252.16 42.9504 252.412C43.1371 252.664 43.4544 252.79 43.9024 252.79C44.2104 252.79 44.4811 252.757 44.7144 252.692C44.9571 252.627 45.1484 252.566 45.2884 252.51L45.5684 253.854C45.3724 253.938 45.1158 254.022 44.7984 254.106C44.4811 254.199 44.1078 254.246 43.6784 254.246C43.1558 254.246 42.7171 254.176 42.3624 254.036C42.0171 253.896 41.7418 253.695 41.5364 253.434C41.3311 253.163 41.1864 252.841 41.1024 252.468C41.0184 252.085 40.9764 251.651 40.9764 251.166V244.824ZM48.62 254.078H46.926V246.756H48.62V254.078ZM48.802 244.614C48.802 244.931 48.6993 245.183 48.494 245.37C48.2887 245.557 48.046 245.65 47.766 245.65C47.4767 245.65 47.2293 245.557 47.024 245.37C46.8187 245.183 46.716 244.931 46.716 244.614C46.716 244.287 46.8187 244.031 47.024 243.844C47.2293 243.657 47.4767 243.564 47.766 243.564C48.046 243.564 48.2887 243.657 48.494 243.844C48.6993 244.031 48.802 244.287 48.802 244.614ZM52.6571 254.078C52.1905 253.117 51.7098 252.015 51.2151 250.774C50.7298 249.523 50.2865 248.184 49.8851 246.756H51.6911C51.7938 247.167 51.9105 247.61 52.0411 248.086C52.1811 248.553 52.3258 249.024 52.4751 249.5C52.6338 249.967 52.7925 250.424 52.9511 250.872C53.1191 251.311 53.2731 251.707 53.4131 252.062C53.5531 251.707 53.7025 251.311 53.8611 250.872C54.0198 250.424 54.1738 249.967 54.3231 249.5C54.4818 249.024 54.6311 248.553 54.7711 248.086C54.9111 247.61 55.0325 247.167 55.1351 246.756H56.8851C56.4838 248.184 56.0358 249.523 55.5411 250.774C55.0558 252.015 54.5798 253.117 54.1131 254.078H52.6571ZM57.5802 250.452C57.5802 249.808 57.6735 249.243 57.8602 248.758C58.0562 248.273 58.3129 247.871 58.6302 247.554C58.9475 247.227 59.3115 246.985 59.7222 246.826C60.1329 246.658 60.5529 246.574 60.9822 246.574C61.9902 246.574 62.7742 246.887 63.3342 247.512C63.9035 248.137 64.1882 249.071 64.1882 250.312C64.1882 250.405 64.1835 250.513 64.1742 250.634C64.1742 250.746 64.1695 250.849 64.1602 250.942H59.3302C59.3769 251.53 59.5822 251.987 59.9462 252.314C60.3195 252.631 60.8562 252.79 61.5562 252.79C61.9669 252.79 62.3402 252.753 62.6762 252.678C63.0215 252.603 63.2922 252.524 63.4882 252.44L63.7122 253.826C63.6189 253.873 63.4882 253.924 63.3202 253.98C63.1615 254.027 62.9749 254.069 62.7602 254.106C62.5549 254.153 62.3309 254.19 62.0882 254.218C61.8455 254.246 61.5982 254.26 61.3462 254.26C60.7022 254.26 60.1422 254.167 59.6662 253.98C59.1902 253.784 58.7982 253.518 58.4902 253.182C58.1822 252.837 57.9535 252.435 57.8042 251.978C57.6549 251.511 57.5802 251.003 57.5802 250.452ZM62.4942 249.696C62.4942 249.463 62.4615 249.243 62.3962 249.038C62.3309 248.823 62.2329 248.641 62.1022 248.492C61.9809 248.333 61.8269 248.212 61.6402 248.128C61.4629 248.035 61.2482 247.988 60.9962 247.988C60.7349 247.988 60.5062 248.039 60.3102 248.142C60.1142 248.235 59.9462 248.361 59.8062 248.52C59.6755 248.679 59.5729 248.861 59.4982 249.066C59.4235 249.271 59.3722 249.481 59.3442 249.696H62.4942ZM75.2578 253.854C74.9312 253.938 74.5065 254.022 73.9838 254.106C73.4612 254.199 72.8872 254.246 72.2618 254.246C71.6738 254.246 71.1792 254.162 70.7778 253.994C70.3858 253.826 70.0685 253.593 69.8258 253.294C69.5925 252.995 69.4245 252.641 69.3218 252.23C69.2192 251.81 69.1678 251.353 69.1678 250.858V246.756H70.8618V250.592C70.8618 251.376 70.9738 251.936 71.1978 252.272C71.4312 252.608 71.8325 252.776 72.4018 252.776C72.6072 252.776 72.8218 252.767 73.0458 252.748C73.2792 252.729 73.4518 252.706 73.5638 252.678V246.756H75.2578V253.854ZM79.2479 252.86C79.6959 252.86 80.0226 252.809 80.2279 252.706C80.4333 252.594 80.5359 252.407 80.5359 252.146C80.5359 251.903 80.4239 251.703 80.1999 251.544C79.9853 251.385 79.6259 251.213 79.1219 251.026C78.8139 250.914 78.5293 250.797 78.2679 250.676C78.0159 250.545 77.7966 250.396 77.6099 250.228C77.4233 250.06 77.2739 249.859 77.1619 249.626C77.0593 249.383 77.0079 249.089 77.0079 248.744C77.0079 248.072 77.2553 247.545 77.7499 247.162C78.2446 246.77 78.9166 246.574 79.7659 246.574C80.1953 246.574 80.6059 246.616 80.9979 246.7C81.3899 246.775 81.6839 246.849 81.8799 246.924L81.5719 248.296C81.3853 248.212 81.1473 248.137 80.8579 248.072C80.5686 247.997 80.2326 247.96 79.8499 247.96C79.5046 247.96 79.2246 248.021 79.0099 248.142C78.7953 248.254 78.6879 248.431 78.6879 248.674C78.6879 248.795 78.7066 248.903 78.7439 248.996C78.7906 249.089 78.8653 249.178 78.9679 249.262C79.0706 249.337 79.2059 249.416 79.3739 249.5C79.5419 249.575 79.7473 249.654 79.9899 249.738C80.3913 249.887 80.7319 250.037 81.0119 250.186C81.2919 250.326 81.5206 250.489 81.6979 250.676C81.8846 250.853 82.0199 251.059 82.1039 251.292C82.1879 251.525 82.2299 251.805 82.2299 252.132C82.2299 252.832 81.9686 253.364 81.4459 253.728C80.9326 254.083 80.1953 254.26 79.2339 254.26C78.5899 254.26 78.0719 254.204 77.6799 254.092C77.2879 253.989 77.0126 253.905 76.8539 253.84L77.1479 252.426C77.3999 252.529 77.6986 252.627 78.0439 252.72C78.3986 252.813 78.7999 252.86 79.2479 252.86ZM83.4064 250.452C83.4064 249.808 83.4997 249.243 83.6864 248.758C83.8824 248.273 84.139 247.871 84.4564 247.554C84.7737 247.227 85.1377 246.985 85.5484 246.826C85.959 246.658 86.379 246.574 86.8084 246.574C87.8164 246.574 88.6004 246.887 89.1604 247.512C89.7297 248.137 90.0144 249.071 90.0144 250.312C90.0144 250.405 90.0097 250.513 90.0004 250.634C90.0004 250.746 89.9957 250.849 89.9864 250.942H85.1564C85.203 251.53 85.4084 251.987 85.7724 252.314C86.1457 252.631 86.6824 252.79 87.3824 252.79C87.793 252.79 88.1664 252.753 88.5024 252.678C88.8477 252.603 89.1184 252.524 89.3144 252.44L89.5384 253.826C89.445 253.873 89.3144 253.924 89.1464 253.98C88.9877 254.027 88.801 254.069 88.5864 254.106C88.381 254.153 88.157 254.19 87.9144 254.218C87.6717 254.246 87.4244 254.26 87.1724 254.26C86.5284 254.26 85.9684 254.167 85.4924 253.98C85.0164 253.784 84.6244 253.518 84.3164 253.182C84.0084 252.837 83.7797 252.435 83.6304 251.978C83.481 251.511 83.4064 251.003 83.4064 250.452ZM88.3204 249.696C88.3204 249.463 88.2877 249.243 88.2224 249.038C88.157 248.823 88.059 248.641 87.9284 248.492C87.807 248.333 87.653 248.212 87.4664 248.128C87.289 248.035 87.0744 247.988 86.8224 247.988C86.561 247.988 86.3324 248.039 86.1364 248.142C85.9404 248.235 85.7724 248.361 85.6324 248.52C85.5017 248.679 85.399 248.861 85.3244 249.066C85.2497 249.271 85.1984 249.481 85.1704 249.696H88.3204ZM95.9824 248.282C95.8424 248.235 95.6464 248.189 95.3944 248.142C95.1518 248.086 94.8671 248.058 94.5404 248.058C94.3538 248.058 94.1531 248.077 93.9384 248.114C93.7331 248.151 93.5884 248.184 93.5044 248.212V254.078H91.8104V247.106C92.1371 246.985 92.5431 246.873 93.0284 246.77C93.5231 246.658 94.0691 246.602 94.6664 246.602C94.7784 246.602 94.9091 246.611 95.0584 246.63C95.2078 246.639 95.3571 246.658 95.5064 246.686C95.6558 246.705 95.8004 246.733 95.9404 246.77C96.0804 246.798 96.1924 246.826 96.2764 246.854L95.9824 248.282ZM99.2909 252.86C99.7389 252.86 100.066 252.809 100.271 252.706C100.476 252.594 100.579 252.407 100.579 252.146C100.579 251.903 100.467 251.703 100.243 251.544C100.028 251.385 99.6689 251.213 99.1649 251.026C98.8569 250.914 98.5722 250.797 98.3109 250.676C98.0589 250.545 97.8396 250.396 97.6529 250.228C97.4662 250.06 97.3169 249.859 97.2049 249.626C97.1022 249.383 97.0509 249.089 97.0509 248.744C97.0509 248.072 97.2982 247.545 97.7929 247.162C98.2876 246.77 98.9596 246.574 99.8089 246.574C100.238 246.574 100.649 246.616 101.041 246.7C101.433 246.775 101.727 246.849 101.923 246.924L101.615 248.296C101.428 248.212 101.19 248.137 100.901 248.072C100.612 247.997 100.276 247.96 99.8929 247.96C99.5476 247.96 99.2676 248.021 99.0529 248.142C98.8382 248.254 98.7309 248.431 98.7309 248.674C98.7309 248.795 98.7496 248.903 98.7869 248.996C98.8336 249.089 98.9082 249.178 99.0109 249.262C99.1136 249.337 99.2489 249.416 99.4169 249.5C99.5849 249.575 99.7902 249.654 100.033 249.738C100.434 249.887 100.775 250.037 101.055 250.186C101.335 250.326 101.564 250.489 101.741 250.676C101.928 250.853 102.063 251.059 102.147 251.292C102.231 251.525 102.273 251.805 102.273 252.132C102.273 252.832 102.012 253.364 101.489 253.728C100.976 254.083 100.238 254.26 99.2769 254.26C98.6329 254.26 98.1149 254.204 97.7229 254.092C97.3309 253.989 97.0556 253.905 96.8969 253.84L97.1909 252.426C97.4429 252.529 97.7416 252.627 98.0869 252.72C98.4416 252.813 98.8429 252.86 99.2909 252.86Z" fill="white"/>
</g>
<defs>
<filter id="filter0_d_0_11101" x="605" y="98.0782" width="224" height="98" filterUnits="userSpaceOnUse" color-interpolation-filters="sRGB">
<feFlood flood-opacity="0" result="BackgroundImageFix"/>
<feColorMatrix in="SourceAlpha" type="matrix" values="0 0 0 0 0 0 0 0 0 0 0 0 0 0 0 0 0 0 127 0" result="hardAlpha"/>
<feOffset dx="-4" dy="-4"/>
<feComposite in2="hardAlpha" operator="out"/>
<feColorMatrix type="matrix" values="0 0 0 0 0.321569 0 0 0 0 0.305882 0 0 0 0 0.776471 0 0 0 1 0"/>
<feBlend mode="normal" in2="BackgroundImageFix" result="effect1_dropShadow_0_11101"/>
<feBlend mode="normal" in="SourceGraphic" in2="effect1_dropShadow_0_11101" result="shape"/>
</filter>
<filter id="filter1_d_0_11101" x="0" y="175.188" width="224" height="84.7812" filterUnits="userSpaceOnUse" color-interpolation-filters="sRGB">
<feFlood flood-opacity="0" result="BackgroundImageFix"/>
<feColorMatrix in="SourceAlpha" type="matrix" values="0 0 0 0 0 0 0 0 0 0 0 0 0 0 0 0 0 0 127 0" result="hardAlpha"/>
<feOffset dx="-4" dy="-4"/>
<feComposite in2="hardAlpha" operator="out"/>
<feColorMatrix type="matrix" values="0 0 0 0 0.592157 0 0 0 0 0.588235 0 0 0 0 0.984314 0 0 0 1 0"/>
<feBlend mode="normal" in2="BackgroundImageFix" result="effect1_dropShadow_0_11101"/>
<feBlend mode="normal" in="SourceGraphic" in2="effect1_dropShadow_0_11101" result="shape"/>
</filter>
<linearGradient id="paint0_linear_0_11101" x1="101.621" y1="224.51" x2="684.697" y2="224.51" gradientUnits="userSpaceOnUse">
<stop stop-color="#197CE1"/>
<stop offset="1" stop-color="#9FBDFF"/>
</linearGradient>
<linearGradient id="paint1_linear_0_11101" x1="189.717" y1="242.32" x2="628.1" y2="242.32" gradientUnits="userSpaceOnUse">
<stop stop-color="#D4E0FF" stop-opacity="0.8"/>
<stop offset="1" stop-color="#D4E0FF" stop-opacity="0.8"/>
</linearGradient>
<linearGradient id="paint2_linear_0_11101" x1="127.964" y1="357.785" x2="233.984" y2="174.157" gradientUnits="userSpaceOnUse">
<stop stop-color="#94C8FF" stop-opacity="0.8"/>
<stop offset="1" stop-color="white" stop-opacity="0"/>
</linearGradient>
<linearGradient id="paint3_linear_0_11101" x1="140.688" y1="95.839" x2="258.047" y2="95.839" gradientUnits="userSpaceOnUse">
<stop stop-color="#197CE1"/>
<stop offset="1" stop-color="#197CE1" stop-opacity="0"/>
</linearGradient>
<linearGradient id="paint4_linear_0_11101" x1="127.955" y1="141.194" x2="659.564" y2="141.194" gradientUnits="userSpaceOnUse">
<stop stop-color="#3B7CE9"/>
<stop offset="1" stop-color="#2B84E5"/>
</linearGradient>
<linearGradient id="paint5_linear_0_11101" x1="686.986" y1="402.175" x2="68.938" y2="402.175" gradientUnits="userSpaceOnUse">
<stop stop-color="#B5CDFD"/>
<stop offset="1" stop-color="#ECF1FF"/>
</linearGradient>
<linearGradient id="paint6_linear_0_11101" x1="288.011" y1="408.55" x2="584.324" y2="408.55" gradientUnits="userSpaceOnUse">
<stop stop-color="#197CE1"/>
<stop offset="1" stop-color="#9FBDFF" stop-opacity="0"/>
</linearGradient>
<linearGradient id="paint7_linear_0_11101" x1="644.464" y1="383.058" x2="113.749" y2="383.058" gradientUnits="userSpaceOnUse">
<stop offset="0.48" stop-color="#94C8FF"/>
<stop offset="0.53" stop-color="#96C9FF" stop-opacity="0.98"/>
<stop offset="0.6" stop-color="#9CCCFF" stop-opacity="0.92"/>
<stop offset="0.67" stop-color="#A6D1FF" stop-opacity="0.83"/>
<stop offset="0.74" stop-color="#B3D8FF" stop-opacity="0.7"/>
<stop offset="0.82" stop-color="#C5E1FF" stop-opacity="0.53"/>
<stop offset="0.89" stop-color="#DBECFF" stop-opacity="0.33"/>
<stop offset="0.97" stop-color="#F5F9FF" stop-opacity="0.09"/>
<stop offset="1" stop-color="white" stop-opacity="0"/>
</linearGradient>
<linearGradient id="paint8_linear_0_11101" x1="461.581" y1="405.893" x2="461.581" y2="366.809" gradientUnits="userSpaceOnUse">
<stop stop-color="#F8FBFF"/>
<stop offset="0.14" stop-color="#F8FBFF" stop-opacity="0.78"/>
<stop offset="0.32" stop-color="#F8FBFF" stop-opacity="0.55"/>
<stop offset="0.48" stop-color="#F8FBFF" stop-opacity="0.35"/>
<stop offset="0.64" stop-color="#F8FBFF" stop-opacity="0.2"/>
<stop offset="0.78" stop-color="#F8FBFF" stop-opacity="0.09"/>
<stop offset="0.91" stop-color="#F8FBFF" stop-opacity="0.02"/>
<stop offset="1" stop-color="#F8FBFF" stop-opacity="0"/>
</linearGradient>
<linearGradient id="paint9_linear_0_11101" x1="694.466" y1="376.578" x2="66.7194" y2="376.578" gradientUnits="userSpaceOnUse">
<stop stop-color="#3B7CE9"/>
<stop offset="1" stop-color="#2B84E5"/>
</linearGradient>
<linearGradient id="paint10_linear_0_11101" x1="571.004" y1="214.408" x2="268.149" y2="214.408" gradientUnits="userSpaceOnUse">
<stop stop-color="#197DDF" stop-opacity="0"/>
<stop offset="0.1" stop-color="#197DDF" stop-opacity="0.04"/>
<stop offset="0.7" stop-color="#197DDF" stop-opacity="0.23"/>
<stop offset="1" stop-color="#197DDF" stop-opacity="0.3"/>
</linearGradient>
<linearGradient id="paint11_linear_0_11101" x1="287.327" y1="273.066" x2="353.684" y2="158.127" gradientUnits="userSpaceOnUse">
<stop stop-color="#9FBDFF" stop-opacity="0.1"/>
<stop offset="1" stop-color="#197CE1"/>
</linearGradient>
<linearGradient id="paint12_linear_0_11101" x1="325.763" y1="272.11" x2="392.12" y2="157.18" gradientUnits="userSpaceOnUse">
<stop stop-color="#9FBDFF" stop-opacity="0.1"/>
<stop offset="1" stop-color="#197CE1"/>
</linearGradient>
<linearGradient id="paint13_linear_0_11101" x1="366.093" y1="272.11" x2="432.45" y2="157.18" gradientUnits="userSpaceOnUse">
<stop stop-color="#9FBDFF" stop-opacity="0.1"/>
<stop offset="1" stop-color="#197CE1"/>
</linearGradient>
<linearGradient id="paint14_linear_0_11101" x1="412.675" y1="272.311" x2="464.782" y2="182.049" gradientUnits="userSpaceOnUse">
<stop stop-color="#9FBDFF" stop-opacity="0.1"/>
<stop offset="1" stop-color="#197CE1"/>
</linearGradient>
<linearGradient id="paint15_linear_0_11101" x1="493.475" y1="133.477" x2="522.904" y2="82.4922" gradientUnits="userSpaceOnUse">
<stop stop-color="#9FBDFF" stop-opacity="0.1"/>
<stop offset="1" stop-color="#197CE1"/>
</linearGradient>
<linearGradient id="paint16_linear_0_11101" x1="483.294" y1="144.307" x2="504.015" y2="108.405" gradientUnits="userSpaceOnUse">
<stop stop-color="#9FBDFF" stop-opacity="0.1"/>
<stop offset="1" stop-color="#197CE1"/>
</linearGradient>
<linearGradient id="paint17_linear_0_11101" x1="457.31" y1="273.785" x2="501.402" y2="197.422" gradientUnits="userSpaceOnUse">
<stop stop-color="#9FBDFF" stop-opacity="0.1"/>
<stop offset="1" stop-color="#197CE1"/>
</linearGradient>
<linearGradient id="paint18_linear_0_11101" x1="499.596" y1="270.461" x2="555.833" y2="173.043" gradientUnits="userSpaceOnUse">
<stop stop-color="#9FBDFF" stop-opacity="0.1"/>
<stop offset="1" stop-color="#197CE1"/>
</linearGradient>
<linearGradient id="paint19_linear_0_11101" x1="205.002" y1="263.954" x2="252.961" y2="263.954" gradientUnits="userSpaceOnUse">
<stop stop-color="#94C8FF" stop-opacity="0.8"/>
<stop offset="1" stop-color="white" stop-opacity="0"/>
</linearGradient>
<linearGradient id="paint20_linear_0_11101" x1="404.484" y1="105.126" x2="477.383" y2="105.126" gradientUnits="userSpaceOnUse">
<stop offset="0.32" stop-color="#197DDF" stop-opacity="0.43"/>
<stop offset="0.47" stop-color="#197DDF" stop-opacity="0.36"/>
<stop offset="0.77" stop-color="#197DDF" stop-opacity="0.17"/>
<stop offset="1" stop-color="#197DDF" stop-opacity="0"/>
</linearGradient>
<linearGradient id="paint21_linear_0_11101" x1="181.377" y1="193.151" x2="586.823" y2="193.151" gradientUnits="userSpaceOnUse">
<stop stop-color="#F9B471"/>
<stop offset="1" stop-color="#F37435"/>
</linearGradient>
<linearGradient id="paint22_linear_0_11101" x1="180.851" y1="193.064" x2="587.271" y2="193.064" gradientUnits="userSpaceOnUse">
<stop stop-color="white" stop-opacity="0"/>
<stop offset="0.34" stop-color="white" stop-opacity="0.33"/>
<stop offset="1" stop-color="white"/>
</linearGradient>
<linearGradient id="paint23_linear_0_11101" x1="330.02" y1="178.979" x2="387.126" y2="178.979" gradientUnits="userSpaceOnUse">
<stop stop-color="#2B84E5" stop-opacity="0"/>
<stop offset="1" stop-color="#3B7CE9"/>
</linearGradient>
<linearGradient id="paint24_linear_0_11101" x1="431.534" y1="248.379" x2="460.254" y2="248.379" gradientUnits="userSpaceOnUse">
<stop stop-color="#2B84E5" stop-opacity="0"/>
<stop offset="1" stop-color="#3B7CE9"/>
</linearGradient>
<linearGradient id="paint25_linear_0_11101" x1="501.521" y1="246.307" x2="542.184" y2="238.897" gradientUnits="userSpaceOnUse">
<stop stop-color="#2B84E5" stop-opacity="0"/>
<stop offset="1" stop-color="#3B7CE9"/>
</linearGradient>
<linearGradient id="paint26_linear_0_11101" x1="202.143" y1="122.498" x2="214.516" y2="122.498" gradientUnits="userSpaceOnUse">
<stop stop-color="#3B7CE9"/>
<stop offset="1" stop-color="#2B84E5"/>
</linearGradient>
<linearGradient id="paint27_linear_0_11101" x1="223.785" y1="122.498" x2="236.159" y2="122.498" gradientUnits="userSpaceOnUse">
<stop stop-color="#3B7CE9"/>
<stop offset="1" stop-color="#2B84E5"/>
</linearGradient>
<linearGradient id="paint28_linear_0_11101" x1="245.428" y1="122.498" x2="257.801" y2="122.498" gradientUnits="userSpaceOnUse">
<stop stop-color="#3B7CE9"/>
<stop offset="1" stop-color="#2B84E5"/>
</linearGradient>
<linearGradient id="paint29_linear_0_11101" x1="281.978" y1="196.633" x2="325.316" y2="196.633" gradientUnits="userSpaceOnUse">
<stop stop-color="#197DDF" stop-opacity="0"/>
<stop offset="0.23" stop-color="#197DDF" stop-opacity="0.17"/>
<stop offset="0.53" stop-color="#197DDF" stop-opacity="0.36"/>
<stop offset="0.68" stop-color="#197DDF" stop-opacity="0.43"/>
</linearGradient>
<linearGradient id="paint30_linear_0_11101" x1="651.865" y1="236.656" x2="610.325" y2="308.598" gradientUnits="userSpaceOnUse">
<stop stop-color="#BFC8FF" stop-opacity="0.8"/>
<stop offset="1" stop-color="#D4E0FF" stop-opacity="0.8"/>
</linearGradient>
<linearGradient id="paint31_linear_0_11101" x1="604.949" y1="287.096" x2="597.127" y2="300.636" gradientUnits="userSpaceOnUse">
<stop stop-color="#197CE1"/>
<stop offset="1" stop-color="#9FBDFF"/>
</linearGradient>
<linearGradient id="paint32_linear_0_11101" x1="669.912" y1="265.717" x2="649.041" y2="301.855" gradientUnits="userSpaceOnUse">
<stop stop-color="#FBFEF9"/>
<stop offset="0.52" stop-color="#ECEDFB"/>
<stop offset="1" stop-color="#DBDBFF"/>
</linearGradient>
<linearGradient id="paint33_linear_0_11101" x1="645.148" y1="261.525" x2="617.139" y2="310.045" gradientUnits="userSpaceOnUse">
<stop stop-color="#FBFEF9"/>
<stop offset="0.52" stop-color="#ECEDFB"/>
<stop offset="1" stop-color="#DBDBFF"/>
</linearGradient>
<linearGradient id="paint34_linear_0_11101" x1="152.763" y1="99.4343" x2="307.917" y2="99.4343" gradientUnits="userSpaceOnUse">
<stop stop-color="#197CE1"/>
<stop offset="1" stop-color="#197CE1" stop-opacity="0"/>
</linearGradient>
<linearGradient id="paint35_linear_0_11101" x1="150.284" y1="78.3901" x2="156.106" y2="72.5676" gradientUnits="userSpaceOnUse">
<stop stop-color="#3B7CE9"/>
<stop offset="1" stop-color="#2B84E5"/>
</linearGradient>
<linearGradient id="paint36_linear_0_11101" x1="168.241" y1="110.485" x2="185.48" y2="93.2472" gradientUnits="userSpaceOnUse">
<stop stop-color="#F9B471"/>
<stop offset="1" stop-color="#F37435"/>
</linearGradient>
<linearGradient id="paint37_linear_0_11101" x1="197.267" y1="110.852" x2="215.235" y2="92.8838" gradientUnits="userSpaceOnUse">
<stop stop-color="#3B7CE9"/>
<stop offset="1" stop-color="#2B84E5"/>
</linearGradient>
<linearGradient id="paint38_linear_0_11101" x1="227.025" y1="110.485" x2="244.263" y2="93.2472" gradientUnits="userSpaceOnUse">
<stop stop-color="#F9B471"/>
<stop offset="1" stop-color="#F37435"/>
</linearGradient>
<linearGradient id="paint39_linear_0_11101" x1="386.095" y1="226.457" x2="500.665" y2="205.56" gradientUnits="userSpaceOnUse">
<stop stop-color="#2B84E5" stop-opacity="0"/>
<stop offset="1" stop-color="#3B7CE9"/>
</linearGradient>
<linearGradient id="paint40_linear_0_11101" x1="585.622" y1="220.047" x2="588.454" y2="220.047" gradientUnits="userSpaceOnUse">
<stop stop-color="#197CE1"/>
<stop offset="1" stop-color="#9FBDFF"/>
</linearGradient>
<linearGradient id="paint41_linear_0_11101" x1="268.189" y1="194.126" x2="290.55" y2="194.126" gradientUnits="userSpaceOnUse">
<stop stop-color="#197CE1"/>
<stop offset="1" stop-color="#9FBDFF"/>
</linearGradient>
<linearGradient id="paint42_linear_0_11101" x1="210.822" y1="263.965" x2="233.183" y2="263.965" gradientUnits="userSpaceOnUse">
<stop stop-color="#197CE1"/>
<stop offset="1" stop-color="#9FBDFF"/>
</linearGradient>
<linearGradient id="paint43_linear_0_11101" x1="382.491" y1="116.754" x2="408.168" y2="116.754" gradientUnits="userSpaceOnUse">
<stop stop-color="#F9B471"/>
<stop offset="1" stop-color="#F37435"/>
</linearGradient>
<linearGradient id="paint44_linear_0_11101" x1="531.875" y1="206.577" x2="582.983" y2="206.577" gradientUnits="userSpaceOnUse">
<stop offset="0.32" stop-color="#197DDF" stop-opacity="0.43"/>
<stop offset="0.47" stop-color="#197DDF" stop-opacity="0.36"/>
<stop offset="0.77" stop-color="#197DDF" stop-opacity="0.17"/>
<stop offset="1" stop-color="#197DDF" stop-opacity="0"/>
</linearGradient>
<linearGradient id="paint45_linear_0_11101" x1="528.412" y1="231.447" x2="567.277" y2="164.134" gradientUnits="userSpaceOnUse">
<stop stop-color="#197CE1"/>
<stop offset="1" stop-color="#9FBDFF"/>
</linearGradient>
<linearGradient id="paint46_linear_0_11101" x1="607.503" y1="169.305" x2="572.588" y2="164.012" gradientUnits="userSpaceOnUse">
<stop stop-color="#197CE1"/>
<stop offset="1" stop-color="#9FBDFF"/>
</linearGradient>
<linearGradient id="paint47_linear_0_11101" x1="605.714" y1="187.012" x2="570.8" y2="181.72" gradientUnits="userSpaceOnUse">
<stop stop-color="#197CE1"/>
<stop offset="1" stop-color="#9FBDFF"/>
</linearGradient>
<linearGradient id="paint48_linear_0_11101" x1="567.128" y1="214.408" x2="571.46" y2="214.408" gradientUnits="userSpaceOnUse">
<stop stop-color="#197CE1"/>
<stop offset="1" stop-color="#9FBDFF"/>
</linearGradient>
<linearGradient id="paint49_linear_0_11101" x1="576.581" y1="215.925" x2="580.211" y2="215.925" gradientUnits="userSpaceOnUse">
<stop stop-color="#197CE1"/>
<stop offset="1" stop-color="#9FBDFF"/>
</linearGradient>
<linearGradient id="paint50_linear_0_11101" x1="594.768" y1="224.712" x2="596.689" y2="224.712" gradientUnits="userSpaceOnUse">
<stop stop-color="#197CE1"/>
<stop offset="1" stop-color="#9FBDFF"/>
</linearGradient>
<linearGradient id="paint51_linear_0_11101" x1="369.478" y1="261.183" x2="272.77" y2="261.183" gradientUnits="userSpaceOnUse">
<stop stop-color="#197DDF" stop-opacity="0"/>
<stop offset="0.23" stop-color="#197DDF" stop-opacity="0.17"/>
<stop offset="0.53" stop-color="#197DDF" stop-opacity="0.36"/>
<stop offset="0.68" stop-color="#197DDF" stop-opacity="0.43"/>
</linearGradient>
<linearGradient id="paint52_linear_0_11101" x1="571.915" y1="304.986" x2="463.149" y2="298.677" gradientUnits="userSpaceOnUse">
<stop stop-color="#197DDF" stop-opacity="0"/>
<stop offset="0.23" stop-color="#197DDF" stop-opacity="0.17"/>
<stop offset="0.53" stop-color="#197DDF" stop-opacity="0.36"/>
<stop offset="0.68" stop-color="#197DDF" stop-opacity="0.43"/>
</linearGradient>
<linearGradient id="paint53_linear_0_11101" x1="271.043" y1="242.206" x2="351.439" y2="242.206" gradientUnits="userSpaceOnUse">
<stop stop-color="#9FBDFF" stop-opacity="0.1"/>
<stop offset="1" stop-color="#197CE1"/>
</linearGradient>
</defs>
</svg>
