<svg width="783" height="574" viewBox="0 0 783 574" fill="none" xmlns="http://www.w3.org/2000/svg">
<g clip-path="url(#clip0_0_7183)">
<path d="M498.41 573.502C646.6 573.502 766.731 453.806 766.731 306.153C766.731 158.501 646.6 38.8047 498.41 38.8047C350.221 38.8047 230.09 158.501 230.09 306.153C230.09 453.806 350.221 573.502 498.41 573.502Z" fill="url(#paint0_linear_0_7183)"/>
<path d="M498.41 441.052C573.616 441.052 634.582 380.307 634.582 305.374C634.582 230.441 573.616 169.695 498.41 169.695C423.205 169.695 362.239 230.441 362.239 305.374C362.239 380.307 423.205 441.052 498.41 441.052Z" fill="url(#paint1_linear_0_7183)"/>
<path opacity="0.59" d="M435.328 486.241C392.185 471.842 354.107 441.93 330.344 399.141" stroke="white" stroke-width="21.4" stroke-miterlimit="10"/>
<path opacity="0.8" d="M771.858 397.075H484.071C478.743 397.075 474.424 401.379 474.424 406.687V510.363C474.424 515.672 478.743 519.975 484.071 519.975H771.858C777.186 519.975 781.505 515.672 781.505 510.363V406.687C781.505 401.379 777.186 397.075 771.858 397.075Z" stroke="url(#paint2_linear_0_7183)" stroke-width="1.66" stroke-miterlimit="10"/>
<path d="M760.461 248.483C744.719 241.172 726.94 229.086 706.976 210.407C600.477 110.714 570.99 204.555 506.729 303.197C442.467 401.838 378.118 248.532 319.356 369.836C302.31 405.017 283.947 426.938 266.33 440.298C339.394 565.919 500.273 610.699 628.349 540.065C734.824 481.343 785.491 361.14 760.461 248.483Z" fill="#9FBDFF" fill-opacity="0.8"/>
<path opacity="0.8" d="M13.6154 194.646H45.6346C48.9247 194.646 51.5816 197.294 51.5816 200.572V389.542C51.5816 392.82 48.9247 395.467 45.6346 395.467H13.6154C10.3254 395.467 7.66846 392.82 7.66846 389.542V200.572C7.66846 197.294 10.3254 194.646 13.6154 194.646ZM64.1459 263.859V400.217C64.1459 403.495 66.8028 406.143 70.0929 406.143H102.112C105.402 406.143 108.059 403.495 108.059 400.217V263.859C108.059 260.58 105.402 257.933 102.112 257.933H70.0929C66.8028 257.933 64.1459 260.58 64.1459 263.859ZM120.623 351.688V439.221C120.623 442.499 123.28 445.146 126.57 445.146H158.589C161.88 445.146 164.536 442.499 164.536 439.221V351.688C164.536 348.41 161.88 345.763 158.589 345.763H126.57C123.28 345.763 120.623 348.41 120.623 351.688ZM233.578 233.625V369.984C233.578 373.262 236.235 375.909 239.525 375.909H271.544C274.834 375.909 277.491 373.262 277.491 369.984V233.625C277.491 230.347 274.834 227.7 271.544 227.7H239.525C236.235 227.7 233.578 230.347 233.578 233.625ZM290.056 299.399V435.757C290.056 439.035 292.713 441.683 296.003 441.683H328.022C331.312 441.683 333.969 439.035 333.969 435.757V299.399C333.969 296.121 331.312 293.473 328.022 293.473H296.003C292.713 293.473 290.056 296.121 290.056 299.399ZM346.533 196.106V363.23C346.533 366.508 349.19 369.155 352.48 369.155H384.499C387.789 369.155 390.446 366.508 390.446 363.23V196.106C390.446 192.828 387.789 190.181 384.499 190.181H352.48C349.19 190.181 346.533 192.828 346.533 196.106ZM403.011 300.97V415.594C403.011 418.872 405.667 421.519 408.958 421.519H440.977C444.267 421.519 446.924 418.872 446.924 415.594V300.97C446.924 297.692 444.267 295.044 440.977 295.044H408.958C405.667 295.044 403.011 297.692 403.011 300.97ZM177.088 331.599V403.557C177.088 406.835 179.745 409.483 183.035 409.483H215.055C218.345 409.483 221.001 406.835 221.001 403.557V331.599C221.001 328.321 218.345 325.673 215.055 325.673H183.035C179.745 325.673 177.088 328.321 177.088 331.599Z" fill="url(#paint3_linear_0_7183)"/>
<path d="M19.8976 202.663H51.9169C55.2069 202.663 57.8638 205.31 57.8638 208.588V397.558C57.8638 400.836 55.2069 403.483 51.9169 403.483H19.8976C16.6076 403.483 13.9507 400.836 13.9507 397.558V208.588C13.9507 205.31 16.6076 202.663 19.8976 202.663ZM70.4282 271.875V408.233C70.4282 411.511 73.085 414.159 76.3751 414.159H108.394C111.684 414.159 114.341 411.511 114.341 408.233V271.875C114.341 268.597 111.684 265.949 108.394 265.949H76.3751C73.085 265.949 70.4282 268.597 70.4282 271.875ZM126.906 359.704V447.237C126.906 450.515 129.562 453.163 132.853 453.163H164.872C168.162 453.163 170.819 450.515 170.819 447.237V359.704C170.819 356.426 168.162 353.779 164.872 353.779H132.853C129.562 353.779 126.906 356.426 126.906 359.704ZM239.86 241.642V378C239.86 381.278 242.517 383.926 245.807 383.926H277.827C281.117 383.926 283.774 381.278 283.774 378V241.642C283.774 238.363 281.117 235.716 277.827 235.716H245.807C242.517 235.716 239.86 238.363 239.86 241.642ZM296.338 307.415V443.773C296.338 447.052 298.995 449.699 302.285 449.699H334.304C337.594 449.699 340.251 447.052 340.251 443.773V307.415C340.251 304.137 337.594 301.489 334.304 301.489H302.285C298.995 301.489 296.338 304.137 296.338 307.415ZM352.815 204.122V371.246C352.815 374.524 355.472 377.171 358.762 377.171H390.781C394.072 377.171 396.728 374.524 396.728 371.246V204.122C396.728 200.844 394.072 198.197 390.781 198.197H358.762C355.472 198.197 352.815 200.844 352.815 204.122ZM409.293 308.986V423.61C409.293 426.888 411.95 429.535 415.24 429.535H447.259C450.549 429.535 453.206 426.888 453.206 423.61V308.986C453.206 305.708 450.549 303.06 447.259 303.06H415.24C411.95 303.06 409.293 305.708 409.293 308.986ZM183.371 339.615V411.573C183.371 414.851 186.027 417.499 189.318 417.499H221.337C224.627 417.499 227.284 414.851 227.284 411.573V339.615C227.284 336.337 224.627 333.689 221.337 333.689H189.318C186.027 333.689 183.371 336.337 183.371 339.615Z" stroke="white" stroke-miterlimit="10"/>
<path opacity="0.8" d="M328.22 144.472H144.895C139.568 144.472 135.249 148.775 135.249 154.084V202.514C135.249 207.822 139.568 212.126 144.895 212.126H328.22C333.548 212.126 337.867 207.822 337.867 202.514V154.084C337.867 148.775 333.548 144.472 328.22 144.472Z" stroke="url(#paint4_linear_0_7183)" stroke-miterlimit="10"/>
<path d="M479.563 156.435L464.938 88.6202C490.588 83.1278 516.822 82.2124 542.894 85.8864L533.148 154.554C515.208 152.031 497.181 152.662 479.563 156.422V156.435Z" fill="white"/>
<path d="M676.645 215.231C727.796 307.328 694.349 423.301 601.917 474.267" stroke="url(#paint5_linear_0_7183)" stroke-width="27.41" stroke-miterlimit="10"/>
<path d="M414.743 89.6714L429.356 122.094C424.265 124.37 419.2 126.894 414.321 129.591C380.787 148.084 353.374 175.584 335.036 209.12L303.712 192.11C325.29 152.637 357.57 120.263 397.039 98.4915C402.787 95.3247 408.746 92.3558 414.743 89.6714Z" fill="url(#paint6_linear_0_7183)"/>
<path opacity="0.43" d="M446.849 77.9939L456.62 112.173C451.257 113.695 445.881 115.464 440.654 117.431L428.052 84.1791C434.198 81.8658 440.517 79.7876 446.837 77.9939H446.849Z" fill="url(#paint7_linear_0_7183)"/>
<path d="M298.002 422.818C235.081 309.543 273.283 167.729 382.836 100.595" stroke="url(#paint8_linear_0_7183)" stroke-width="7.17" stroke-miterlimit="10"/>
<path d="M323.006 400.997C269.384 304.471 304.457 182.92 401.322 129.504C498.199 76.0767 620.192 111.023 673.802 207.537" stroke="white" stroke-width="0.61" stroke-miterlimit="10"/>
<path d="M498.41 475.441C592.678 475.441 669.096 399.299 669.096 305.373C669.096 211.448 592.678 135.306 498.41 135.306C404.143 135.306 327.724 211.448 327.724 305.373C327.724 399.299 404.143 475.441 498.41 475.441Z" stroke="#113291" stroke-width="0.61" stroke-linecap="round"/>
<path d="M613.749 88.0757C657.923 108.944 696.187 143.297 721.675 189.166C786.434 305.732 744.085 452.544 627.083 517.055C577.67 544.307 522.856 552.521 471.134 544.134C417.685 535.475 367.527 509.089 330.07 467.673" stroke="url(#paint9_linear_0_7183)" stroke-width="7.17" stroke-miterlimit="10"/>
<path opacity="0.8" d="M204.725 77.9939L419.56 236.384" stroke="url(#paint10_linear_0_7183)" stroke-miterlimit="10"/>
<path opacity="0.8" d="M413.799 369.366L158.9 475.479" stroke="url(#paint11_linear_0_7183)" stroke-miterlimit="10"/>
<path opacity="0.8" d="M393.997 320.131H-108.725" stroke="url(#paint12_linear_0_7183)" stroke-miterlimit="10"/>
<path d="M443.447 197.504L453.057 190.144L463.858 197.504L474.299 190.144L484.865 197.504L495.778 190.144L506.381 197.504L516.81 190.144L526.729 197.504" stroke="url(#paint13_linear_0_7183)" stroke-miterlimit="10"/>
<path d="M443.447 212.794L453.057 205.434L463.858 212.794L474.299 205.434L484.865 212.794L495.778 205.434L506.381 212.794L516.81 205.434L526.729 212.794" stroke="url(#paint14_linear_0_7183)" stroke-miterlimit="10"/>
<path d="M498.41 371.815C534.806 371.815 564.311 342.417 564.311 306.153C564.311 269.889 534.806 240.491 498.41 240.491C462.014 240.491 432.51 269.889 432.51 306.153C432.51 342.417 462.014 371.815 498.41 371.815Z" fill="#FEB36F"/>
<path d="M516.227 369.366C537.457 363.403 555.198 346.963 561.741 324.288C571.798 289.441 551.586 253.06 516.611 243.04C499.081 238.017 481.166 240.578 466.391 248.755L516.227 369.353V369.366Z" fill="url(#paint15_linear_0_7183)"/>
<path d="M462.803 301.589L478.273 282.6H491.334L475.864 301.589H462.803ZM472.723 317.559L495.356 289.787C497.02 287.647 498.882 285.68 500.906 283.899C503.277 281.858 506.058 280.373 509.05 279.582C512.936 278.518 517.034 278.629 520.87 279.879C524.669 281.116 527.971 283.577 530.318 286.905C533.298 291.272 534.539 296.64 533.819 301.923C533.484 304.533 532.652 307.044 531.373 309.308C530.094 311.571 528.394 313.563 526.357 315.147C524.036 316.928 521.354 318.128 518.511 318.66C516.909 319.006 515.271 319.192 513.632 319.216H507.25L495.691 333.43H482.668L501.167 310.693L502.681 308.825H511.285C514.302 308.825 517.493 308.825 520.113 307.069H520.162C521.391 306.19 522.397 305.028 523.105 303.667C523.812 302.306 524.197 300.797 524.234 299.251C524.272 297.704 523.949 296.183 523.303 294.785C522.658 293.399 521.702 292.187 520.51 291.247L520.386 291.148L520.324 291.099L520.224 291.024C518.734 289.936 516.959 289.33 515.134 289.268H515.035C513.855 289.206 512.676 289.342 511.533 289.651C509.932 290.097 508.442 290.901 507.176 292.002C505.636 293.387 504.208 294.909 502.93 296.554L485.734 317.645L472.736 317.546L472.723 317.559Z" fill="white"/>
<path d="M498.41 364.789C530.912 364.789 557.259 338.537 557.259 306.153C557.259 273.77 530.912 247.518 498.41 247.518C465.909 247.518 439.562 273.77 439.562 306.153C439.562 338.537 465.909 364.789 498.41 364.789Z" stroke="white" stroke-width="0.61" stroke-miterlimit="10"/>
<path d="M698.136 209.714C731.68 209.714 758.872 182.62 758.872 149.198C758.872 115.776 731.68 88.6821 698.136 88.6821C664.593 88.6821 637.4 115.776 637.4 149.198C637.4 182.62 664.593 209.714 698.136 209.714Z" fill="url(#paint16_linear_0_7183)"/>
<path d="M698.136 209.714C731.68 209.714 758.872 182.62 758.872 149.198C758.872 115.776 731.68 88.6821 698.136 88.6821C664.593 88.6821 637.4 115.776 637.4 149.198C637.4 182.62 664.593 209.714 698.136 209.714Z" fill="url(#paint17_linear_0_7183)"/>
<path d="M683.945 209.714C717.489 209.714 744.681 182.62 744.681 149.198C744.681 115.776 717.489 88.6821 683.945 88.6821C650.402 88.6821 623.209 115.776 623.209 149.198C623.209 182.62 650.402 209.714 683.945 209.714Z" fill="#FF7F00"/>
<path d="M683.945 88.6821H698.086C731.633 88.6821 758.822 115.773 758.822 149.198C758.822 182.623 731.633 209.714 698.086 209.714H683.945" stroke="white" stroke-width="1.42" stroke-miterlimit="10"/>
<path d="M712.737 95.9065H726.89" stroke="white" stroke-width="1.42" stroke-miterlimit="10"/>
<path d="M725.71 105.258H739.852" stroke="white" stroke-width="1.42" stroke-miterlimit="10"/>
<path d="M735.854 118.173H749.995" stroke="white" stroke-width="1.42" stroke-miterlimit="10"/>
<path d="M742.931 134.7H757.072" stroke="white" stroke-width="1.42" stroke-miterlimit="10"/>
<path d="M744.681 152.785H758.822" stroke="white" stroke-width="1.42" stroke-miterlimit="10"/>
<path d="M741.739 169.498H755.321" stroke="white" stroke-width="1.42" stroke-miterlimit="10"/>
<path d="M732.055 185.517H746.208" stroke="white" stroke-width="1.42" stroke-miterlimit="10"/>
<path d="M717.914 199.125H732.055" stroke="white" stroke-width="1.42" stroke-miterlimit="10"/>
<path d="M683.945 202.465C713.471 202.465 737.406 178.616 737.406 149.198C737.406 119.78 713.471 95.9312 683.945 95.9312C654.42 95.9312 630.485 119.78 630.485 149.198C630.485 178.616 654.42 202.465 683.945 202.465Z" stroke="white" stroke-width="1.42" stroke-miterlimit="10"/>
<path d="M690.811 144.472H670.438V126.708H690.811C694.275 126.708 697.068 129.504 697.068 132.943V138.225C697.068 141.677 694.263 144.46 690.811 144.46V144.472Z" stroke="white" stroke-width="1.42" stroke-miterlimit="10"/>
<path d="M696.311 168.088H670.425V153.453H696.311C699.154 153.453 701.463 155.754 701.463 158.587V162.941C701.463 165.774 699.154 168.075 696.311 168.075V168.088Z" stroke="white" stroke-width="1.42" stroke-miterlimit="10"/>
<path d="M701.513 146.241C706.281 143.842 709.546 138.93 709.546 133.24C709.546 125.187 702.991 118.668 694.921 118.668H691.184V111.246H683.523V118.668H674.621V111.246H666.961V118.668H655.117V126.09H661.412V168.929H655.117V177.514H666.961V183.934H674.621V177.514H683.523V183.934H691.184V177.514H698.422C707.175 177.514 714.264 170.45 714.264 161.729C714.264 154.059 708.776 147.676 701.513 146.241Z" stroke="white" stroke-width="1.42" stroke-miterlimit="10"/>
<path d="M683.945 209.714C717.489 209.714 744.681 182.62 744.681 149.198C744.681 115.776 717.489 88.6821 683.945 88.6821C650.402 88.6821 623.209 115.776 623.209 149.198C623.209 182.62 650.402 209.714 683.945 209.714Z" stroke="white" stroke-width="1.42" stroke-miterlimit="10"/>
<path d="M324.57 260.16C344.126 260.16 359.979 244.365 359.979 224.88C359.979 205.395 344.126 189.6 324.57 189.6C305.015 189.6 289.162 205.395 289.162 224.88C289.162 244.365 305.015 260.16 324.57 260.16Z" fill="url(#paint18_linear_0_7183)"/>
<path d="M324.57 260.16C344.126 260.16 359.979 244.365 359.979 224.88C359.979 205.395 344.126 189.6 324.57 189.6C305.015 189.6 289.162 205.395 289.162 224.88C289.162 244.365 305.015 260.16 324.57 260.16Z" fill="url(#paint19_linear_0_7183)"/>
<path d="M316.289 260.16C335.845 260.16 351.698 244.365 351.698 224.88C351.698 205.395 335.845 189.6 316.289 189.6C296.734 189.6 280.881 205.395 280.881 224.88C280.881 244.365 296.734 260.16 316.289 260.16Z" fill="#FEB36F"/>
<path d="M316.29 189.6H324.533C344.088 189.6 359.942 205.397 359.942 224.88C359.942 244.363 344.088 260.16 324.533 260.16H316.29" stroke="white" stroke-width="0.83" stroke-miterlimit="10"/>
<path d="M346.558 206.794H354.802" stroke="white" stroke-width="0.83" stroke-miterlimit="10"/>
<path d="M350.68 216.431H358.924" stroke="white" stroke-width="0.83" stroke-miterlimit="10"/>
<path d="M351.698 226.97H359.954" stroke="white" stroke-width="0.83" stroke-miterlimit="10"/>
<path d="M349.985 236.718H357.906" stroke="white" stroke-width="0.83" stroke-miterlimit="10"/>
<path d="M344.348 246.046H352.592" stroke="white" stroke-width="0.83" stroke-miterlimit="10"/>
<path d="M336.092 253.987H344.348" stroke="white" stroke-width="0.83" stroke-miterlimit="10"/>
<path d="M316.289 255.93C333.5 255.93 347.452 242.028 347.452 224.88C347.452 207.732 333.5 193.83 316.289 193.83C299.079 193.83 285.127 207.732 285.127 224.88C285.127 242.028 299.079 255.93 316.289 255.93Z" stroke="white" stroke-width="0.83" stroke-miterlimit="10"/>
<path d="M304.56 215.602L314.187 211.87C316.86 210.834 319.881 212.158 320.921 214.821C321.961 217.484 320.632 220.495 317.959 221.531L308.333 225.263L304.565 215.614L304.56 215.602Z" stroke="white" stroke-width="0.83" stroke-miterlimit="10"/>
<path d="M310.225 230.124L323.103 225.131C325.302 224.279 327.788 225.359 328.648 227.561C329.503 229.752 328.419 232.229 326.209 233.086L313.332 238.078L310.23 230.135L310.225 230.124Z" stroke="white" stroke-width="0.83" stroke-miterlimit="10"/>
<path d="M325.576 219.672C327.649 217.359 328.394 214.006 327.19 210.914C325.477 206.535 320.535 204.37 316.153 206.077L314.129 206.869L312.552 202.836L308.393 204.444L309.97 208.477L305.14 210.345L303.564 206.312L299.404 207.92L300.981 211.953L294.55 214.452L296.127 218.484L299.541 217.161L308.629 240.43L305.215 241.753L307.04 246.417L313.471 243.918L314.837 247.406L318.996 245.798L317.63 242.31L322.46 240.442L323.825 243.93L327.985 242.322L326.619 238.834L330.555 237.312C335.31 235.469 337.669 230.137 335.819 225.399C334.192 221.231 329.859 218.917 325.601 219.672H325.576Z" stroke="white" stroke-width="0.83" stroke-miterlimit="10"/>
<path d="M316.289 260.16C335.845 260.16 351.698 244.365 351.698 224.88C351.698 205.395 335.845 189.6 316.289 189.6C296.734 189.6 280.881 205.395 280.881 224.88C280.881 244.365 296.734 260.16 316.289 260.16Z" stroke="white" stroke-width="0.83" stroke-miterlimit="10"/>
<path d="M451.381 76.7198C472.424 76.7198 489.484 59.7225 489.484 38.7552C489.484 17.7879 472.424 0.790527 451.381 0.790527C430.337 0.790527 413.278 17.7879 413.278 38.7552C413.278 59.7225 430.337 76.7198 451.381 76.7198Z" fill="url(#paint20_linear_0_7183)"/>
<path d="M442.504 0.802979H451.381C472.425 0.802979 489.484 17.7999 489.484 38.7676C489.484 59.7354 472.425 76.7323 451.381 76.7323H442.504" stroke="#E8F1FF" stroke-width="0.98" stroke-miterlimit="10"/>
<path d="M442.504 76.7198C463.547 76.7198 480.607 59.7225 480.607 38.7552C480.607 17.7879 463.547 0.790527 442.504 0.790527C421.46 0.790527 404.401 17.7879 404.401 38.7552C404.401 59.7225 421.46 76.7198 442.504 76.7198Z" fill="url(#paint21_linear_0_7183)"/>
<path d="M428.487 37.3079L441.982 9.51172L456.521 37.3079L442.504 44.322L428.487 37.3079Z" stroke="#E8F1FF" stroke-width="0.98" stroke-linecap="round" stroke-linejoin="round"/>
<path d="M428.487 41.7983L442.504 49.8886L456.521 41.7983L442.504 65.0299L428.487 41.7983Z" stroke="#E8F1FF" stroke-width="0.98" stroke-linecap="round" stroke-linejoin="round"/>
<path d="M460.605 5.36743H469.644" stroke="#E8F1FF" stroke-width="0.98" stroke-miterlimit="10"/>
<path d="M469.383 11.7754H478.235" stroke="#E8F1FF" stroke-width="0.98" stroke-miterlimit="10"/>
<path d="M476.174 21.0654H485.026" stroke="#E8F1FF" stroke-width="0.98" stroke-miterlimit="10"/>
<path d="M480.606 32.9783H489.446" stroke="#E8F1FF" stroke-width="0.98" stroke-miterlimit="10"/>
<path d="M480.197 45.3857H489.049" stroke="#E8F1FF" stroke-width="0.98" stroke-miterlimit="10"/>
<path d="M476.174 55.9004H485.026" stroke="#E8F1FF" stroke-width="0.98" stroke-miterlimit="10"/>
<path d="M469.644 65.5618H478.496" stroke="#E8F1FF" stroke-width="0.98" stroke-miterlimit="10"/>
<path d="M462.803 70.8811H471.891" stroke="#E8F1FF" stroke-width="0.98" stroke-miterlimit="10"/>
<path d="M442.504 76.7198C463.547 76.7198 480.607 59.7225 480.607 38.7552C480.607 17.7879 463.547 0.790527 442.504 0.790527C421.46 0.790527 404.401 17.7879 404.401 38.7552C404.401 59.7225 421.46 76.7198 442.504 76.7198Z" stroke="#E8F1FF" stroke-width="0.98" stroke-miterlimit="10"/>
<path d="M442.504 72.3037C461.099 72.3037 476.174 57.2836 476.174 38.7553C476.174 20.227 461.099 5.20679 442.504 5.20679C423.908 5.20679 408.833 20.227 408.833 38.7553C408.833 57.2836 423.908 72.3037 442.504 72.3037Z" stroke="#E8F1FF" stroke-width="0.98" stroke-miterlimit="10"/>
<path d="M674.82 383.245C698.449 383.245 717.603 364.16 717.603 340.617C717.603 317.074 698.449 297.989 674.82 297.989C651.191 297.989 632.037 317.074 632.037 340.617C632.037 364.16 651.191 383.245 674.82 383.245Z" fill="url(#paint22_linear_0_7183)"/>
<path d="M665.446 297.976H675.416C699.042 297.976 718.199 317.064 718.199 340.604C718.199 364.145 699.042 383.233 675.416 383.233H665.446" stroke="#E8F1FF" stroke-width="1.4" stroke-miterlimit="10"/>
<path d="M665.446 383.245C689.075 383.245 708.23 364.159 708.23 340.617C708.23 317.074 689.075 297.988 665.446 297.988C641.818 297.988 622.663 317.074 622.663 340.617C622.663 364.159 641.818 383.245 665.446 383.245Z" fill="url(#paint23_linear_0_7183)"/>
<path d="M690.215 305.844H700.172" stroke="#E8F1FF" stroke-width="1.4" stroke-miterlimit="10"/>
<path d="M698.273 313.204H708.242" stroke="#E8F1FF" stroke-width="1.4" stroke-miterlimit="10"/>
<path d="M704.741 323.385H714.711" stroke="#E8F1FF" stroke-width="1.4" stroke-miterlimit="10"/>
<path d="M708.242 335.99H718.199" stroke="#E8F1FF" stroke-width="1.4" stroke-miterlimit="10"/>
<path d="M707.646 348.756H717.603" stroke="#E8F1FF" stroke-width="1.4" stroke-miterlimit="10"/>
<path d="M703.251 360.434H713.221" stroke="#E8F1FF" stroke-width="1.4" stroke-miterlimit="10"/>
<path d="M693.294 372.755H703.251" stroke="#E8F1FF" stroke-width="1.4" stroke-miterlimit="10"/>
<path d="M665.446 383.245C689.075 383.245 708.23 364.159 708.23 340.617C708.23 317.074 689.075 297.988 665.446 297.988C641.818 297.988 622.663 317.074 622.663 340.617C622.663 364.159 641.818 383.245 665.446 383.245Z" stroke="#E8F1FF" stroke-width="1.4" stroke-miterlimit="10"/>
<path d="M665.446 377.183C685.715 377.183 702.146 360.812 702.146 340.617C702.146 320.421 685.715 304.05 665.446 304.05C645.178 304.05 628.747 320.421 628.747 340.617C628.747 360.812 645.178 377.183 665.446 377.183Z" stroke="#E8F1FF" stroke-width="1.4" stroke-miterlimit="10"/>
<path d="M673.107 320.639H655.117L653.627 328.939L669.854 328.964C677.849 328.964 680.208 331.859 680.134 336.658C680.096 339.12 679.029 343.276 678.569 344.625C677.34 348.225 674.808 352.319 665.322 352.307H649.555L648.065 360.607H666.017C672.349 360.607 675.043 359.865 677.887 358.566C684.206 355.659 687.968 349.449 689.47 341.334C691.705 329.261 688.911 320.663 673.107 320.663V320.639Z" stroke="#E8F1FF" stroke-width="1.4" stroke-miterlimit="10"/>
<path d="M664.999 339.85C665.583 337.425 665.769 336.448 665.769 336.448H647.357C642.652 336.448 641.981 339.504 641.534 341.359C640.951 343.784 640.765 344.761 640.765 344.761H659.177C663.882 344.761 664.552 341.705 664.999 339.85Z" stroke="#E8F1FF" stroke-width="1.4" stroke-miterlimit="10"/>
<path d="M305.066 525.888C328.125 525.888 346.819 507.263 346.819 484.287C346.819 461.311 328.125 442.685 305.066 442.685C282.006 442.685 263.313 461.311 263.313 484.287C263.313 507.263 282.006 525.888 305.066 525.888Z" fill="url(#paint24_linear_0_7183)"/>
<path d="M295.916 442.685H305.637C328.692 442.685 347.39 461.315 347.39 484.287C347.39 507.258 328.692 525.888 305.637 525.888H295.916" stroke="#E8F1FF" stroke-width="0.57" stroke-miterlimit="10"/>
<path d="M295.916 525.888C318.975 525.888 337.669 507.263 337.669 484.287C337.669 461.311 318.975 442.685 295.916 442.685C272.856 442.685 254.163 461.311 254.163 484.287C254.163 507.263 272.856 525.888 295.916 525.888Z" fill="url(#paint25_linear_0_7183)"/>
<path d="M327.947 457.542H337.669" stroke="#E8F1FF" stroke-width="0.57" stroke-miterlimit="10"/>
<path d="M334.267 467.475H343.988" stroke="#E8F1FF" stroke-width="0.57" stroke-miterlimit="10"/>
<path d="M337.668 479.784H347.402" stroke="#E8F1FF" stroke-width="0.57" stroke-miterlimit="10"/>
<path d="M337.085 492.241H346.819" stroke="#E8F1FF" stroke-width="0.57" stroke-miterlimit="10"/>
<path d="M332.814 503.634H342.535" stroke="#E8F1FF" stroke-width="0.57" stroke-miterlimit="10"/>
<path d="M323.081 515.646H332.814" stroke="#E8F1FF" stroke-width="0.57" stroke-miterlimit="10"/>
<path d="M295.916 525.888C318.975 525.888 337.669 507.263 337.669 484.287C337.669 461.311 318.975 442.685 295.916 442.685C272.856 442.685 254.163 461.311 254.163 484.287C254.163 507.263 272.856 525.888 295.916 525.888Z" stroke="#E8F1FF" stroke-width="0.57" stroke-miterlimit="10"/>
<path d="M295.916 519.963C315.691 519.963 331.722 503.99 331.722 484.287C331.722 464.583 315.691 448.611 295.916 448.611C276.141 448.611 260.11 464.583 260.11 484.287C260.11 503.99 276.141 519.963 295.916 519.963Z" stroke="#E8F1FF" stroke-width="0.57" stroke-miterlimit="10"/>
<path d="M276.966 479.496L271.408 485.033L276.966 490.57L282.523 485.033L276.966 479.496Z" stroke="white" stroke-width="0.57" stroke-linecap="round" stroke-linejoin="round"/>
<path d="M295.977 479.492L290.42 485.029L295.977 490.566L301.534 485.029L295.977 479.492Z" stroke="white" stroke-width="0.57" stroke-linecap="round" stroke-linejoin="round"/>
<path d="M314.867 479.486L309.31 485.023L314.867 490.56L320.424 485.023L314.867 479.486Z" stroke="white" stroke-width="0.57" stroke-linecap="round" stroke-linejoin="round"/>
<path d="M295.891 471.706L305.426 481.206L310.976 475.665L301.453 466.176L295.891 460.635L280.819 475.652L286.368 481.194L295.891 471.706Z" stroke="white" stroke-width="0.57" stroke-linecap="round" stroke-linejoin="round"/>
<path d="M295.903 498.513L286.368 489.012L280.819 494.554L295.903 509.584L310.976 494.566L305.426 489.025L295.903 498.513Z" stroke="white" stroke-width="0.57" stroke-linecap="round" stroke-linejoin="round"/>
<path d="M181.918 293.201C205.855 293.201 225.26 273.867 225.26 250.017C225.26 226.166 205.855 206.832 181.918 206.832C157.981 206.832 138.576 226.166 138.576 250.017C138.576 273.867 157.981 293.201 181.918 293.201Z" fill="url(#paint26_linear_0_7183)"/>
<path d="M172.42 206.832H182.514C206.451 206.832 225.856 226.166 225.856 250.017C225.856 273.867 206.451 293.201 182.514 293.201H172.42" stroke="#E8F1FF" stroke-width="1.42" stroke-miterlimit="10"/>
<path d="M172.42 293.201C196.357 293.201 215.762 273.867 215.762 250.017C215.762 226.166 196.357 206.832 172.42 206.832C148.483 206.832 129.078 226.166 129.078 250.017C129.078 273.867 148.483 293.201 172.42 293.201Z" fill="url(#paint27_linear_0_7183)"/>
<path d="M205.669 222.245H215.762" stroke="#E8F1FF" stroke-width="1.42" stroke-miterlimit="10"/>
<path d="M212.236 232.562H222.33" stroke="#E8F1FF" stroke-width="1.42" stroke-miterlimit="10"/>
<path d="M215.762 245.341H225.868" stroke="#E8F1FF" stroke-width="1.42" stroke-miterlimit="10"/>
<path d="M215.166 258.268H225.26" stroke="#E8F1FF" stroke-width="1.42" stroke-miterlimit="10"/>
<path d="M210.722 270.094H220.815" stroke="#E8F1FF" stroke-width="1.42" stroke-miterlimit="10"/>
<path d="M200.628 282.575H210.722" stroke="#E8F1FF" stroke-width="1.42" stroke-miterlimit="10"/>
<path d="M172.42 293.201C196.357 293.201 215.762 273.867 215.762 250.017C215.762 226.166 196.357 206.832 172.42 206.832C148.483 206.832 129.078 226.166 129.078 250.017C129.078 273.867 148.483 293.201 172.42 293.201Z" stroke="#E8F1FF" stroke-width="1.42" stroke-miterlimit="10"/>
<path d="M172.42 287.053C192.95 287.053 209.592 270.471 209.592 250.016C209.592 229.561 192.95 212.979 172.42 212.979C151.891 212.979 135.249 229.561 135.249 250.016C135.249 270.471 151.891 287.053 172.42 287.053Z" stroke="#E8F1FF" stroke-width="1.42" stroke-miterlimit="10"/>
<path d="M177.101 244.87V239.452H189.529V231.288H155.448V239.452H167.876V244.87C157.782 245.34 150.209 247.332 150.209 249.719C150.209 252.107 157.795 254.099 167.876 254.569V271.751H177.088V254.556C187.108 254.074 194.619 252.095 194.619 249.707C194.619 247.32 187.108 245.34 177.088 244.858L177.101 244.87ZM172.433 253.121C161.408 253.121 152.469 251.427 152.469 249.336C152.469 247.542 159.061 246.045 167.901 245.65V251.439C169.341 251.526 170.856 251.563 172.433 251.563C174.009 251.563 175.623 251.513 177.101 251.427V245.65C185.866 246.045 192.384 247.542 192.384 249.324C192.384 251.414 183.445 253.109 172.42 253.109L172.433 253.121Z" stroke="url(#paint28_linear_0_7183)" stroke-width="1.18" stroke-linecap="round" stroke-linejoin="round"/>
<path opacity="0.8" d="M-46.6362 181.757L355.05 267.595" stroke="url(#paint29_linear_0_7183)" stroke-miterlimit="10"/>
<path d="M355.05 269.623C356.174 269.623 357.086 268.715 357.086 267.595C357.086 266.474 356.174 265.566 355.05 265.566C353.925 265.566 353.014 266.474 353.014 267.595C353.014 268.715 353.925 269.623 355.05 269.623Z" fill="#197CE1"/>
<path d="M393.997 322.16C395.122 322.16 396.033 321.252 396.033 320.132C396.033 319.011 395.122 318.103 393.997 318.103C392.873 318.103 391.961 319.011 391.961 320.132C391.961 321.252 392.873 322.16 393.997 322.16Z" fill="#197CE1"/>
<path d="M413.8 371.394C414.924 371.394 415.836 370.486 415.836 369.366C415.836 368.245 414.924 367.337 413.8 367.337C412.675 367.337 411.764 368.245 411.764 369.366C411.764 370.486 412.675 371.394 413.8 371.394Z" fill="#197CE1"/>
<path d="M419.56 238.413C420.685 238.413 421.596 237.505 421.596 236.384C421.596 235.264 420.685 234.355 419.56 234.355C418.436 234.355 417.524 235.264 417.524 236.384C417.524 237.505 418.436 238.413 419.56 238.413Z" fill="#197CE1"/>
<g opacity="0.8">
<path d="M483.089 160.628L470.699 92.3808C496.523 87.7296 522.769 87.6677 548.704 92.1829L536.711 160.504C518.87 157.387 500.831 157.437 483.089 160.628Z" stroke="url(#paint30_linear_0_7183)" stroke-miterlimit="10"/>
</g>
<path d="M608.237 570.223C636.089 570.223 658.668 547.726 658.668 519.975C658.668 492.224 636.089 469.727 608.237 469.727C580.384 469.727 557.805 492.224 557.805 519.975C557.805 547.726 580.384 570.223 608.237 570.223Z" fill="url(#paint31_linear_0_7183)"/>
<path d="M597.199 469.727H608.944C636.792 469.727 659.375 492.228 659.375 519.975C659.375 547.722 636.792 570.223 608.944 570.223H597.199" stroke="#E8F1FF" stroke-width="1.65" stroke-miterlimit="10"/>
<path d="M597.199 570.223C625.052 570.223 647.63 547.726 647.63 519.975C647.63 492.224 625.052 469.727 597.199 469.727C569.347 469.727 546.768 492.224 546.768 519.975C546.768 547.726 569.347 570.223 597.199 570.223Z" fill="url(#paint32_linear_0_7183)"/>
<path d="M593.388 530.391L598.23 512.021H606.97L610.471 501.197H601.085L604.648 487.664H592.804L589.316 501.197H578.452L575.733 512.021H586.535L578.452 543.343H622.688L627.381 530.391H593.388Z" stroke="#E8F1FF" stroke-width="1.65" stroke-miterlimit="10"/>
<path d="M626.388 478.992H638.133" stroke="#E8F1FF" stroke-width="1.65" stroke-miterlimit="10"/>
<path d="M635.885 487.664H647.63" stroke="#E8F1FF" stroke-width="1.65" stroke-miterlimit="10"/>
<path d="M643.509 499.663H655.266" stroke="#E8F1FF" stroke-width="1.65" stroke-miterlimit="10"/>
<path d="M647.63 514.532H659.375" stroke="#E8F1FF" stroke-width="1.65" stroke-miterlimit="10"/>
<path d="M646.923 529.574H658.668" stroke="#E8F1FF" stroke-width="1.65" stroke-miterlimit="10"/>
<path d="M641.758 543.343H653.503" stroke="#E8F1FF" stroke-width="1.65" stroke-miterlimit="10"/>
<path d="M630.013 557.853H641.758" stroke="#E8F1FF" stroke-width="1.65" stroke-miterlimit="10"/>
<path d="M597.199 570.223C625.052 570.223 647.63 547.726 647.63 519.975C647.63 492.224 625.052 469.727 597.199 469.727C569.347 469.727 546.768 492.224 546.768 519.975C546.768 547.726 569.347 570.223 597.199 570.223Z" stroke="#E8F1FF" stroke-width="1.65" stroke-miterlimit="10"/>
<path d="M597.199 563.073C621.088 563.073 640.454 543.778 640.454 519.975C640.454 496.173 621.088 476.877 597.199 476.877C573.31 476.877 553.944 496.173 553.944 519.975C553.944 543.778 573.31 563.073 597.199 563.073Z" stroke="#E8F1FF" stroke-width="1.65" stroke-miterlimit="10"/>
<path d="M534.017 417.511H683.746" stroke="url(#paint33_linear_0_7183)" stroke-width="1.66" stroke-miterlimit="10"/>
<path d="M534.017 431.886H644.824" stroke="url(#paint34_linear_0_7183)" stroke-width="1.66" stroke-miterlimit="10"/>
<path d="M534.017 446.26H608.882" stroke="url(#paint35_linear_0_7183)" stroke-width="1.66" stroke-miterlimit="10"/>
<path d="M534.017 460.634H584.908" stroke="url(#paint36_linear_0_7183)" stroke-width="1.66" stroke-miterlimit="10"/>
<path d="M455.403 488.69C467.163 488.69 476.695 479.192 476.695 467.475C476.695 455.758 467.163 446.26 455.403 446.26C443.644 446.26 434.111 455.758 434.111 467.475C434.111 479.192 443.644 488.69 455.403 488.69Z" fill="#9DC1ED"/>
<path d="M450.747 446.26H455.701C467.458 446.26 476.993 455.76 476.993 467.475C476.993 479.19 467.458 488.69 455.701 488.69H450.747" stroke="#E8F1FF" stroke-width="0.7" stroke-miterlimit="10"/>
<path d="M450.747 488.69C462.507 488.69 472.04 479.192 472.04 467.475C472.04 455.758 462.507 446.26 450.747 446.26C438.988 446.26 429.455 455.758 429.455 467.475C429.455 479.192 438.988 488.69 450.747 488.69Z" fill="url(#paint37_linear_0_7183)"/>
<path d="M450.747 488.69C462.507 488.69 472.04 479.192 472.04 467.475C472.04 455.758 462.507 446.26 450.747 446.26C438.988 446.26 429.455 455.758 429.455 467.475C429.455 479.192 438.988 488.69 450.747 488.69Z" stroke="#E8F1FF" stroke-width="0.7" stroke-miterlimit="10"/>
<path d="M450.747 485.672C460.834 485.672 469.01 477.525 469.01 467.475C469.01 457.425 460.834 449.278 450.747 449.278C440.661 449.278 432.484 457.425 432.484 467.475C432.484 477.525 440.661 485.672 450.747 485.672Z" stroke="#E8F1FF" stroke-width="0.7" stroke-miterlimit="10"/>
<path d="M222.901 424.352C232.987 424.352 241.164 416.205 241.164 406.155C241.164 396.106 232.987 387.958 222.901 387.958C212.815 387.958 204.638 396.106 204.638 406.155C204.638 416.205 212.815 424.352 222.901 424.352Z" fill="#9DC1ED"/>
<path d="M218.891 387.958H223.149C233.231 387.958 241.412 396.111 241.412 406.155C241.412 416.2 233.231 424.352 223.149 424.352H218.891" stroke="#E8F1FF" stroke-width="0.6" stroke-miterlimit="10"/>
<path d="M218.891 424.352C228.977 424.352 237.154 416.205 237.154 406.155C237.154 396.106 228.977 387.958 218.891 387.958C208.805 387.958 200.628 396.106 200.628 406.155C200.628 416.205 208.805 424.352 218.891 424.352Z" fill="url(#paint38_linear_0_7183)"/>
<path d="M218.891 424.352C228.977 424.352 237.154 416.205 237.154 406.155C237.154 396.106 228.977 387.958 218.891 387.958C208.805 387.958 200.628 396.106 200.628 406.155C200.628 416.205 208.805 424.352 218.891 424.352Z" stroke="#E8F1FF" stroke-width="0.6" stroke-miterlimit="10"/>
<path d="M218.891 421.767C227.544 421.767 234.559 414.777 234.559 406.155C234.559 397.533 227.544 390.544 218.891 390.544C210.238 390.544 203.223 397.533 203.223 406.155C203.223 414.777 210.238 421.767 218.891 421.767Z" stroke="#E8F1FF" stroke-width="0.6" stroke-miterlimit="10"/>
<path d="M376.653 122.676C386.739 122.676 394.916 114.529 394.916 104.479C394.916 94.429 386.739 86.282 376.653 86.282C366.566 86.282 358.39 94.429 358.39 104.479C358.39 114.529 366.566 122.676 376.653 122.676Z" fill="#9DC1ED"/>
<path d="M372.655 86.2695H376.913C386.995 86.2695 395.177 94.4216 395.177 104.466C395.177 114.511 386.995 122.663 376.913 122.663H372.655" stroke="#E8F1FF" stroke-width="0.6" stroke-miterlimit="10"/>
<path d="M372.655 122.675C382.741 122.675 390.918 114.528 390.918 104.479C390.918 94.4287 382.741 86.2817 372.655 86.2817C362.569 86.2817 354.392 94.4287 354.392 104.479C354.392 114.528 362.569 122.675 372.655 122.675Z" fill="url(#paint39_linear_0_7183)"/>
<path d="M372.655 122.675C382.741 122.675 390.918 114.528 390.918 104.479C390.918 94.4287 382.741 86.2817 372.655 86.2817C362.569 86.2817 354.392 94.4287 354.392 104.479C354.392 114.528 362.569 122.675 372.655 122.675Z" stroke="#E8F1FF" stroke-width="0.6" stroke-miterlimit="10"/>
<path d="M372.655 120.09C381.308 120.09 388.323 113.101 388.323 104.479C388.323 95.8569 381.308 88.8674 372.655 88.8674C364.002 88.8674 356.987 95.8569 356.987 104.479C356.987 113.101 364.002 120.09 372.655 120.09Z" stroke="#E8F1FF" stroke-width="0.6" stroke-miterlimit="10"/>
<path d="M655.378 272.048C665.464 272.048 673.641 263.901 673.641 253.851C673.641 243.801 665.464 235.654 655.378 235.654C645.291 235.654 637.115 243.801 637.115 253.851C637.115 263.901 645.291 272.048 655.378 272.048Z" fill="#9DC1ED"/>
<path d="M651.38 235.654H655.638C665.72 235.654 673.901 243.806 673.901 253.851C673.901 263.896 665.72 272.048 655.638 272.048H651.38" stroke="#E8F1FF" stroke-width="0.6" stroke-miterlimit="10"/>
<path d="M651.38 272.048C661.466 272.048 669.643 263.901 669.643 253.851C669.643 243.801 661.466 235.654 651.38 235.654C641.294 235.654 633.117 243.801 633.117 253.851C633.117 263.901 641.294 272.048 651.38 272.048Z" fill="url(#paint40_linear_0_7183)"/>
<path d="M651.38 272.048C661.466 272.048 669.643 263.901 669.643 253.851C669.643 243.801 661.466 235.654 651.38 235.654C641.294 235.654 633.117 243.801 633.117 253.851C633.117 263.901 641.294 272.048 651.38 272.048Z" stroke="#E8F1FF" stroke-width="0.6" stroke-miterlimit="10"/>
<path d="M651.38 269.463C660.033 269.463 667.048 262.473 667.048 253.851C667.048 245.229 660.033 238.24 651.38 238.24C642.727 238.24 635.712 245.229 635.712 253.851C635.712 262.473 642.727 269.463 651.38 269.463Z" stroke="#E8F1FF" stroke-width="0.6" stroke-miterlimit="10"/>
<path d="M744.793 417.338C754.879 417.338 763.056 409.191 763.056 399.141C763.056 389.091 754.879 380.944 744.793 380.944C734.707 380.944 726.53 389.091 726.53 399.141C726.53 409.191 734.707 417.338 744.793 417.338Z" fill="#9DC1ED"/>
<path d="M740.795 380.944H745.054C755.135 380.944 763.317 389.096 763.317 399.141C763.317 409.186 755.135 417.338 745.054 417.338H740.795" stroke="#E8F1FF" stroke-width="0.6" stroke-miterlimit="10"/>
<path d="M740.795 417.338C750.882 417.338 759.058 409.191 759.058 399.141C759.058 389.091 750.882 380.944 740.795 380.944C730.709 380.944 722.532 389.091 722.532 399.141C722.532 409.191 730.709 417.338 740.795 417.338Z" fill="url(#paint41_linear_0_7183)"/>
<path d="M740.795 417.338C750.882 417.338 759.058 409.191 759.058 399.141C759.058 389.091 750.882 380.944 740.795 380.944C730.709 380.944 722.532 389.091 722.532 399.141C722.532 409.191 730.709 417.338 740.795 417.338Z" stroke="#E8F1FF" stroke-width="0.6" stroke-miterlimit="10"/>
<path d="M740.795 414.753C749.448 414.753 756.463 407.763 756.463 399.141C756.463 390.519 749.448 383.53 740.795 383.53C732.142 383.53 725.127 390.519 725.127 399.141C725.127 407.763 732.142 414.753 740.795 414.753Z" stroke="#E8F1FF" stroke-width="0.6" stroke-miterlimit="10"/>
<path d="M390.458 126.721L460.605 240.479" stroke="url(#paint42_linear_0_7183)" stroke-width="0.61" stroke-miterlimit="10"/>
<path d="M553.944 257.946L632.036 193.83" stroke="url(#paint43_linear_0_7183)" stroke-width="0.61" stroke-miterlimit="10"/>
<path d="M568.396 282.575L628.473 261.137" stroke="url(#paint44_linear_0_7183)" stroke-width="0.61" stroke-miterlimit="10"/>
<path d="M568.396 320.54L613.898 329.385" stroke="url(#paint45_linear_0_7183)" stroke-width="0.61" stroke-miterlimit="10"/>
<path d="M531.187 371.196L571.45 467.475" stroke="url(#paint46_linear_0_7183)" stroke-width="0.61" stroke-miterlimit="10"/>
<path d="M439.549 352.369L332.28 445.208" stroke="url(#paint47_linear_0_7183)" stroke-width="0.61" stroke-miterlimit="10"/>
<path d="M476.696 375.613L460.605 441.077" stroke="url(#paint48_linear_0_7183)" stroke-width="0.61" stroke-miterlimit="10"/>
</g>
<defs>
<linearGradient id="paint0_linear_0_7183" x1="230.04" y1="306.153" x2="766.781" y2="306.153" gradientUnits="userSpaceOnUse">
<stop stop-color="#BFC8FF" stop-opacity="0.8"/>
<stop offset="1" stop-color="#D4E0FF" stop-opacity="0.8"/>
</linearGradient>
<linearGradient id="paint1_linear_0_7183" x1="362.214" y1="305.374" x2="634.607" y2="305.374" gradientUnits="userSpaceOnUse">
<stop stop-color="#D4E0FF" stop-opacity="0.8"/>
<stop offset="1" stop-color="#D4E0FF" stop-opacity="0.8"/>
</linearGradient>
<linearGradient id="paint2_linear_0_7183" x1="473.393" y1="458.519" x2="782.536" y2="458.519" gradientUnits="userSpaceOnUse">
<stop stop-color="#9FBDFF" stop-opacity="0"/>
<stop offset="1" stop-color="#197CE1"/>
</linearGradient>
<linearGradient id="paint3_linear_0_7183" x1="12.7339" y1="189.921" x2="440.852" y2="428.094" gradientUnits="userSpaceOnUse">
<stop stop-color="#9FBDFF" stop-opacity="0"/>
<stop offset="1" stop-color="#197CE1"/>
</linearGradient>
<linearGradient id="paint4_linear_0_7183" x1="134.628" y1="178.305" x2="338.488" y2="178.305" gradientUnits="userSpaceOnUse">
<stop stop-color="#9FBDFF" stop-opacity="0"/>
<stop offset="1" stop-color="#197CE1"/>
</linearGradient>
<linearGradient id="paint5_linear_0_7183" x1="593.686" y1="348.064" x2="717.616" y2="348.064" gradientUnits="userSpaceOnUse">
<stop stop-color="#197CE1"/>
<stop offset="1" stop-color="#9FBDFF"/>
</linearGradient>
<linearGradient id="paint6_linear_0_7183" x1="428.597" y1="150.621" x2="304.267" y2="148.355" gradientUnits="userSpaceOnUse">
<stop stop-color="#94C8FF"/>
<stop offset="1" stop-color="white" stop-opacity="0"/>
</linearGradient>
<linearGradient id="paint7_linear_0_7183" x1="428.052" y1="97.7246" x2="456.62" y2="97.7246" gradientUnits="userSpaceOnUse">
<stop stop-color="#1B44C0"/>
<stop offset="0.31" stop-color="#1A47C1"/>
<stop offset="0.55" stop-color="#1A51C7"/>
<stop offset="0.77" stop-color="#1961D1"/>
<stop offset="0.98" stop-color="#1979DF"/>
<stop offset="1" stop-color="#197CE1"/>
</linearGradient>
<linearGradient id="paint8_linear_0_7183" x1="263.226" y1="260.89" x2="385.17" y2="260.89" gradientUnits="userSpaceOnUse">
<stop stop-color="#197CE1"/>
<stop offset="1" stop-color="#9FBDFF"/>
</linearGradient>
<linearGradient id="paint9_linear_0_7183" x1="326.768" y1="317.892" x2="756.451" y2="317.892" gradientUnits="userSpaceOnUse">
<stop stop-color="#197CE1"/>
<stop offset="1" stop-color="#9FBDFF"/>
</linearGradient>
<linearGradient id="paint10_linear_0_7183" x1="204.352" y1="157.189" x2="419.933" y2="157.189" gradientUnits="userSpaceOnUse">
<stop stop-color="#9FBDFF" stop-opacity="0"/>
<stop offset="1" stop-color="#197CE1"/>
</linearGradient>
<linearGradient id="paint11_linear_0_7183" x1="158.664" y1="422.422" x2="414.035" y2="422.422" gradientUnits="userSpaceOnUse">
<stop stop-color="#9FBDFF" stop-opacity="0"/>
<stop offset="1" stop-color="#197CE1"/>
</linearGradient>
<linearGradient id="paint12_linear_0_7183" gradientUnits="userSpaceOnUse">
<stop stop-color="#9FBDFF" stop-opacity="0"/>
<stop offset="1" stop-color="#197CE1"/>
</linearGradient>
<linearGradient id="paint13_linear_0_7183" x1="443.062" y1="193.83" x2="527.102" y2="193.83" gradientUnits="userSpaceOnUse">
<stop stop-color="#197CE1"/>
<stop offset="1" stop-color="#9FBDFF" stop-opacity="0"/>
</linearGradient>
<linearGradient id="paint14_linear_0_7183" x1="-316.173" y1="209.108" x2="-314.932" y2="209.108" gradientUnits="userSpaceOnUse">
<stop stop-color="#197CE1"/>
<stop offset="1" stop-color="#9FBDFF" stop-opacity="0"/>
</linearGradient>
<linearGradient id="paint15_linear_0_7183" x1="545.916" y1="260.61" x2="476.752" y2="330.025" gradientUnits="userSpaceOnUse">
<stop stop-color="#F37435"/>
<stop offset="1" stop-color="#F9B471"/>
</linearGradient>
<linearGradient id="paint16_linear_0_7183" x1="641.41" y1="170.896" x2="754.743" y2="127.237" gradientUnits="userSpaceOnUse">
<stop stop-color="#94C8FF"/>
<stop offset="1" stop-color="white"/>
</linearGradient>
<linearGradient id="paint17_linear_0_7183" x1="637.388" y1="149.198" x2="758.872" y2="149.198" gradientUnits="userSpaceOnUse">
<stop stop-color="#4D75D5"/>
<stop offset="0.04" stop-color="#4D75D4" stop-opacity="0.94"/>
<stop offset="0.23" stop-color="#4D75D4" stop-opacity="0.66"/>
<stop offset="0.42" stop-color="#4D75D4" stop-opacity="0.42"/>
<stop offset="0.6" stop-color="#4D75D4" stop-opacity="0.24"/>
<stop offset="0.76" stop-color="#4D75D4" stop-opacity="0.11"/>
<stop offset="0.9" stop-color="#4D75D4" stop-opacity="0.03"/>
<stop offset="1" stop-color="#4E75D4" stop-opacity="0"/>
</linearGradient>
<linearGradient id="paint18_linear_0_7183" x1="291.496" y1="237.535" x2="357.571" y2="212.077" gradientUnits="userSpaceOnUse">
<stop stop-color="#94C8FF"/>
<stop offset="1" stop-color="white"/>
</linearGradient>
<linearGradient id="paint19_linear_0_7183" x1="289.162" y1="224.88" x2="359.979" y2="224.88" gradientUnits="userSpaceOnUse">
<stop stop-color="#4D75D5"/>
<stop offset="0.04" stop-color="#4D75D4" stop-opacity="0.94"/>
<stop offset="0.23" stop-color="#4D75D4" stop-opacity="0.66"/>
<stop offset="0.42" stop-color="#4D75D4" stop-opacity="0.42"/>
<stop offset="0.6" stop-color="#4D75D4" stop-opacity="0.24"/>
<stop offset="0.76" stop-color="#4D75D4" stop-opacity="0.11"/>
<stop offset="0.9" stop-color="#4D75D4" stop-opacity="0.03"/>
<stop offset="1" stop-color="#4E75D4" stop-opacity="0"/>
</linearGradient>
<linearGradient id="paint20_linear_0_7183" x1="424.439" y1="65.5989" x2="478.127" y2="11.7166" gradientUnits="userSpaceOnUse">
<stop stop-color="#4D75D5"/>
<stop offset="0.49" stop-color="#A1B6E8"/>
<stop offset="1" stop-color="white"/>
</linearGradient>
<linearGradient id="paint21_linear_0_7183" x1="415.563" y1="65.5989" x2="469.25" y2="11.7166" gradientUnits="userSpaceOnUse">
<stop stop-color="#1A44C0"/>
<stop offset="0.41" stop-color="#1962D2"/>
<stop offset="0.76" stop-color="#1975DD"/>
<stop offset="1" stop-color="#197CE1"/>
</linearGradient>
<linearGradient id="paint22_linear_0_7183" x1="644.564" y1="370.763" x2="704.856" y2="310.251" gradientUnits="userSpaceOnUse">
<stop stop-color="#4D75D5"/>
<stop offset="0.49" stop-color="#A1B6E8"/>
<stop offset="1" stop-color="white"/>
</linearGradient>
<linearGradient id="paint23_linear_0_7183" x1="622.663" y1="340.617" x2="708.242" y2="340.617" gradientUnits="userSpaceOnUse">
<stop stop-color="#197CE1"/>
<stop offset="1" stop-color="#197CE1" stop-opacity="0"/>
</linearGradient>
<linearGradient id="paint24_linear_0_7183" x1="275.542" y1="513.703" x2="334.375" y2="454.656" gradientUnits="userSpaceOnUse">
<stop stop-color="#4D75D5"/>
<stop offset="0.49" stop-color="#A1B6E8"/>
<stop offset="1" stop-color="white"/>
</linearGradient>
<linearGradient id="paint25_linear_0_7183" x1="254.163" y1="484.287" x2="337.669" y2="484.287" gradientUnits="userSpaceOnUse">
<stop stop-color="#F37435"/>
<stop offset="1" stop-color="#F9B471"/>
</linearGradient>
<linearGradient id="paint26_linear_0_7183" x1="151.264" y1="280.547" x2="212.337" y2="219.252" gradientUnits="userSpaceOnUse">
<stop stop-color="#4D75D5"/>
<stop offset="0.49" stop-color="#A1B6E8"/>
<stop offset="1" stop-color="white"/>
</linearGradient>
<linearGradient id="paint27_linear_0_7183" x1="141.779" y1="280.547" x2="202.851" y2="219.252" gradientUnits="userSpaceOnUse">
<stop stop-color="#D4E0FF" stop-opacity="0.8"/>
<stop offset="1" stop-color="#D4E0FF" stop-opacity="0.8"/>
</linearGradient>
<linearGradient id="paint28_linear_0_7183" x1="149.489" y1="251.513" x2="195.364" y2="251.513" gradientUnits="userSpaceOnUse">
<stop stop-color="#197CE1"/>
<stop offset="1" stop-color="#9FBDFF"/>
</linearGradient>
<linearGradient id="paint29_linear_0_7183" x1="-46.7728" y1="224.682" x2="355.174" y2="224.682" gradientUnits="userSpaceOnUse">
<stop stop-color="#9FBDFF" stop-opacity="0"/>
<stop offset="1" stop-color="#197CE1"/>
</linearGradient>
<linearGradient id="paint30_linear_0_7183" x1="468.892" y1="123.878" x2="548.245" y2="126.492" gradientUnits="userSpaceOnUse">
<stop stop-color="#9FBDFF" stop-opacity="0"/>
<stop offset="1" stop-color="#197CE1"/>
</linearGradient>
<linearGradient id="paint31_linear_0_7183" x1="572.58" y1="555.503" x2="643.647" y2="484.177" gradientUnits="userSpaceOnUse">
<stop stop-color="#4D75D5"/>
<stop offset="0.49" stop-color="#A1B6E8"/>
<stop offset="1" stop-color="white"/>
</linearGradient>
<linearGradient id="paint32_linear_0_7183" x1="561.542" y1="555.503" x2="632.597" y2="484.177" gradientUnits="userSpaceOnUse">
<stop stop-color="#AFCAFF"/>
<stop offset="0.15" stop-color="#A8C4FB"/>
<stop offset="0.36" stop-color="#95B3F3"/>
<stop offset="0.62" stop-color="#7599E4"/>
<stop offset="0.9" stop-color="#4A74D0"/>
<stop offset="1" stop-color="#3A66C9"/>
</linearGradient>
<linearGradient id="paint33_linear_0_7183" gradientUnits="userSpaceOnUse">
<stop stop-color="#197CE1"/>
<stop offset="1" stop-color="#9FBDFF" stop-opacity="0"/>
</linearGradient>
<linearGradient id="paint34_linear_0_7183" gradientUnits="userSpaceOnUse">
<stop stop-color="#197CE1"/>
<stop offset="1" stop-color="#9FBDFF" stop-opacity="0"/>
</linearGradient>
<linearGradient id="paint35_linear_0_7183" gradientUnits="userSpaceOnUse">
<stop stop-color="#197CE1"/>
<stop offset="1" stop-color="#9FBDFF" stop-opacity="0"/>
</linearGradient>
<linearGradient id="paint36_linear_0_7183" gradientUnits="userSpaceOnUse">
<stop stop-color="#197CE1"/>
<stop offset="1" stop-color="#9FBDFF" stop-opacity="0"/>
</linearGradient>
<linearGradient id="paint37_linear_0_7183" x1="435.688" y1="482.48" x2="465.685" y2="452.361" gradientUnits="userSpaceOnUse">
<stop stop-color="#D4E0FF"/>
<stop offset="1" stop-color="#D4E0FF"/>
</linearGradient>
<linearGradient id="paint38_linear_0_7183" x1="205.979" y1="419.02" x2="231.722" y2="393.197" gradientUnits="userSpaceOnUse">
<stop stop-color="#D4E0FF"/>
<stop offset="1" stop-color="#D4E0FF"/>
</linearGradient>
<linearGradient id="paint39_linear_0_7183" x1="359.743" y1="117.344" x2="385.473" y2="91.5076" gradientUnits="userSpaceOnUse">
<stop stop-color="#D4E0FF"/>
<stop offset="1" stop-color="#D4E0FF"/>
</linearGradient>
<linearGradient id="paint40_linear_0_7183" x1="638.468" y1="266.716" x2="664.198" y2="240.893" gradientUnits="userSpaceOnUse">
<stop stop-color="#D4E0FF"/>
<stop offset="1" stop-color="#D4E0FF"/>
</linearGradient>
<linearGradient id="paint41_linear_0_7183" x1="727.883" y1="412.006" x2="753.626" y2="386.183" gradientUnits="userSpaceOnUse">
<stop stop-color="#D4E0FF"/>
<stop offset="1" stop-color="#D4E0FF"/>
</linearGradient>
<linearGradient id="paint42_linear_0_7183" x1="390.136" y1="183.6" x2="460.928" y2="183.6" gradientUnits="userSpaceOnUse">
<stop stop-color="white" stop-opacity="0"/>
<stop offset="0.34" stop-color="white" stop-opacity="0.33"/>
<stop offset="1" stop-color="white"/>
</linearGradient>
<linearGradient id="paint43_linear_0_7183" x1="553.708" y1="225.882" x2="632.272" y2="225.882" gradientUnits="userSpaceOnUse">
<stop stop-color="white" stop-opacity="0"/>
<stop offset="0.34" stop-color="white" stop-opacity="0.33"/>
<stop offset="1" stop-color="white"/>
</linearGradient>
<linearGradient id="paint44_linear_0_7183" x1="568.271" y1="271.862" x2="628.598" y2="271.862" gradientUnits="userSpaceOnUse">
<stop stop-color="white" stop-opacity="0"/>
<stop offset="0.34" stop-color="white" stop-opacity="0.33"/>
<stop offset="1" stop-color="white"/>
</linearGradient>
<linearGradient id="paint45_linear_0_7183" x1="568.321" y1="324.969" x2="613.972" y2="324.969" gradientUnits="userSpaceOnUse">
<stop stop-color="white" stop-opacity="0"/>
<stop offset="0.34" stop-color="white" stop-opacity="0.33"/>
<stop offset="1" stop-color="white"/>
</linearGradient>
<linearGradient id="paint46_linear_0_7183" x1="530.839" y1="419.329" x2="571.797" y2="419.329" gradientUnits="userSpaceOnUse">
<stop stop-color="white" stop-opacity="0"/>
<stop offset="0.34" stop-color="white" stop-opacity="0.33"/>
<stop offset="1" stop-color="white"/>
</linearGradient>
<linearGradient id="paint47_linear_0_7183" x1="332.032" y1="398.795" x2="439.797" y2="398.795" gradientUnits="userSpaceOnUse">
<stop stop-color="white" stop-opacity="0"/>
<stop offset="0.34" stop-color="white" stop-opacity="0.33"/>
<stop offset="1" stop-color="white"/>
</linearGradient>
<linearGradient id="paint48_linear_0_7183" x1="460.245" y1="408.345" x2="477.068" y2="408.345" gradientUnits="userSpaceOnUse">
<stop stop-color="white" stop-opacity="0"/>
<stop offset="0.34" stop-color="white" stop-opacity="0.33"/>
<stop offset="1" stop-color="white"/>
</linearGradient>
<clipPath id="clip0_0_7183">
<rect width="783" height="573" fill="white" transform="translate(0 0.930176)"/>
</clipPath>
</defs>
</svg>
