<svg width="48" height="36" viewBox="0 0 48 36" fill="none" xmlns="http://www.w3.org/2000/svg">
<path d="M0.000427246 15.0749L10.4278 2.90716H19.232L8.80468 15.0792H0.000427246V15.0749ZM6.68649 25.3131L21.94 7.51071C23.0637 6.13735 24.3165 4.87522 25.6813 3.73716C27.2829 2.42798 29.1556 1.47817 31.1748 0.964763C33.7924 0.284497 36.5564 0.352952 39.1395 1.15729C41.6969 1.94879 43.927 3.5318 45.507 5.66245C47.5133 8.46052 48.3571 11.9046 47.862 15.2931C47.6338 16.9617 47.0741 18.5747 46.2131 20.0293C45.3477 21.484 44.2025 22.7546 42.8334 23.7729C41.2706 24.911 39.4624 25.6854 37.5466 26.0276C36.466 26.2501 35.3638 26.3742 34.2574 26.387H29.9564L22.1639 35.5H13.3855L25.8578 20.9235L26.8782 19.7298H32.673C34.7094 19.7298 36.862 19.7298 38.6229 18.6046H38.6573C39.484 18.0441 40.1642 17.2954 40.6421 16.4226C41.1199 15.5498 41.3783 14.5829 41.4041 13.5946C41.4256 12.6063 41.2104 11.6265 40.7755 10.7323C40.3407 9.84244 39.6949 9.06377 38.8941 8.4648L38.808 8.4049L38.7607 8.37067L38.6961 8.32361C37.6887 7.62623 36.4961 7.23262 35.2648 7.19839H35.1959C34.3994 7.16416 33.603 7.24545 32.8323 7.44226C31.756 7.72463 30.7529 8.23804 29.8961 8.94825C28.8543 9.83388 27.8985 10.8094 27.0374 11.8661L15.4477 25.3859L6.6908 25.326L6.68649 25.3131Z" fill="#FF6600"/>
</svg>
