<svg width="260" height="44" viewBox="0 0 260 44" fill="none" xmlns="http://www.w3.org/2000/svg">
<g clip-path="url(#clip0_0_1358)">
<path d="M0 18.2694L13.5258 3.01447H24.9462L11.4204 18.2747H0V18.2694ZM8.67281 31.1052L28.4589 8.78601C29.9164 7.0642 31.5415 5.48186 33.3119 4.05506C35.3893 2.41371 37.8186 1.22293 40.4377 0.579262C43.8331 -0.273597 47.4184 -0.187775 50.7692 0.820637C54.0864 1.81296 56.9792 3.7976 59.0287 6.46881C61.6311 9.9768 62.7257 14.2947 62.0835 18.5429C61.7875 20.6348 61.0615 22.657 59.9446 24.4808C58.8221 26.3045 57.3366 27.8976 55.5607 29.1742C53.5335 30.601 51.188 31.5718 48.7029 32.0009C47.3012 32.2799 45.8715 32.4354 44.4363 32.4515H38.8573L28.7493 43.8766H17.3624L33.5408 25.6018L34.8644 24.1053H42.3812C45.0227 24.1053 47.8149 24.1053 50.099 22.6946H50.1437C51.2159 21.9919 52.0983 21.0532 52.7182 19.959C53.3381 18.8648 53.6731 17.6525 53.7066 16.4135C53.7346 15.1744 53.4553 13.9461 52.8913 12.825C52.3272 11.7093 51.4896 10.7331 50.4508 9.98216L50.3391 9.90707L50.2777 9.86416L50.194 9.80515C48.8872 8.93084 47.3402 8.43736 45.7431 8.39445H45.6537C44.6206 8.35154 43.5874 8.45345 42.5878 8.70019C41.1917 9.05421 39.8905 9.69788 38.7791 10.5883C37.4277 11.6986 36.1879 12.9216 35.071 14.2465L20.0374 31.1964L8.67839 31.1213L8.67281 31.1052Z" fill="#FF6600"/>
<path fill-rule="evenodd" clip-rule="evenodd" d="M151.503 22.6249C148.761 25.634 143.372 24.8777 139.647 24.9635C137.157 24.9635 133.058 24.0034 133.616 20.9352C133.616 20.7636 133.878 19.2027 133.89 19.0793H138.469C139.815 19.0793 139.435 19.4602 139.273 20.5812C139.145 21.89 140.82 22.3567 141.937 22.3352C143.233 22.3352 144.958 22.5122 146.025 21.654C146.248 21.4984 146.427 21.2893 146.55 21.0532C146.706 20.8762 147.036 18.2211 147.103 17.9529V17.9207C146.974 15.448 142.551 16.3169 140.887 16.1667C139.524 16.1936 138.173 15.9254 136.933 15.3836C135.861 14.8633 134.783 13.871 134.923 12.6534C134.923 12.6051 135.174 10.0197 135.174 9.97681C135.263 9.56915 135.437 9.17759 135.682 8.8343C135.928 8.49101 136.241 8.19063 136.609 7.96535C139.368 5.80906 143.903 6.30791 147.231 6.265C148.778 6.21672 150.308 6.58683 151.643 7.32705C151.799 7.4236 151.945 7.53087 152.09 7.64352C152.419 7.89562 152.704 8.20136 152.922 8.54465C153.112 8.8343 153.218 9.1615 153.235 9.49942C153.251 9.83735 153.173 10.1753 153.017 10.4757H148.398C147.427 10.4757 147.683 10.3684 147.203 9.71398C146.924 9.4136 146.572 9.17759 146.181 9.03276C145.79 8.88257 145.366 8.82357 144.947 8.85576C143.646 8.81284 142.038 8.85576 141.144 9.88562C140.736 10.186 140.708 11.2051 140.619 11.6503C140.418 12.9216 141.652 13.2971 143.221 13.2702C145.148 13.3131 148.091 13.0664 149.895 13.7423L150.113 13.8174C150.113 13.8174 152.012 14.697 152.536 15.566C153.251 16.4725 152.252 20.136 152.207 21.3053C152.106 21.8096 151.872 22.2762 151.526 22.6678V22.6249H151.503ZM103.912 15.2817C103.51 15.4265 103.102 15.5392 102.678 15.6143C100.701 16.1077 97.5342 15.1851 96.6798 17.5453C96.6798 17.8778 96.1939 20.7368 96.3 21.0103C96.5848 22.0617 97.9307 22.3728 98.9527 22.3728H101.818C102.303 22.3245 102.778 22.1904 103.214 21.9758C103.487 21.8525 103.733 21.6808 103.929 21.4663C104.118 21.2624 104.247 21.0103 104.292 20.7421C104.342 20.3613 105.062 15.0242 105.085 14.8526C104.738 14.9009 104.219 15.1315 103.901 15.2334V15.2763L103.912 15.2817ZM111.445 9.89635L109.346 24.4379V24.6631C107.76 25.0172 106.129 25.1137 104.509 24.9421C103.951 24.867 103.7 24.69 103.884 23.88C101.622 24.7972 99.1649 25.1781 96.7189 24.9903C95.2948 25.0064 93.8875 24.7221 92.5975 24.1536C91.5252 23.6494 90.4474 22.6785 90.6038 21.4234C90.6038 21.4234 91.2684 17.3307 91.2628 17.3307C91.2851 17.1161 91.3298 16.907 91.3968 16.7031C91.4359 16.5851 91.4806 16.4671 91.542 16.3545C91.6034 16.2365 91.6704 16.1238 91.7486 16.0112C91.8101 15.9254 91.8715 15.8449 91.9441 15.7644C92.2847 15.3622 92.6868 15.0135 93.1392 14.7346C93.9601 14.225 94.8592 13.8549 95.8086 13.635C97.4505 13.1576 100.874 13.3775 102.599 13.3292C103.459 13.3507 104.297 13.0879 104.978 12.5944C105.213 12.4281 105.397 12.2082 105.515 11.9507C105.621 11.5699 105.704 11.1837 105.76 10.7921C105.783 10.599 105.76 10.4006 105.693 10.2182C105.626 10.0358 105.526 9.86417 105.386 9.71934C104.47 8.71093 102.683 8.9684 101.438 8.94158C100.935 8.94158 100.433 9.0274 99.9635 9.19904C98.6679 9.60134 98.841 10.6097 97.5398 10.481H92.8488V10.3576C92.8655 10.127 92.9046 9.89635 92.9716 9.67643C93.3123 8.86112 93.9378 8.1799 94.7419 7.74543C96.3894 6.79602 98.2881 6.30791 100.215 6.34009C102.03 6.39909 106.397 6.1309 108.095 6.64047C108.793 6.81211 109.457 7.08567 110.066 7.46114C110.77 7.86344 111.283 8.50174 111.501 9.25805C111.512 9.46188 111.49 9.6657 111.434 9.8588V9.90171L111.445 9.89635ZM230.843 15.2871C230.441 15.4265 230.022 15.5338 229.603 15.6196C227.593 16.1024 224.454 15.212 223.605 17.556C223.605 17.8885 223.125 20.7475 223.226 21.0157C223.522 22.0724 224.868 22.3781 225.878 22.3781H228.743C229.24 22.3352 229.726 22.2065 230.178 21.9866C230.452 21.8632 230.692 21.6862 230.893 21.477C231.083 21.2732 231.206 21.0157 231.251 20.7475C231.307 20.3667 232.027 15.035 232.055 14.858C231.675 14.9009 231.15 15.1369 230.843 15.2388V15.2817V15.2871ZM238.377 9.89635L236.294 24.3949V24.6256C234.708 24.9743 233.077 25.0708 231.457 24.9045C230.893 24.8294 230.642 24.6524 230.826 23.8425C228.565 24.7543 226.107 25.1298 223.661 24.9474C222.237 24.9689 220.83 24.6846 219.534 24.116C218.462 23.6065 217.384 22.641 217.552 21.3858L218.211 17.2932C218.239 17.0786 218.289 16.8694 218.356 16.6656C218.389 16.5476 218.44 16.4296 218.501 16.3169C218.563 16.1989 218.63 16.0809 218.708 15.9683L218.903 15.7162C219.25 15.3192 219.652 14.976 220.098 14.6863C220.919 14.1767 221.824 13.8066 222.779 13.5813C224.421 13.1093 227.844 13.3239 229.57 13.281C230.424 13.2917 231.262 13.0342 231.949 12.5461C232.172 12.3745 232.356 12.1545 232.479 11.9024C232.591 11.5216 232.675 11.13 232.725 10.7331C232.747 10.54 232.725 10.3416 232.658 10.1592C232.591 9.97681 232.485 9.80516 232.345 9.66034C231.435 8.65729 229.654 8.90939 228.408 8.88257C227.906 8.88257 227.403 8.97376 226.934 9.15077C225.638 9.5477 225.811 10.5561 224.505 10.4274H219.819V10.304C219.841 10.0734 219.881 9.84808 219.942 9.62279C220.283 8.80748 220.908 8.1209 221.712 7.69179C223.36 6.73702 225.258 6.2489 227.185 6.28109C228.989 6.35082 233.367 6.0719 235.065 6.58683C235.763 6.75311 236.428 7.03203 237.036 7.4075C237.623 7.75616 238.086 8.27109 238.36 8.87721C238.405 8.98449 238.438 9.09177 238.455 9.20441C238.472 9.42433 238.455 9.64425 238.388 9.8588V9.90171L238.377 9.89635ZM81.2441 8.8933C79.5911 8.8933 77.1394 8.73775 76.7374 10.6527L75.2239 20.608C75.2016 20.7421 75.2016 20.8816 75.2239 21.0157C75.2686 21.2088 75.358 21.3912 75.4808 21.5467C75.6037 21.7076 75.76 21.8364 75.9388 21.9329C76.5084 22.2387 77.1562 22.3889 77.8096 22.362C79.0996 22.362 80.7973 22.5337 81.864 21.6808C82.0873 21.5253 82.2661 21.3161 82.3889 21.0801C82.4448 20.9567 82.4894 20.8226 82.5174 20.6885L84.0308 10.7063V10.6312C84.1592 9.19368 82.3777 8.84503 81.2441 8.84503V8.88794V8.8933ZM85.0974 6.36155C86.058 6.46882 86.9962 6.73702 87.8562 7.16077C88.141 7.31095 88.4091 7.4826 88.666 7.67034C88.8838 7.83662 89.0792 8.02972 89.2523 8.24427C89.4869 8.52856 89.6488 8.85576 89.7326 9.20441C89.9616 9.4136 88.0516 21.2732 87.9902 21.6594C87.9344 21.831 87.8618 21.9973 87.7724 22.1582C86.851 23.6386 85.2203 24.2662 83.5673 24.69C81.0877 25.221 76.9216 25.2639 74.7995 23.8961C74.7995 24.1268 73.8836 29.8339 73.8278 30.2201C73.3084 30.4776 72.7388 30.6224 72.1524 30.6492C71.5716 30.6761 70.9853 30.5795 70.4436 30.3703C68.7961 29.6891 68.4722 28.2462 68.7012 26.503L71.6498 6.79066V6.56537C72.9343 6.37764 74.2299 6.28109 75.5255 6.28645C76.4637 6.33473 77.3684 6.28645 77.2065 7.47187C79.6078 6.14699 82.4336 6.10944 85.0863 6.31863V6.36155H85.0974ZM208.097 8.89867C206.444 8.89867 203.998 8.74311 203.59 10.658L202.077 20.6188C202.06 20.7529 202.06 20.887 202.077 21.0211C202.122 21.2142 202.211 21.3965 202.334 21.5575C202.457 21.7184 202.613 21.8525 202.792 21.949C203.361 22.2494 204.009 22.3942 204.663 22.3728C205.953 22.3728 207.656 22.5498 208.717 21.6915C208.94 21.5306 209.119 21.3268 209.242 21.0854C209.303 20.9621 209.348 20.8333 209.37 20.6939L210.884 10.7117V10.6366C211.012 9.20441 209.236 8.85576 208.097 8.85576V8.89867ZM211.951 6.36691C212.917 6.46882 213.849 6.74238 214.709 7.17149C214.994 7.31632 215.262 7.48796 215.519 7.6757C215.742 7.84734 215.938 8.04044 216.105 8.255C216.34 8.53929 216.502 8.86648 216.586 9.21514C216.815 9.42433 214.905 21.2839 214.843 21.6755C214.787 21.8471 214.715 22.008 214.626 22.1689C213.704 23.6494 212.085 24.2769 210.42 24.7007C208.985 24.9796 207.522 25.0815 206.059 25.0011C204.512 25.0386 202.987 24.6631 201.653 23.9068C201.619 24.1321 200.737 29.8393 200.681 30.2309C200.162 30.483 199.592 30.6278 199.006 30.6546C198.425 30.6814 197.838 30.5849 197.297 30.3811C195.649 29.6998 195.325 28.2677 195.554 26.5137L198.508 6.80675L198.542 6.58147C199.826 6.38837 201.122 6.29718 202.418 6.29718C203.356 6.34545 204.261 6.29718 204.099 7.49333C206.461 6.15772 209.292 6.12017 211.928 6.324L211.945 6.36691H211.951ZM244.313 24.8992C243.017 24.7811 241.778 24.3252 240.733 23.5904C240.516 23.4241 240.314 23.231 240.147 23.0164C239.912 22.7321 239.75 22.4049 239.667 22.0563C239.387 22.2065 241.013 12.3798 240.99 12.2189C241.208 10.7653 241.616 8.08335 241.828 6.62438C242.755 6.41518 243.704 6.33473 244.659 6.383C244.983 6.39909 245.301 6.45273 245.603 6.54928C245.731 6.59219 245.854 6.64047 245.977 6.69947C246.189 6.81211 246.374 6.95694 246.53 7.12858C246.614 7.21977 246.681 7.31095 246.748 7.41287C247.066 8.01362 247.15 8.70557 246.982 9.35996C246.547 13.0932 245.938 16.805 245.38 20.5169C245.553 22.8984 249.579 22.5659 251.255 22.0777C251.701 21.9276 252.103 21.6647 252.416 21.3214C252.595 21.1069 252.701 20.8441 252.723 20.5705C253.382 16.2311 254.192 10.9423 254.834 6.6512C255.761 6.442 256.711 6.36155 257.666 6.40982C257.973 6.43128 258.274 6.49028 258.559 6.58683C258.688 6.62974 258.81 6.67802 258.933 6.73702C259.14 6.84966 259.33 6.99448 259.486 7.16613C259.564 7.25732 259.637 7.35387 259.704 7.45042C260.011 8.06726 260.089 8.75921 259.927 9.42433L258.207 21.6325C258.017 23.5421 257.509 25.4034 256.705 27.1574C255.644 29.0294 253.393 29.8876 251.316 30.2899C249.724 30.66 247.507 30.4883 245.871 30.4615C245.011 30.4079 242.861 30.4615 242.04 30.2899C241.833 30.2577 241.638 30.2201 241.465 30.1826C240.555 30.0431 239.739 29.5711 239.186 28.8738C238.633 28.1765 238.382 27.2968 238.488 26.4279L243.308 26.46C244.397 26.46 243.771 26.7765 244.196 27.3665C245.329 28.375 247.775 27.8868 249.127 27.6508C250.925 27.2968 251.992 25.4516 252.221 23.7459C251.372 24.175 250.467 24.5022 249.535 24.7168C247.814 24.9903 246.061 25.0386 244.324 24.8616V24.9045L244.313 24.8992ZM189.875 6.39373C190.294 6.442 190.701 6.5171 191.109 6.62438C191.545 6.73702 191.975 6.88721 192.382 7.06958C192.6 7.16613 192.807 7.27877 193.008 7.40214C193.164 7.49869 193.309 7.6006 193.454 7.71861L193.555 7.79907C193.728 7.96535 193.89 8.13699 194.041 8.31937C194.125 8.42128 194.197 8.53929 194.27 8.6412C194.331 8.74848 194.387 8.85575 194.432 8.9684C194.476 9.07567 194.51 9.18832 194.532 9.30096C194.555 9.4136 194.571 9.52624 194.577 9.64425C193.896 14.8097 193.013 19.9536 192.271 25.1083C192.092 25.162 191.891 25.2264 191.734 25.2585C191.115 25.4087 190.472 25.4355 189.841 25.3497C189.601 25.3122 189.361 25.2585 189.126 25.1942C188.786 25.0815 188.467 24.9152 188.183 24.7007C187.965 24.5344 187.775 24.3413 187.619 24.1214C187.535 24.0088 187.462 23.8961 187.401 23.7727C187.144 23.2203 187.071 22.6034 187.183 22.008C187.736 18.2962 188.294 14.5844 188.858 10.8726C188.858 10.8565 188.858 10.8458 188.858 10.8297C188.875 10.7009 188.875 10.5722 188.858 10.4488C188.797 10.1914 188.663 9.96072 188.479 9.76762C188.278 9.55306 188.032 9.38142 187.764 9.26341C187.607 9.18832 187.446 9.13468 187.278 9.09177C186.608 8.95767 185.915 8.94158 185.234 9.04886C184.899 9.10786 184.575 9.20441 184.262 9.32778C183.86 9.48869 183.508 9.75152 183.252 10.0841C182.118 14.9545 181.76 20.0717 180.912 25.0333H175.316C176.031 20.313 176.706 15.5982 177.421 10.8833C177.438 10.7546 177.438 10.6258 177.421 10.4917C177.399 10.363 177.36 10.2396 177.298 10.1216C177.17 9.88026 176.974 9.67107 176.74 9.51551C176.623 9.42969 176.489 9.3546 176.355 9.29559C175.891 9.09713 175.388 9.00058 174.88 9.01131C174.339 8.94694 173.791 9.00058 173.277 9.16686C172.764 9.33314 172.289 9.6067 171.898 9.96608C170.647 14.8097 170.468 20.0019 169.547 24.9796H163.773C164.7 18.854 165.621 12.7285 166.537 6.60292C168 6.43128 169.48 6.39373 170.949 6.47955C171.613 6.53855 172.144 6.73702 172.323 7.41287C172.786 7.18222 173.266 6.98376 173.752 6.81211C174.098 6.69411 174.456 6.59756 174.813 6.52783C176.098 6.25963 177.421 6.22208 178.717 6.40982C178.951 6.442 179.197 6.49028 179.432 6.54392C179.666 6.59756 179.895 6.67265 180.113 6.74775C180.331 6.82284 180.543 6.9033 180.738 6.98912C181.397 7.27877 182.001 7.68106 182.509 8.17454C183.598 7.35387 184.871 6.79066 186.228 6.52246C186.993 6.36691 187.775 6.28645 188.557 6.29181C189.004 6.28645 189.45 6.30254 189.897 6.35082L189.875 6.39373ZM158.222 6.39373C158.931 6.27036 159.651 6.22745 160.372 6.27572C160.679 6.30254 160.975 6.36155 161.265 6.45273C161.394 6.49564 161.516 6.54392 161.639 6.60828C161.852 6.71556 162.036 6.85502 162.192 7.03203C162.27 7.12322 162.343 7.21977 162.404 7.31632C162.466 7.4236 162.522 7.53624 162.572 7.64888C163.108 8.95231 161.717 15.0242 161.65 16.4832L160.461 24.7061L160.416 24.9635H154.787L154.837 24.6202L156.211 15.3997L157.512 6.71556V6.50637L158.222 6.383V6.39373ZM130.288 22.6678C127.534 25.6823 122.157 24.9206 118.426 25.0064C115.941 25.0064 111.836 24.0517 112.4 20.9782C112.4 20.8065 112.657 19.2456 112.663 19.1222H117.242C118.588 19.1222 118.208 19.5031 118.052 20.6188C117.918 21.9383 119.599 22.3996 120.716 22.3781C122.006 22.3781 123.731 22.5551 124.804 21.6969C125.021 21.536 125.2 21.3322 125.329 21.0962C125.485 20.9191 125.814 18.264 125.881 17.9958V17.9636C125.725 15.4802 121.347 16.3652 119.655 16.2097C118.292 16.2365 116.941 15.9683 115.701 15.4265C114.629 14.9009 113.551 13.9032 113.696 12.6963C113.696 12.648 113.942 10.068 113.942 10.0197C114.031 9.61206 114.204 9.2205 114.45 8.87721C114.696 8.53392 115.008 8.23354 115.377 8.00826C117.108 6.85502 119.174 6.25963 121.285 6.30791C123.955 6.40446 128.093 5.84125 130.41 7.38069C130.567 7.47724 130.723 7.58451 130.863 7.68643C131.192 7.93853 131.472 8.24427 131.689 8.59292C131.879 8.87721 131.985 9.20441 132.002 9.54233C132.019 9.88026 131.946 10.2128 131.79 10.5186H127.171C126.2 10.5186 126.418 10.4113 125.976 9.75689C125.692 9.45651 125.345 9.2205 124.949 9.07567C124.558 8.92549 124.133 8.86648 123.709 8.89867C122.413 8.85576 120.799 8.89867 119.912 9.92853C119.504 10.2343 119.476 11.2481 119.387 11.6933C119.186 12.9645 120.42 13.34 121.989 13.3131C123.916 13.3561 126.859 13.1093 128.674 13.7852L128.88 13.8603C129.874 14.1767 130.723 14.7989 131.304 15.625C132.019 16.5315 131.008 20.1897 130.969 21.359C130.852 21.8256 130.623 22.2601 130.288 22.6195V22.6678Z" fill="#000099"/>
<path fill-rule="evenodd" clip-rule="evenodd" d="M163.393 3.73863H157.803L158.361 0H163.935L163.393 3.73863Z" fill="#FF6600"/>
<path d="M70.5609 36.4692H73.9061V37.7566H70.6559C70.4883 37.7566 70.3599 37.7995 70.2706 37.8853C70.1812 37.9711 70.1365 38.0784 70.1365 38.2018C70.1365 38.3091 70.17 38.4056 70.2426 38.4914C70.3152 38.5772 70.4157 38.6362 70.5442 38.6684L72.8618 39.1887C73.3421 39.296 73.705 39.5106 73.9564 39.8324C74.2077 40.1489 74.3361 40.5083 74.3361 40.9052C74.3361 41.3987 74.163 41.8224 73.8112 42.1818C73.4705 42.5358 72.9902 42.7128 72.3759 42.7128H68.8912V41.4201H72.3257C72.4876 41.4201 72.6161 41.3718 72.711 41.2699C72.8171 41.168 72.8674 41.0554 72.8674 40.9266C72.8674 40.6745 72.7222 40.5136 72.4318 40.4492L70.103 39.9182C69.6283 39.8056 69.2709 39.5964 69.014 39.2853C68.7627 38.9688 68.6343 38.6148 68.6343 38.234C68.6343 37.7566 68.8018 37.3436 69.1369 36.9949C69.4775 36.6462 69.9522 36.4746 70.5554 36.4746L70.5609 36.4692Z" fill="#1A75E2"/>
<path d="M75.3301 42.7128V36.4692H76.7095V42.7128H75.3301Z" fill="#1A75E2"/>
<path d="M85.4326 36.4692V42.7128H84.0532V38.4271L82.1991 42.7128H81.3168L79.4739 38.4432V42.7128H78.0945V36.4692H80.0044L81.7691 40.6263L83.5338 36.4692H85.427H85.4326Z" fill="#1A75E2"/>
<path d="M90.079 36.4692C90.7212 36.4692 91.2573 36.6731 91.6873 37.0861C92.1229 37.4884 92.3351 37.9979 92.3351 38.6148C92.3351 39.2316 92.1173 39.7573 91.6762 40.1596C91.2406 40.5565 90.71 40.755 90.0734 40.755H88.1914V42.7128H86.812V36.4692H90.0734H90.079ZM88.197 39.4998H89.9729C90.2521 39.4998 90.4811 39.4194 90.6598 39.2585C90.8496 39.0975 90.939 38.883 90.939 38.6148C90.939 38.3681 90.8441 38.1589 90.6598 37.9979C90.4755 37.837 90.2409 37.7566 89.9729 37.7566H88.197V39.4998Z" fill="#1A75E2"/>
<path d="M93.2622 42.7128V36.4692H94.6472V41.4201H97.9867V42.7128H93.2622Z" fill="#1A75E2"/>
<path d="M103.823 42.7128H98.8467V36.4692H103.823V37.7566H100.22V38.9205H103.404V40.1489H100.22V41.4255H103.823V42.7128Z" fill="#1A75E2"/>
<path d="M105.28 41.3125H106.687L105.738 43.9944H104.565L105.286 41.3125H105.28Z" fill="#1A75E2"/>
<path d="M114.913 40.1862H116.338C116.231 40.9586 115.88 41.5916 115.282 42.0958C114.684 42.5946 113.942 42.8413 113.048 42.8413C112.054 42.8413 111.244 42.5302 110.625 41.908C110.005 41.2805 109.692 40.5081 109.692 39.5962C109.692 38.6843 110.005 37.9012 110.625 37.2736C111.244 36.6407 112.054 36.3242 113.048 36.3242C113.914 36.3242 114.645 36.571 115.243 37.0591C115.846 37.5525 116.203 38.1694 116.321 38.9203H114.886C114.774 38.5288 114.556 38.2177 114.227 37.9817C113.903 37.7403 113.506 37.6223 113.043 37.6276C112.462 37.633 111.993 37.8261 111.635 38.2069C111.278 38.5771 111.099 39.0383 111.099 39.5855C111.099 40.1326 111.278 40.5939 111.635 40.9747C111.993 41.3555 112.467 41.5433 113.059 41.5433C113.534 41.5433 113.931 41.4199 114.26 41.1732C114.595 40.9264 114.813 40.5939 114.908 40.1862H114.913Z" fill="#1A75E2"/>
<path d="M122.922 41.908C122.296 42.5302 121.47 42.8413 120.448 42.8413C119.426 42.8413 118.599 42.5302 117.963 41.908C117.337 41.2805 117.019 40.5081 117.019 39.5962C117.019 38.6843 117.337 37.9119 117.968 37.2736C118.605 36.6407 119.426 36.3242 120.442 36.3242C121.459 36.3242 122.285 36.6407 122.916 37.2736C123.553 37.9066 123.865 38.679 123.865 39.5962C123.865 40.5134 123.547 41.2805 122.916 41.908H122.922ZM118.985 40.9747C119.353 41.3555 119.839 41.5433 120.448 41.5433C121.056 41.5433 121.542 41.3555 121.911 40.9747C122.279 40.5939 122.464 40.1326 122.464 39.5855C122.464 39.0383 122.279 38.5771 121.911 38.1962C121.542 37.8154 121.056 37.6276 120.448 37.6276C119.839 37.6276 119.353 37.8154 118.985 38.1962C118.616 38.5771 118.432 39.0383 118.432 39.5855C118.432 40.1326 118.616 40.5885 118.985 40.9747Z" fill="#1A75E2"/>
<path d="M129.584 40.5673V36.4692H130.963V42.7128H129.584L126.256 38.3627V42.7128H124.876V36.4692H126.445L129.578 40.5673H129.584Z" fill="#1A75E2"/>
<path d="M135.113 41.0822L137.073 36.4692H138.547L135.839 42.7128H134.336L131.639 36.4692H133.136L135.113 41.0822Z" fill="#1A75E2"/>
<path d="M144.137 42.7128H139.162V36.4692H144.137V37.7566H140.535V38.9205H143.719V40.1489H140.535V41.4255H144.137V42.7128Z" fill="#1A75E2"/>
<path d="M149.99 40.5673V36.4692H151.369V42.7128H149.99L146.662 38.3627V42.7128H145.282V36.4692H146.851L149.984 40.5673H149.99Z" fill="#1A75E2"/>
<path d="M152.749 42.7128V36.4692H154.128V42.7128H152.749Z" fill="#1A75E2"/>
<path d="M160.495 42.7128H155.519V36.4692H160.495V37.7566H156.893V38.9205H160.076V40.1489H156.893V41.4255H160.495V42.7128Z" fill="#1A75E2"/>
<path d="M166.347 40.5673V36.4692H167.727V42.7128H166.347L163.019 38.3627V42.7128H161.639V36.4692H163.209L166.342 40.5673H166.347Z" fill="#1A75E2"/>
<path d="M168.609 36.4692H174.355V37.7566H172.172V42.7128H170.787V37.7566H168.614V36.4692H168.609Z" fill="#1A75E2"/>
<path d="M174.54 41.3125H175.947L174.998 43.9944H173.825L174.545 41.3125H174.54Z" fill="#1A75E2"/>
<path d="M180.85 42.7128H179.471V36.4692H182.799C183.469 36.4692 184.011 36.6194 184.419 36.9252C184.832 37.2309 185.039 37.66 185.039 38.2125C185.039 38.765 184.827 39.2263 184.397 39.5267V39.5535C184.927 39.6822 185.19 40.0738 185.19 40.7174V42.7128H183.81V40.9588C183.81 40.7121 183.676 40.5887 183.402 40.5887H180.839V42.7128H180.85ZM180.85 37.7566V39.3872H182.693C182.984 39.3872 183.218 39.3175 183.391 39.1726C183.57 39.0225 183.665 38.824 183.665 38.5665C183.665 38.3091 183.576 38.1213 183.391 37.9819C183.213 37.8317 182.978 37.7566 182.704 37.7566H180.85Z" fill="#1A75E2"/>
<path d="M191.377 42.7128H186.401V36.4692H191.377V37.7566H187.775V38.9205H190.958V40.1489H187.775V41.4255H191.377V42.7128Z" fill="#1A75E2"/>
<path d="M192.528 42.7128V36.4692H193.913V41.4201H197.252V42.7128H192.528Z" fill="#1A75E2"/>
<path d="M198.106 42.7128V36.4692H199.486V42.7128H198.106Z" fill="#1A75E2"/>
<path d="M207.103 42.7128H205.54L204.998 41.3879H202.273L201.737 42.7128H200.223L202.893 36.4692H204.423L207.103 42.7128ZM203.63 38.0623L202.747 40.224H204.512L203.63 38.0623Z" fill="#1A75E2"/>
<path d="M212.28 39.4248V39.473C212.582 39.5857 212.828 39.7627 213.017 40.0148C213.207 40.2615 213.297 40.5673 213.297 40.9213C213.297 41.4362 213.107 41.8653 212.721 42.2086C212.347 42.5519 211.878 42.7235 211.325 42.7235H207.785V36.48H211.208C211.75 36.48 212.202 36.6355 212.565 36.9466C212.928 37.2524 213.107 37.6493 213.107 38.1374C213.107 38.4163 213.034 38.6738 212.883 38.8991C212.733 39.1297 212.532 39.3068 212.275 39.4301L212.28 39.4248ZM210.99 37.6815H209.164V38.9956H210.979C211.191 38.9956 211.364 38.9313 211.504 38.8025C211.638 38.6738 211.705 38.5183 211.705 38.3359C211.705 38.1535 211.638 38.0033 211.504 37.88C211.37 37.7512 211.197 37.6869 210.99 37.6869V37.6815ZM209.164 41.5113H211.135C211.353 41.5113 211.537 41.4416 211.677 41.3075C211.817 41.1627 211.889 40.9964 211.889 40.8033C211.889 40.6102 211.817 40.46 211.666 40.3259C211.526 40.1972 211.342 40.1328 211.113 40.1328H209.164V41.5113Z" fill="#1A75E2"/>
<path d="M214.335 42.7128V36.4692H215.72V41.4201H219.06V42.7128H214.335Z" fill="#1A75E2"/>
<path d="M224.896 42.7128H219.92V36.4692H224.896V37.7566H221.293V38.9205H224.477V40.1489H221.293V41.4255H224.896V42.7128Z" fill="#1A75E2"/>
</g>
<defs>
<clipPath id="clip0_0_1358">
<rect width="260" height="44" fill="white"/>
</clipPath>
</defs>
</svg>
